G04 #@! TF.GenerationSoftware,KiCad,Pcbnew,8.0.1*
G04 #@! TF.CreationDate,2024-09-18T22:43:32-06:00*
G04 #@! TF.ProjectId,semg,73656d67-2e6b-4696-9361-645f70636258,rev?*
G04 #@! TF.SameCoordinates,Original*
G04 #@! TF.FileFunction,Copper,L1,Top*
G04 #@! TF.FilePolarity,Positive*
%FSLAX46Y46*%
G04 Gerber Fmt 4.6, Leading zero omitted, Abs format (unit mm)*
G04 Created by KiCad (PCBNEW 8.0.1) date 2024-09-18 22:43:32*
%MOMM*%
%LPD*%
G01*
G04 APERTURE LIST*
G04 Aperture macros list*
%AMRoundRect*
0 Rectangle with rounded corners*
0 $1 Rounding radius*
0 $2 $3 $4 $5 $6 $7 $8 $9 X,Y pos of 4 corners*
0 Add a 4 corners polygon primitive as box body*
4,1,4,$2,$3,$4,$5,$6,$7,$8,$9,$2,$3,0*
0 Add four circle primitives for the rounded corners*
1,1,$1+$1,$2,$3*
1,1,$1+$1,$4,$5*
1,1,$1+$1,$6,$7*
1,1,$1+$1,$8,$9*
0 Add four rect primitives between the rounded corners*
20,1,$1+$1,$2,$3,$4,$5,0*
20,1,$1+$1,$4,$5,$6,$7,0*
20,1,$1+$1,$6,$7,$8,$9,0*
20,1,$1+$1,$8,$9,$2,$3,0*%
G04 Aperture macros list end*
G04 #@! TA.AperFunction,EtchedComponent*
%ADD10C,0.000000*%
G04 #@! TD*
G04 #@! TA.AperFunction,SMDPad,CuDef*
%ADD11RoundRect,0.050000X-0.050000X0.300000X-0.050000X-0.300000X0.050000X-0.300000X0.050000X0.300000X0*%
G04 #@! TD*
G04 #@! TA.AperFunction,SMDPad,CuDef*
%ADD12RoundRect,0.050000X-0.300000X0.050000X-0.300000X-0.050000X0.300000X-0.050000X0.300000X0.050000X0*%
G04 #@! TD*
G04 #@! TA.AperFunction,HeatsinkPad*
%ADD13R,2.900000X2.900000*%
G04 #@! TD*
G04 #@! TA.AperFunction,SMDPad,CuDef*
%ADD14RoundRect,0.150000X-0.700000X0.150000X-0.700000X-0.150000X0.700000X-0.150000X0.700000X0.150000X0*%
G04 #@! TD*
G04 #@! TA.AperFunction,SMDPad,CuDef*
%ADD15RoundRect,0.250000X-1.100000X0.250000X-1.100000X-0.250000X1.100000X-0.250000X1.100000X0.250000X0*%
G04 #@! TD*
G04 #@! TA.AperFunction,SMDPad,CuDef*
%ADD16RoundRect,0.225000X0.250000X-0.225000X0.250000X0.225000X-0.250000X0.225000X-0.250000X-0.225000X0*%
G04 #@! TD*
G04 #@! TA.AperFunction,SMDPad,CuDef*
%ADD17RoundRect,0.250000X-0.350000X-0.450000X0.350000X-0.450000X0.350000X0.450000X-0.350000X0.450000X0*%
G04 #@! TD*
G04 #@! TA.AperFunction,SMDPad,CuDef*
%ADD18RoundRect,0.200000X-0.275000X0.200000X-0.275000X-0.200000X0.275000X-0.200000X0.275000X0.200000X0*%
G04 #@! TD*
G04 #@! TA.AperFunction,SMDPad,CuDef*
%ADD19RoundRect,0.150000X0.512500X0.150000X-0.512500X0.150000X-0.512500X-0.150000X0.512500X-0.150000X0*%
G04 #@! TD*
G04 #@! TA.AperFunction,SMDPad,CuDef*
%ADD20RoundRect,0.250000X-0.475000X0.250000X-0.475000X-0.250000X0.475000X-0.250000X0.475000X0.250000X0*%
G04 #@! TD*
G04 #@! TA.AperFunction,SMDPad,CuDef*
%ADD21RoundRect,0.250000X-0.250000X-0.475000X0.250000X-0.475000X0.250000X0.475000X-0.250000X0.475000X0*%
G04 #@! TD*
G04 #@! TA.AperFunction,SMDPad,CuDef*
%ADD22RoundRect,0.200000X0.275000X-0.200000X0.275000X0.200000X-0.275000X0.200000X-0.275000X-0.200000X0*%
G04 #@! TD*
G04 #@! TA.AperFunction,SMDPad,CuDef*
%ADD23RoundRect,0.150000X0.700000X-0.150000X0.700000X0.150000X-0.700000X0.150000X-0.700000X-0.150000X0*%
G04 #@! TD*
G04 #@! TA.AperFunction,SMDPad,CuDef*
%ADD24RoundRect,0.250000X1.100000X-0.250000X1.100000X0.250000X-1.100000X0.250000X-1.100000X-0.250000X0*%
G04 #@! TD*
G04 #@! TA.AperFunction,ComponentPad*
%ADD25R,2.000000X2.000000*%
G04 #@! TD*
G04 #@! TA.AperFunction,ComponentPad*
%ADD26O,2.000000X2.000000*%
G04 #@! TD*
G04 #@! TA.AperFunction,SMDPad,CuDef*
%ADD27RoundRect,0.250000X0.250000X0.475000X-0.250000X0.475000X-0.250000X-0.475000X0.250000X-0.475000X0*%
G04 #@! TD*
G04 #@! TA.AperFunction,SMDPad,CuDef*
%ADD28RoundRect,0.225000X-0.250000X0.225000X-0.250000X-0.225000X0.250000X-0.225000X0.250000X0.225000X0*%
G04 #@! TD*
G04 #@! TA.AperFunction,SMDPad,CuDef*
%ADD29RoundRect,0.250000X-0.650000X0.325000X-0.650000X-0.325000X0.650000X-0.325000X0.650000X0.325000X0*%
G04 #@! TD*
G04 #@! TA.AperFunction,ComponentPad*
%ADD30C,0.600000*%
G04 #@! TD*
G04 #@! TA.AperFunction,SMDPad,CuDef*
%ADD31RoundRect,0.250000X0.350000X0.450000X-0.350000X0.450000X-0.350000X-0.450000X0.350000X-0.450000X0*%
G04 #@! TD*
G04 #@! TA.AperFunction,ComponentPad*
%ADD32R,1.000000X1.000000*%
G04 #@! TD*
G04 #@! TA.AperFunction,ComponentPad*
%ADD33O,1.000000X1.000000*%
G04 #@! TD*
G04 #@! TA.AperFunction,SMDPad,CuDef*
%ADD34RoundRect,0.250000X0.650000X-0.325000X0.650000X0.325000X-0.650000X0.325000X-0.650000X-0.325000X0*%
G04 #@! TD*
G04 #@! TA.AperFunction,ViaPad*
%ADD35C,0.600000*%
G04 #@! TD*
G04 #@! TA.AperFunction,Conductor*
%ADD36C,0.100000*%
G04 #@! TD*
G04 #@! TA.AperFunction,Conductor*
%ADD37C,0.600000*%
G04 #@! TD*
G04 #@! TA.AperFunction,Conductor*
%ADD38C,0.500000*%
G04 #@! TD*
G04 #@! TA.AperFunction,Conductor*
%ADD39C,0.200000*%
G04 #@! TD*
G04 #@! TA.AperFunction,Conductor*
%ADD40C,0.180000*%
G04 #@! TD*
G04 APERTURE END LIST*
D10*
G04 #@! TA.AperFunction,EtchedComponent*
G36*
X63200000Y-31350000D02*
G01*
X62000000Y-31350000D01*
X62000000Y-30750000D01*
X63200000Y-30750000D01*
X63200000Y-31350000D01*
G37*
G04 #@! TD.AperFunction*
G04 #@! TA.AperFunction,EtchedComponent*
G36*
X63400000Y-43050000D02*
G01*
X62200000Y-43050000D01*
X62200000Y-42450000D01*
X63400000Y-42450000D01*
X63400000Y-43050000D01*
G37*
G04 #@! TD.AperFunction*
D11*
X67750000Y-31497500D03*
X67350000Y-31497500D03*
X66950000Y-31497500D03*
X66550000Y-31497500D03*
X66150000Y-31497500D03*
X65750000Y-31497500D03*
X65350000Y-31497500D03*
X64950000Y-31497500D03*
D12*
X64350000Y-32097500D03*
X64350000Y-32497500D03*
X64350000Y-32897500D03*
X64350000Y-33297500D03*
X64350000Y-33697500D03*
X64350000Y-34097500D03*
X64350000Y-34497500D03*
X64350000Y-34897500D03*
D11*
X64950000Y-35497500D03*
X65350000Y-35497500D03*
X65750000Y-35497500D03*
X66150000Y-35497500D03*
X66550000Y-35497500D03*
X66950000Y-35497500D03*
X67350000Y-35497500D03*
X67750000Y-35497500D03*
D12*
X68350000Y-34897500D03*
X68350000Y-34497500D03*
X68350000Y-34097500D03*
X68350000Y-33697500D03*
X68350000Y-33297500D03*
X68350000Y-32897500D03*
X68350000Y-32497500D03*
X68350000Y-32097500D03*
D13*
X66350000Y-33497500D03*
D14*
X59200000Y-43550000D03*
X59200000Y-44800000D03*
X59200000Y-46050000D03*
X59200000Y-47300000D03*
X59200000Y-48550000D03*
D15*
X56000000Y-41700000D03*
X56000000Y-50400000D03*
D16*
X71350000Y-36225000D03*
X71350000Y-34675000D03*
D17*
X63350000Y-22850000D03*
X65350000Y-22850000D03*
D18*
X69850000Y-30275000D03*
X69850000Y-31925000D03*
D19*
X67075000Y-46600000D03*
X67075000Y-45650000D03*
X67075000Y-44700000D03*
X64800000Y-44700000D03*
X64800000Y-46600000D03*
D20*
X63650000Y-39250000D03*
X63650000Y-41150000D03*
D17*
X63350000Y-24950000D03*
X65350000Y-24950000D03*
D21*
X67300000Y-27250000D03*
X69200000Y-27250000D03*
D18*
X70750000Y-44550000D03*
X70750000Y-46200000D03*
D22*
X71350000Y-30275000D03*
X71350000Y-28625000D03*
D23*
X73550000Y-48550000D03*
X73550000Y-47300000D03*
X73550000Y-46050000D03*
X73550000Y-44800000D03*
X73550000Y-43550000D03*
D24*
X76750000Y-50400000D03*
X76750000Y-41700000D03*
D20*
X62750000Y-44750000D03*
X62750000Y-46650000D03*
D25*
X75250000Y-17050000D03*
D26*
X72710000Y-17050000D03*
D25*
X70170000Y-17050000D03*
D26*
X67630000Y-17050000D03*
D25*
X65090000Y-17050000D03*
D26*
X62550000Y-17050000D03*
D25*
X60010000Y-17050000D03*
D26*
X57470000Y-17050000D03*
D18*
X69250000Y-44550000D03*
X69250000Y-46200000D03*
D23*
X73550000Y-26925000D03*
X73550000Y-25675000D03*
X73550000Y-24425000D03*
X73550000Y-23175000D03*
D24*
X76750000Y-28775000D03*
X76750000Y-21325000D03*
D21*
X63500000Y-27250000D03*
X65400000Y-27250000D03*
D14*
X59200000Y-33375000D03*
X59200000Y-34625000D03*
X59200000Y-35875000D03*
X59200000Y-37125000D03*
D15*
X56000000Y-31525000D03*
X56000000Y-38975000D03*
D27*
X65400000Y-20750000D03*
X63500000Y-20750000D03*
X69200000Y-20750000D03*
X67300000Y-20750000D03*
D28*
X61350000Y-34425000D03*
X61350000Y-35975000D03*
D20*
X61650000Y-39250000D03*
X61650000Y-41150000D03*
D21*
X65400000Y-42750000D03*
X67300000Y-42750000D03*
D29*
X69300000Y-37025000D03*
X69300000Y-39975000D03*
D14*
X59200000Y-23175000D03*
X59200000Y-24425000D03*
X59200000Y-25675000D03*
X59200000Y-26925000D03*
D15*
X56000000Y-21325000D03*
X56000000Y-28775000D03*
D30*
X63200000Y-31050000D03*
X62000000Y-31050000D03*
D31*
X69350000Y-24950000D03*
X67350000Y-24950000D03*
D32*
X70810000Y-49875000D03*
D33*
X70810000Y-51145000D03*
X69540000Y-49875000D03*
X69540000Y-51145000D03*
X68270000Y-49875000D03*
X68270000Y-51145000D03*
X67000000Y-49875000D03*
X67000000Y-51145000D03*
X65730000Y-49875000D03*
X65730000Y-51145000D03*
X64460000Y-49875000D03*
X64460000Y-51145000D03*
X63190000Y-49875000D03*
X63190000Y-51145000D03*
X61920000Y-49875000D03*
X61920000Y-51145000D03*
D23*
X73600000Y-37125000D03*
X73600000Y-35875000D03*
X73600000Y-34625000D03*
X73600000Y-33375000D03*
D24*
X76800000Y-38975000D03*
X76800000Y-31525000D03*
D18*
X71350000Y-31625000D03*
X71350000Y-33275000D03*
X62900000Y-34375000D03*
X62900000Y-36025000D03*
D27*
X67300000Y-40050000D03*
X65400000Y-40050000D03*
D30*
X63400000Y-42750000D03*
X62200000Y-42750000D03*
D31*
X69350000Y-22850000D03*
X67350000Y-22850000D03*
D34*
X62150000Y-32425000D03*
X62150000Y-29475000D03*
D35*
X74900000Y-47300000D03*
X76300000Y-47250000D03*
X57850000Y-47300000D03*
X61350000Y-37250000D03*
X61350000Y-35025000D03*
X76750000Y-41700000D03*
X76750000Y-50400000D03*
X57850000Y-48550000D03*
X65400000Y-40130000D03*
X76750000Y-21325000D03*
X56392881Y-41700000D03*
X62900000Y-36050000D03*
X74900000Y-48450000D03*
X56000000Y-50400000D03*
X66450000Y-33250000D03*
X62150000Y-29475000D03*
X57450000Y-28775000D03*
X69300000Y-39975000D03*
X75350000Y-28750000D03*
X70347195Y-43661708D03*
X56000000Y-21325000D03*
X67000000Y-44650000D03*
X57850000Y-43550000D03*
X74900000Y-43550000D03*
X62450000Y-20750000D03*
X70150000Y-20750000D03*
X74900000Y-23175000D03*
X57850000Y-23175000D03*
X65450000Y-36740000D03*
X64739256Y-37107217D03*
X74900000Y-24425000D03*
X57850000Y-24425000D03*
X65888687Y-37408998D03*
X66789081Y-37426403D03*
X57850000Y-25675000D03*
X74900000Y-25675000D03*
X57850000Y-44800000D03*
X74900000Y-44800000D03*
X63302031Y-37700000D03*
X64100000Y-37600000D03*
X74900000Y-46050000D03*
X57850000Y-46050000D03*
X70450000Y-22850000D03*
X62250000Y-22850000D03*
X70450000Y-24950000D03*
X62250000Y-24950000D03*
X70150000Y-38250000D03*
X70173483Y-42880793D03*
X68650000Y-35464579D03*
X71050000Y-38250000D03*
X71050000Y-41750000D03*
X69250000Y-34850000D03*
X74900000Y-26925000D03*
X67200000Y-36740000D03*
X57850000Y-26925000D03*
X62492303Y-36912319D03*
X74950000Y-37125000D03*
X57850000Y-37125000D03*
X62700000Y-44750000D03*
X63800000Y-40750000D03*
X61350000Y-35975000D03*
X61650000Y-40750000D03*
X57850000Y-33375000D03*
X57850000Y-34625000D03*
X57850000Y-35875000D03*
X77550000Y-24850000D03*
X72200001Y-26960000D03*
X74950000Y-35875000D03*
X74950000Y-33375000D03*
X74950000Y-34625000D03*
D36*
X72500000Y-33000000D02*
X72850000Y-32650000D01*
X71350000Y-33275000D02*
X70927500Y-33697500D01*
X76100000Y-37610966D02*
X74950000Y-38760966D01*
X71350000Y-36225000D02*
X72500000Y-35075000D01*
X74950000Y-38760966D02*
X74950000Y-41450000D01*
X70625000Y-34822500D02*
X69500000Y-33697500D01*
X74950000Y-41450000D02*
X74950000Y-41973654D01*
X69500000Y-33697500D02*
X68345000Y-33697500D01*
X74950000Y-32650000D02*
X75002818Y-32650000D01*
X76300000Y-43323654D02*
X76300000Y-47250000D01*
D37*
X73550000Y-47300000D02*
X74900000Y-47300000D01*
D36*
X75002818Y-32650000D02*
X76100000Y-33747182D01*
X70927500Y-33697500D02*
X69500000Y-33697500D01*
X71350000Y-36225000D02*
X70625000Y-35500000D01*
X76100000Y-33747182D02*
X76100000Y-37610966D01*
X72850000Y-32650000D02*
X74950000Y-32650000D01*
D37*
X59200000Y-47300000D02*
X57850000Y-47300000D01*
D36*
X70625000Y-35500000D02*
X70625000Y-34822500D01*
X72500000Y-35075000D02*
X72500000Y-33000000D01*
X74950000Y-41973654D02*
X76300000Y-43323654D01*
X69850000Y-30275000D02*
X71350000Y-30275000D01*
X68345000Y-32897500D02*
X68763208Y-32897500D01*
X72075000Y-33950000D02*
X71350000Y-34675000D01*
X71350000Y-31625000D02*
X72075000Y-32350000D01*
X69125000Y-31000000D02*
X69850000Y-30275000D01*
X72075000Y-32350000D02*
X72075000Y-33950000D01*
X68763208Y-32897500D02*
X69125000Y-32535708D01*
X71350000Y-30275000D02*
X71350000Y-31625000D01*
X69125000Y-32535708D02*
X69125000Y-31000000D01*
X62436298Y-33297500D02*
X64355000Y-33297500D01*
X61350000Y-35025000D02*
X61350000Y-34425000D01*
X61350000Y-35025000D02*
X61350000Y-34383798D01*
X61350000Y-34383798D02*
X62436298Y-33297500D01*
X64355000Y-32497500D02*
X63936792Y-32497500D01*
X63936792Y-32497500D02*
X63200000Y-31760708D01*
X63200000Y-31760708D02*
X63200000Y-31050000D01*
D37*
X73550000Y-48550000D02*
X74800000Y-48550000D01*
X56000000Y-31525000D02*
X56000000Y-28775000D01*
D36*
X70000000Y-45350000D02*
X70000000Y-44008903D01*
D37*
X76800000Y-41650000D02*
X76750000Y-41700000D01*
X76750000Y-28775000D02*
X76750000Y-31475000D01*
D36*
X70750000Y-46200000D02*
X70750000Y-46100000D01*
D37*
X56392881Y-41700000D02*
X56000000Y-41700000D01*
D36*
X70000000Y-44008903D02*
X70347195Y-43661708D01*
D38*
X65950000Y-43450000D02*
X65250000Y-42750000D01*
D37*
X59200000Y-48550000D02*
X57850000Y-48550000D01*
D38*
X67075000Y-45650000D02*
X66412501Y-45650000D01*
D37*
X76750000Y-31475000D02*
X76800000Y-31525000D01*
X56000000Y-41700000D02*
X56000000Y-38975000D01*
D38*
X66412501Y-45650000D02*
X65950000Y-45187499D01*
D37*
X76800000Y-38975000D02*
X76800000Y-41650000D01*
D36*
X67710000Y-35352500D02*
X67750000Y-35392500D01*
X69950000Y-45400000D02*
X70000000Y-45350000D01*
X67710000Y-34857500D02*
X67710000Y-35352500D01*
X69150000Y-46200000D02*
X69950000Y-45400000D01*
X70750000Y-46100000D02*
X70000000Y-45350000D01*
D37*
X74800000Y-48550000D02*
X74900000Y-48450000D01*
D38*
X65950000Y-45187499D02*
X65950000Y-43450000D01*
D36*
X67000000Y-44650000D02*
X67150000Y-44625000D01*
X59369842Y-43550000D02*
X59200000Y-43550000D01*
D37*
X73550000Y-43550000D02*
X74900000Y-43550000D01*
D39*
X69630000Y-52330000D02*
X69900000Y-52600000D01*
D36*
X67300000Y-44475000D02*
X67125000Y-44650000D01*
X67750000Y-39600000D02*
X67300000Y-40050000D01*
X67750000Y-36512182D02*
X67750000Y-39600000D01*
D39*
X69630000Y-51095000D02*
X69630000Y-52330000D01*
D37*
X59200000Y-43550000D02*
X57850000Y-43550000D01*
D36*
X67350000Y-39900000D02*
X67600000Y-40150000D01*
X67350000Y-35492500D02*
X67350000Y-36112182D01*
X67125000Y-44650000D02*
X67000000Y-44650000D01*
X67350000Y-36112182D02*
X67750000Y-36512182D01*
X67300000Y-40050000D02*
X67300000Y-44475000D01*
X60400000Y-31600000D02*
X60400000Y-37344842D01*
X64355000Y-31427182D02*
X63427818Y-30500000D01*
X61500000Y-30500000D02*
X60400000Y-31600000D01*
X61905158Y-38850000D02*
X63800000Y-38850000D01*
X64355000Y-32097500D02*
X64355000Y-31427182D01*
X60400000Y-37344842D02*
X61905158Y-38850000D01*
X63427818Y-30500000D02*
X61500000Y-30500000D01*
X62622500Y-32897500D02*
X64355000Y-32897500D01*
X62150000Y-32425000D02*
X62622500Y-32897500D01*
X69800000Y-34622182D02*
X69800000Y-36525000D01*
X69275318Y-34097500D02*
X69800000Y-34622182D01*
X68345000Y-34097500D02*
X69275318Y-34097500D01*
X69800000Y-36525000D02*
X69300000Y-37025000D01*
X65400000Y-17360000D02*
X65400000Y-20750000D01*
X61700000Y-26889034D02*
X61700000Y-20100000D01*
X64920000Y-16880000D02*
X65400000Y-17360000D01*
X65350000Y-31402500D02*
X65350000Y-30539034D01*
X61700000Y-20100000D02*
X64920000Y-16880000D01*
X65350000Y-30539034D02*
X61700000Y-26889034D01*
X63500000Y-20750000D02*
X62450000Y-20750000D01*
X60300000Y-25913298D02*
X60300000Y-17340000D01*
X64950000Y-30563298D02*
X60300000Y-25913298D01*
X60300000Y-17340000D02*
X60010000Y-17050000D01*
X64950000Y-31502500D02*
X64950000Y-30563298D01*
X71050000Y-26839034D02*
X71050000Y-17930000D01*
X71050000Y-17930000D02*
X70110000Y-16990000D01*
X67300000Y-19800000D02*
X67300000Y-20750000D01*
X70110000Y-16990000D02*
X67300000Y-19800000D01*
X67350000Y-31402500D02*
X67350000Y-30539034D01*
X67350000Y-30539034D02*
X71050000Y-26839034D01*
X72450000Y-19850000D02*
X75250000Y-17050000D01*
X67750000Y-31402500D02*
X67750000Y-30563298D01*
X69200000Y-20750000D02*
X70150000Y-20750000D01*
X72450000Y-25863298D02*
X72450000Y-19850000D01*
X67750000Y-30563298D02*
X72450000Y-25863298D01*
X66550000Y-28000000D02*
X67300000Y-27250000D01*
X66550000Y-31402500D02*
X66550000Y-28000000D01*
D40*
X67350000Y-24950000D02*
X67350000Y-27200000D01*
X67350000Y-27200000D02*
X67300000Y-27250000D01*
D36*
X66950000Y-29500000D02*
X69200000Y-27250000D01*
X68350000Y-23850000D02*
X68350000Y-26400000D01*
X66950000Y-31402500D02*
X66950000Y-29500000D01*
X67350000Y-22850000D02*
X68350000Y-23850000D01*
X68350000Y-26400000D02*
X69200000Y-27250000D01*
D40*
X65350000Y-27200000D02*
X65400000Y-27250000D01*
X65350000Y-24950000D02*
X65350000Y-27200000D01*
D36*
X66150000Y-28000000D02*
X65400000Y-27250000D01*
X66150000Y-31402500D02*
X66150000Y-28000000D01*
X64350000Y-23850000D02*
X64350000Y-26400000D01*
X65350000Y-22850000D02*
X64350000Y-23850000D01*
X64350000Y-26400000D02*
X63500000Y-27250000D01*
X65750000Y-31402500D02*
X65750000Y-29500000D01*
X65750000Y-29500000D02*
X63500000Y-27250000D01*
X65450000Y-36740000D02*
X65750000Y-36440000D01*
X65750000Y-36440000D02*
X65750000Y-35492500D01*
D37*
X57850000Y-23175000D02*
X59200000Y-23175000D01*
X73550000Y-23175000D02*
X74900000Y-23175000D01*
D36*
X65350000Y-36062182D02*
X65350000Y-35492500D01*
X64739256Y-37107217D02*
X64739256Y-36672926D01*
X64739256Y-36672926D02*
X65350000Y-36062182D01*
X65888687Y-37408998D02*
X66150000Y-37147685D01*
D37*
X73550000Y-24425000D02*
X74900000Y-24425000D01*
D36*
X66150000Y-37147685D02*
X66150000Y-35492500D01*
D37*
X59200000Y-24425000D02*
X57850000Y-24425000D01*
X59200000Y-25675000D02*
X57850000Y-25675000D01*
D36*
X66550000Y-37187322D02*
X66550000Y-35492500D01*
X66789081Y-37426403D02*
X66550000Y-37187322D01*
D37*
X73550000Y-25675000D02*
X74900000Y-25675000D01*
D36*
X73380158Y-44800000D02*
X72250000Y-45930158D01*
D37*
X59200000Y-44800000D02*
X57850000Y-44800000D01*
D36*
X63302031Y-37700000D02*
X63302031Y-37164171D01*
X64355000Y-36111202D02*
X64355000Y-34897500D01*
X73550000Y-44800000D02*
X73380158Y-44800000D01*
X72250000Y-46755894D02*
X70655894Y-48350000D01*
X68565000Y-48350000D02*
X67090000Y-49825000D01*
X72250000Y-45930158D02*
X72250000Y-46755894D01*
X70655894Y-48350000D02*
X68565000Y-48350000D01*
D37*
X73550000Y-44800000D02*
X74900000Y-44800000D01*
D36*
X63302031Y-37164171D02*
X64355000Y-36111202D01*
D37*
X73550000Y-46050000D02*
X74900000Y-46050000D01*
D36*
X70780158Y-48650000D02*
X69535000Y-48650000D01*
X64950000Y-35940466D02*
X64950000Y-35492500D01*
X73380158Y-46050000D02*
X70780158Y-48650000D01*
X69535000Y-48650000D02*
X68360000Y-49825000D01*
D37*
X59200000Y-46050000D02*
X57850000Y-46050000D01*
D36*
X64100000Y-37600000D02*
X64100000Y-36790466D01*
X73550000Y-46050000D02*
X73380158Y-46050000D01*
X64100000Y-36790466D02*
X64950000Y-35940466D01*
D40*
X69350000Y-22850000D02*
X70450000Y-22850000D01*
X63350000Y-22850000D02*
X62250000Y-22850000D01*
X69350000Y-24950000D02*
X70450000Y-24950000D01*
D36*
X68877500Y-33297500D02*
X68345000Y-33297500D01*
X69850000Y-32325000D02*
X68877500Y-33297500D01*
X69850000Y-31925000D02*
X69850000Y-32325000D01*
D40*
X63350000Y-24950000D02*
X62250000Y-24950000D01*
D36*
X70173483Y-43057602D02*
X69250000Y-43981085D01*
X70173483Y-42880793D02*
X70173483Y-43057602D01*
X69250000Y-43981085D02*
X69250000Y-44550000D01*
X70450000Y-42604276D02*
X70450000Y-38550000D01*
X68650000Y-35464579D02*
X68345000Y-35159579D01*
X68345000Y-35159579D02*
X68345000Y-34897500D01*
X70450000Y-38550000D02*
X70150000Y-38250000D01*
X70173483Y-42880793D02*
X70450000Y-42604276D01*
X71050000Y-41750000D02*
X71050000Y-38250000D01*
X71050000Y-41750000D02*
X71050000Y-44025000D01*
X69250000Y-34850000D02*
X68897500Y-34497500D01*
X68897500Y-34497500D02*
X68345000Y-34497500D01*
X71050000Y-44025000D02*
X70450000Y-44625000D01*
D37*
X73550000Y-26925000D02*
X74900000Y-26925000D01*
D36*
X67200000Y-36740000D02*
X66950000Y-36490000D01*
D37*
X59200000Y-26925000D02*
X57850000Y-26925000D01*
D36*
X66950000Y-36490000D02*
X66950000Y-35492500D01*
X63735000Y-34699292D02*
X63936792Y-34497500D01*
D37*
X73600000Y-37125000D02*
X74950000Y-37125000D01*
D36*
X63129619Y-36912319D02*
X63735000Y-36306938D01*
X73600000Y-37125000D02*
X71950000Y-38775000D01*
X67595000Y-48050000D02*
X65820000Y-49825000D01*
D37*
X59200000Y-37125000D02*
X57850000Y-37125000D01*
D36*
X71950000Y-38775000D02*
X71950000Y-46631630D01*
X71950000Y-46631630D02*
X70531630Y-48050000D01*
X63735000Y-36306938D02*
X63735000Y-34699292D01*
X70531630Y-48050000D02*
X67595000Y-48050000D01*
X63936792Y-34497500D02*
X64355000Y-34497500D01*
X62492303Y-36912319D02*
X63129619Y-36912319D01*
D39*
X72710000Y-17050000D02*
X72710000Y-18690000D01*
X67630000Y-17050000D02*
X67630000Y-18670000D01*
X72710000Y-18690000D02*
X72100000Y-19300000D01*
D36*
X61350000Y-35975000D02*
X62100000Y-35225000D01*
X62460562Y-33697500D02*
X64355000Y-33697500D01*
X62100000Y-35225000D02*
X62100000Y-34058062D01*
X62100000Y-34058062D02*
X62460562Y-33697500D01*
D39*
X62550000Y-17050000D02*
X62550000Y-18755026D01*
X67630000Y-18670000D02*
X67100000Y-19200000D01*
X62550000Y-18755026D02*
X62252513Y-19052513D01*
D36*
X59450000Y-38874264D02*
X59450000Y-41698528D01*
X58850736Y-38275000D02*
X59450000Y-38874264D01*
X60350000Y-42598528D02*
X60350000Y-49435000D01*
X57373655Y-38275000D02*
X58850736Y-38275000D01*
D37*
X59200000Y-33375000D02*
X57850000Y-33375000D01*
D36*
X56700000Y-34525000D02*
X56700000Y-37601345D01*
X59450000Y-41698528D02*
X60350000Y-42598528D01*
X56700000Y-37601345D02*
X57373655Y-38275000D01*
X57850000Y-33375000D02*
X56700000Y-34525000D01*
X60350000Y-49435000D02*
X62010000Y-51095000D01*
X57000000Y-37477081D02*
X57497919Y-37975000D01*
X60650000Y-48465000D02*
X62010000Y-49825000D01*
X57000000Y-35475000D02*
X57000000Y-37477081D01*
X57850000Y-34625000D02*
X57000000Y-35475000D01*
X59750000Y-41574264D02*
X60650000Y-42474264D01*
X60650000Y-42474264D02*
X60650000Y-48465000D01*
D37*
X59200000Y-34625000D02*
X57850000Y-34625000D01*
D36*
X57497919Y-37975000D02*
X58975000Y-37975000D01*
X58975000Y-37975000D02*
X59750000Y-38750000D01*
X59750000Y-38750000D02*
X59750000Y-41574264D01*
X60950000Y-42350000D02*
X60950000Y-47495000D01*
X57300000Y-36425000D02*
X57300000Y-37352817D01*
X57850000Y-35875000D02*
X57300000Y-36425000D01*
X60050000Y-41450000D02*
X60950000Y-42350000D01*
X60950000Y-47495000D02*
X63280000Y-49825000D01*
X57300000Y-37352817D02*
X57622183Y-37675000D01*
D37*
X59200000Y-35875000D02*
X57850000Y-35875000D01*
D36*
X60050000Y-38550000D02*
X60050000Y-41450000D01*
X59175000Y-37675000D02*
X60050000Y-38550000D01*
X57622183Y-37675000D02*
X59175000Y-37675000D01*
X62900000Y-34350000D02*
X62900000Y-34350000D01*
X63177500Y-34097500D02*
X62900000Y-34375000D01*
X64355000Y-34097500D02*
X63177500Y-34097500D01*
X77550000Y-25052818D02*
X73977818Y-28625000D01*
X72200001Y-26960000D02*
X71350000Y-27810001D01*
X73977818Y-28625000D02*
X71350000Y-28625000D01*
X71350000Y-27810001D02*
X71350000Y-28625000D01*
X69630000Y-49595000D02*
X69630000Y-49825000D01*
X77550000Y-24850000D02*
X77550000Y-25052818D01*
X71650000Y-46507366D02*
X70407366Y-47750000D01*
D37*
X73600000Y-35875000D02*
X74950000Y-35875000D01*
D36*
X73600000Y-35875000D02*
X73430158Y-35875000D01*
X66625000Y-47750000D02*
X64550000Y-49825000D01*
X71650000Y-37655158D02*
X71650000Y-46507366D01*
X73430158Y-35875000D02*
X71650000Y-37655158D01*
X70407366Y-47750000D02*
X66625000Y-47750000D01*
X75800000Y-37477082D02*
X74650000Y-38627082D01*
X75750000Y-43197918D02*
X75750000Y-48902081D01*
X74950000Y-33375000D02*
X75800000Y-34225000D01*
X71205000Y-51095000D02*
X70900000Y-51095000D01*
X72900000Y-49400000D02*
X71205000Y-51095000D01*
X74650000Y-42097918D02*
X75750000Y-43197918D01*
X75252081Y-49400000D02*
X72900000Y-49400000D01*
X75750000Y-48902081D02*
X75252081Y-49400000D01*
X75800000Y-34225000D02*
X75800000Y-37477082D01*
X74650000Y-38627082D02*
X74650000Y-42097918D01*
D37*
X73600000Y-33375000D02*
X74950000Y-33375000D01*
D36*
X74950000Y-34625000D02*
X75500000Y-35175000D01*
X74350000Y-38502818D02*
X74350000Y-42222182D01*
X74350000Y-42222182D02*
X75450000Y-43322182D01*
X75450000Y-43322182D02*
X75450000Y-48777817D01*
X75500000Y-37352818D02*
X74350000Y-38502818D01*
X75500000Y-35175000D02*
X75500000Y-37352818D01*
X75450000Y-48777817D02*
X75127817Y-49100000D01*
D37*
X73600000Y-34625000D02*
X74950000Y-34625000D01*
D36*
X71625000Y-49100000D02*
X70900000Y-49825000D01*
X75127817Y-49100000D02*
X71625000Y-49100000D01*
G04 #@! TA.AperFunction,Conductor*
G36*
X59791111Y-42444336D02*
G01*
X59857997Y-42464520D01*
X59877862Y-42480651D01*
X59935530Y-42538319D01*
X59969015Y-42599642D01*
X59964031Y-42669334D01*
X59922159Y-42725267D01*
X59856695Y-42749684D01*
X59847849Y-42750000D01*
X59450000Y-42750000D01*
X59450000Y-43676000D01*
X59430315Y-43743039D01*
X59377511Y-43788794D01*
X59326000Y-43800000D01*
X57852705Y-43800000D01*
X57852704Y-43800001D01*
X57852899Y-43802486D01*
X57898718Y-43960198D01*
X57986288Y-44108271D01*
X57984566Y-44109288D01*
X58006257Y-44164545D01*
X57992572Y-44233062D01*
X57944017Y-44283303D01*
X57882742Y-44299500D01*
X57778039Y-44299500D01*
X57716145Y-44317673D01*
X57713307Y-44318469D01*
X57656817Y-44333606D01*
X57650609Y-44336177D01*
X57640985Y-44339572D01*
X57639949Y-44340045D01*
X57591915Y-44370914D01*
X57586880Y-44373983D01*
X57542689Y-44399497D01*
X57538266Y-44402892D01*
X57522945Y-44415238D01*
X57518877Y-44417852D01*
X57518868Y-44417860D01*
X57486355Y-44455383D01*
X57480324Y-44461860D01*
X57449498Y-44492686D01*
X57446364Y-44498115D01*
X57432701Y-44517303D01*
X57424623Y-44526626D01*
X57424623Y-44526627D01*
X57407088Y-44565019D01*
X57401687Y-44575495D01*
X57383607Y-44606813D01*
X57383606Y-44606816D01*
X57380046Y-44620103D01*
X57373069Y-44639511D01*
X57364835Y-44657541D01*
X57359886Y-44691956D01*
X57356925Y-44706394D01*
X57349500Y-44734105D01*
X57349500Y-44755331D01*
X57348238Y-44772977D01*
X57344353Y-44799999D01*
X57348238Y-44827020D01*
X57349500Y-44844667D01*
X57349500Y-44865894D01*
X57356923Y-44893596D01*
X57359885Y-44908037D01*
X57364835Y-44942456D01*
X57364837Y-44942464D01*
X57373069Y-44960489D01*
X57380050Y-44979907D01*
X57383607Y-44993183D01*
X57383610Y-44993190D01*
X57401681Y-45024491D01*
X57407086Y-45034974D01*
X57424623Y-45073373D01*
X57432694Y-45082687D01*
X57446368Y-45101890D01*
X57449497Y-45107310D01*
X57449501Y-45107315D01*
X57480322Y-45138136D01*
X57486354Y-45144615D01*
X57518870Y-45182141D01*
X57518874Y-45182145D01*
X57522928Y-45184750D01*
X57538211Y-45197066D01*
X57542684Y-45200498D01*
X57542686Y-45200500D01*
X57586887Y-45226019D01*
X57591871Y-45229056D01*
X57639947Y-45259953D01*
X57639950Y-45259954D01*
X57639952Y-45259955D01*
X57640994Y-45260431D01*
X57650621Y-45263827D01*
X57656811Y-45266390D01*
X57656814Y-45266392D01*
X57713261Y-45281516D01*
X57716098Y-45282312D01*
X57778039Y-45300500D01*
X59933258Y-45300500D01*
X59933260Y-45300500D01*
X59957622Y-45296950D01*
X60026797Y-45306762D01*
X60079688Y-45352416D01*
X60099500Y-45419418D01*
X60099500Y-45430345D01*
X60079815Y-45497384D01*
X60027011Y-45543139D01*
X59957853Y-45553083D01*
X59957722Y-45553064D01*
X59933260Y-45549500D01*
X59265892Y-45549500D01*
X57921961Y-45549500D01*
X57778039Y-45549500D01*
X57716145Y-45567673D01*
X57713307Y-45568469D01*
X57656817Y-45583606D01*
X57650609Y-45586177D01*
X57640985Y-45589572D01*
X57639949Y-45590045D01*
X57591915Y-45620914D01*
X57586880Y-45623983D01*
X57542689Y-45649497D01*
X57538266Y-45652892D01*
X57522945Y-45665238D01*
X57518877Y-45667852D01*
X57518868Y-45667860D01*
X57486355Y-45705383D01*
X57480324Y-45711860D01*
X57449498Y-45742686D01*
X57446364Y-45748115D01*
X57432701Y-45767303D01*
X57424623Y-45776626D01*
X57424623Y-45776627D01*
X57407088Y-45815019D01*
X57401687Y-45825495D01*
X57383607Y-45856813D01*
X57383606Y-45856816D01*
X57380046Y-45870103D01*
X57373069Y-45889511D01*
X57364835Y-45907541D01*
X57359886Y-45941956D01*
X57356925Y-45956394D01*
X57349500Y-45984105D01*
X57349500Y-46005331D01*
X57348238Y-46022977D01*
X57344353Y-46049999D01*
X57348238Y-46077020D01*
X57349500Y-46094667D01*
X57349500Y-46115894D01*
X57356923Y-46143596D01*
X57359885Y-46158037D01*
X57364835Y-46192456D01*
X57364837Y-46192464D01*
X57373069Y-46210489D01*
X57380050Y-46229907D01*
X57383607Y-46243183D01*
X57383610Y-46243190D01*
X57401681Y-46274491D01*
X57407086Y-46284974D01*
X57424623Y-46323373D01*
X57432694Y-46332687D01*
X57446368Y-46351890D01*
X57449497Y-46357310D01*
X57449501Y-46357315D01*
X57480322Y-46388136D01*
X57486354Y-46394615D01*
X57518870Y-46432141D01*
X57518874Y-46432145D01*
X57522928Y-46434750D01*
X57538211Y-46447066D01*
X57542684Y-46450498D01*
X57542686Y-46450500D01*
X57586887Y-46476019D01*
X57591871Y-46479056D01*
X57639947Y-46509953D01*
X57639950Y-46509954D01*
X57639952Y-46509955D01*
X57640994Y-46510431D01*
X57650621Y-46513827D01*
X57656811Y-46516390D01*
X57656814Y-46516392D01*
X57713261Y-46531516D01*
X57716098Y-46532312D01*
X57778039Y-46550500D01*
X59933258Y-46550500D01*
X59933260Y-46550500D01*
X59957622Y-46546950D01*
X60026797Y-46556762D01*
X60079688Y-46602416D01*
X60099500Y-46669418D01*
X60099500Y-46680345D01*
X60079815Y-46747384D01*
X60027011Y-46793139D01*
X59957853Y-46803083D01*
X59957722Y-46803064D01*
X59933260Y-46799500D01*
X59265892Y-46799500D01*
X57921961Y-46799500D01*
X57778039Y-46799500D01*
X57716145Y-46817673D01*
X57713307Y-46818469D01*
X57656817Y-46833606D01*
X57650609Y-46836177D01*
X57640985Y-46839572D01*
X57639949Y-46840045D01*
X57591915Y-46870914D01*
X57586880Y-46873983D01*
X57542689Y-46899497D01*
X57538266Y-46902892D01*
X57522945Y-46915238D01*
X57518877Y-46917852D01*
X57518868Y-46917860D01*
X57486355Y-46955383D01*
X57480324Y-46961860D01*
X57449498Y-46992686D01*
X57446364Y-46998115D01*
X57432701Y-47017303D01*
X57424623Y-47026626D01*
X57424623Y-47026627D01*
X57407088Y-47065019D01*
X57401687Y-47075495D01*
X57383607Y-47106813D01*
X57383606Y-47106816D01*
X57380046Y-47120103D01*
X57373069Y-47139511D01*
X57364835Y-47157541D01*
X57359886Y-47191956D01*
X57356925Y-47206394D01*
X57349500Y-47234105D01*
X57349500Y-47255331D01*
X57348238Y-47272977D01*
X57344353Y-47299999D01*
X57348238Y-47327020D01*
X57349500Y-47344667D01*
X57349500Y-47365894D01*
X57354352Y-47384003D01*
X57356617Y-47392456D01*
X57356923Y-47393596D01*
X57359885Y-47408037D01*
X57364835Y-47442456D01*
X57364837Y-47442464D01*
X57373069Y-47460489D01*
X57380050Y-47479907D01*
X57383607Y-47493183D01*
X57383610Y-47493190D01*
X57401681Y-47524491D01*
X57407086Y-47534974D01*
X57424623Y-47573373D01*
X57432694Y-47582687D01*
X57446368Y-47601890D01*
X57449497Y-47607310D01*
X57449501Y-47607315D01*
X57480322Y-47638136D01*
X57486354Y-47644615D01*
X57518870Y-47682141D01*
X57518874Y-47682145D01*
X57522928Y-47684750D01*
X57538211Y-47697066D01*
X57542684Y-47700498D01*
X57542686Y-47700500D01*
X57586887Y-47726019D01*
X57591871Y-47729056D01*
X57639947Y-47759953D01*
X57639950Y-47759954D01*
X57639952Y-47759955D01*
X57640994Y-47760431D01*
X57650621Y-47763827D01*
X57656811Y-47766390D01*
X57656814Y-47766392D01*
X57713261Y-47781516D01*
X57716098Y-47782312D01*
X57778039Y-47800500D01*
X59933258Y-47800500D01*
X59933260Y-47800500D01*
X59957622Y-47796950D01*
X60026797Y-47806762D01*
X60079688Y-47852416D01*
X60099500Y-47919418D01*
X60099500Y-47930345D01*
X60079815Y-47997384D01*
X60027011Y-48043139D01*
X59957853Y-48053083D01*
X59957722Y-48053064D01*
X59933260Y-48049500D01*
X59265892Y-48049500D01*
X57921961Y-48049500D01*
X57778039Y-48049500D01*
X57716145Y-48067673D01*
X57713307Y-48068469D01*
X57656817Y-48083606D01*
X57650609Y-48086177D01*
X57640985Y-48089572D01*
X57639949Y-48090045D01*
X57591915Y-48120914D01*
X57586880Y-48123983D01*
X57542689Y-48149497D01*
X57538266Y-48152892D01*
X57522945Y-48165238D01*
X57518877Y-48167852D01*
X57518868Y-48167860D01*
X57486355Y-48205383D01*
X57480324Y-48211860D01*
X57449498Y-48242686D01*
X57446364Y-48248115D01*
X57432701Y-48267303D01*
X57424623Y-48276626D01*
X57424623Y-48276627D01*
X57407088Y-48315019D01*
X57401687Y-48325495D01*
X57383607Y-48356813D01*
X57383606Y-48356816D01*
X57380046Y-48370103D01*
X57373069Y-48389511D01*
X57364835Y-48407541D01*
X57359886Y-48441956D01*
X57356925Y-48456394D01*
X57349500Y-48484105D01*
X57349500Y-48505331D01*
X57348238Y-48522977D01*
X57344353Y-48549999D01*
X57348238Y-48577020D01*
X57349500Y-48594667D01*
X57349500Y-48615894D01*
X57356923Y-48643596D01*
X57359885Y-48658037D01*
X57364835Y-48692456D01*
X57364837Y-48692464D01*
X57373069Y-48710489D01*
X57380050Y-48729907D01*
X57383607Y-48743183D01*
X57383610Y-48743190D01*
X57401681Y-48774491D01*
X57407086Y-48784974D01*
X57424623Y-48823373D01*
X57432694Y-48832687D01*
X57446368Y-48851890D01*
X57449497Y-48857310D01*
X57449501Y-48857315D01*
X57480322Y-48888136D01*
X57486354Y-48894615D01*
X57518870Y-48932141D01*
X57518874Y-48932145D01*
X57522928Y-48934750D01*
X57538211Y-48947066D01*
X57542684Y-48950498D01*
X57542686Y-48950500D01*
X57586887Y-48976019D01*
X57591871Y-48979056D01*
X57639947Y-49009953D01*
X57639950Y-49009954D01*
X57639952Y-49009955D01*
X57640994Y-49010431D01*
X57650621Y-49013827D01*
X57656811Y-49016390D01*
X57656814Y-49016392D01*
X57713261Y-49031516D01*
X57716098Y-49032312D01*
X57778039Y-49050500D01*
X59933258Y-49050500D01*
X59933260Y-49050500D01*
X59957622Y-49046950D01*
X60026797Y-49056762D01*
X60079688Y-49102416D01*
X60099500Y-49169418D01*
X60099500Y-49484829D01*
X60137636Y-49576897D01*
X61261211Y-50700472D01*
X61294696Y-50761795D01*
X61289712Y-50831487D01*
X61289472Y-50832123D01*
X61234861Y-50976122D01*
X61234859Y-50976130D01*
X61214355Y-51145000D01*
X61234859Y-51313869D01*
X61234860Y-51313874D01*
X61295182Y-51472931D01*
X61301675Y-51482337D01*
X61391817Y-51612929D01*
X61433188Y-51649580D01*
X61519150Y-51725736D01*
X61669773Y-51804789D01*
X61669775Y-51804790D01*
X61834944Y-51845500D01*
X62005056Y-51845500D01*
X62170225Y-51804790D01*
X62287046Y-51743477D01*
X62320849Y-51725736D01*
X62320850Y-51725734D01*
X62320852Y-51725734D01*
X62448183Y-51612929D01*
X62452950Y-51606021D01*
X62507230Y-51562033D01*
X62576678Y-51554372D01*
X62639244Y-51585473D01*
X62657046Y-51606017D01*
X62661817Y-51612929D01*
X62703188Y-51649580D01*
X62789150Y-51725736D01*
X62939773Y-51804789D01*
X62939775Y-51804790D01*
X63104944Y-51845500D01*
X63275056Y-51845500D01*
X63440225Y-51804790D01*
X63557046Y-51743477D01*
X63590849Y-51725736D01*
X63590850Y-51725734D01*
X63590852Y-51725734D01*
X63718183Y-51612929D01*
X63722950Y-51606021D01*
X63777230Y-51562033D01*
X63846678Y-51554372D01*
X63909244Y-51585473D01*
X63927046Y-51606017D01*
X63931817Y-51612929D01*
X63973188Y-51649580D01*
X64059150Y-51725736D01*
X64209773Y-51804789D01*
X64209775Y-51804790D01*
X64374944Y-51845500D01*
X64545056Y-51845500D01*
X64710225Y-51804790D01*
X64827046Y-51743477D01*
X64860849Y-51725736D01*
X64860850Y-51725734D01*
X64860852Y-51725734D01*
X64988183Y-51612929D01*
X64992950Y-51606021D01*
X65047230Y-51562033D01*
X65116678Y-51554372D01*
X65179244Y-51585473D01*
X65197046Y-51606017D01*
X65201817Y-51612929D01*
X65243188Y-51649580D01*
X65329150Y-51725736D01*
X65479773Y-51804789D01*
X65479775Y-51804790D01*
X65644944Y-51845500D01*
X65815056Y-51845500D01*
X65980225Y-51804790D01*
X66097046Y-51743477D01*
X66130849Y-51725736D01*
X66130850Y-51725734D01*
X66130852Y-51725734D01*
X66258183Y-51612929D01*
X66262950Y-51606021D01*
X66317230Y-51562033D01*
X66386678Y-51554372D01*
X66449244Y-51585473D01*
X66467046Y-51606017D01*
X66471817Y-51612929D01*
X66513188Y-51649580D01*
X66599150Y-51725736D01*
X66749773Y-51804789D01*
X66749775Y-51804790D01*
X66914944Y-51845500D01*
X67085056Y-51845500D01*
X67250225Y-51804790D01*
X67367046Y-51743477D01*
X67400849Y-51725736D01*
X67400850Y-51725734D01*
X67400852Y-51725734D01*
X67528183Y-51612929D01*
X67532950Y-51606021D01*
X67587230Y-51562033D01*
X67656678Y-51554372D01*
X67719244Y-51585473D01*
X67737046Y-51606017D01*
X67741817Y-51612929D01*
X67783188Y-51649580D01*
X67869150Y-51725736D01*
X68019773Y-51804789D01*
X68019775Y-51804790D01*
X68184944Y-51845500D01*
X68355056Y-51845500D01*
X68520225Y-51804790D01*
X68617852Y-51753550D01*
X68686358Y-51739825D01*
X68751412Y-51765317D01*
X68771331Y-51784683D01*
X68829472Y-51855528D01*
X68981739Y-51980491D01*
X69155465Y-52073349D01*
X69290000Y-52114159D01*
X69290000Y-51354618D01*
X69340446Y-51405064D01*
X69414555Y-51447851D01*
X69497213Y-51470000D01*
X69582787Y-51470000D01*
X69665445Y-51447851D01*
X69739554Y-51405064D01*
X69790000Y-51354618D01*
X69790000Y-52114159D01*
X69924534Y-52073349D01*
X70098260Y-51980491D01*
X70250527Y-51855529D01*
X70308668Y-51784683D01*
X70366413Y-51745348D01*
X70436258Y-51743477D01*
X70462149Y-51753551D01*
X70559775Y-51804790D01*
X70724944Y-51845500D01*
X70895056Y-51845500D01*
X71060225Y-51804790D01*
X71177046Y-51743477D01*
X71210849Y-51725736D01*
X71210850Y-51725734D01*
X71210852Y-51725734D01*
X71338183Y-51612929D01*
X71434818Y-51472930D01*
X71495140Y-51313872D01*
X71511369Y-51180207D01*
X71538991Y-51116032D01*
X71546778Y-51107482D01*
X72967442Y-49686819D01*
X73028765Y-49653334D01*
X73055123Y-49650500D01*
X75213110Y-49650500D01*
X75280149Y-49670185D01*
X75325904Y-49722989D01*
X75335848Y-49792147D01*
X75312880Y-49848133D01*
X75247209Y-49937113D01*
X75247206Y-49937119D01*
X75202353Y-50065298D01*
X75202353Y-50065300D01*
X75199500Y-50095730D01*
X75199500Y-50704269D01*
X75202353Y-50734699D01*
X75202353Y-50734701D01*
X75239952Y-50842149D01*
X75247207Y-50862882D01*
X75327850Y-50972150D01*
X75437118Y-51052793D01*
X75473827Y-51065638D01*
X75565299Y-51097646D01*
X75595730Y-51100500D01*
X75595734Y-51100500D01*
X77668069Y-51100500D01*
X77735108Y-51120185D01*
X77780863Y-51172989D01*
X77790807Y-51242147D01*
X77778057Y-51281759D01*
X77763658Y-51309418D01*
X77758251Y-51318784D01*
X77553157Y-51640719D01*
X77546952Y-51649580D01*
X77314592Y-51952398D01*
X77307638Y-51960685D01*
X77049759Y-52242110D01*
X77042110Y-52249759D01*
X76760685Y-52507638D01*
X76752398Y-52514592D01*
X76449580Y-52746952D01*
X76440719Y-52753157D01*
X76118784Y-52958251D01*
X76109416Y-52963659D01*
X75770845Y-53139907D01*
X75761040Y-53144479D01*
X75408396Y-53290548D01*
X75398231Y-53294248D01*
X75034194Y-53409027D01*
X75023745Y-53411827D01*
X74651082Y-53494442D01*
X74640429Y-53496320D01*
X74261997Y-53546140D01*
X74251220Y-53547083D01*
X73867172Y-53563847D01*
X73861764Y-53563965D01*
X73790983Y-53563965D01*
X73790967Y-53563966D01*
X58867176Y-53563966D01*
X58861767Y-53563848D01*
X58775015Y-53560059D01*
X58477722Y-53547078D01*
X58466946Y-53546135D01*
X58088510Y-53496310D01*
X58077856Y-53494431D01*
X57705214Y-53411815D01*
X57694766Y-53409016D01*
X57330728Y-53294233D01*
X57320562Y-53290533D01*
X56967910Y-53144456D01*
X56958107Y-53139884D01*
X56695204Y-53003024D01*
X56619542Y-52963636D01*
X56610176Y-52958229D01*
X56288250Y-52753136D01*
X56279389Y-52746931D01*
X55976576Y-52514570D01*
X55968289Y-52507617D01*
X55686866Y-52249738D01*
X55679217Y-52242089D01*
X55439509Y-51980491D01*
X55421339Y-51960662D01*
X55414395Y-51952385D01*
X55182029Y-51649554D01*
X55175826Y-51640695D01*
X54970744Y-51318776D01*
X54965336Y-51309410D01*
X54950941Y-51281758D01*
X54937446Y-51213204D01*
X54963156Y-51148236D01*
X55019908Y-51107482D01*
X55060930Y-51100500D01*
X57154270Y-51100500D01*
X57184699Y-51097646D01*
X57184701Y-51097646D01*
X57248790Y-51075219D01*
X57312882Y-51052793D01*
X57422150Y-50972150D01*
X57502793Y-50862882D01*
X57538165Y-50761795D01*
X57547646Y-50734701D01*
X57547646Y-50734699D01*
X57550500Y-50704269D01*
X57550500Y-50095730D01*
X57547646Y-50065300D01*
X57547646Y-50065298D01*
X57514006Y-49969163D01*
X57502793Y-49937118D01*
X57422150Y-49827850D01*
X57312882Y-49747207D01*
X57312880Y-49747206D01*
X57184700Y-49702353D01*
X57154270Y-49699500D01*
X57154266Y-49699500D01*
X54845734Y-49699500D01*
X54845730Y-49699500D01*
X54815300Y-49702353D01*
X54815298Y-49702353D01*
X54687119Y-49747206D01*
X54687118Y-49747207D01*
X54613161Y-49801789D01*
X54547532Y-49825759D01*
X54479361Y-49810443D01*
X54430294Y-49760702D01*
X54416589Y-49718203D01*
X54414729Y-49704077D01*
X54382857Y-49461972D01*
X54381917Y-49451239D01*
X54366316Y-49093834D01*
X54365084Y-49065610D01*
X54364966Y-49060200D01*
X54364966Y-49031903D01*
X54364967Y-48998577D01*
X54364966Y-48998573D01*
X54364966Y-43299998D01*
X57852704Y-43299998D01*
X57852705Y-43300000D01*
X58950000Y-43300000D01*
X58950000Y-42750000D01*
X58434350Y-42750000D01*
X58397510Y-42752899D01*
X58397504Y-42752900D01*
X58239806Y-42798716D01*
X58239803Y-42798717D01*
X58098447Y-42882314D01*
X58098438Y-42882321D01*
X57982321Y-42998438D01*
X57982314Y-42998447D01*
X57898718Y-43139801D01*
X57852899Y-43297513D01*
X57852704Y-43299998D01*
X54364966Y-43299998D01*
X54364966Y-42528771D01*
X54384651Y-42461732D01*
X54437455Y-42415977D01*
X54489889Y-42404774D01*
X59791111Y-42444336D01*
G37*
G04 #@! TD.AperFunction*
G04 #@! TA.AperFunction,Conductor*
G36*
X69519213Y-35368130D02*
G01*
X69548238Y-35431686D01*
X69549500Y-35449333D01*
X69549500Y-36125500D01*
X69529815Y-36192539D01*
X69477011Y-36238294D01*
X69425500Y-36249500D01*
X68595730Y-36249500D01*
X68565300Y-36252353D01*
X68565298Y-36252353D01*
X68437119Y-36297206D01*
X68437117Y-36297207D01*
X68327850Y-36377850D01*
X68247207Y-36487117D01*
X68247206Y-36487119D01*
X68202353Y-36615298D01*
X68202353Y-36615300D01*
X68199500Y-36645730D01*
X68199500Y-37404269D01*
X68202353Y-37434699D01*
X68202353Y-37434701D01*
X68247206Y-37562880D01*
X68247207Y-37562882D01*
X68327850Y-37672150D01*
X68437118Y-37752793D01*
X68478140Y-37767147D01*
X68565299Y-37797646D01*
X68595730Y-37800500D01*
X68595734Y-37800500D01*
X69612110Y-37800500D01*
X69679149Y-37820185D01*
X69724904Y-37872989D01*
X69734848Y-37942147D01*
X69724904Y-37976012D01*
X69664834Y-38107543D01*
X69644353Y-38250000D01*
X69664834Y-38392456D01*
X69700357Y-38470239D01*
X69724623Y-38523373D01*
X69818872Y-38632143D01*
X69939947Y-38709953D01*
X69939950Y-38709954D01*
X69939949Y-38709954D01*
X70047107Y-38741417D01*
X70078039Y-38750500D01*
X70078043Y-38750500D01*
X70086816Y-38751762D01*
X70086531Y-38753739D01*
X70142539Y-38770185D01*
X70188294Y-38822989D01*
X70199500Y-38874500D01*
X70199500Y-39085258D01*
X70179815Y-39152297D01*
X70127011Y-39198052D01*
X70057853Y-39207996D01*
X70035307Y-39202486D01*
X70034699Y-39202353D01*
X70004270Y-39199500D01*
X70004266Y-39199500D01*
X68595734Y-39199500D01*
X68595730Y-39199500D01*
X68565300Y-39202353D01*
X68565298Y-39202353D01*
X68437119Y-39247206D01*
X68437118Y-39247206D01*
X68402535Y-39272730D01*
X68336905Y-39296700D01*
X68268735Y-39281382D01*
X68223364Y-39238055D01*
X68142315Y-39106654D01*
X68018345Y-38982684D01*
X67869124Y-38890643D01*
X67869119Y-38890641D01*
X67702697Y-38835494D01*
X67702690Y-38835493D01*
X67599986Y-38825000D01*
X67550000Y-38825000D01*
X67550000Y-41274999D01*
X67599972Y-41274999D01*
X67599986Y-41274998D01*
X67702697Y-41264505D01*
X67869119Y-41209358D01*
X67869124Y-41209356D01*
X68018345Y-41117315D01*
X68142315Y-40993345D01*
X68234356Y-40844124D01*
X68234359Y-40844117D01*
X68258335Y-40771762D01*
X68298107Y-40714317D01*
X68362623Y-40687493D01*
X68431398Y-40699808D01*
X68433985Y-40701136D01*
X68437110Y-40702787D01*
X68437118Y-40702793D01*
X68503410Y-40725989D01*
X68565299Y-40747646D01*
X68595730Y-40750500D01*
X68595734Y-40750500D01*
X70004270Y-40750500D01*
X70034699Y-40747646D01*
X70042073Y-40746036D01*
X70042349Y-40747304D01*
X70104312Y-40744135D01*
X70164943Y-40778858D01*
X70197176Y-40840848D01*
X70199500Y-40864741D01*
X70199500Y-42258759D01*
X70179815Y-42325798D01*
X70127011Y-42371553D01*
X70109692Y-42376639D01*
X70110031Y-42377794D01*
X69963432Y-42420838D01*
X69842356Y-42498649D01*
X69748106Y-42607419D01*
X69748105Y-42607421D01*
X69688317Y-42738336D01*
X69667836Y-42880793D01*
X69688317Y-43023249D01*
X69688318Y-43023250D01*
X69704362Y-43058382D01*
X69714305Y-43127541D01*
X69685279Y-43191096D01*
X69679248Y-43197574D01*
X69108103Y-43768721D01*
X69037637Y-43839186D01*
X69037635Y-43839189D01*
X69021919Y-43877130D01*
X68978077Y-43931533D01*
X68926757Y-43952148D01*
X68849700Y-43964352D01*
X68849699Y-43964352D01*
X68794297Y-43992580D01*
X68736658Y-44021950D01*
X68736657Y-44021951D01*
X68736652Y-44021954D01*
X68646954Y-44111652D01*
X68646951Y-44111657D01*
X68589352Y-44224698D01*
X68574500Y-44318474D01*
X68574500Y-44781517D01*
X68581707Y-44827020D01*
X68589354Y-44875304D01*
X68646950Y-44988342D01*
X68646952Y-44988344D01*
X68646954Y-44988347D01*
X68736652Y-45078045D01*
X68736654Y-45078046D01*
X68736658Y-45078050D01*
X68849694Y-45135645D01*
X68849698Y-45135647D01*
X68943475Y-45150499D01*
X68943481Y-45150500D01*
X69545877Y-45150499D01*
X69612916Y-45170183D01*
X69658671Y-45222987D01*
X69668615Y-45292146D01*
X69639590Y-45355702D01*
X69633558Y-45362180D01*
X69432557Y-45563181D01*
X69371234Y-45596666D01*
X69344876Y-45599500D01*
X68943482Y-45599500D01*
X68862519Y-45612323D01*
X68849696Y-45614354D01*
X68736658Y-45671950D01*
X68736657Y-45671951D01*
X68736652Y-45671954D01*
X68646954Y-45761652D01*
X68646951Y-45761657D01*
X68646950Y-45761658D01*
X68639323Y-45776627D01*
X68589352Y-45874698D01*
X68574500Y-45968475D01*
X68574500Y-46431517D01*
X68581229Y-46474000D01*
X68589354Y-46525304D01*
X68646950Y-46638342D01*
X68646952Y-46638344D01*
X68646954Y-46638347D01*
X68736652Y-46728045D01*
X68736654Y-46728046D01*
X68736658Y-46728050D01*
X68838252Y-46779815D01*
X68849698Y-46785647D01*
X68943475Y-46800499D01*
X68943481Y-46800500D01*
X69556518Y-46800499D01*
X69650304Y-46785646D01*
X69763342Y-46728050D01*
X69853050Y-46638342D01*
X69889516Y-46566771D01*
X69937489Y-46515978D01*
X70005310Y-46499183D01*
X70071445Y-46521720D01*
X70110482Y-46566771D01*
X70128645Y-46602416D01*
X70146951Y-46638343D01*
X70146954Y-46638347D01*
X70236652Y-46728045D01*
X70236654Y-46728046D01*
X70236658Y-46728050D01*
X70338252Y-46779815D01*
X70349698Y-46785647D01*
X70443475Y-46800499D01*
X70443481Y-46800500D01*
X70703244Y-46800499D01*
X70770282Y-46820183D01*
X70816037Y-46872987D01*
X70825981Y-46942146D01*
X70796956Y-47005701D01*
X70790924Y-47012180D01*
X70339924Y-47463181D01*
X70278601Y-47496666D01*
X70252243Y-47499500D01*
X68050343Y-47499500D01*
X67983304Y-47479815D01*
X67937549Y-47427011D01*
X67927605Y-47357853D01*
X67956630Y-47294297D01*
X67987221Y-47268769D01*
X67989050Y-47267687D01*
X67989061Y-47267678D01*
X68105178Y-47151561D01*
X68105185Y-47151552D01*
X68188781Y-47010198D01*
X68234600Y-46852486D01*
X68234795Y-46850001D01*
X68234795Y-46850000D01*
X66949000Y-46850000D01*
X66881961Y-46830315D01*
X66836206Y-46777511D01*
X66825000Y-46726000D01*
X66825000Y-46474000D01*
X66844685Y-46406961D01*
X66897489Y-46361206D01*
X66949000Y-46350000D01*
X68234795Y-46350000D01*
X68234795Y-46349998D01*
X68234600Y-46347513D01*
X68188781Y-46189801D01*
X68105185Y-46048447D01*
X68105178Y-46048438D01*
X67989059Y-45932319D01*
X67985996Y-45929943D01*
X67984210Y-45927470D01*
X67983540Y-45926800D01*
X67983648Y-45926691D01*
X67945091Y-45873299D01*
X67938000Y-45831966D01*
X67938000Y-45468032D01*
X67957685Y-45400993D01*
X67986010Y-45370045D01*
X67989061Y-45367678D01*
X68105178Y-45251561D01*
X68105185Y-45251552D01*
X68188781Y-45110198D01*
X68234600Y-44952486D01*
X68234795Y-44950001D01*
X68234795Y-44950000D01*
X66949000Y-44950000D01*
X66881961Y-44930315D01*
X66836206Y-44877511D01*
X66825000Y-44826000D01*
X66825000Y-44450000D01*
X67325000Y-44450000D01*
X68234795Y-44450000D01*
X68234795Y-44449998D01*
X68234600Y-44447513D01*
X68188781Y-44289801D01*
X68105185Y-44148447D01*
X68105178Y-44148438D01*
X67989061Y-44032321D01*
X67988955Y-44032239D01*
X67988892Y-44032152D01*
X67983540Y-44026800D01*
X67984403Y-44025936D01*
X67948048Y-43975597D01*
X67944257Y-43905830D01*
X67978786Y-43845089D01*
X67999858Y-43828719D01*
X68018343Y-43817317D01*
X68142315Y-43693345D01*
X68234356Y-43544124D01*
X68234358Y-43544119D01*
X68289505Y-43377697D01*
X68289506Y-43377690D01*
X68299999Y-43274986D01*
X68300000Y-43274973D01*
X68300000Y-43000000D01*
X67550000Y-43000000D01*
X67550000Y-43894000D01*
X67530315Y-43961039D01*
X67477511Y-44006794D01*
X67426000Y-44018000D01*
X67325000Y-44018000D01*
X67325000Y-44450000D01*
X66825000Y-44450000D01*
X66825000Y-43981000D01*
X66844685Y-43913961D01*
X66897489Y-43868206D01*
X66949000Y-43857000D01*
X67050000Y-43857000D01*
X67050000Y-41525000D01*
X67550000Y-41525000D01*
X67550000Y-42500000D01*
X68299999Y-42500000D01*
X68299999Y-42225028D01*
X68299998Y-42225013D01*
X68289505Y-42122302D01*
X68234358Y-41955880D01*
X68234356Y-41955875D01*
X68142315Y-41806654D01*
X68018345Y-41682684D01*
X67869124Y-41590643D01*
X67869119Y-41590641D01*
X67702697Y-41535494D01*
X67702690Y-41535493D01*
X67599986Y-41525000D01*
X67550000Y-41525000D01*
X67050000Y-41525000D01*
X67049999Y-41524999D01*
X67000029Y-41525000D01*
X67000011Y-41525001D01*
X66897302Y-41535494D01*
X66731884Y-41590308D01*
X66662055Y-41592710D01*
X66602013Y-41556978D01*
X66570821Y-41494457D01*
X66568882Y-41472264D01*
X66569295Y-41327177D01*
X66589170Y-41260197D01*
X66642105Y-41214593D01*
X66711291Y-41204847D01*
X66732298Y-41209828D01*
X66897302Y-41264505D01*
X66897309Y-41264506D01*
X67000019Y-41274999D01*
X67049999Y-41274998D01*
X67050000Y-41274998D01*
X67050000Y-38825000D01*
X67049999Y-38824999D01*
X67000029Y-38825000D01*
X67000011Y-38825001D01*
X66897302Y-38835494D01*
X66739584Y-38887757D01*
X66669756Y-38890159D01*
X66609714Y-38854427D01*
X66578521Y-38791907D01*
X66576582Y-38769709D01*
X66578633Y-38049737D01*
X66598507Y-37982759D01*
X66651441Y-37937154D01*
X66708251Y-37929068D01*
X66708251Y-37926903D01*
X66861043Y-37926903D01*
X66861043Y-37926902D01*
X66968202Y-37895438D01*
X66999131Y-37886357D01*
X66999131Y-37886356D01*
X66999134Y-37886356D01*
X67120209Y-37808546D01*
X67214458Y-37699776D01*
X67274246Y-37568860D01*
X67294728Y-37426403D01*
X67283451Y-37347968D01*
X67293395Y-37278810D01*
X67339150Y-37226006D01*
X67371251Y-37211345D01*
X67410053Y-37199953D01*
X67531128Y-37122143D01*
X67625377Y-37013373D01*
X67685165Y-36882457D01*
X67705647Y-36740000D01*
X67685165Y-36597543D01*
X67625377Y-36466627D01*
X67625375Y-36466625D01*
X67621462Y-36460535D01*
X67601776Y-36393496D01*
X67621459Y-36326457D01*
X67665008Y-36285405D01*
X67672093Y-36281421D01*
X67792564Y-36190064D01*
X67883920Y-36069594D01*
X67884094Y-36069155D01*
X67884362Y-36068810D01*
X67888079Y-36062200D01*
X67889070Y-36062757D01*
X67926996Y-36014008D01*
X67930521Y-36011562D01*
X67980601Y-35978101D01*
X68035966Y-35895240D01*
X68035967Y-35895235D01*
X68047209Y-35838721D01*
X68079594Y-35776810D01*
X68140309Y-35742236D01*
X68210079Y-35745975D01*
X68262539Y-35781710D01*
X68286279Y-35809108D01*
X68318872Y-35846722D01*
X68439947Y-35924532D01*
X68439950Y-35924533D01*
X68439949Y-35924533D01*
X68578036Y-35965078D01*
X68578038Y-35965079D01*
X68578039Y-35965079D01*
X68721962Y-35965079D01*
X68721962Y-35965078D01*
X68829121Y-35933614D01*
X68860050Y-35924533D01*
X68860050Y-35924532D01*
X68860053Y-35924532D01*
X68981128Y-35846722D01*
X69075377Y-35737952D01*
X69135165Y-35607036D01*
X69151581Y-35492857D01*
X69156758Y-35456853D01*
X69185783Y-35393297D01*
X69244561Y-35355523D01*
X69279496Y-35350500D01*
X69321961Y-35350500D01*
X69390566Y-35330356D01*
X69460434Y-35330356D01*
X69519213Y-35368130D01*
G37*
G04 #@! TD.AperFunction*
G04 #@! TA.AperFunction,Conductor*
G36*
X74640734Y-37645185D02*
G01*
X74686489Y-37697989D01*
X74696433Y-37767147D01*
X74667408Y-37830703D01*
X74661376Y-37837181D01*
X74190662Y-38307894D01*
X74190661Y-38307894D01*
X74190662Y-38307895D01*
X74137636Y-38360921D01*
X74099500Y-38452988D01*
X74099500Y-42272011D01*
X74137636Y-42364079D01*
X74311876Y-42538319D01*
X74345361Y-42599642D01*
X74340377Y-42669334D01*
X74298505Y-42725267D01*
X74233041Y-42749684D01*
X74224195Y-42750000D01*
X73800000Y-42750000D01*
X73800000Y-43300000D01*
X74899620Y-43300000D01*
X74954380Y-43267243D01*
X75024214Y-43269487D01*
X75073156Y-43299598D01*
X75163182Y-43389624D01*
X75196666Y-43450945D01*
X75199500Y-43477304D01*
X75199500Y-44200494D01*
X75179815Y-44267533D01*
X75127011Y-44313288D01*
X75057853Y-44323232D01*
X75043412Y-44320270D01*
X75036708Y-44318474D01*
X75033862Y-44317675D01*
X74971963Y-44299500D01*
X74971961Y-44299500D01*
X74965892Y-44299500D01*
X74867258Y-44299500D01*
X74800219Y-44279815D01*
X74754464Y-44227011D01*
X74744520Y-44157853D01*
X74765185Y-44109142D01*
X74763712Y-44108271D01*
X74851281Y-43960198D01*
X74897100Y-43802486D01*
X74897295Y-43800001D01*
X74897295Y-43800000D01*
X73424000Y-43800000D01*
X73356961Y-43780315D01*
X73311206Y-43727511D01*
X73300000Y-43676000D01*
X73300000Y-42750000D01*
X72784350Y-42750000D01*
X72747510Y-42752899D01*
X72747504Y-42752900D01*
X72589806Y-42798716D01*
X72589803Y-42798717D01*
X72448447Y-42882314D01*
X72448438Y-42882321D01*
X72412181Y-42918579D01*
X72350858Y-42952064D01*
X72281166Y-42947080D01*
X72225233Y-42905208D01*
X72200816Y-42839744D01*
X72200500Y-42830898D01*
X72200500Y-38930123D01*
X72220185Y-38863084D01*
X72236819Y-38842442D01*
X73417442Y-37661819D01*
X73478765Y-37628334D01*
X73505123Y-37625500D01*
X73534108Y-37625500D01*
X74573695Y-37625500D01*
X74640734Y-37645185D01*
G37*
G04 #@! TD.AperFunction*
G04 #@! TA.AperFunction,Conductor*
G36*
X61987043Y-36540891D02*
G01*
X62035741Y-36590993D01*
X62049621Y-36659471D01*
X62038870Y-36700377D01*
X62007137Y-36769862D01*
X61986656Y-36912319D01*
X62007137Y-37054775D01*
X62041276Y-37129528D01*
X62066926Y-37185692D01*
X62161175Y-37294462D01*
X62282250Y-37372272D01*
X62282253Y-37372273D01*
X62282252Y-37372273D01*
X62420339Y-37412818D01*
X62420341Y-37412819D01*
X62420342Y-37412819D01*
X62564264Y-37412819D01*
X62671790Y-37381247D01*
X62741658Y-37381247D01*
X62800436Y-37419021D01*
X62829461Y-37482577D01*
X62819521Y-37551728D01*
X62816865Y-37557542D01*
X62796384Y-37700000D01*
X62816865Y-37842456D01*
X62851144Y-37917515D01*
X62876654Y-37973373D01*
X62970903Y-38082143D01*
X63091978Y-38159953D01*
X63091981Y-38159954D01*
X63091980Y-38159954D01*
X63154163Y-38178212D01*
X63207367Y-38193834D01*
X63230067Y-38200499D01*
X63230069Y-38200500D01*
X63230070Y-38200500D01*
X63373993Y-38200500D01*
X63373993Y-38200499D01*
X63512084Y-38159953D01*
X63633159Y-38082143D01*
X63666995Y-38043092D01*
X63725771Y-38005318D01*
X63795641Y-38005317D01*
X63827748Y-38019980D01*
X63889948Y-38059954D01*
X64028036Y-38100499D01*
X64028038Y-38100500D01*
X64028039Y-38100500D01*
X64171962Y-38100500D01*
X64171962Y-38100499D01*
X64300292Y-38062819D01*
X64310050Y-38059954D01*
X64310050Y-38059953D01*
X64310053Y-38059953D01*
X64431128Y-37982143D01*
X64525377Y-37873373D01*
X64585165Y-37742457D01*
X64589246Y-37714071D01*
X64618270Y-37650516D01*
X64677048Y-37612740D01*
X64711984Y-37607717D01*
X64811218Y-37607717D01*
X64811218Y-37607716D01*
X64949309Y-37567170D01*
X65070384Y-37489360D01*
X65164633Y-37380590D01*
X65164633Y-37380589D01*
X65170441Y-37373887D01*
X65173257Y-37376327D01*
X65212645Y-37342080D01*
X65281787Y-37332019D01*
X65345391Y-37360936D01*
X65383266Y-37419650D01*
X65387086Y-37437140D01*
X65403521Y-37551454D01*
X65455535Y-37665347D01*
X65463310Y-37682371D01*
X65557559Y-37791141D01*
X65678634Y-37868951D01*
X65678637Y-37868952D01*
X65678636Y-37868952D01*
X65816723Y-37909497D01*
X65816725Y-37909498D01*
X65816726Y-37909498D01*
X65960649Y-37909498D01*
X65960649Y-37909497D01*
X66083687Y-37873371D01*
X66098737Y-37868952D01*
X66098738Y-37868952D01*
X66098740Y-37868951D01*
X66212225Y-37796018D01*
X66279264Y-37776334D01*
X66346303Y-37796018D01*
X66392058Y-37848822D01*
X66402002Y-37917981D01*
X66398142Y-37935606D01*
X66381623Y-37991278D01*
X66373133Y-38049155D01*
X66371083Y-38769109D01*
X66371083Y-38769138D01*
X66371862Y-38787593D01*
X66373800Y-38809785D01*
X66394638Y-38883655D01*
X66425834Y-38946180D01*
X66438403Y-38967929D01*
X66438406Y-38967934D01*
X66475241Y-39003029D01*
X66504620Y-39031021D01*
X66514930Y-39037157D01*
X66562473Y-39088358D01*
X66575514Y-39144068D01*
X66570365Y-40951566D01*
X66550490Y-41018549D01*
X66512574Y-41053297D01*
X66513723Y-41054980D01*
X66507970Y-41058906D01*
X66455053Y-41104495D01*
X66455028Y-41104517D01*
X66437037Y-41122045D01*
X66437036Y-41122046D01*
X66392159Y-41201739D01*
X66372285Y-41268714D01*
X66363795Y-41326595D01*
X66363383Y-41471664D01*
X66363383Y-41471696D01*
X66364162Y-41490146D01*
X66364164Y-41490181D01*
X66366100Y-41512341D01*
X66366101Y-41512346D01*
X66386936Y-41586198D01*
X66418123Y-41648709D01*
X66418128Y-41648719D01*
X66430704Y-41670483D01*
X66430704Y-41670484D01*
X66496920Y-41733573D01*
X66496921Y-41733574D01*
X66507227Y-41739707D01*
X66554771Y-41790906D01*
X66567814Y-41846619D01*
X66564101Y-43150236D01*
X66544226Y-43217219D01*
X66491292Y-43262824D01*
X66422105Y-43272570D01*
X66358633Y-43243364D01*
X66332713Y-43211880D01*
X66331601Y-43209954D01*
X66329030Y-43205500D01*
X66310489Y-43173386D01*
X66136819Y-42999716D01*
X66103334Y-42938393D01*
X66100500Y-42912035D01*
X66100500Y-42220730D01*
X66097646Y-42190300D01*
X66097646Y-42190298D01*
X66064006Y-42094163D01*
X66052793Y-42062118D01*
X65972150Y-41952850D01*
X65862882Y-41872207D01*
X65862880Y-41872206D01*
X65734700Y-41827353D01*
X65704270Y-41824500D01*
X65704266Y-41824500D01*
X65095734Y-41824500D01*
X65095730Y-41824500D01*
X65065300Y-41827353D01*
X65065298Y-41827353D01*
X64937119Y-41872206D01*
X64937117Y-41872207D01*
X64827850Y-41952850D01*
X64747207Y-42062117D01*
X64747206Y-42062119D01*
X64702353Y-42190298D01*
X64702353Y-42190300D01*
X64699500Y-42220730D01*
X64699500Y-43279269D01*
X64702353Y-43309699D01*
X64702353Y-43309701D01*
X64744091Y-43428977D01*
X64747207Y-43437882D01*
X64827850Y-43547150D01*
X64937118Y-43627793D01*
X64979845Y-43642744D01*
X65065299Y-43672646D01*
X65095730Y-43675500D01*
X65095734Y-43675500D01*
X65375500Y-43675500D01*
X65442539Y-43695185D01*
X65488294Y-43747989D01*
X65499500Y-43799500D01*
X65499500Y-44078524D01*
X65479815Y-44145563D01*
X65427011Y-44191318D01*
X65357853Y-44201262D01*
X65345760Y-44199500D01*
X64254240Y-44199500D01*
X64254239Y-44199500D01*
X64186108Y-44209426D01*
X64081014Y-44260803D01*
X63998303Y-44343514D01*
X63946926Y-44448608D01*
X63937000Y-44516739D01*
X63937000Y-44883260D01*
X63946926Y-44951391D01*
X63998303Y-45056485D01*
X64081014Y-45139196D01*
X64081015Y-45139196D01*
X64081017Y-45139198D01*
X64186107Y-45190573D01*
X64220173Y-45195536D01*
X64254239Y-45200500D01*
X64254240Y-45200500D01*
X65345757Y-45200500D01*
X65345760Y-45200500D01*
X65372667Y-45196579D01*
X65441841Y-45206391D01*
X65494733Y-45252045D01*
X65510319Y-45287188D01*
X65516779Y-45311298D01*
X65516790Y-45311335D01*
X65530199Y-45361383D01*
X65530200Y-45361384D01*
X65530201Y-45361386D01*
X65589511Y-45464113D01*
X65589513Y-45464115D01*
X65861049Y-45735651D01*
X65894534Y-45796974D01*
X65889550Y-45866666D01*
X65871314Y-45891024D01*
X65891878Y-45874502D01*
X65961358Y-45867133D01*
X66023792Y-45898497D01*
X66026848Y-45901450D01*
X66135887Y-46010489D01*
X66135888Y-46010490D01*
X66135890Y-46010491D01*
X66232725Y-46066399D01*
X66280941Y-46116966D01*
X66294163Y-46185573D01*
X66276249Y-46233520D01*
X66277815Y-46234286D01*
X66221926Y-46348608D01*
X66212000Y-46416739D01*
X66212000Y-46783260D01*
X66221926Y-46851391D01*
X66273303Y-46956485D01*
X66356014Y-47039196D01*
X66356015Y-47039196D01*
X66356017Y-47039198D01*
X66461107Y-47090573D01*
X66461109Y-47090573D01*
X66465141Y-47091819D01*
X66469315Y-47094585D01*
X66469758Y-47094802D01*
X66469729Y-47094860D01*
X66523382Y-47130418D01*
X66551509Y-47194376D01*
X66552534Y-47210647D01*
X66551918Y-47426631D01*
X66532043Y-47493614D01*
X66491636Y-47528424D01*
X66493258Y-47530851D01*
X66483101Y-47537637D01*
X66034925Y-47985813D01*
X65973602Y-48019298D01*
X65903910Y-48014314D01*
X65855227Y-47980204D01*
X65854728Y-47980657D01*
X65853454Y-47979251D01*
X65836019Y-47961153D01*
X65836011Y-47961148D01*
X65756580Y-47915836D01*
X65756577Y-47915834D01*
X65689709Y-47895588D01*
X65689702Y-47895586D01*
X65631888Y-47886777D01*
X63454078Y-47868476D01*
X63387206Y-47848228D01*
X63341897Y-47795042D01*
X63332535Y-47725802D01*
X63362093Y-47662493D01*
X63416117Y-47626774D01*
X63544117Y-47584359D01*
X63544124Y-47584356D01*
X63693345Y-47492315D01*
X63817318Y-47368342D01*
X63821800Y-47362675D01*
X63822796Y-47363463D01*
X63869190Y-47321723D01*
X63938151Y-47310493D01*
X63985916Y-47326806D01*
X64027303Y-47351282D01*
X64027306Y-47351283D01*
X64185004Y-47397099D01*
X64185010Y-47397100D01*
X64221850Y-47399999D01*
X64221866Y-47400000D01*
X64550000Y-47400000D01*
X64550000Y-46850000D01*
X65050000Y-46850000D01*
X65050000Y-47400000D01*
X65378134Y-47400000D01*
X65378149Y-47399999D01*
X65414989Y-47397100D01*
X65414995Y-47397099D01*
X65572693Y-47351283D01*
X65572696Y-47351282D01*
X65714052Y-47267685D01*
X65714061Y-47267678D01*
X65830178Y-47151561D01*
X65830185Y-47151552D01*
X65913781Y-47010198D01*
X65959600Y-46852486D01*
X65959795Y-46850001D01*
X65959795Y-46850000D01*
X65050000Y-46850000D01*
X64550000Y-46850000D01*
X64018000Y-46850000D01*
X64004319Y-46863681D01*
X63942996Y-46897166D01*
X63916638Y-46900000D01*
X61525001Y-46900000D01*
X61525001Y-46949986D01*
X61535494Y-47052697D01*
X61590641Y-47219119D01*
X61590643Y-47219124D01*
X61682684Y-47368345D01*
X61806654Y-47492315D01*
X61955875Y-47584356D01*
X61955880Y-47584358D01*
X62101371Y-47632569D01*
X62158816Y-47672341D01*
X62185639Y-47736857D01*
X62173324Y-47805633D01*
X62125781Y-47856833D01*
X62095697Y-47868401D01*
X62096039Y-47869609D01*
X62091174Y-47870985D01*
X62025714Y-47895400D01*
X62002742Y-47905607D01*
X62002739Y-47905609D01*
X61934151Y-47963826D01*
X61870302Y-47992200D01*
X61801249Y-47981550D01*
X61766229Y-47956969D01*
X61535062Y-47725802D01*
X61236819Y-47427558D01*
X61203334Y-47366235D01*
X61200500Y-47339877D01*
X61200500Y-46400000D01*
X61525000Y-46400000D01*
X63594500Y-46400000D01*
X63608181Y-46386319D01*
X63669504Y-46352834D01*
X63695862Y-46350000D01*
X64550000Y-46350000D01*
X64550000Y-45800000D01*
X65050000Y-45800000D01*
X65050000Y-46350000D01*
X65959795Y-46350000D01*
X65959795Y-46349998D01*
X65959600Y-46347513D01*
X65913781Y-46189801D01*
X65832435Y-46052252D01*
X65815252Y-45984528D01*
X65834293Y-45927591D01*
X65782214Y-45947016D01*
X65713941Y-45932164D01*
X65710247Y-45930064D01*
X65572696Y-45848717D01*
X65572693Y-45848716D01*
X65414995Y-45802900D01*
X65414989Y-45802899D01*
X65378149Y-45800000D01*
X65050000Y-45800000D01*
X64550000Y-45800000D01*
X64221850Y-45800000D01*
X64185010Y-45802899D01*
X64185004Y-45802900D01*
X64027306Y-45848716D01*
X64027303Y-45848717D01*
X63926025Y-45908613D01*
X63858301Y-45925796D01*
X63792038Y-45903636D01*
X63775223Y-45889562D01*
X63693345Y-45807684D01*
X63544124Y-45715643D01*
X63544119Y-45715641D01*
X63375917Y-45659905D01*
X63318472Y-45620133D01*
X63291649Y-45555617D01*
X63303964Y-45486841D01*
X63351507Y-45435641D01*
X63373966Y-45425158D01*
X63385566Y-45421099D01*
X63437882Y-45402793D01*
X63547150Y-45322150D01*
X63627793Y-45212882D01*
X63659254Y-45122971D01*
X63672646Y-45084701D01*
X63672646Y-45084699D01*
X63675500Y-45054269D01*
X63675500Y-44445730D01*
X63672646Y-44415300D01*
X63672646Y-44415298D01*
X63635599Y-44309427D01*
X63627793Y-44287118D01*
X63547150Y-44177850D01*
X63437882Y-44097207D01*
X63437880Y-44097206D01*
X63309700Y-44052353D01*
X63279270Y-44049500D01*
X63279266Y-44049500D01*
X62220734Y-44049500D01*
X62220730Y-44049500D01*
X62190300Y-44052353D01*
X62190298Y-44052353D01*
X62062119Y-44097206D01*
X62062117Y-44097207D01*
X61952850Y-44177850D01*
X61872207Y-44287117D01*
X61872206Y-44287119D01*
X61827353Y-44415298D01*
X61827353Y-44415300D01*
X61824500Y-44445730D01*
X61824500Y-45054269D01*
X61827353Y-45084699D01*
X61827353Y-45084701D01*
X61872206Y-45212880D01*
X61872207Y-45212882D01*
X61952850Y-45322150D01*
X62062118Y-45402793D01*
X62126033Y-45425158D01*
X62182807Y-45465878D01*
X62208555Y-45530830D01*
X62195099Y-45599392D01*
X62146712Y-45649795D01*
X62124082Y-45659904D01*
X61955878Y-45715642D01*
X61955875Y-45715643D01*
X61806654Y-45807684D01*
X61682684Y-45931654D01*
X61590643Y-46080875D01*
X61590641Y-46080880D01*
X61535494Y-46247302D01*
X61535493Y-46247309D01*
X61525000Y-46350013D01*
X61525000Y-46400000D01*
X61200500Y-46400000D01*
X61200500Y-42750000D01*
X61694353Y-42750000D01*
X61714834Y-42892456D01*
X61751625Y-42973015D01*
X61774623Y-43023373D01*
X61868872Y-43132143D01*
X61989947Y-43209953D01*
X61989950Y-43209954D01*
X61989949Y-43209954D01*
X62128036Y-43250499D01*
X62128038Y-43250500D01*
X62128039Y-43250500D01*
X62164121Y-43250500D01*
X62191715Y-43253609D01*
X62200000Y-43255500D01*
X63400003Y-43255500D01*
X63400003Y-43255499D01*
X63437456Y-43251280D01*
X63451340Y-43250500D01*
X63471962Y-43250500D01*
X63471962Y-43250499D01*
X63585307Y-43217219D01*
X63610050Y-43209954D01*
X63610050Y-43209953D01*
X63610053Y-43209953D01*
X63731128Y-43132143D01*
X63825377Y-43023373D01*
X63885165Y-42892457D01*
X63905647Y-42750000D01*
X63885165Y-42607543D01*
X63825377Y-42476627D01*
X63731128Y-42367857D01*
X63610053Y-42290047D01*
X63610051Y-42290046D01*
X63610049Y-42290045D01*
X63610050Y-42290045D01*
X63471963Y-42249500D01*
X63471961Y-42249500D01*
X63435879Y-42249500D01*
X63408285Y-42246391D01*
X63400001Y-42244500D01*
X63400000Y-42244500D01*
X62200000Y-42244500D01*
X62199995Y-42244500D01*
X62162544Y-42248720D01*
X62148660Y-42249500D01*
X62128036Y-42249500D01*
X61989949Y-42290045D01*
X61868873Y-42367856D01*
X61774623Y-42476626D01*
X61774622Y-42476628D01*
X61714834Y-42607543D01*
X61694353Y-42750000D01*
X61200500Y-42750000D01*
X61200500Y-42300173D01*
X61200499Y-42300170D01*
X61162364Y-42208103D01*
X61091897Y-42137636D01*
X61015323Y-42061062D01*
X60981838Y-41999739D01*
X60986822Y-41930047D01*
X61028694Y-41874114D01*
X61094158Y-41849697D01*
X61114580Y-41849922D01*
X61120734Y-41850500D01*
X61120736Y-41850500D01*
X62179270Y-41850500D01*
X62209699Y-41847646D01*
X62209701Y-41847646D01*
X62275847Y-41824500D01*
X62337882Y-41802793D01*
X62447150Y-41722150D01*
X62527793Y-41612882D01*
X62532959Y-41598117D01*
X62573680Y-41541342D01*
X62638633Y-41515595D01*
X62707195Y-41529051D01*
X62757598Y-41577439D01*
X62767040Y-41598116D01*
X62772207Y-41612882D01*
X62852850Y-41722150D01*
X62962118Y-41802793D01*
X63004845Y-41817744D01*
X63090299Y-41847646D01*
X63120730Y-41850500D01*
X63120734Y-41850500D01*
X64179270Y-41850500D01*
X64209699Y-41847646D01*
X64209701Y-41847646D01*
X64275847Y-41824500D01*
X64337882Y-41802793D01*
X64447150Y-41722150D01*
X64527793Y-41612882D01*
X64557127Y-41529051D01*
X64572646Y-41484701D01*
X64572646Y-41484699D01*
X64575500Y-41454269D01*
X64575500Y-40882058D01*
X64595185Y-40815019D01*
X64647989Y-40769264D01*
X64717147Y-40759320D01*
X64780703Y-40788345D01*
X64799265Y-40808418D01*
X64827850Y-40847150D01*
X64937118Y-40927793D01*
X64979260Y-40942539D01*
X65065299Y-40972646D01*
X65095730Y-40975500D01*
X65095734Y-40975500D01*
X65704270Y-40975500D01*
X65734699Y-40972646D01*
X65734701Y-40972646D01*
X65820740Y-40942539D01*
X65862882Y-40927793D01*
X65972150Y-40847150D01*
X66052793Y-40737882D01*
X66079170Y-40662502D01*
X66097646Y-40609701D01*
X66097646Y-40609699D01*
X66100500Y-40579269D01*
X66100500Y-39520730D01*
X66097646Y-39490300D01*
X66097646Y-39490298D01*
X66056248Y-39371993D01*
X66052793Y-39362118D01*
X65972150Y-39252850D01*
X65862882Y-39172207D01*
X65862880Y-39172206D01*
X65734700Y-39127353D01*
X65704270Y-39124500D01*
X65704266Y-39124500D01*
X65095734Y-39124500D01*
X65095730Y-39124500D01*
X65065300Y-39127353D01*
X65065298Y-39127353D01*
X64937119Y-39172206D01*
X64937117Y-39172207D01*
X64875150Y-39217941D01*
X64827850Y-39252850D01*
X64800424Y-39290012D01*
X64799270Y-39291575D01*
X64743622Y-39333825D01*
X64673966Y-39339284D01*
X64612417Y-39306216D01*
X64578516Y-39245122D01*
X64575500Y-39217941D01*
X64575500Y-38945730D01*
X64572646Y-38915300D01*
X64572646Y-38915298D01*
X64527959Y-38787593D01*
X64527793Y-38787118D01*
X64447150Y-38677850D01*
X64337882Y-38597207D01*
X64337880Y-38597206D01*
X64209700Y-38552353D01*
X64179270Y-38549500D01*
X64179266Y-38549500D01*
X63120734Y-38549500D01*
X63120730Y-38549500D01*
X63090300Y-38552353D01*
X63090298Y-38552354D01*
X62975451Y-38592541D01*
X62934496Y-38599500D01*
X62365504Y-38599500D01*
X62324549Y-38592541D01*
X62209701Y-38552354D01*
X62209699Y-38552353D01*
X62179270Y-38549500D01*
X62179266Y-38549500D01*
X62010280Y-38549500D01*
X61943241Y-38529815D01*
X61922599Y-38513181D01*
X60686819Y-37277400D01*
X60653334Y-37216077D01*
X60650500Y-37189719D01*
X60650500Y-36649285D01*
X60670185Y-36582246D01*
X60722989Y-36536491D01*
X60792147Y-36526547D01*
X60837622Y-36545005D01*
X60838085Y-36544097D01*
X60846778Y-36548526D01*
X60846780Y-36548528D01*
X60966874Y-36609719D01*
X60966876Y-36609719D01*
X60966878Y-36609720D01*
X61066507Y-36625500D01*
X61066512Y-36625500D01*
X61633493Y-36625500D01*
X61733121Y-36609720D01*
X61733121Y-36609719D01*
X61733126Y-36609719D01*
X61853220Y-36548528D01*
X61853221Y-36548526D01*
X61861915Y-36544097D01*
X61862492Y-36545230D01*
X61918988Y-36525070D01*
X61987043Y-36540891D01*
G37*
G04 #@! TD.AperFunction*
G04 #@! TA.AperFunction,Conductor*
G36*
X61426306Y-31030465D02*
G01*
X61482240Y-31072336D01*
X61505711Y-31129000D01*
X61514834Y-31192456D01*
X61574622Y-31323371D01*
X61574623Y-31323373D01*
X61668872Y-31432143D01*
X61668873Y-31432143D01*
X61674680Y-31438845D01*
X61673598Y-31439781D01*
X61706236Y-31490565D01*
X61706236Y-31560434D01*
X61668462Y-31619213D01*
X61604907Y-31648238D01*
X61587259Y-31649500D01*
X61445730Y-31649500D01*
X61415300Y-31652353D01*
X61415298Y-31652353D01*
X61287119Y-31697206D01*
X61287117Y-31697207D01*
X61177850Y-31777850D01*
X61097207Y-31887117D01*
X61097206Y-31887119D01*
X61052353Y-32015298D01*
X61052353Y-32015300D01*
X61049500Y-32045730D01*
X61049500Y-32804269D01*
X61052353Y-32834699D01*
X61052353Y-32834701D01*
X61097206Y-32962880D01*
X61097207Y-32962882D01*
X61177850Y-33072150D01*
X61287118Y-33152793D01*
X61329677Y-33167685D01*
X61415299Y-33197646D01*
X61445730Y-33200500D01*
X62390975Y-33200500D01*
X62458014Y-33220185D01*
X62503769Y-33272989D01*
X62513713Y-33342147D01*
X62484688Y-33405703D01*
X62425910Y-33443477D01*
X62415165Y-33446118D01*
X62410734Y-33446999D01*
X62386714Y-33456949D01*
X62362693Y-33466899D01*
X62318665Y-33485136D01*
X62318663Y-33485137D01*
X62248198Y-33555603D01*
X62248196Y-33555604D01*
X62198532Y-33605267D01*
X62137209Y-33638751D01*
X62067517Y-33633766D01*
X62045755Y-33623123D01*
X61908492Y-33538457D01*
X61908481Y-33538452D01*
X61747606Y-33485144D01*
X61648322Y-33475000D01*
X61600000Y-33475000D01*
X61600000Y-34551000D01*
X61580315Y-34618039D01*
X61527511Y-34663794D01*
X61476000Y-34675000D01*
X61224000Y-34675000D01*
X61156961Y-34655315D01*
X61111206Y-34602511D01*
X61100000Y-34551000D01*
X61100000Y-33475000D01*
X61099999Y-33474999D01*
X61051693Y-33475000D01*
X61051675Y-33475001D01*
X60952392Y-33485144D01*
X60813504Y-33531167D01*
X60743675Y-33533569D01*
X60683634Y-33497837D01*
X60652441Y-33435316D01*
X60650500Y-33413461D01*
X60650500Y-31755121D01*
X60670185Y-31688082D01*
X60686815Y-31667444D01*
X61295294Y-31058964D01*
X61356615Y-31025481D01*
X61426306Y-31030465D01*
G37*
G04 #@! TD.AperFunction*
G04 #@! TA.AperFunction,Conductor*
G36*
X63443039Y-33167685D02*
G01*
X63488794Y-33220489D01*
X63500000Y-33272000D01*
X63500000Y-33323000D01*
X63480315Y-33390039D01*
X63427511Y-33435794D01*
X63376000Y-33447000D01*
X62876063Y-33447000D01*
X62809024Y-33427315D01*
X62763269Y-33374511D01*
X62753325Y-33305353D01*
X62782350Y-33241797D01*
X62841128Y-33204023D01*
X62864486Y-33199542D01*
X62884699Y-33197646D01*
X62884701Y-33197646D01*
X63006692Y-33154959D01*
X63047647Y-33148000D01*
X63376000Y-33148000D01*
X63443039Y-33167685D01*
G37*
G04 #@! TD.AperFunction*
G04 #@! TA.AperFunction,Conductor*
G36*
X73798577Y-14564967D02*
G01*
X73861763Y-14564966D01*
X73867172Y-14565084D01*
X74251245Y-14581849D01*
X74261978Y-14582789D01*
X74640451Y-14632614D01*
X74651070Y-14634486D01*
X75023770Y-14717108D01*
X75034185Y-14719899D01*
X75398243Y-14834684D01*
X75408386Y-14838375D01*
X75761082Y-14984462D01*
X75770842Y-14989014D01*
X76036609Y-15127362D01*
X76109442Y-15165276D01*
X76118810Y-15170685D01*
X76440734Y-15375770D01*
X76449596Y-15381975D01*
X76695910Y-15570976D01*
X76752422Y-15614338D01*
X76760705Y-15621287D01*
X76944768Y-15789948D01*
X77042138Y-15879170D01*
X77049787Y-15886819D01*
X77307669Y-16168245D01*
X77314622Y-16176532D01*
X77546987Y-16479350D01*
X77553192Y-16488211D01*
X77758284Y-16810138D01*
X77763693Y-16819506D01*
X77939950Y-17158086D01*
X77944522Y-17167891D01*
X78090595Y-17520536D01*
X78094295Y-17530701D01*
X78209082Y-17894751D01*
X78211881Y-17905199D01*
X78294497Y-18277841D01*
X78296376Y-18288495D01*
X78346202Y-18666939D01*
X78347145Y-18677715D01*
X78363848Y-19060208D01*
X78363966Y-19065618D01*
X78363966Y-20648786D01*
X78344281Y-20715825D01*
X78291477Y-20761580D01*
X78222319Y-20771524D01*
X78166333Y-20748556D01*
X78062886Y-20672209D01*
X78062880Y-20672206D01*
X77934700Y-20627353D01*
X77904270Y-20624500D01*
X77904266Y-20624500D01*
X75595734Y-20624500D01*
X75595730Y-20624500D01*
X75565300Y-20627353D01*
X75565298Y-20627353D01*
X75437119Y-20672206D01*
X75437117Y-20672207D01*
X75327850Y-20752850D01*
X75247207Y-20862117D01*
X75247206Y-20862119D01*
X75202353Y-20990298D01*
X75202353Y-20990300D01*
X75199500Y-21020730D01*
X75199500Y-21629269D01*
X75202353Y-21659699D01*
X75202353Y-21659701D01*
X75247206Y-21787880D01*
X75247207Y-21787882D01*
X75327850Y-21897150D01*
X75437118Y-21977793D01*
X75453794Y-21983628D01*
X75565299Y-22022646D01*
X75595730Y-22025500D01*
X75595734Y-22025500D01*
X77904270Y-22025500D01*
X77934699Y-22022646D01*
X77934701Y-22022646D01*
X77998790Y-22000219D01*
X78062882Y-21977793D01*
X78166334Y-21901442D01*
X78231961Y-21877472D01*
X78300131Y-21892787D01*
X78349200Y-21942527D01*
X78363966Y-22001213D01*
X78363966Y-28098786D01*
X78344281Y-28165825D01*
X78291477Y-28211580D01*
X78222319Y-28221524D01*
X78166333Y-28198556D01*
X78062886Y-28122209D01*
X78062880Y-28122206D01*
X77934700Y-28077353D01*
X77904270Y-28074500D01*
X77904266Y-28074500D01*
X75595734Y-28074500D01*
X75595730Y-28074500D01*
X75565300Y-28077353D01*
X75565298Y-28077353D01*
X75437119Y-28122206D01*
X75437117Y-28122207D01*
X75327848Y-28202851D01*
X75322461Y-28210151D01*
X75266813Y-28252400D01*
X75257628Y-28255492D01*
X75139949Y-28290045D01*
X75018873Y-28367856D01*
X74924623Y-28476626D01*
X74924622Y-28476628D01*
X74864834Y-28607543D01*
X74844353Y-28750000D01*
X74864834Y-28892456D01*
X74888011Y-28943205D01*
X74924623Y-29023373D01*
X75018872Y-29132143D01*
X75139947Y-29209953D01*
X75210515Y-29230673D01*
X75269292Y-29268446D01*
X75275350Y-29276016D01*
X75301089Y-29310890D01*
X75327850Y-29347150D01*
X75437118Y-29427793D01*
X75453794Y-29433628D01*
X75565299Y-29472646D01*
X75595730Y-29475500D01*
X75595734Y-29475500D01*
X76125500Y-29475500D01*
X76192539Y-29495185D01*
X76238294Y-29547989D01*
X76249500Y-29599500D01*
X76249500Y-30386917D01*
X76229815Y-30453956D01*
X76177011Y-30499711D01*
X76125997Y-30510916D01*
X72149996Y-30526852D01*
X72082878Y-30507436D01*
X72036912Y-30454816D01*
X72025499Y-30402856D01*
X72025499Y-30043482D01*
X72010646Y-29949696D01*
X71953050Y-29836658D01*
X71953046Y-29836654D01*
X71953045Y-29836652D01*
X71863347Y-29746954D01*
X71863344Y-29746952D01*
X71863342Y-29746950D01*
X71786517Y-29707805D01*
X71750301Y-29689352D01*
X71656524Y-29674500D01*
X71043482Y-29674500D01*
X70962519Y-29687323D01*
X70949696Y-29689354D01*
X70836658Y-29746950D01*
X70836657Y-29746951D01*
X70836652Y-29746954D01*
X70746954Y-29836652D01*
X70746949Y-29836659D01*
X70710483Y-29908226D01*
X70662508Y-29959022D01*
X70594687Y-29975816D01*
X70528552Y-29953278D01*
X70489516Y-29908226D01*
X70453050Y-29836658D01*
X70453047Y-29836655D01*
X70453045Y-29836652D01*
X70363347Y-29746954D01*
X70363344Y-29746952D01*
X70363342Y-29746950D01*
X70286517Y-29707805D01*
X70250301Y-29689352D01*
X70156524Y-29674500D01*
X69543482Y-29674500D01*
X69462519Y-29687323D01*
X69449696Y-29689354D01*
X69336658Y-29746950D01*
X69336657Y-29746951D01*
X69336652Y-29746954D01*
X69246954Y-29836652D01*
X69246951Y-29836657D01*
X69246950Y-29836658D01*
X69237978Y-29854266D01*
X69189352Y-29949698D01*
X69174500Y-30043475D01*
X69174500Y-30415274D01*
X69154815Y-30482313D01*
X69102011Y-30528068D01*
X69050997Y-30539273D01*
X68425634Y-30541780D01*
X68358516Y-30522364D01*
X68312550Y-30469744D01*
X68302329Y-30400626D01*
X68331099Y-30336955D01*
X68337431Y-30330126D01*
X70480002Y-28187554D01*
X70541323Y-28154071D01*
X70611015Y-28159055D01*
X70666948Y-28200927D01*
X70691365Y-28266391D01*
X70690155Y-28294634D01*
X70674500Y-28393480D01*
X70674500Y-28856517D01*
X70684152Y-28917456D01*
X70689354Y-28950304D01*
X70746950Y-29063342D01*
X70746952Y-29063344D01*
X70746954Y-29063347D01*
X70836652Y-29153045D01*
X70836654Y-29153046D01*
X70836658Y-29153050D01*
X70948336Y-29209953D01*
X70949698Y-29210647D01*
X71043475Y-29225499D01*
X71043481Y-29225500D01*
X71656518Y-29225499D01*
X71750304Y-29210646D01*
X71863342Y-29153050D01*
X71953050Y-29063342D01*
X72010646Y-28950304D01*
X72010646Y-28950303D01*
X72014263Y-28943205D01*
X72062238Y-28892409D01*
X72124748Y-28875500D01*
X74027644Y-28875500D01*
X74027646Y-28875500D01*
X74119715Y-28837364D01*
X77577806Y-25379272D01*
X77630551Y-25347978D01*
X77760050Y-25309954D01*
X77760050Y-25309953D01*
X77760053Y-25309953D01*
X77881128Y-25232143D01*
X77975377Y-25123373D01*
X78035165Y-24992457D01*
X78055647Y-24850000D01*
X78035165Y-24707543D01*
X77975377Y-24576627D01*
X77881128Y-24467857D01*
X77760053Y-24390047D01*
X77760051Y-24390046D01*
X77760049Y-24390045D01*
X77760050Y-24390045D01*
X77621963Y-24349500D01*
X77621961Y-24349500D01*
X77478039Y-24349500D01*
X77478036Y-24349500D01*
X77339949Y-24390045D01*
X77218873Y-24467856D01*
X77218872Y-24467856D01*
X77218872Y-24467857D01*
X77217304Y-24469667D01*
X77124623Y-24576626D01*
X77124622Y-24576628D01*
X77064834Y-24707543D01*
X77044353Y-24850000D01*
X77064834Y-24992456D01*
X77089033Y-25045442D01*
X77098977Y-25114600D01*
X77069952Y-25178156D01*
X77063920Y-25184635D01*
X75536796Y-26711759D01*
X75475473Y-26745244D01*
X75405781Y-26740260D01*
X75349848Y-26698388D01*
X75336321Y-26675591D01*
X75325377Y-26651627D01*
X75320502Y-26646001D01*
X75317306Y-26642312D01*
X75303628Y-26623104D01*
X75300499Y-26617685D01*
X75269677Y-26586863D01*
X75263659Y-26580401D01*
X75231128Y-26542857D01*
X75231125Y-26542854D01*
X75227066Y-26540246D01*
X75211793Y-26527937D01*
X75207318Y-26524504D01*
X75207314Y-26524500D01*
X75195404Y-26517623D01*
X75163121Y-26498984D01*
X75158085Y-26495915D01*
X75142350Y-26485803D01*
X75110053Y-26465047D01*
X75110051Y-26465046D01*
X75110049Y-26465045D01*
X75109004Y-26464567D01*
X75099375Y-26461171D01*
X75093192Y-26458610D01*
X75093187Y-26458608D01*
X75093186Y-26458608D01*
X75036701Y-26443473D01*
X75033862Y-26442675D01*
X74971963Y-26424500D01*
X74971961Y-26424500D01*
X74965892Y-26424500D01*
X74283260Y-26424500D01*
X72816740Y-26424500D01*
X72816739Y-26424500D01*
X72748608Y-26434426D01*
X72643514Y-26485803D01*
X72614163Y-26515154D01*
X72552839Y-26548639D01*
X72483148Y-26543653D01*
X72459444Y-26531788D01*
X72453382Y-26527892D01*
X72410054Y-26500047D01*
X72410052Y-26500046D01*
X72410050Y-26500045D01*
X72406002Y-26498196D01*
X72402639Y-26495282D01*
X72402594Y-26495253D01*
X72402598Y-26495246D01*
X72353199Y-26452440D01*
X72333516Y-26385400D01*
X72353202Y-26318361D01*
X72369827Y-26297730D01*
X72520362Y-26147194D01*
X72581682Y-26113712D01*
X72651373Y-26118696D01*
X72662490Y-26123473D01*
X72730872Y-26156903D01*
X72748607Y-26165573D01*
X72816739Y-26175500D01*
X72816740Y-26175500D01*
X74971963Y-26175500D01*
X74971963Y-26175499D01*
X75012433Y-26163616D01*
X75033902Y-26157312D01*
X75036681Y-26156531D01*
X75093186Y-26141392D01*
X75093189Y-26141389D01*
X75099367Y-26138832D01*
X75108996Y-26135434D01*
X75110045Y-26134955D01*
X75110053Y-26134953D01*
X75158087Y-26104082D01*
X75163102Y-26101025D01*
X75207314Y-26075500D01*
X75207321Y-26075492D01*
X75211828Y-26072035D01*
X75227067Y-26059752D01*
X75231128Y-26057143D01*
X75263653Y-26019605D01*
X75269673Y-26013140D01*
X75269677Y-26013136D01*
X75300500Y-25982314D01*
X75303628Y-25976894D01*
X75317306Y-25957687D01*
X75325377Y-25948373D01*
X75342912Y-25909974D01*
X75348311Y-25899502D01*
X75366392Y-25868186D01*
X75369952Y-25854898D01*
X75376934Y-25835479D01*
X75385164Y-25817459D01*
X75385163Y-25817459D01*
X75385165Y-25817457D01*
X75390111Y-25783053D01*
X75393074Y-25768606D01*
X75395869Y-25758175D01*
X75400500Y-25740892D01*
X75400500Y-25719667D01*
X75401762Y-25702020D01*
X75405647Y-25674999D01*
X75401762Y-25647977D01*
X75400500Y-25630331D01*
X75400500Y-25609110D01*
X75400500Y-25609108D01*
X75393073Y-25581390D01*
X75390111Y-25566946D01*
X75385165Y-25532545D01*
X75385165Y-25532543D01*
X75376928Y-25514509D01*
X75369949Y-25495091D01*
X75366392Y-25481814D01*
X75348313Y-25450500D01*
X75342911Y-25440020D01*
X75325380Y-25401633D01*
X75325379Y-25401631D01*
X75325377Y-25401627D01*
X75325372Y-25401621D01*
X75317306Y-25392312D01*
X75303628Y-25373104D01*
X75300499Y-25367685D01*
X75269677Y-25336863D01*
X75263659Y-25330401D01*
X75231128Y-25292857D01*
X75231125Y-25292854D01*
X75227066Y-25290246D01*
X75211793Y-25277937D01*
X75207318Y-25274504D01*
X75207314Y-25274500D01*
X75195404Y-25267623D01*
X75163121Y-25248984D01*
X75158085Y-25245915D01*
X75136655Y-25232143D01*
X75110053Y-25215047D01*
X75110051Y-25215046D01*
X75110049Y-25215045D01*
X75109004Y-25214567D01*
X75099375Y-25211171D01*
X75093192Y-25208610D01*
X75093187Y-25208608D01*
X75093186Y-25208608D01*
X75036701Y-25193473D01*
X75033862Y-25192675D01*
X74971963Y-25174500D01*
X74971961Y-25174500D01*
X74965892Y-25174500D01*
X74283260Y-25174500D01*
X72824500Y-25174500D01*
X72757461Y-25154815D01*
X72711706Y-25102011D01*
X72700500Y-25050500D01*
X72700500Y-25049500D01*
X72720185Y-24982461D01*
X72772989Y-24936706D01*
X72824500Y-24925500D01*
X74971963Y-24925500D01*
X74971963Y-24925499D01*
X75010226Y-24914263D01*
X75033902Y-24907312D01*
X75036681Y-24906531D01*
X75093186Y-24891392D01*
X75093189Y-24891389D01*
X75099367Y-24888832D01*
X75108996Y-24885434D01*
X75110045Y-24884955D01*
X75110053Y-24884953D01*
X75158087Y-24854082D01*
X75163102Y-24851025D01*
X75207314Y-24825500D01*
X75207321Y-24825492D01*
X75211828Y-24822035D01*
X75227067Y-24809752D01*
X75231128Y-24807143D01*
X75263653Y-24769605D01*
X75269673Y-24763140D01*
X75269677Y-24763136D01*
X75300500Y-24732314D01*
X75303628Y-24726894D01*
X75317306Y-24707687D01*
X75325377Y-24698373D01*
X75342912Y-24659974D01*
X75348311Y-24649502D01*
X75366392Y-24618186D01*
X75369952Y-24604898D01*
X75376934Y-24585479D01*
X75385164Y-24567459D01*
X75385163Y-24567459D01*
X75385165Y-24567457D01*
X75390111Y-24533053D01*
X75393074Y-24518606D01*
X75394263Y-24514165D01*
X75400500Y-24490892D01*
X75400500Y-24469667D01*
X75401762Y-24452020D01*
X75404585Y-24432386D01*
X75405647Y-24425000D01*
X75404253Y-24415301D01*
X75401762Y-24397977D01*
X75400500Y-24380331D01*
X75400500Y-24359110D01*
X75400500Y-24359108D01*
X75393073Y-24331390D01*
X75390111Y-24316946D01*
X75385823Y-24287119D01*
X75385165Y-24282543D01*
X75376928Y-24264509D01*
X75369949Y-24245091D01*
X75366392Y-24231814D01*
X75348316Y-24200506D01*
X75342911Y-24190020D01*
X75325380Y-24151633D01*
X75325379Y-24151631D01*
X75325377Y-24151627D01*
X75325372Y-24151621D01*
X75317306Y-24142312D01*
X75303628Y-24123104D01*
X75300499Y-24117685D01*
X75269677Y-24086863D01*
X75263659Y-24080401D01*
X75231128Y-24042857D01*
X75231125Y-24042854D01*
X75227066Y-24040246D01*
X75211793Y-24027937D01*
X75207318Y-24024504D01*
X75207314Y-24024500D01*
X75195404Y-24017623D01*
X75163121Y-23998984D01*
X75158085Y-23995915D01*
X75148956Y-23990048D01*
X75110053Y-23965047D01*
X75110051Y-23965046D01*
X75110049Y-23965045D01*
X75109004Y-23964567D01*
X75099375Y-23961171D01*
X75093192Y-23958610D01*
X75093187Y-23958608D01*
X75093186Y-23958608D01*
X75036701Y-23943473D01*
X75033862Y-23942675D01*
X74971963Y-23924500D01*
X74971961Y-23924500D01*
X74965892Y-23924500D01*
X74283260Y-23924500D01*
X72824500Y-23924500D01*
X72757461Y-23904815D01*
X72711706Y-23852011D01*
X72700500Y-23800500D01*
X72700500Y-23799500D01*
X72720185Y-23732461D01*
X72772989Y-23686706D01*
X72824500Y-23675500D01*
X74971963Y-23675500D01*
X74971963Y-23675499D01*
X75010226Y-23664263D01*
X75033902Y-23657312D01*
X75036681Y-23656531D01*
X75093186Y-23641392D01*
X75093189Y-23641389D01*
X75099367Y-23638832D01*
X75108996Y-23635434D01*
X75110045Y-23634955D01*
X75110053Y-23634953D01*
X75158087Y-23604082D01*
X75163102Y-23601025D01*
X75207314Y-23575500D01*
X75207321Y-23575492D01*
X75211828Y-23572035D01*
X75227067Y-23559752D01*
X75231128Y-23557143D01*
X75263653Y-23519605D01*
X75269673Y-23513140D01*
X75282346Y-23500467D01*
X75300500Y-23482314D01*
X75303628Y-23476894D01*
X75317306Y-23457687D01*
X75325377Y-23448373D01*
X75342912Y-23409974D01*
X75348311Y-23399502D01*
X75366392Y-23368186D01*
X75369952Y-23354898D01*
X75376934Y-23335479D01*
X75379274Y-23330356D01*
X75385165Y-23317457D01*
X75390111Y-23283053D01*
X75393074Y-23268606D01*
X75394263Y-23264165D01*
X75400500Y-23240892D01*
X75400500Y-23219667D01*
X75401762Y-23202020D01*
X75405647Y-23174999D01*
X75401762Y-23147977D01*
X75400500Y-23130331D01*
X75400500Y-23109110D01*
X75400500Y-23109108D01*
X75393073Y-23081390D01*
X75390111Y-23066946D01*
X75385165Y-23032545D01*
X75385165Y-23032543D01*
X75376928Y-23014509D01*
X75369949Y-22995091D01*
X75366392Y-22981814D01*
X75348316Y-22950506D01*
X75342911Y-22940020D01*
X75325380Y-22901633D01*
X75325379Y-22901631D01*
X75325377Y-22901627D01*
X75325372Y-22901621D01*
X75317306Y-22892312D01*
X75303628Y-22873104D01*
X75300499Y-22867685D01*
X75269677Y-22836863D01*
X75263659Y-22830401D01*
X75231128Y-22792857D01*
X75231125Y-22792854D01*
X75227066Y-22790246D01*
X75211793Y-22777937D01*
X75207318Y-22774504D01*
X75207314Y-22774500D01*
X75195404Y-22767623D01*
X75163121Y-22748984D01*
X75158085Y-22745915D01*
X75157879Y-22745782D01*
X75110053Y-22715047D01*
X75110051Y-22715046D01*
X75110049Y-22715045D01*
X75109004Y-22714567D01*
X75099375Y-22711171D01*
X75093192Y-22708610D01*
X75093187Y-22708608D01*
X75093186Y-22708608D01*
X75036701Y-22693473D01*
X75033862Y-22692675D01*
X74971963Y-22674500D01*
X74971961Y-22674500D01*
X74965892Y-22674500D01*
X74283260Y-22674500D01*
X72824500Y-22674500D01*
X72757461Y-22654815D01*
X72711706Y-22602011D01*
X72700500Y-22550500D01*
X72700500Y-20005123D01*
X72720185Y-19938084D01*
X72736819Y-19917442D01*
X74367442Y-18286819D01*
X74428765Y-18253334D01*
X74455123Y-18250500D01*
X76269750Y-18250500D01*
X76269751Y-18250499D01*
X76284568Y-18247552D01*
X76328229Y-18238868D01*
X76328229Y-18238867D01*
X76328231Y-18238867D01*
X76394552Y-18194552D01*
X76438867Y-18128231D01*
X76438867Y-18128229D01*
X76438868Y-18128229D01*
X76450499Y-18069752D01*
X76450500Y-18069750D01*
X76450500Y-16030249D01*
X76450499Y-16030247D01*
X76438868Y-15971770D01*
X76438867Y-15971769D01*
X76394552Y-15905447D01*
X76328230Y-15861132D01*
X76328229Y-15861131D01*
X76269752Y-15849500D01*
X76269748Y-15849500D01*
X74230252Y-15849500D01*
X74230247Y-15849500D01*
X74171770Y-15861131D01*
X74171769Y-15861132D01*
X74105447Y-15905447D01*
X74061132Y-15971769D01*
X74061132Y-15971770D01*
X74054555Y-16004835D01*
X74022170Y-16066746D01*
X73961454Y-16101320D01*
X73891685Y-16097580D01*
X73841709Y-16064626D01*
X73729407Y-15942635D01*
X73729397Y-15942626D01*
X73533237Y-15789948D01*
X73533228Y-15789942D01*
X73314614Y-15671635D01*
X73314603Y-15671630D01*
X73079492Y-15590916D01*
X72960000Y-15570976D01*
X72960000Y-16616988D01*
X72902993Y-16584075D01*
X72775826Y-16550000D01*
X72644174Y-16550000D01*
X72517007Y-16584075D01*
X72460000Y-16616988D01*
X72460000Y-15570976D01*
X72459999Y-15570976D01*
X72340507Y-15590916D01*
X72105396Y-15671630D01*
X72105385Y-15671635D01*
X71886771Y-15789942D01*
X71886762Y-15789948D01*
X71690602Y-15942626D01*
X71690598Y-15942630D01*
X71578290Y-16064627D01*
X71518403Y-16100617D01*
X71448564Y-16098516D01*
X71390949Y-16058991D01*
X71365444Y-16004834D01*
X71358867Y-15971769D01*
X71339394Y-15942626D01*
X71314552Y-15905447D01*
X71248230Y-15861132D01*
X71248229Y-15861131D01*
X71189752Y-15849500D01*
X71189748Y-15849500D01*
X69150252Y-15849500D01*
X69150247Y-15849500D01*
X69091770Y-15861131D01*
X69091769Y-15861132D01*
X69025447Y-15905447D01*
X68981132Y-15971769D01*
X68981132Y-15971770D01*
X68974555Y-16004835D01*
X68942170Y-16066746D01*
X68881454Y-16101320D01*
X68811685Y-16097580D01*
X68761709Y-16064626D01*
X68649407Y-15942635D01*
X68649397Y-15942626D01*
X68453237Y-15789948D01*
X68453228Y-15789942D01*
X68234614Y-15671635D01*
X68234603Y-15671630D01*
X67999492Y-15590916D01*
X67880000Y-15570976D01*
X67880000Y-16616988D01*
X67822993Y-16584075D01*
X67695826Y-16550000D01*
X67564174Y-16550000D01*
X67437007Y-16584075D01*
X67380000Y-16616988D01*
X67380000Y-15570976D01*
X67379999Y-15570976D01*
X67260507Y-15590916D01*
X67025396Y-15671630D01*
X67025385Y-15671635D01*
X66806771Y-15789942D01*
X66806762Y-15789948D01*
X66610602Y-15942626D01*
X66610598Y-15942630D01*
X66498290Y-16064627D01*
X66438403Y-16100617D01*
X66368564Y-16098516D01*
X66310949Y-16058991D01*
X66285444Y-16004834D01*
X66278867Y-15971769D01*
X66259394Y-15942626D01*
X66234552Y-15905447D01*
X66168230Y-15861132D01*
X66168229Y-15861131D01*
X66109752Y-15849500D01*
X66109748Y-15849500D01*
X64070252Y-15849500D01*
X64070247Y-15849500D01*
X64011770Y-15861131D01*
X64011769Y-15861132D01*
X63945447Y-15905447D01*
X63901132Y-15971769D01*
X63901132Y-15971770D01*
X63894555Y-16004835D01*
X63862170Y-16066746D01*
X63801454Y-16101320D01*
X63731685Y-16097580D01*
X63681709Y-16064626D01*
X63569407Y-15942635D01*
X63569397Y-15942626D01*
X63373237Y-15789948D01*
X63373228Y-15789942D01*
X63154614Y-15671635D01*
X63154603Y-15671630D01*
X62919492Y-15590916D01*
X62800000Y-15570976D01*
X62800000Y-16616988D01*
X62742993Y-16584075D01*
X62615826Y-16550000D01*
X62484174Y-16550000D01*
X62357007Y-16584075D01*
X62300000Y-16616988D01*
X62300000Y-15570976D01*
X62299999Y-15570976D01*
X62180507Y-15590916D01*
X61945396Y-15671630D01*
X61945385Y-15671635D01*
X61726771Y-15789942D01*
X61726762Y-15789948D01*
X61530602Y-15942626D01*
X61530598Y-15942630D01*
X61418290Y-16064627D01*
X61358403Y-16100617D01*
X61288564Y-16098516D01*
X61230949Y-16058991D01*
X61205444Y-16004834D01*
X61198867Y-15971769D01*
X61179394Y-15942626D01*
X61154552Y-15905447D01*
X61088230Y-15861132D01*
X61088229Y-15861131D01*
X61029752Y-15849500D01*
X61029748Y-15849500D01*
X58990252Y-15849500D01*
X58990247Y-15849500D01*
X58931770Y-15861131D01*
X58931769Y-15861132D01*
X58865447Y-15905447D01*
X58821132Y-15971769D01*
X58821132Y-15971770D01*
X58814555Y-16004835D01*
X58782170Y-16066746D01*
X58721454Y-16101320D01*
X58651685Y-16097580D01*
X58601709Y-16064626D01*
X58489407Y-15942635D01*
X58489397Y-15942626D01*
X58293237Y-15789948D01*
X58293228Y-15789942D01*
X58074614Y-15671635D01*
X58074603Y-15671630D01*
X57839492Y-15590916D01*
X57720000Y-15570976D01*
X57720000Y-16616988D01*
X57662993Y-16584075D01*
X57535826Y-16550000D01*
X57404174Y-16550000D01*
X57277007Y-16584075D01*
X57220000Y-16616988D01*
X57220000Y-15570976D01*
X57219999Y-15570976D01*
X57100507Y-15590916D01*
X56865396Y-15671630D01*
X56865385Y-15671635D01*
X56646771Y-15789942D01*
X56646762Y-15789948D01*
X56450602Y-15942626D01*
X56450592Y-15942635D01*
X56282232Y-16125521D01*
X56146267Y-16333632D01*
X56046411Y-16561283D01*
X55985960Y-16800000D01*
X57036988Y-16800000D01*
X57004075Y-16857007D01*
X56970000Y-16984174D01*
X56970000Y-17115826D01*
X57004075Y-17242993D01*
X57036988Y-17300000D01*
X55985960Y-17300000D01*
X56046411Y-17538716D01*
X56146267Y-17766367D01*
X56282232Y-17974478D01*
X56450592Y-18157364D01*
X56450602Y-18157373D01*
X56646762Y-18310051D01*
X56646771Y-18310057D01*
X56865385Y-18428364D01*
X56865396Y-18428369D01*
X57100507Y-18509083D01*
X57219999Y-18529023D01*
X57220000Y-18529022D01*
X57220000Y-17483012D01*
X57277007Y-17515925D01*
X57404174Y-17550000D01*
X57535826Y-17550000D01*
X57662993Y-17515925D01*
X57720000Y-17483012D01*
X57720000Y-18529023D01*
X57839492Y-18509083D01*
X58074603Y-18428369D01*
X58074614Y-18428364D01*
X58293228Y-18310057D01*
X58293237Y-18310051D01*
X58489397Y-18157373D01*
X58489401Y-18157370D01*
X58601708Y-18035373D01*
X58661595Y-17999382D01*
X58731434Y-18001483D01*
X58789050Y-18041007D01*
X58814555Y-18095165D01*
X58821131Y-18128229D01*
X58821132Y-18128230D01*
X58865447Y-18194552D01*
X58931769Y-18238867D01*
X58931770Y-18238868D01*
X58990247Y-18250499D01*
X58990250Y-18250500D01*
X58990252Y-18250500D01*
X59925500Y-18250500D01*
X59992539Y-18270185D01*
X60038294Y-18322989D01*
X60049500Y-18374500D01*
X60049500Y-22550500D01*
X60029815Y-22617539D01*
X59977011Y-22663294D01*
X59925500Y-22674500D01*
X57778039Y-22674500D01*
X57716145Y-22692673D01*
X57713307Y-22693469D01*
X57656817Y-22708606D01*
X57650609Y-22711177D01*
X57640985Y-22714572D01*
X57639949Y-22715045D01*
X57591915Y-22745914D01*
X57586880Y-22748983D01*
X57542689Y-22774497D01*
X57538266Y-22777892D01*
X57522945Y-22790238D01*
X57518877Y-22792852D01*
X57518868Y-22792860D01*
X57486355Y-22830383D01*
X57480324Y-22836860D01*
X57449498Y-22867686D01*
X57446364Y-22873115D01*
X57432701Y-22892303D01*
X57424623Y-22901626D01*
X57424623Y-22901627D01*
X57407088Y-22940019D01*
X57401687Y-22950495D01*
X57383607Y-22981813D01*
X57383606Y-22981816D01*
X57380046Y-22995103D01*
X57373069Y-23014511D01*
X57364835Y-23032541D01*
X57359886Y-23066956D01*
X57356925Y-23081394D01*
X57349500Y-23109105D01*
X57349500Y-23130331D01*
X57348238Y-23147977D01*
X57344353Y-23174999D01*
X57348238Y-23202020D01*
X57349500Y-23219667D01*
X57349500Y-23240894D01*
X57356923Y-23268596D01*
X57359885Y-23283037D01*
X57364835Y-23317456D01*
X57364837Y-23317464D01*
X57373069Y-23335489D01*
X57380050Y-23354907D01*
X57383607Y-23368183D01*
X57383610Y-23368190D01*
X57401681Y-23399491D01*
X57407086Y-23409974D01*
X57424623Y-23448373D01*
X57432694Y-23457687D01*
X57446368Y-23476890D01*
X57449497Y-23482310D01*
X57449501Y-23482315D01*
X57480322Y-23513136D01*
X57486354Y-23519615D01*
X57518870Y-23557141D01*
X57518874Y-23557145D01*
X57522928Y-23559750D01*
X57538211Y-23572066D01*
X57542684Y-23575498D01*
X57542686Y-23575500D01*
X57586887Y-23601019D01*
X57591871Y-23604056D01*
X57639947Y-23634953D01*
X57639950Y-23634954D01*
X57639952Y-23634955D01*
X57640994Y-23635431D01*
X57650621Y-23638827D01*
X57656811Y-23641390D01*
X57656814Y-23641392D01*
X57713246Y-23656512D01*
X57713261Y-23656516D01*
X57716098Y-23657312D01*
X57778039Y-23675500D01*
X59925500Y-23675500D01*
X59992539Y-23695185D01*
X60038294Y-23747989D01*
X60049500Y-23799500D01*
X60049500Y-23800500D01*
X60029815Y-23867539D01*
X59977011Y-23913294D01*
X59925500Y-23924500D01*
X57778039Y-23924500D01*
X57716145Y-23942673D01*
X57713307Y-23943469D01*
X57656817Y-23958606D01*
X57650609Y-23961177D01*
X57640985Y-23964572D01*
X57639949Y-23965045D01*
X57591915Y-23995914D01*
X57586880Y-23998983D01*
X57542689Y-24024497D01*
X57538266Y-24027892D01*
X57522945Y-24040238D01*
X57518877Y-24042852D01*
X57518868Y-24042860D01*
X57486355Y-24080383D01*
X57480324Y-24086860D01*
X57449498Y-24117686D01*
X57446364Y-24123115D01*
X57432701Y-24142303D01*
X57424623Y-24151626D01*
X57424623Y-24151627D01*
X57407088Y-24190019D01*
X57401687Y-24200495D01*
X57383607Y-24231813D01*
X57383606Y-24231816D01*
X57380046Y-24245103D01*
X57373069Y-24264511D01*
X57364835Y-24282541D01*
X57359886Y-24316956D01*
X57356925Y-24331394D01*
X57349500Y-24359105D01*
X57349500Y-24380331D01*
X57348238Y-24397977D01*
X57345747Y-24415301D01*
X57344353Y-24425000D01*
X57345415Y-24432386D01*
X57348238Y-24452020D01*
X57349500Y-24469667D01*
X57349500Y-24490894D01*
X57356923Y-24518596D01*
X57359885Y-24533037D01*
X57364835Y-24567456D01*
X57364837Y-24567464D01*
X57373069Y-24585489D01*
X57380050Y-24604907D01*
X57383607Y-24618183D01*
X57383610Y-24618190D01*
X57401681Y-24649491D01*
X57407086Y-24659974D01*
X57424623Y-24698373D01*
X57432694Y-24707687D01*
X57446368Y-24726890D01*
X57449497Y-24732310D01*
X57449501Y-24732315D01*
X57480322Y-24763136D01*
X57486354Y-24769615D01*
X57518870Y-24807141D01*
X57518874Y-24807145D01*
X57522928Y-24809750D01*
X57538211Y-24822066D01*
X57542684Y-24825498D01*
X57542686Y-24825500D01*
X57586887Y-24851019D01*
X57591871Y-24854056D01*
X57639947Y-24884953D01*
X57639950Y-24884954D01*
X57639952Y-24884955D01*
X57640994Y-24885431D01*
X57650621Y-24888827D01*
X57656811Y-24891390D01*
X57656814Y-24891392D01*
X57713246Y-24906512D01*
X57713261Y-24906516D01*
X57716098Y-24907312D01*
X57778039Y-24925500D01*
X59925500Y-24925500D01*
X59992539Y-24945185D01*
X60038294Y-24997989D01*
X60049500Y-25049500D01*
X60049500Y-25050500D01*
X60029815Y-25117539D01*
X59977011Y-25163294D01*
X59925500Y-25174500D01*
X57778039Y-25174500D01*
X57716145Y-25192673D01*
X57713307Y-25193469D01*
X57656817Y-25208606D01*
X57650609Y-25211177D01*
X57640985Y-25214572D01*
X57639949Y-25215045D01*
X57591915Y-25245914D01*
X57586880Y-25248983D01*
X57542689Y-25274497D01*
X57538266Y-25277892D01*
X57522945Y-25290238D01*
X57518877Y-25292852D01*
X57518868Y-25292860D01*
X57486355Y-25330383D01*
X57480324Y-25336860D01*
X57449498Y-25367686D01*
X57446364Y-25373115D01*
X57432701Y-25392303D01*
X57424623Y-25401626D01*
X57424623Y-25401627D01*
X57407088Y-25440019D01*
X57401687Y-25450495D01*
X57383607Y-25481813D01*
X57383606Y-25481816D01*
X57380046Y-25495103D01*
X57373069Y-25514511D01*
X57364835Y-25532541D01*
X57359886Y-25566956D01*
X57356925Y-25581394D01*
X57349500Y-25609105D01*
X57349500Y-25630331D01*
X57348238Y-25647977D01*
X57344353Y-25674999D01*
X57348238Y-25702020D01*
X57349500Y-25719667D01*
X57349500Y-25740894D01*
X57356923Y-25768596D01*
X57359885Y-25783037D01*
X57364835Y-25817456D01*
X57364837Y-25817464D01*
X57373069Y-25835489D01*
X57380050Y-25854907D01*
X57383607Y-25868183D01*
X57383610Y-25868190D01*
X57401681Y-25899491D01*
X57407086Y-25909974D01*
X57424623Y-25948373D01*
X57432694Y-25957687D01*
X57446368Y-25976890D01*
X57449497Y-25982310D01*
X57449501Y-25982315D01*
X57480322Y-26013136D01*
X57486354Y-26019615D01*
X57518870Y-26057141D01*
X57518874Y-26057145D01*
X57522928Y-26059750D01*
X57538211Y-26072066D01*
X57542689Y-26075502D01*
X57556897Y-26083705D01*
X57586887Y-26101019D01*
X57591871Y-26104056D01*
X57639947Y-26134953D01*
X57639950Y-26134954D01*
X57639952Y-26134955D01*
X57640994Y-26135431D01*
X57650621Y-26138827D01*
X57656811Y-26141390D01*
X57656814Y-26141392D01*
X57709398Y-26155481D01*
X57713261Y-26156516D01*
X57716098Y-26157312D01*
X57778039Y-26175500D01*
X59933261Y-26175500D01*
X59955971Y-26172191D01*
X60001393Y-26165573D01*
X60053916Y-26139895D01*
X60122789Y-26128137D01*
X60187086Y-26155481D01*
X60196057Y-26163616D01*
X62520260Y-28487819D01*
X62553745Y-28549142D01*
X62548761Y-28618834D01*
X62506889Y-28674767D01*
X62441425Y-28699184D01*
X62432579Y-28699500D01*
X61445730Y-28699500D01*
X61415300Y-28702353D01*
X61415298Y-28702353D01*
X61287119Y-28747206D01*
X61287117Y-28747207D01*
X61177850Y-28827850D01*
X61097207Y-28937117D01*
X61097206Y-28937119D01*
X61052353Y-29065298D01*
X61052353Y-29065300D01*
X61049500Y-29095730D01*
X61049500Y-29854269D01*
X61052353Y-29884699D01*
X61052353Y-29884701D01*
X61097206Y-30012880D01*
X61097207Y-30012882D01*
X61167298Y-30107853D01*
X61177851Y-30122151D01*
X61260840Y-30183399D01*
X61303091Y-30239046D01*
X61308550Y-30308702D01*
X61275483Y-30370252D01*
X61274888Y-30370851D01*
X61110607Y-30535131D01*
X61049284Y-30568615D01*
X61023423Y-30571448D01*
X56624997Y-30589078D01*
X56557879Y-30569662D01*
X56511913Y-30517042D01*
X56500500Y-30465079D01*
X56500500Y-29599500D01*
X56520185Y-29532461D01*
X56572989Y-29486706D01*
X56624500Y-29475500D01*
X57154270Y-29475500D01*
X57184699Y-29472646D01*
X57184701Y-29472646D01*
X57248790Y-29450219D01*
X57312882Y-29427793D01*
X57422150Y-29347150D01*
X57438665Y-29324772D01*
X57494308Y-29282523D01*
X57520798Y-29275667D01*
X57521958Y-29275500D01*
X57521961Y-29275500D01*
X57521963Y-29275499D01*
X57521965Y-29275499D01*
X57660050Y-29234954D01*
X57660050Y-29234953D01*
X57660053Y-29234953D01*
X57781128Y-29157143D01*
X57875377Y-29048373D01*
X57935165Y-28917457D01*
X57955647Y-28775000D01*
X57935165Y-28632543D01*
X57875377Y-28501627D01*
X57781128Y-28392857D01*
X57660053Y-28315047D01*
X57660051Y-28315046D01*
X57660049Y-28315045D01*
X57660050Y-28315045D01*
X57521964Y-28274500D01*
X57520786Y-28274331D01*
X57519703Y-28273836D01*
X57513452Y-28272001D01*
X57513715Y-28271102D01*
X57457230Y-28245305D01*
X57438668Y-28225232D01*
X57422150Y-28202850D01*
X57312882Y-28122207D01*
X57312880Y-28122206D01*
X57184700Y-28077353D01*
X57154270Y-28074500D01*
X57154266Y-28074500D01*
X54845734Y-28074500D01*
X54845730Y-28074500D01*
X54815300Y-28077353D01*
X54815298Y-28077353D01*
X54687119Y-28122206D01*
X54687117Y-28122207D01*
X54577848Y-28202851D01*
X54576647Y-28204053D01*
X54575007Y-28204947D01*
X54570374Y-28208368D01*
X54569905Y-28207733D01*
X54515324Y-28237538D01*
X54445632Y-28232554D01*
X54389699Y-28190682D01*
X54365282Y-28125218D01*
X54364966Y-28116372D01*
X54364966Y-26924999D01*
X57344353Y-26924999D01*
X57348238Y-26952020D01*
X57349500Y-26969667D01*
X57349500Y-26990894D01*
X57356923Y-27018596D01*
X57359885Y-27033037D01*
X57364835Y-27067456D01*
X57364837Y-27067464D01*
X57373069Y-27085489D01*
X57380050Y-27104907D01*
X57383607Y-27118183D01*
X57383610Y-27118190D01*
X57401681Y-27149491D01*
X57407086Y-27159974D01*
X57424623Y-27198373D01*
X57432694Y-27207687D01*
X57446368Y-27226890D01*
X57449497Y-27232310D01*
X57449501Y-27232315D01*
X57480322Y-27263136D01*
X57486354Y-27269615D01*
X57518870Y-27307141D01*
X57518874Y-27307145D01*
X57522928Y-27309750D01*
X57538211Y-27322066D01*
X57542684Y-27325498D01*
X57542686Y-27325500D01*
X57586887Y-27351019D01*
X57591871Y-27354056D01*
X57639947Y-27384953D01*
X57639950Y-27384954D01*
X57639952Y-27384955D01*
X57640994Y-27385431D01*
X57650621Y-27388827D01*
X57656811Y-27391390D01*
X57656814Y-27391392D01*
X57713261Y-27406516D01*
X57716098Y-27407312D01*
X57778039Y-27425500D01*
X59933261Y-27425500D01*
X59971331Y-27419953D01*
X60001393Y-27415573D01*
X60106483Y-27364198D01*
X60189198Y-27281483D01*
X60240573Y-27176393D01*
X60250500Y-27108260D01*
X60250500Y-26741740D01*
X60250284Y-26740260D01*
X60240573Y-26673608D01*
X60240573Y-26673607D01*
X60189198Y-26568517D01*
X60189196Y-26568515D01*
X60189196Y-26568514D01*
X60106485Y-26485803D01*
X60001391Y-26434426D01*
X59933261Y-26424500D01*
X59933260Y-26424500D01*
X59265892Y-26424500D01*
X57921961Y-26424500D01*
X57778039Y-26424500D01*
X57716145Y-26442673D01*
X57713307Y-26443469D01*
X57656817Y-26458606D01*
X57650609Y-26461177D01*
X57640985Y-26464572D01*
X57639949Y-26465045D01*
X57591915Y-26495914D01*
X57586880Y-26498983D01*
X57542689Y-26524497D01*
X57538266Y-26527892D01*
X57522945Y-26540238D01*
X57518877Y-26542852D01*
X57518868Y-26542860D01*
X57486355Y-26580383D01*
X57480324Y-26586860D01*
X57449498Y-26617686D01*
X57446364Y-26623115D01*
X57432701Y-26642303D01*
X57424623Y-26651626D01*
X57424623Y-26651627D01*
X57407088Y-26690019D01*
X57401687Y-26700495D01*
X57383607Y-26731813D01*
X57383606Y-26731816D01*
X57380046Y-26745103D01*
X57373069Y-26764511D01*
X57364835Y-26782541D01*
X57359886Y-26816956D01*
X57356925Y-26831394D01*
X57349500Y-26859105D01*
X57349500Y-26880331D01*
X57348238Y-26897977D01*
X57344353Y-26924999D01*
X54364966Y-26924999D01*
X54364966Y-21983628D01*
X54384651Y-21916589D01*
X54437455Y-21870834D01*
X54506613Y-21860890D01*
X54570169Y-21889915D01*
X54576647Y-21895947D01*
X54577848Y-21897148D01*
X54577849Y-21897148D01*
X54577850Y-21897150D01*
X54687118Y-21977793D01*
X54703794Y-21983628D01*
X54815299Y-22022646D01*
X54845730Y-22025500D01*
X54845734Y-22025500D01*
X57154270Y-22025500D01*
X57184699Y-22022646D01*
X57184701Y-22022646D01*
X57248790Y-22000219D01*
X57312882Y-21977793D01*
X57422150Y-21897150D01*
X57502793Y-21787882D01*
X57525219Y-21723790D01*
X57547646Y-21659701D01*
X57547646Y-21659699D01*
X57550500Y-21629269D01*
X57550500Y-21020730D01*
X57547646Y-20990300D01*
X57547646Y-20990298D01*
X57502793Y-20862119D01*
X57502792Y-20862117D01*
X57422150Y-20752850D01*
X57312882Y-20672207D01*
X57312880Y-20672206D01*
X57184700Y-20627353D01*
X57154270Y-20624500D01*
X57154266Y-20624500D01*
X54845734Y-20624500D01*
X54845730Y-20624500D01*
X54815300Y-20627353D01*
X54815298Y-20627353D01*
X54687119Y-20672206D01*
X54687117Y-20672207D01*
X54577848Y-20752851D01*
X54576647Y-20754053D01*
X54575007Y-20754947D01*
X54570374Y-20758368D01*
X54569905Y-20757733D01*
X54515324Y-20787538D01*
X54445632Y-20782554D01*
X54389699Y-20740682D01*
X54365282Y-20675218D01*
X54364966Y-20666372D01*
X54364966Y-19067170D01*
X54365084Y-19061761D01*
X54379340Y-18735280D01*
X54381854Y-18677699D01*
X54382794Y-18666965D01*
X54432623Y-18288495D01*
X54434494Y-18277877D01*
X54517120Y-17905187D01*
X54519917Y-17894751D01*
X54634704Y-17530699D01*
X54638393Y-17520563D01*
X54784474Y-17167894D01*
X54789044Y-17158097D01*
X54879583Y-16984174D01*
X54965305Y-16819506D01*
X54970696Y-16810168D01*
X55175793Y-16488232D01*
X55181989Y-16479383D01*
X55414369Y-16176540D01*
X55421308Y-16168270D01*
X55679202Y-15886828D01*
X55686828Y-15879202D01*
X55968270Y-15621308D01*
X55976533Y-15614374D01*
X56279383Y-15381988D01*
X56288232Y-15375793D01*
X56610168Y-15170696D01*
X56619509Y-15165302D01*
X56958103Y-14989041D01*
X56967894Y-14984474D01*
X57320563Y-14838393D01*
X57330699Y-14834704D01*
X57694761Y-14719913D01*
X57705187Y-14717120D01*
X58077877Y-14634494D01*
X58088496Y-14632622D01*
X58466963Y-14582794D01*
X58477701Y-14581854D01*
X58861767Y-14565084D01*
X58867176Y-14564966D01*
X58930362Y-14564966D01*
X73798573Y-14564966D01*
X73798577Y-14564967D01*
G37*
G04 #@! TD.AperFunction*
G04 #@! TA.AperFunction,Conductor*
G36*
X67880000Y-18529021D02*
G01*
X67902365Y-18525290D01*
X67971731Y-18533672D01*
X68025553Y-18578224D01*
X68046744Y-18644803D01*
X68028577Y-18712269D01*
X68010457Y-18735280D01*
X67158103Y-19587636D01*
X67087637Y-19658101D01*
X67087636Y-19658102D01*
X67047522Y-19754946D01*
X67003680Y-19809350D01*
X66971852Y-19823230D01*
X66972423Y-19824861D01*
X66837119Y-19872206D01*
X66837117Y-19872207D01*
X66727850Y-19952850D01*
X66647207Y-20062117D01*
X66647206Y-20062119D01*
X66602353Y-20190298D01*
X66602353Y-20190300D01*
X66599500Y-20220730D01*
X66599500Y-21279269D01*
X66602353Y-21309699D01*
X66602353Y-21309701D01*
X66647206Y-21437880D01*
X66647207Y-21437882D01*
X66727850Y-21547150D01*
X66837118Y-21627793D01*
X66879845Y-21642744D01*
X66965299Y-21672646D01*
X66995730Y-21675500D01*
X66995734Y-21675500D01*
X67604270Y-21675500D01*
X67634699Y-21672646D01*
X67634701Y-21672646D01*
X67698790Y-21650219D01*
X67762882Y-21627793D01*
X67872150Y-21547150D01*
X67952793Y-21437882D01*
X67997645Y-21309703D01*
X67997646Y-21309701D01*
X67997646Y-21309699D01*
X68000500Y-21279269D01*
X68000500Y-20220730D01*
X67997646Y-20190300D01*
X67997646Y-20190298D01*
X67952793Y-20062119D01*
X67952792Y-20062117D01*
X67872150Y-19952850D01*
X67783788Y-19887636D01*
X67774774Y-19880983D01*
X67732523Y-19825335D01*
X67727065Y-19755679D01*
X67760133Y-19694130D01*
X67760565Y-19693694D01*
X69167442Y-18286819D01*
X69228765Y-18253334D01*
X69255123Y-18250500D01*
X70675500Y-18250500D01*
X70742539Y-18270185D01*
X70788294Y-18322989D01*
X70799500Y-18374500D01*
X70799500Y-20403063D01*
X70779815Y-20470102D01*
X70727011Y-20515857D01*
X70657853Y-20525801D01*
X70594297Y-20496776D01*
X70582017Y-20482609D01*
X70581185Y-20483330D01*
X70569723Y-20470102D01*
X70481128Y-20367857D01*
X70360053Y-20290047D01*
X70360051Y-20290046D01*
X70360049Y-20290045D01*
X70360050Y-20290045D01*
X70221963Y-20249500D01*
X70221961Y-20249500D01*
X70078039Y-20249500D01*
X70078038Y-20249500D01*
X70046294Y-20258820D01*
X69976424Y-20258818D01*
X69917647Y-20221042D01*
X69894321Y-20180797D01*
X69852793Y-20062119D01*
X69852792Y-20062117D01*
X69772150Y-19952850D01*
X69662882Y-19872207D01*
X69662880Y-19872206D01*
X69534700Y-19827353D01*
X69504270Y-19824500D01*
X69504266Y-19824500D01*
X68895734Y-19824500D01*
X68895730Y-19824500D01*
X68865300Y-19827353D01*
X68865298Y-19827353D01*
X68737119Y-19872206D01*
X68737117Y-19872207D01*
X68627850Y-19952850D01*
X68547207Y-20062117D01*
X68547206Y-20062119D01*
X68502353Y-20190298D01*
X68502353Y-20190300D01*
X68499500Y-20220730D01*
X68499500Y-21279269D01*
X68502353Y-21309699D01*
X68502353Y-21309701D01*
X68547206Y-21437880D01*
X68547207Y-21437882D01*
X68627850Y-21547150D01*
X68737118Y-21627793D01*
X68779845Y-21642744D01*
X68865299Y-21672646D01*
X68895730Y-21675500D01*
X68895734Y-21675500D01*
X69504270Y-21675500D01*
X69534699Y-21672646D01*
X69534701Y-21672646D01*
X69598790Y-21650219D01*
X69662882Y-21627793D01*
X69772150Y-21547150D01*
X69852793Y-21437882D01*
X69894321Y-21319202D01*
X69935042Y-21262426D01*
X69999995Y-21236679D01*
X70046297Y-21241180D01*
X70078038Y-21250500D01*
X70078039Y-21250500D01*
X70221962Y-21250500D01*
X70221962Y-21250499D01*
X70360053Y-21209953D01*
X70481128Y-21132143D01*
X70575377Y-21023373D01*
X70575377Y-21023372D01*
X70581185Y-21016670D01*
X70583818Y-21018952D01*
X70623974Y-20984148D01*
X70693131Y-20974196D01*
X70756690Y-21003212D01*
X70794473Y-21061986D01*
X70799500Y-21096936D01*
X70799500Y-22265347D01*
X70779815Y-22332386D01*
X70727011Y-22378141D01*
X70657853Y-22388085D01*
X70640566Y-22384324D01*
X70521964Y-22349500D01*
X70521961Y-22349500D01*
X70378039Y-22349500D01*
X70378035Y-22349500D01*
X70293022Y-22374462D01*
X70223152Y-22374462D01*
X70164374Y-22336687D01*
X70141047Y-22296440D01*
X70102793Y-22187119D01*
X70102792Y-22187117D01*
X70022150Y-22077850D01*
X69912882Y-21997207D01*
X69912880Y-21997206D01*
X69784700Y-21952353D01*
X69754270Y-21949500D01*
X69754266Y-21949500D01*
X68945734Y-21949500D01*
X68945730Y-21949500D01*
X68915300Y-21952353D01*
X68915298Y-21952353D01*
X68787119Y-21997206D01*
X68787117Y-21997207D01*
X68677850Y-22077850D01*
X68597207Y-22187117D01*
X68597206Y-22187119D01*
X68552353Y-22315298D01*
X68552353Y-22315300D01*
X68550348Y-22336687D01*
X68549500Y-22345734D01*
X68549500Y-23354266D01*
X68550806Y-23368190D01*
X68552664Y-23388008D01*
X68539323Y-23456592D01*
X68491021Y-23507076D01*
X68423092Y-23523432D01*
X68357105Y-23500467D01*
X68341532Y-23487271D01*
X68186816Y-23332556D01*
X68153334Y-23271235D01*
X68150500Y-23244877D01*
X68150500Y-22345730D01*
X68147646Y-22315300D01*
X68147646Y-22315298D01*
X68102793Y-22187119D01*
X68102792Y-22187117D01*
X68022150Y-22077850D01*
X67912882Y-21997207D01*
X67912880Y-21997206D01*
X67784700Y-21952353D01*
X67754270Y-21949500D01*
X67754266Y-21949500D01*
X66945734Y-21949500D01*
X66945730Y-21949500D01*
X66915300Y-21952353D01*
X66915298Y-21952353D01*
X66787119Y-21997206D01*
X66787117Y-21997207D01*
X66677850Y-22077850D01*
X66597207Y-22187117D01*
X66597206Y-22187119D01*
X66552353Y-22315298D01*
X66552353Y-22315300D01*
X66549500Y-22345730D01*
X66549500Y-23354269D01*
X66552353Y-23384699D01*
X66552353Y-23384701D01*
X66595175Y-23507076D01*
X66597207Y-23512882D01*
X66677850Y-23622150D01*
X66787118Y-23702793D01*
X66829845Y-23717744D01*
X66915299Y-23747646D01*
X66945730Y-23750500D01*
X66945734Y-23750500D01*
X67754270Y-23750500D01*
X67784689Y-23747647D01*
X67784689Y-23747646D01*
X67784699Y-23747646D01*
X67791667Y-23745207D01*
X67861441Y-23741642D01*
X67920303Y-23774564D01*
X68036453Y-23890713D01*
X68069937Y-23952034D01*
X68064953Y-24021726D01*
X68023082Y-24077660D01*
X67957618Y-24102077D01*
X67907816Y-24095434D01*
X67784701Y-24052354D01*
X67784699Y-24052353D01*
X67754270Y-24049500D01*
X67754266Y-24049500D01*
X66945734Y-24049500D01*
X66945730Y-24049500D01*
X66915300Y-24052353D01*
X66915298Y-24052353D01*
X66787119Y-24097206D01*
X66787117Y-24097207D01*
X66677850Y-24177850D01*
X66597207Y-24287117D01*
X66597206Y-24287119D01*
X66552353Y-24415298D01*
X66552353Y-24415300D01*
X66549500Y-24445730D01*
X66549500Y-25454269D01*
X66552353Y-25484699D01*
X66552353Y-25484701D01*
X66586189Y-25581395D01*
X66597207Y-25612882D01*
X66677850Y-25722150D01*
X66787118Y-25802793D01*
X66829017Y-25817454D01*
X66915299Y-25847646D01*
X66947076Y-25850626D01*
X67011985Y-25876483D01*
X67052611Y-25933328D01*
X67059500Y-25974084D01*
X67059500Y-26206939D01*
X67039815Y-26273978D01*
X66987011Y-26319733D01*
X66972340Y-26324623D01*
X66972423Y-26324861D01*
X66837119Y-26372206D01*
X66837117Y-26372207D01*
X66727850Y-26452850D01*
X66647207Y-26562117D01*
X66647206Y-26562119D01*
X66602353Y-26690298D01*
X66602353Y-26690300D01*
X66599500Y-26720730D01*
X66599500Y-27544877D01*
X66579815Y-27611916D01*
X66563181Y-27632558D01*
X66437681Y-27758058D01*
X66376358Y-27791543D01*
X66306666Y-27786559D01*
X66262319Y-27758058D01*
X66136819Y-27632558D01*
X66103334Y-27571235D01*
X66100500Y-27544877D01*
X66100500Y-26720730D01*
X66097646Y-26690300D01*
X66097646Y-26690298D01*
X66061452Y-26586863D01*
X66052793Y-26562118D01*
X65972150Y-26452850D01*
X65862882Y-26372207D01*
X65862880Y-26372206D01*
X65727577Y-26324861D01*
X65728311Y-26322762D01*
X65676738Y-26294539D01*
X65643310Y-26233185D01*
X65640500Y-26206939D01*
X65640500Y-25974084D01*
X65660185Y-25907045D01*
X65712989Y-25861290D01*
X65752924Y-25850626D01*
X65772350Y-25848804D01*
X65784699Y-25847646D01*
X65784701Y-25847646D01*
X65848790Y-25825219D01*
X65912882Y-25802793D01*
X66022150Y-25722150D01*
X66102793Y-25612882D01*
X66130905Y-25532543D01*
X66147646Y-25484701D01*
X66147646Y-25484699D01*
X66150500Y-25454269D01*
X66150500Y-24445730D01*
X66147646Y-24415300D01*
X66147646Y-24415298D01*
X66102793Y-24287119D01*
X66102792Y-24287117D01*
X66099418Y-24282545D01*
X66022150Y-24177850D01*
X65912882Y-24097207D01*
X65912880Y-24097206D01*
X65784700Y-24052353D01*
X65754270Y-24049500D01*
X65754266Y-24049500D01*
X64945734Y-24049500D01*
X64945730Y-24049500D01*
X64915303Y-24052353D01*
X64881255Y-24064267D01*
X64792181Y-24095435D01*
X64722404Y-24098996D01*
X64661776Y-24064267D01*
X64629549Y-24002274D01*
X64635954Y-23932699D01*
X64663545Y-23890714D01*
X64779694Y-23774565D01*
X64841015Y-23741082D01*
X64908327Y-23745206D01*
X64910431Y-23745942D01*
X64915301Y-23747646D01*
X64915300Y-23747646D01*
X64945730Y-23750500D01*
X64945734Y-23750500D01*
X65754270Y-23750500D01*
X65784699Y-23747646D01*
X65784701Y-23747646D01*
X65865213Y-23719473D01*
X65912882Y-23702793D01*
X66022150Y-23622150D01*
X66102793Y-23512882D01*
X66138802Y-23409974D01*
X66147646Y-23384701D01*
X66147646Y-23384699D01*
X66150500Y-23354269D01*
X66150500Y-22345730D01*
X66147646Y-22315300D01*
X66147646Y-22315298D01*
X66102793Y-22187119D01*
X66102792Y-22187117D01*
X66022150Y-22077850D01*
X65912882Y-21997207D01*
X65912880Y-21997206D01*
X65784700Y-21952353D01*
X65754270Y-21949500D01*
X65754266Y-21949500D01*
X64945734Y-21949500D01*
X64945730Y-21949500D01*
X64915300Y-21952353D01*
X64915298Y-21952353D01*
X64787119Y-21997206D01*
X64787117Y-21997207D01*
X64677850Y-22077850D01*
X64597207Y-22187117D01*
X64597206Y-22187119D01*
X64552353Y-22315298D01*
X64552353Y-22315300D01*
X64549500Y-22345730D01*
X64549500Y-23244876D01*
X64529815Y-23311915D01*
X64513181Y-23332558D01*
X64358475Y-23487263D01*
X64297152Y-23520747D01*
X64227460Y-23515763D01*
X64171527Y-23473891D01*
X64147110Y-23408427D01*
X64147336Y-23388002D01*
X64147872Y-23382294D01*
X64150500Y-23354266D01*
X64150500Y-22345734D01*
X64147646Y-22315301D01*
X64147646Y-22315300D01*
X64147646Y-22315298D01*
X64102793Y-22187119D01*
X64102792Y-22187117D01*
X64022150Y-22077850D01*
X63912882Y-21997207D01*
X63912880Y-21997206D01*
X63784700Y-21952353D01*
X63754270Y-21949500D01*
X63754266Y-21949500D01*
X62945734Y-21949500D01*
X62945730Y-21949500D01*
X62915300Y-21952353D01*
X62915298Y-21952353D01*
X62787119Y-21997206D01*
X62787117Y-21997207D01*
X62677850Y-22077850D01*
X62597207Y-22187117D01*
X62558952Y-22296441D01*
X62518230Y-22353217D01*
X62453276Y-22378963D01*
X62406977Y-22374462D01*
X62321963Y-22349500D01*
X62321961Y-22349500D01*
X62178039Y-22349500D01*
X62178035Y-22349500D01*
X62109434Y-22369643D01*
X62039564Y-22369643D01*
X61980786Y-22331868D01*
X61951762Y-22268312D01*
X61950500Y-22250666D01*
X61950500Y-21251026D01*
X61970185Y-21183987D01*
X62022989Y-21138232D01*
X62092147Y-21128288D01*
X62141538Y-21146709D01*
X62239947Y-21209953D01*
X62239950Y-21209954D01*
X62239949Y-21209954D01*
X62378036Y-21250499D01*
X62378038Y-21250500D01*
X62378039Y-21250500D01*
X62521961Y-21250500D01*
X62645623Y-21214190D01*
X62715491Y-21214190D01*
X62774269Y-21251964D01*
X62799665Y-21302645D01*
X62799861Y-21302577D01*
X62800393Y-21304098D01*
X62801700Y-21306706D01*
X62802354Y-21309703D01*
X62847206Y-21437880D01*
X62847207Y-21437882D01*
X62927850Y-21547150D01*
X63037118Y-21627793D01*
X63079845Y-21642744D01*
X63165299Y-21672646D01*
X63195730Y-21675500D01*
X63195734Y-21675500D01*
X63804270Y-21675500D01*
X63834699Y-21672646D01*
X63834701Y-21672646D01*
X63898790Y-21650219D01*
X63962882Y-21627793D01*
X64072150Y-21547150D01*
X64152793Y-21437882D01*
X64197645Y-21309703D01*
X64197646Y-21309701D01*
X64197646Y-21309699D01*
X64200500Y-21279269D01*
X64200500Y-20220730D01*
X64197646Y-20190300D01*
X64197646Y-20190298D01*
X64152793Y-20062119D01*
X64152792Y-20062117D01*
X64072150Y-19952850D01*
X63962882Y-19872207D01*
X63962880Y-19872206D01*
X63834700Y-19827353D01*
X63804270Y-19824500D01*
X63804266Y-19824500D01*
X63195734Y-19824500D01*
X63195730Y-19824500D01*
X63165300Y-19827353D01*
X63165298Y-19827353D01*
X63037119Y-19872206D01*
X63037117Y-19872207D01*
X62927850Y-19952850D01*
X62847207Y-20062117D01*
X62847206Y-20062119D01*
X62802353Y-20190300D01*
X62801699Y-20193296D01*
X62800606Y-20195292D01*
X62799861Y-20197423D01*
X62799508Y-20197299D01*
X62768161Y-20254590D01*
X62706809Y-20288021D01*
X62645622Y-20285809D01*
X62521963Y-20249500D01*
X62521961Y-20249500D01*
X62378039Y-20249500D01*
X62378036Y-20249500D01*
X62239949Y-20290045D01*
X62158743Y-20342233D01*
X62091703Y-20361917D01*
X62024664Y-20342232D01*
X61978909Y-20289428D01*
X61968966Y-20220269D01*
X61997992Y-20156714D01*
X62004009Y-20150250D01*
X63885035Y-18269223D01*
X63946356Y-18235740D01*
X63999186Y-18239518D01*
X63999790Y-18236485D01*
X64070247Y-18250499D01*
X64070250Y-18250500D01*
X64070252Y-18250500D01*
X65025500Y-18250500D01*
X65092539Y-18270185D01*
X65138294Y-18322989D01*
X65149500Y-18374500D01*
X65149500Y-19709908D01*
X65129815Y-19776947D01*
X65077011Y-19822702D01*
X65066456Y-19826949D01*
X64937117Y-19872207D01*
X64827850Y-19952850D01*
X64747207Y-20062117D01*
X64747206Y-20062119D01*
X64702353Y-20190298D01*
X64702353Y-20190300D01*
X64699500Y-20220730D01*
X64699500Y-21279269D01*
X64702353Y-21309699D01*
X64702353Y-21309701D01*
X64747206Y-21437880D01*
X64747207Y-21437882D01*
X64827850Y-21547150D01*
X64937118Y-21627793D01*
X64979845Y-21642744D01*
X65065299Y-21672646D01*
X65095730Y-21675500D01*
X65095734Y-21675500D01*
X65704270Y-21675500D01*
X65734699Y-21672646D01*
X65734701Y-21672646D01*
X65798790Y-21650219D01*
X65862882Y-21627793D01*
X65972150Y-21547150D01*
X66052793Y-21437882D01*
X66097645Y-21309703D01*
X66097646Y-21309701D01*
X66097646Y-21309699D01*
X66100500Y-21279269D01*
X66100500Y-20220730D01*
X66097646Y-20190300D01*
X66097646Y-20190298D01*
X66052793Y-20062119D01*
X66052792Y-20062117D01*
X65972150Y-19952850D01*
X65862882Y-19872207D01*
X65862879Y-19872206D01*
X65733544Y-19826949D01*
X65676769Y-19786227D01*
X65651022Y-19721274D01*
X65650500Y-19709908D01*
X65650500Y-18374500D01*
X65670185Y-18307461D01*
X65722989Y-18261706D01*
X65774500Y-18250500D01*
X66109750Y-18250500D01*
X66109751Y-18250499D01*
X66124568Y-18247552D01*
X66168229Y-18238868D01*
X66168229Y-18238867D01*
X66168231Y-18238867D01*
X66234552Y-18194552D01*
X66278867Y-18128231D01*
X66285444Y-18095164D01*
X66317827Y-18033256D01*
X66378542Y-17998680D01*
X66448311Y-18002418D01*
X66498290Y-18035373D01*
X66610592Y-18157364D01*
X66610602Y-18157373D01*
X66806762Y-18310051D01*
X66806771Y-18310057D01*
X67025385Y-18428364D01*
X67025396Y-18428369D01*
X67260507Y-18509083D01*
X67379999Y-18529023D01*
X67380000Y-18529022D01*
X67380000Y-17483012D01*
X67437007Y-17515925D01*
X67564174Y-17550000D01*
X67695826Y-17550000D01*
X67822993Y-17515925D01*
X67880000Y-17483012D01*
X67880000Y-18529021D01*
G37*
G04 #@! TD.AperFunction*
G04 #@! TA.AperFunction,Conductor*
G36*
X62800000Y-18586499D02*
G01*
X62799208Y-18586499D01*
X62799629Y-18623694D01*
X62767945Y-18677791D01*
X61540662Y-19905076D01*
X61540661Y-19905076D01*
X61540662Y-19905077D01*
X61487636Y-19958103D01*
X61449500Y-20050170D01*
X61449500Y-26409175D01*
X61429815Y-26476214D01*
X61377011Y-26521969D01*
X61307853Y-26531913D01*
X61244297Y-26502888D01*
X61237819Y-26496856D01*
X60586819Y-25845856D01*
X60553334Y-25784533D01*
X60550500Y-25758175D01*
X60550500Y-18374500D01*
X60570185Y-18307461D01*
X60622989Y-18261706D01*
X60674500Y-18250500D01*
X61029750Y-18250500D01*
X61029751Y-18250499D01*
X61044568Y-18247552D01*
X61088229Y-18238868D01*
X61088229Y-18238867D01*
X61088231Y-18238867D01*
X61154552Y-18194552D01*
X61198867Y-18128231D01*
X61205444Y-18095164D01*
X61237827Y-18033256D01*
X61298542Y-17998680D01*
X61368311Y-18002418D01*
X61418290Y-18035373D01*
X61530592Y-18157364D01*
X61530602Y-18157373D01*
X61726762Y-18310051D01*
X61726771Y-18310057D01*
X61945385Y-18428364D01*
X61945396Y-18428369D01*
X62180507Y-18509083D01*
X62299999Y-18529023D01*
X62300000Y-18529022D01*
X62300000Y-17483012D01*
X62357007Y-17515925D01*
X62484174Y-17550000D01*
X62615826Y-17550000D01*
X62742993Y-17515925D01*
X62800000Y-17483012D01*
X62800000Y-18586499D01*
G37*
G04 #@! TD.AperFunction*
G04 #@! TA.AperFunction,Conductor*
G36*
X72960000Y-18529023D02*
G01*
X73079490Y-18509084D01*
X73116428Y-18496403D01*
X73186227Y-18493253D01*
X73246648Y-18528338D01*
X73278509Y-18590521D01*
X73271694Y-18660057D01*
X73244373Y-18701365D01*
X72308103Y-19637636D01*
X72237637Y-19708101D01*
X72237636Y-19708102D01*
X72199500Y-19800170D01*
X72199500Y-25708175D01*
X72179815Y-25775214D01*
X72163181Y-25795856D01*
X71512181Y-26446856D01*
X71450858Y-26480341D01*
X71381166Y-26475357D01*
X71325233Y-26433485D01*
X71300816Y-26368021D01*
X71300500Y-26359175D01*
X71300500Y-18253196D01*
X71320185Y-18186157D01*
X71321336Y-18184398D01*
X71358867Y-18128231D01*
X71365444Y-18095164D01*
X71397827Y-18033256D01*
X71458542Y-17998680D01*
X71528311Y-18002418D01*
X71578290Y-18035373D01*
X71690592Y-18157364D01*
X71690602Y-18157373D01*
X71886762Y-18310051D01*
X71886771Y-18310057D01*
X72105385Y-18428364D01*
X72105396Y-18428369D01*
X72340507Y-18509083D01*
X72459999Y-18529023D01*
X72460000Y-18529022D01*
X72460000Y-17483012D01*
X72517007Y-17515925D01*
X72644174Y-17550000D01*
X72775826Y-17550000D01*
X72902993Y-17515925D01*
X72960000Y-17483012D01*
X72960000Y-18529023D01*
G37*
G04 #@! TD.AperFunction*
M02*
