%TF.GenerationSoftware,KiCad,Pcbnew,8.0.1*%
%TF.CreationDate,2024-09-18T22:43:36-06:00*%
%TF.ProjectId,semg,73656d67-2e6b-4696-9361-645f70636258,rev?*%
%TF.SameCoordinates,Original*%
%TF.FileFunction,Drillmap*%
%TF.FilePolarity,Positive*%
%FSLAX45Y45*%
G04 Gerber Fmt 4.5, Leading zero omitted, Abs format (unit mm)*
G04 Created by KiCad (PCBNEW 8.0.1) date 2024-09-18 22:43:36*
%MOMM*%
%LPD*%
G01*
G04 APERTURE LIST*
%ADD10C,0.050000*%
%ADD11C,0.200000*%
G04 APERTURE END LIST*
D10*
X5386447Y-1906447D02*
G75*
G02*
X5886447Y-1406447I500003J-3D01*
G01*
X7386447Y-1406447D02*
G75*
G02*
X7886453Y-1906447I3J-500003D01*
G01*
X7386447Y-1406447D02*
X5886447Y-1406447D01*
X5886447Y-5406447D02*
G75*
G02*
X5386453Y-4906447I3J499997D01*
G01*
X7886447Y-4906447D02*
X7886447Y-1906447D01*
X7886447Y-4906447D02*
G75*
G02*
X7386447Y-5406447I-499997J-3D01*
G01*
X5886447Y-5406447D02*
X7386447Y-5406447D01*
X5386447Y-1906447D02*
X5386447Y-4906447D01*
D11*
X5644723Y-5720430D02*
X5644723Y-5520430D01*
X5644723Y-5520430D02*
X5692342Y-5520430D01*
X5692342Y-5520430D02*
X5720914Y-5529954D01*
X5720914Y-5529954D02*
X5739961Y-5549002D01*
X5739961Y-5549002D02*
X5749485Y-5568049D01*
X5749485Y-5568049D02*
X5759009Y-5606145D01*
X5759009Y-5606145D02*
X5759009Y-5634716D01*
X5759009Y-5634716D02*
X5749485Y-5672811D01*
X5749485Y-5672811D02*
X5739961Y-5691859D01*
X5739961Y-5691859D02*
X5720914Y-5710907D01*
X5720914Y-5710907D02*
X5692342Y-5720430D01*
X5692342Y-5720430D02*
X5644723Y-5720430D01*
X5844723Y-5720430D02*
X5844723Y-5587097D01*
X5844723Y-5625192D02*
X5854247Y-5606145D01*
X5854247Y-5606145D02*
X5863771Y-5596621D01*
X5863771Y-5596621D02*
X5882819Y-5587097D01*
X5882819Y-5587097D02*
X5901866Y-5587097D01*
X5968533Y-5720430D02*
X5968533Y-5587097D01*
X5968533Y-5520430D02*
X5959009Y-5529954D01*
X5959009Y-5529954D02*
X5968533Y-5539478D01*
X5968533Y-5539478D02*
X5978057Y-5529954D01*
X5978057Y-5529954D02*
X5968533Y-5520430D01*
X5968533Y-5520430D02*
X5968533Y-5539478D01*
X6092342Y-5720430D02*
X6073295Y-5710907D01*
X6073295Y-5710907D02*
X6063771Y-5691859D01*
X6063771Y-5691859D02*
X6063771Y-5520430D01*
X6197104Y-5720430D02*
X6178057Y-5710907D01*
X6178057Y-5710907D02*
X6168533Y-5691859D01*
X6168533Y-5691859D02*
X6168533Y-5520430D01*
X6425676Y-5720430D02*
X6425676Y-5520430D01*
X6425676Y-5520430D02*
X6492342Y-5663287D01*
X6492342Y-5663287D02*
X6559009Y-5520430D01*
X6559009Y-5520430D02*
X6559009Y-5720430D01*
X6739961Y-5720430D02*
X6739961Y-5615668D01*
X6739961Y-5615668D02*
X6730438Y-5596621D01*
X6730438Y-5596621D02*
X6711390Y-5587097D01*
X6711390Y-5587097D02*
X6673295Y-5587097D01*
X6673295Y-5587097D02*
X6654247Y-5596621D01*
X6739961Y-5710907D02*
X6720914Y-5720430D01*
X6720914Y-5720430D02*
X6673295Y-5720430D01*
X6673295Y-5720430D02*
X6654247Y-5710907D01*
X6654247Y-5710907D02*
X6644723Y-5691859D01*
X6644723Y-5691859D02*
X6644723Y-5672811D01*
X6644723Y-5672811D02*
X6654247Y-5653764D01*
X6654247Y-5653764D02*
X6673295Y-5644240D01*
X6673295Y-5644240D02*
X6720914Y-5644240D01*
X6720914Y-5644240D02*
X6739961Y-5634716D01*
X6835200Y-5587097D02*
X6835200Y-5787097D01*
X6835200Y-5596621D02*
X6854247Y-5587097D01*
X6854247Y-5587097D02*
X6892342Y-5587097D01*
X6892342Y-5587097D02*
X6911390Y-5596621D01*
X6911390Y-5596621D02*
X6920914Y-5606145D01*
X6920914Y-5606145D02*
X6930438Y-5625192D01*
X6930438Y-5625192D02*
X6930438Y-5682335D01*
X6930438Y-5682335D02*
X6920914Y-5701383D01*
X6920914Y-5701383D02*
X6911390Y-5710907D01*
X6911390Y-5710907D02*
X6892342Y-5720430D01*
X6892342Y-5720430D02*
X6854247Y-5720430D01*
X6854247Y-5720430D02*
X6835200Y-5710907D01*
X7016152Y-5701383D02*
X7025676Y-5710907D01*
X7025676Y-5710907D02*
X7016152Y-5720430D01*
X7016152Y-5720430D02*
X7006628Y-5710907D01*
X7006628Y-5710907D02*
X7016152Y-5701383D01*
X7016152Y-5701383D02*
X7016152Y-5720430D01*
X7016152Y-5596621D02*
X7025676Y-5606145D01*
X7025676Y-5606145D02*
X7016152Y-5615668D01*
X7016152Y-5615668D02*
X7006628Y-5606145D01*
X7006628Y-5606145D02*
X7016152Y-5596621D01*
X7016152Y-5596621D02*
X7016152Y-5615668D01*
M02*
