%TF.GenerationSoftware,KiCad,Pcbnew,8.0.1*%
%TF.CreationDate,2024-09-18T22:43:36-06:00*%
%TF.ProjectId,semg,73656d67-2e6b-4696-9361-645f70636258,rev?*%
%TF.SameCoordinates,Original*%
%TF.FileFunction,Drillmap*%
%TF.FilePolarity,Positive*%
%FSLAX45Y45*%
G04 Gerber Fmt 4.5, Leading zero omitted, Abs format (unit mm)*
G04 Created by KiCad (PCBNEW 8.0.1) date 2024-09-18 22:43:36*
%MOMM*%
%LPD*%
G01*
G04 APERTURE LIST*
%ADD10C,0.050000*%
%ADD11C,0.200000*%
%ADD12C,0.100000*%
G04 APERTURE END LIST*
D10*
X5386447Y-1906447D02*
G75*
G02*
X5886447Y-1406447I500003J-3D01*
G01*
X7386447Y-1406447D02*
G75*
G02*
X7886453Y-1906447I3J-500003D01*
G01*
X7386447Y-1406447D02*
X5886447Y-1406447D01*
X5886447Y-5406447D02*
G75*
G02*
X5386453Y-4906447I3J499997D01*
G01*
X7886447Y-4906447D02*
X7886447Y-1906447D01*
X7886447Y-4906447D02*
G75*
G02*
X7386447Y-5406447I-499997J-3D01*
G01*
X5886447Y-5406447D02*
X7386447Y-5406447D01*
X5386447Y-1906447D02*
X5386447Y-4906447D01*
D11*
D12*
X5585000Y-2117500D02*
X5615000Y-2147500D01*
X5615000Y-2117500D02*
X5585000Y-2147500D01*
X5585000Y-5025000D02*
X5615000Y-5055000D01*
X5615000Y-5025000D02*
X5585000Y-5055000D01*
X5624288Y-4155000D02*
X5654288Y-4185000D01*
X5654288Y-4155000D02*
X5624288Y-4185000D01*
X5730000Y-2862500D02*
X5760000Y-2892500D01*
X5760000Y-2862500D02*
X5730000Y-2892500D01*
X5770000Y-2302500D02*
X5800000Y-2332500D01*
X5800000Y-2302500D02*
X5770000Y-2332500D01*
X5770000Y-2427500D02*
X5800000Y-2457500D01*
X5800000Y-2427500D02*
X5770000Y-2457500D01*
X5770000Y-2552500D02*
X5800000Y-2582500D01*
X5800000Y-2552500D02*
X5770000Y-2582500D01*
X5770000Y-2677500D02*
X5800000Y-2707500D01*
X5800000Y-2677500D02*
X5770000Y-2707500D01*
X5770000Y-3322500D02*
X5800000Y-3352500D01*
X5800000Y-3322500D02*
X5770000Y-3352500D01*
X5770000Y-3447500D02*
X5800000Y-3477500D01*
X5800000Y-3447500D02*
X5770000Y-3477500D01*
X5770000Y-3572500D02*
X5800000Y-3602500D01*
X5800000Y-3572500D02*
X5770000Y-3602500D01*
X5770000Y-3697500D02*
X5800000Y-3727500D01*
X5800000Y-3697500D02*
X5770000Y-3727500D01*
X5770000Y-4340000D02*
X5800000Y-4370000D01*
X5800000Y-4340000D02*
X5770000Y-4370000D01*
X5770000Y-4465000D02*
X5800000Y-4495000D01*
X5800000Y-4465000D02*
X5770000Y-4495000D01*
X5770000Y-4590000D02*
X5800000Y-4620000D01*
X5800000Y-4590000D02*
X5770000Y-4620000D01*
X5770000Y-4715000D02*
X5800000Y-4745000D01*
X5800000Y-4715000D02*
X5770000Y-4745000D01*
X5770000Y-4840000D02*
X5800000Y-4870000D01*
X5800000Y-4840000D02*
X5770000Y-4870000D01*
X6120000Y-3487500D02*
X6150000Y-3517500D01*
X6150000Y-3487500D02*
X6120000Y-3517500D01*
X6120000Y-3582500D02*
X6150000Y-3612500D01*
X6150000Y-3582500D02*
X6120000Y-3612500D01*
X6120000Y-3710000D02*
X6150000Y-3740000D01*
X6150000Y-3710000D02*
X6120000Y-3740000D01*
X6150000Y-4060000D02*
X6180000Y-4090000D01*
X6180000Y-4060000D02*
X6150000Y-4090000D01*
X6200000Y-2932500D02*
X6230000Y-2962500D01*
X6230000Y-2932500D02*
X6200000Y-2962500D01*
X6210000Y-2270000D02*
X6240000Y-2300000D01*
X6240000Y-2270000D02*
X6210000Y-2300000D01*
X6210000Y-2480000D02*
X6240000Y-2510000D01*
X6240000Y-2480000D02*
X6210000Y-2510000D01*
X6230000Y-2060000D02*
X6260000Y-2090000D01*
X6260000Y-2060000D02*
X6230000Y-2090000D01*
X6234230Y-3676232D02*
X6264230Y-3706232D01*
X6264230Y-3676232D02*
X6234230Y-3706232D01*
X6255000Y-4460000D02*
X6285000Y-4490000D01*
X6285000Y-4460000D02*
X6255000Y-4490000D01*
X6275000Y-3590000D02*
X6305000Y-3620000D01*
X6305000Y-3590000D02*
X6275000Y-3620000D01*
X6315203Y-3755000D02*
X6345203Y-3785000D01*
X6345203Y-3755000D02*
X6315203Y-3785000D01*
X6365000Y-4060000D02*
X6395000Y-4090000D01*
X6395000Y-4060000D02*
X6365000Y-4090000D01*
X6395000Y-3745000D02*
X6425000Y-3775000D01*
X6425000Y-3745000D02*
X6395000Y-3775000D01*
X6458926Y-3695722D02*
X6488926Y-3725722D01*
X6488926Y-3695722D02*
X6458926Y-3725722D01*
X6525000Y-3998000D02*
X6555000Y-4028000D01*
X6555000Y-3998000D02*
X6525000Y-4028000D01*
X6530000Y-3659000D02*
X6560000Y-3689000D01*
X6560000Y-3659000D02*
X6530000Y-3689000D01*
X6573869Y-3725900D02*
X6603869Y-3755900D01*
X6603869Y-3725900D02*
X6573869Y-3755900D01*
X6630000Y-3310000D02*
X6660000Y-3340000D01*
X6660000Y-3310000D02*
X6630000Y-3340000D01*
X6663908Y-3727640D02*
X6693908Y-3757640D01*
X6693908Y-3727640D02*
X6663908Y-3757640D01*
X6685000Y-4450000D02*
X6715000Y-4480000D01*
X6715000Y-4450000D02*
X6685000Y-4480000D01*
X6705000Y-3659000D02*
X6735000Y-3689000D01*
X6735000Y-3659000D02*
X6705000Y-3689000D01*
X6850000Y-3531458D02*
X6880000Y-3561458D01*
X6880000Y-3531458D02*
X6850000Y-3561458D01*
X6910000Y-3470000D02*
X6940000Y-3500000D01*
X6940000Y-3470000D02*
X6910000Y-3500000D01*
X6915000Y-3982500D02*
X6945000Y-4012500D01*
X6945000Y-3982500D02*
X6915000Y-4012500D01*
X7000000Y-2060000D02*
X7030000Y-2090000D01*
X7030000Y-2060000D02*
X7000000Y-2090000D01*
X7000000Y-3810000D02*
X7030000Y-3840000D01*
X7030000Y-3810000D02*
X7000000Y-3840000D01*
X7002348Y-4273079D02*
X7032348Y-4303079D01*
X7032348Y-4273079D02*
X7002348Y-4303079D01*
X7019719Y-4351171D02*
X7049719Y-4381171D01*
X7049719Y-4351171D02*
X7019719Y-4381171D01*
X7030000Y-2270000D02*
X7060000Y-2300000D01*
X7060000Y-2270000D02*
X7030000Y-2300000D01*
X7030000Y-2480000D02*
X7060000Y-2510000D01*
X7060000Y-2480000D02*
X7030000Y-2510000D01*
X7090000Y-3810000D02*
X7120000Y-3840000D01*
X7120000Y-3810000D02*
X7090000Y-3840000D01*
X7090000Y-4160000D02*
X7120000Y-4190000D01*
X7120000Y-4160000D02*
X7090000Y-4190000D01*
X7205000Y-2681000D02*
X7235000Y-2711000D01*
X7235000Y-2681000D02*
X7205000Y-2711000D01*
X7475000Y-2302500D02*
X7505000Y-2332500D01*
X7505000Y-2302500D02*
X7475000Y-2332500D01*
X7475000Y-2427500D02*
X7505000Y-2457500D01*
X7505000Y-2427500D02*
X7475000Y-2457500D01*
X7475000Y-2552500D02*
X7505000Y-2582500D01*
X7505000Y-2552500D02*
X7475000Y-2582500D01*
X7475000Y-2677500D02*
X7505000Y-2707500D01*
X7505000Y-2677500D02*
X7475000Y-2707500D01*
X7475000Y-4340000D02*
X7505000Y-4370000D01*
X7505000Y-4340000D02*
X7475000Y-4370000D01*
X7475000Y-4465000D02*
X7505000Y-4495000D01*
X7505000Y-4465000D02*
X7475000Y-4495000D01*
X7475000Y-4590000D02*
X7505000Y-4620000D01*
X7505000Y-4590000D02*
X7475000Y-4620000D01*
X7475000Y-4715000D02*
X7505000Y-4745000D01*
X7505000Y-4715000D02*
X7475000Y-4745000D01*
X7475000Y-4830000D02*
X7505000Y-4860000D01*
X7505000Y-4830000D02*
X7475000Y-4860000D01*
X7480000Y-3322500D02*
X7510000Y-3352500D01*
X7510000Y-3322500D02*
X7480000Y-3352500D01*
X7480000Y-3447500D02*
X7510000Y-3477500D01*
X7510000Y-3447500D02*
X7480000Y-3477500D01*
X7480000Y-3572500D02*
X7510000Y-3602500D01*
X7510000Y-3572500D02*
X7480000Y-3602500D01*
X7480000Y-3697500D02*
X7510000Y-3727500D01*
X7510000Y-3697500D02*
X7480000Y-3727500D01*
X7520000Y-2860000D02*
X7550000Y-2890000D01*
X7550000Y-2860000D02*
X7520000Y-2890000D01*
X7615000Y-4710000D02*
X7645000Y-4740000D01*
X7645000Y-4710000D02*
X7615000Y-4740000D01*
X7660000Y-2117500D02*
X7690000Y-2147500D01*
X7690000Y-2117500D02*
X7660000Y-2147500D01*
X7660000Y-4155000D02*
X7690000Y-4185000D01*
X7690000Y-4155000D02*
X7660000Y-4185000D01*
X7660000Y-5025000D02*
X7690000Y-5055000D01*
X7690000Y-5025000D02*
X7660000Y-5055000D01*
X7740000Y-2470000D02*
X7770000Y-2500000D01*
X7770000Y-2470000D02*
X7740000Y-2500000D01*
X6215000Y-3105000D02*
G75*
G02*
X6185000Y-3105000I-15000J0D01*
G01*
X6185000Y-3105000D02*
G75*
G02*
X6215000Y-3105000I15000J0D01*
G01*
X6235000Y-4275000D02*
G75*
G02*
X6205000Y-4275000I-15000J0D01*
G01*
X6205000Y-4275000D02*
G75*
G02*
X6235000Y-4275000I15000J0D01*
G01*
X6335000Y-3105000D02*
G75*
G02*
X6305000Y-3105000I-15000J0D01*
G01*
X6305000Y-3105000D02*
G75*
G02*
X6335000Y-3105000I15000J0D01*
G01*
X6355000Y-4275000D02*
G75*
G02*
X6325000Y-4275000I-15000J0D01*
G01*
X6325000Y-4275000D02*
G75*
G02*
X6355000Y-4275000I15000J0D01*
G01*
X6192000Y-4955000D02*
X6192000Y-5020000D01*
X6159500Y-4987500D02*
X6224500Y-4987500D01*
X6192000Y-5082000D02*
X6192000Y-5147000D01*
X6159500Y-5114500D02*
X6224500Y-5114500D01*
X6319000Y-4955000D02*
X6319000Y-5020000D01*
X6286500Y-4987500D02*
X6351500Y-4987500D01*
X6319000Y-5082000D02*
X6319000Y-5147000D01*
X6286500Y-5114500D02*
X6351500Y-5114500D01*
X6446000Y-4955000D02*
X6446000Y-5020000D01*
X6413500Y-4987500D02*
X6478500Y-4987500D01*
X6446000Y-5082000D02*
X6446000Y-5147000D01*
X6413500Y-5114500D02*
X6478500Y-5114500D01*
X6573000Y-4955000D02*
X6573000Y-5020000D01*
X6540500Y-4987500D02*
X6605500Y-4987500D01*
X6573000Y-5082000D02*
X6573000Y-5147000D01*
X6540500Y-5114500D02*
X6605500Y-5114500D01*
X6700000Y-4955000D02*
X6700000Y-5020000D01*
X6667500Y-4987500D02*
X6732500Y-4987500D01*
X6700000Y-5082000D02*
X6700000Y-5147000D01*
X6667500Y-5114500D02*
X6732500Y-5114500D01*
X6827000Y-4955000D02*
X6827000Y-5020000D01*
X6794500Y-4987500D02*
X6859500Y-4987500D01*
X6827000Y-5082000D02*
X6827000Y-5147000D01*
X6794500Y-5114500D02*
X6859500Y-5114500D01*
X6954000Y-4955000D02*
X6954000Y-5020000D01*
X6921500Y-4987500D02*
X6986500Y-4987500D01*
X6954000Y-5082000D02*
X6954000Y-5147000D01*
X6921500Y-5114500D02*
X6986500Y-5114500D01*
X7081000Y-4955000D02*
X7081000Y-5020000D01*
X7048500Y-4987500D02*
X7113500Y-4987500D01*
X7081000Y-5082000D02*
X7081000Y-5147000D01*
X7048500Y-5114500D02*
X7113500Y-5114500D01*
X5782356Y-1740356D02*
X5782356Y-1669644D01*
X5711644Y-1669644D01*
X5711644Y-1740356D01*
X5782356Y-1740356D01*
X6036356Y-1740356D02*
X6036356Y-1669644D01*
X5965644Y-1669644D01*
X5965644Y-1740356D01*
X6036356Y-1740356D01*
X6290356Y-1740356D02*
X6290356Y-1669644D01*
X6219644Y-1669644D01*
X6219644Y-1740356D01*
X6290356Y-1740356D01*
X6544356Y-1740356D02*
X6544356Y-1669644D01*
X6473644Y-1669644D01*
X6473644Y-1740356D01*
X6544356Y-1740356D01*
X6798356Y-1740356D02*
X6798356Y-1669644D01*
X6727644Y-1669644D01*
X6727644Y-1740356D01*
X6798356Y-1740356D01*
X7052356Y-1740356D02*
X7052356Y-1669644D01*
X6981644Y-1669644D01*
X6981644Y-1740356D01*
X7052356Y-1740356D01*
X7306356Y-1740356D02*
X7306356Y-1669644D01*
X7235644Y-1669644D01*
X7235644Y-1740356D01*
X7306356Y-1740356D01*
X7560356Y-1740356D02*
X7560356Y-1669644D01*
X7489644Y-1669644D01*
X7489644Y-1740356D01*
X7560356Y-1740356D01*
D11*
X5644723Y-5720430D02*
X5644723Y-5520430D01*
X5644723Y-5520430D02*
X5692342Y-5520430D01*
X5692342Y-5520430D02*
X5720914Y-5529954D01*
X5720914Y-5529954D02*
X5739961Y-5549002D01*
X5739961Y-5549002D02*
X5749485Y-5568049D01*
X5749485Y-5568049D02*
X5759009Y-5606145D01*
X5759009Y-5606145D02*
X5759009Y-5634716D01*
X5759009Y-5634716D02*
X5749485Y-5672811D01*
X5749485Y-5672811D02*
X5739961Y-5691859D01*
X5739961Y-5691859D02*
X5720914Y-5710907D01*
X5720914Y-5710907D02*
X5692342Y-5720430D01*
X5692342Y-5720430D02*
X5644723Y-5720430D01*
X5844723Y-5720430D02*
X5844723Y-5587097D01*
X5844723Y-5625192D02*
X5854247Y-5606145D01*
X5854247Y-5606145D02*
X5863771Y-5596621D01*
X5863771Y-5596621D02*
X5882819Y-5587097D01*
X5882819Y-5587097D02*
X5901866Y-5587097D01*
X5968533Y-5720430D02*
X5968533Y-5587097D01*
X5968533Y-5520430D02*
X5959009Y-5529954D01*
X5959009Y-5529954D02*
X5968533Y-5539478D01*
X5968533Y-5539478D02*
X5978057Y-5529954D01*
X5978057Y-5529954D02*
X5968533Y-5520430D01*
X5968533Y-5520430D02*
X5968533Y-5539478D01*
X6092342Y-5720430D02*
X6073295Y-5710907D01*
X6073295Y-5710907D02*
X6063771Y-5691859D01*
X6063771Y-5691859D02*
X6063771Y-5520430D01*
X6197104Y-5720430D02*
X6178057Y-5710907D01*
X6178057Y-5710907D02*
X6168533Y-5691859D01*
X6168533Y-5691859D02*
X6168533Y-5520430D01*
X6425676Y-5720430D02*
X6425676Y-5520430D01*
X6425676Y-5520430D02*
X6492342Y-5663287D01*
X6492342Y-5663287D02*
X6559009Y-5520430D01*
X6559009Y-5520430D02*
X6559009Y-5720430D01*
X6739961Y-5720430D02*
X6739961Y-5615668D01*
X6739961Y-5615668D02*
X6730438Y-5596621D01*
X6730438Y-5596621D02*
X6711390Y-5587097D01*
X6711390Y-5587097D02*
X6673295Y-5587097D01*
X6673295Y-5587097D02*
X6654247Y-5596621D01*
X6739961Y-5710907D02*
X6720914Y-5720430D01*
X6720914Y-5720430D02*
X6673295Y-5720430D01*
X6673295Y-5720430D02*
X6654247Y-5710907D01*
X6654247Y-5710907D02*
X6644723Y-5691859D01*
X6644723Y-5691859D02*
X6644723Y-5672811D01*
X6644723Y-5672811D02*
X6654247Y-5653764D01*
X6654247Y-5653764D02*
X6673295Y-5644240D01*
X6673295Y-5644240D02*
X6720914Y-5644240D01*
X6720914Y-5644240D02*
X6739961Y-5634716D01*
X6835200Y-5587097D02*
X6835200Y-5787097D01*
X6835200Y-5596621D02*
X6854247Y-5587097D01*
X6854247Y-5587097D02*
X6892342Y-5587097D01*
X6892342Y-5587097D02*
X6911390Y-5596621D01*
X6911390Y-5596621D02*
X6920914Y-5606145D01*
X6920914Y-5606145D02*
X6930438Y-5625192D01*
X6930438Y-5625192D02*
X6930438Y-5682335D01*
X6930438Y-5682335D02*
X6920914Y-5701383D01*
X6920914Y-5701383D02*
X6911390Y-5710907D01*
X6911390Y-5710907D02*
X6892342Y-5720430D01*
X6892342Y-5720430D02*
X6854247Y-5720430D01*
X6854247Y-5720430D02*
X6835200Y-5710907D01*
X7016152Y-5701383D02*
X7025676Y-5710907D01*
X7025676Y-5710907D02*
X7016152Y-5720430D01*
X7016152Y-5720430D02*
X7006628Y-5710907D01*
X7006628Y-5710907D02*
X7016152Y-5701383D01*
X7016152Y-5701383D02*
X7016152Y-5720430D01*
X7016152Y-5596621D02*
X7025676Y-5606145D01*
X7025676Y-5606145D02*
X7016152Y-5615668D01*
X7016152Y-5615668D02*
X7006628Y-5606145D01*
X7006628Y-5606145D02*
X7016152Y-5596621D01*
X7016152Y-5596621D02*
X7016152Y-5615668D01*
D12*
X5353947Y-6033947D02*
X5383947Y-6063947D01*
X5383947Y-6033947D02*
X5353947Y-6063947D01*
D11*
X5682819Y-5940430D02*
X5701866Y-5940430D01*
X5701866Y-5940430D02*
X5720914Y-5949954D01*
X5720914Y-5949954D02*
X5730438Y-5959478D01*
X5730438Y-5959478D02*
X5739961Y-5978526D01*
X5739961Y-5978526D02*
X5749485Y-6016621D01*
X5749485Y-6016621D02*
X5749485Y-6064240D01*
X5749485Y-6064240D02*
X5739961Y-6102335D01*
X5739961Y-6102335D02*
X5730438Y-6121383D01*
X5730438Y-6121383D02*
X5720914Y-6130907D01*
X5720914Y-6130907D02*
X5701866Y-6140430D01*
X5701866Y-6140430D02*
X5682819Y-6140430D01*
X5682819Y-6140430D02*
X5663771Y-6130907D01*
X5663771Y-6130907D02*
X5654247Y-6121383D01*
X5654247Y-6121383D02*
X5644723Y-6102335D01*
X5644723Y-6102335D02*
X5635200Y-6064240D01*
X5635200Y-6064240D02*
X5635200Y-6016621D01*
X5635200Y-6016621D02*
X5644723Y-5978526D01*
X5644723Y-5978526D02*
X5654247Y-5959478D01*
X5654247Y-5959478D02*
X5663771Y-5949954D01*
X5663771Y-5949954D02*
X5682819Y-5940430D01*
X5835200Y-6121383D02*
X5844723Y-6130907D01*
X5844723Y-6130907D02*
X5835200Y-6140430D01*
X5835200Y-6140430D02*
X5825676Y-6130907D01*
X5825676Y-6130907D02*
X5835200Y-6121383D01*
X5835200Y-6121383D02*
X5835200Y-6140430D01*
X5911390Y-5940430D02*
X6035200Y-5940430D01*
X6035200Y-5940430D02*
X5968533Y-6016621D01*
X5968533Y-6016621D02*
X5997104Y-6016621D01*
X5997104Y-6016621D02*
X6016152Y-6026145D01*
X6016152Y-6026145D02*
X6025676Y-6035668D01*
X6025676Y-6035668D02*
X6035200Y-6054716D01*
X6035200Y-6054716D02*
X6035200Y-6102335D01*
X6035200Y-6102335D02*
X6025676Y-6121383D01*
X6025676Y-6121383D02*
X6016152Y-6130907D01*
X6016152Y-6130907D02*
X5997104Y-6140430D01*
X5997104Y-6140430D02*
X5939961Y-6140430D01*
X5939961Y-6140430D02*
X5920914Y-6130907D01*
X5920914Y-6130907D02*
X5911390Y-6121383D01*
X6159009Y-5940430D02*
X6178057Y-5940430D01*
X6178057Y-5940430D02*
X6197104Y-5949954D01*
X6197104Y-5949954D02*
X6206628Y-5959478D01*
X6206628Y-5959478D02*
X6216152Y-5978526D01*
X6216152Y-5978526D02*
X6225676Y-6016621D01*
X6225676Y-6016621D02*
X6225676Y-6064240D01*
X6225676Y-6064240D02*
X6216152Y-6102335D01*
X6216152Y-6102335D02*
X6206628Y-6121383D01*
X6206628Y-6121383D02*
X6197104Y-6130907D01*
X6197104Y-6130907D02*
X6178057Y-6140430D01*
X6178057Y-6140430D02*
X6159009Y-6140430D01*
X6159009Y-6140430D02*
X6139961Y-6130907D01*
X6139961Y-6130907D02*
X6130438Y-6121383D01*
X6130438Y-6121383D02*
X6120914Y-6102335D01*
X6120914Y-6102335D02*
X6111390Y-6064240D01*
X6111390Y-6064240D02*
X6111390Y-6016621D01*
X6111390Y-6016621D02*
X6120914Y-5978526D01*
X6120914Y-5978526D02*
X6130438Y-5959478D01*
X6130438Y-5959478D02*
X6139961Y-5949954D01*
X6139961Y-5949954D02*
X6159009Y-5940430D01*
X6349485Y-5940430D02*
X6368533Y-5940430D01*
X6368533Y-5940430D02*
X6387581Y-5949954D01*
X6387581Y-5949954D02*
X6397104Y-5959478D01*
X6397104Y-5959478D02*
X6406628Y-5978526D01*
X6406628Y-5978526D02*
X6416152Y-6016621D01*
X6416152Y-6016621D02*
X6416152Y-6064240D01*
X6416152Y-6064240D02*
X6406628Y-6102335D01*
X6406628Y-6102335D02*
X6397104Y-6121383D01*
X6397104Y-6121383D02*
X6387581Y-6130907D01*
X6387581Y-6130907D02*
X6368533Y-6140430D01*
X6368533Y-6140430D02*
X6349485Y-6140430D01*
X6349485Y-6140430D02*
X6330438Y-6130907D01*
X6330438Y-6130907D02*
X6320914Y-6121383D01*
X6320914Y-6121383D02*
X6311390Y-6102335D01*
X6311390Y-6102335D02*
X6301866Y-6064240D01*
X6301866Y-6064240D02*
X6301866Y-6016621D01*
X6301866Y-6016621D02*
X6311390Y-5978526D01*
X6311390Y-5978526D02*
X6320914Y-5959478D01*
X6320914Y-5959478D02*
X6330438Y-5949954D01*
X6330438Y-5949954D02*
X6349485Y-5940430D01*
X6501866Y-6140430D02*
X6501866Y-6007097D01*
X6501866Y-6026145D02*
X6511390Y-6016621D01*
X6511390Y-6016621D02*
X6530438Y-6007097D01*
X6530438Y-6007097D02*
X6559009Y-6007097D01*
X6559009Y-6007097D02*
X6578057Y-6016621D01*
X6578057Y-6016621D02*
X6587581Y-6035668D01*
X6587581Y-6035668D02*
X6587581Y-6140430D01*
X6587581Y-6035668D02*
X6597104Y-6016621D01*
X6597104Y-6016621D02*
X6616152Y-6007097D01*
X6616152Y-6007097D02*
X6644723Y-6007097D01*
X6644723Y-6007097D02*
X6663771Y-6016621D01*
X6663771Y-6016621D02*
X6673295Y-6035668D01*
X6673295Y-6035668D02*
X6673295Y-6140430D01*
X6768533Y-6140430D02*
X6768533Y-6007097D01*
X6768533Y-6026145D02*
X6778057Y-6016621D01*
X6778057Y-6016621D02*
X6797104Y-6007097D01*
X6797104Y-6007097D02*
X6825676Y-6007097D01*
X6825676Y-6007097D02*
X6844723Y-6016621D01*
X6844723Y-6016621D02*
X6854247Y-6035668D01*
X6854247Y-6035668D02*
X6854247Y-6140430D01*
X6854247Y-6035668D02*
X6863771Y-6016621D01*
X6863771Y-6016621D02*
X6882819Y-6007097D01*
X6882819Y-6007097D02*
X6911390Y-6007097D01*
X6911390Y-6007097D02*
X6930438Y-6016621D01*
X6930438Y-6016621D02*
X6939962Y-6035668D01*
X6939962Y-6035668D02*
X6939962Y-6140430D01*
X7330438Y-5930907D02*
X7159009Y-6188049D01*
X7587581Y-5940430D02*
X7606628Y-5940430D01*
X7606628Y-5940430D02*
X7625676Y-5949954D01*
X7625676Y-5949954D02*
X7635200Y-5959478D01*
X7635200Y-5959478D02*
X7644724Y-5978526D01*
X7644724Y-5978526D02*
X7654247Y-6016621D01*
X7654247Y-6016621D02*
X7654247Y-6064240D01*
X7654247Y-6064240D02*
X7644724Y-6102335D01*
X7644724Y-6102335D02*
X7635200Y-6121383D01*
X7635200Y-6121383D02*
X7625676Y-6130907D01*
X7625676Y-6130907D02*
X7606628Y-6140430D01*
X7606628Y-6140430D02*
X7587581Y-6140430D01*
X7587581Y-6140430D02*
X7568533Y-6130907D01*
X7568533Y-6130907D02*
X7559009Y-6121383D01*
X7559009Y-6121383D02*
X7549485Y-6102335D01*
X7549485Y-6102335D02*
X7539962Y-6064240D01*
X7539962Y-6064240D02*
X7539962Y-6016621D01*
X7539962Y-6016621D02*
X7549485Y-5978526D01*
X7549485Y-5978526D02*
X7559009Y-5959478D01*
X7559009Y-5959478D02*
X7568533Y-5949954D01*
X7568533Y-5949954D02*
X7587581Y-5940430D01*
X7739962Y-6121383D02*
X7749485Y-6130907D01*
X7749485Y-6130907D02*
X7739962Y-6140430D01*
X7739962Y-6140430D02*
X7730438Y-6130907D01*
X7730438Y-6130907D02*
X7739962Y-6121383D01*
X7739962Y-6121383D02*
X7739962Y-6140430D01*
X7873295Y-5940430D02*
X7892343Y-5940430D01*
X7892343Y-5940430D02*
X7911390Y-5949954D01*
X7911390Y-5949954D02*
X7920914Y-5959478D01*
X7920914Y-5959478D02*
X7930438Y-5978526D01*
X7930438Y-5978526D02*
X7939962Y-6016621D01*
X7939962Y-6016621D02*
X7939962Y-6064240D01*
X7939962Y-6064240D02*
X7930438Y-6102335D01*
X7930438Y-6102335D02*
X7920914Y-6121383D01*
X7920914Y-6121383D02*
X7911390Y-6130907D01*
X7911390Y-6130907D02*
X7892343Y-6140430D01*
X7892343Y-6140430D02*
X7873295Y-6140430D01*
X7873295Y-6140430D02*
X7854247Y-6130907D01*
X7854247Y-6130907D02*
X7844724Y-6121383D01*
X7844724Y-6121383D02*
X7835200Y-6102335D01*
X7835200Y-6102335D02*
X7825676Y-6064240D01*
X7825676Y-6064240D02*
X7825676Y-6016621D01*
X7825676Y-6016621D02*
X7835200Y-5978526D01*
X7835200Y-5978526D02*
X7844724Y-5959478D01*
X7844724Y-5959478D02*
X7854247Y-5949954D01*
X7854247Y-5949954D02*
X7873295Y-5940430D01*
X8130438Y-6140430D02*
X8016152Y-6140430D01*
X8073295Y-6140430D02*
X8073295Y-5940430D01*
X8073295Y-5940430D02*
X8054247Y-5969002D01*
X8054247Y-5969002D02*
X8035200Y-5988049D01*
X8035200Y-5988049D02*
X8016152Y-5997573D01*
X8320914Y-6140430D02*
X8206628Y-6140430D01*
X8263771Y-6140430D02*
X8263771Y-5940430D01*
X8263771Y-5940430D02*
X8244724Y-5969002D01*
X8244724Y-5969002D02*
X8225676Y-5988049D01*
X8225676Y-5988049D02*
X8206628Y-5997573D01*
X8435200Y-6026145D02*
X8416152Y-6016621D01*
X8416152Y-6016621D02*
X8406628Y-6007097D01*
X8406628Y-6007097D02*
X8397105Y-5988049D01*
X8397105Y-5988049D02*
X8397105Y-5978526D01*
X8397105Y-5978526D02*
X8406628Y-5959478D01*
X8406628Y-5959478D02*
X8416152Y-5949954D01*
X8416152Y-5949954D02*
X8435200Y-5940430D01*
X8435200Y-5940430D02*
X8473295Y-5940430D01*
X8473295Y-5940430D02*
X8492343Y-5949954D01*
X8492343Y-5949954D02*
X8501867Y-5959478D01*
X8501867Y-5959478D02*
X8511390Y-5978526D01*
X8511390Y-5978526D02*
X8511390Y-5988049D01*
X8511390Y-5988049D02*
X8501867Y-6007097D01*
X8501867Y-6007097D02*
X8492343Y-6016621D01*
X8492343Y-6016621D02*
X8473295Y-6026145D01*
X8473295Y-6026145D02*
X8435200Y-6026145D01*
X8435200Y-6026145D02*
X8416152Y-6035668D01*
X8416152Y-6035668D02*
X8406628Y-6045192D01*
X8406628Y-6045192D02*
X8397105Y-6064240D01*
X8397105Y-6064240D02*
X8397105Y-6102335D01*
X8397105Y-6102335D02*
X8406628Y-6121383D01*
X8406628Y-6121383D02*
X8416152Y-6130907D01*
X8416152Y-6130907D02*
X8435200Y-6140430D01*
X8435200Y-6140430D02*
X8473295Y-6140430D01*
X8473295Y-6140430D02*
X8492343Y-6130907D01*
X8492343Y-6130907D02*
X8501867Y-6121383D01*
X8501867Y-6121383D02*
X8511390Y-6102335D01*
X8511390Y-6102335D02*
X8511390Y-6064240D01*
X8511390Y-6064240D02*
X8501867Y-6045192D01*
X8501867Y-6045192D02*
X8492343Y-6035668D01*
X8492343Y-6035668D02*
X8473295Y-6026145D01*
X8587581Y-5940430D02*
X8587581Y-5978526D01*
X8663771Y-5940430D02*
X8663771Y-5978526D01*
X8959010Y-6216621D02*
X8949486Y-6207097D01*
X8949486Y-6207097D02*
X8930438Y-6178526D01*
X8930438Y-6178526D02*
X8920914Y-6159478D01*
X8920914Y-6159478D02*
X8911390Y-6130907D01*
X8911390Y-6130907D02*
X8901867Y-6083287D01*
X8901867Y-6083287D02*
X8901867Y-6045192D01*
X8901867Y-6045192D02*
X8911390Y-5997573D01*
X8911390Y-5997573D02*
X8920914Y-5969002D01*
X8920914Y-5969002D02*
X8930438Y-5949954D01*
X8930438Y-5949954D02*
X8949486Y-5921383D01*
X8949486Y-5921383D02*
X8959010Y-5911859D01*
X9016152Y-5940430D02*
X9149486Y-5940430D01*
X9149486Y-5940430D02*
X9063771Y-6140430D01*
X9263771Y-5940430D02*
X9282819Y-5940430D01*
X9282819Y-5940430D02*
X9301867Y-5949954D01*
X9301867Y-5949954D02*
X9311390Y-5959478D01*
X9311390Y-5959478D02*
X9320914Y-5978526D01*
X9320914Y-5978526D02*
X9330438Y-6016621D01*
X9330438Y-6016621D02*
X9330438Y-6064240D01*
X9330438Y-6064240D02*
X9320914Y-6102335D01*
X9320914Y-6102335D02*
X9311390Y-6121383D01*
X9311390Y-6121383D02*
X9301867Y-6130907D01*
X9301867Y-6130907D02*
X9282819Y-6140430D01*
X9282819Y-6140430D02*
X9263771Y-6140430D01*
X9263771Y-6140430D02*
X9244724Y-6130907D01*
X9244724Y-6130907D02*
X9235200Y-6121383D01*
X9235200Y-6121383D02*
X9225676Y-6102335D01*
X9225676Y-6102335D02*
X9216152Y-6064240D01*
X9216152Y-6064240D02*
X9216152Y-6016621D01*
X9216152Y-6016621D02*
X9225676Y-5978526D01*
X9225676Y-5978526D02*
X9235200Y-5959478D01*
X9235200Y-5959478D02*
X9244724Y-5949954D01*
X9244724Y-5949954D02*
X9263771Y-5940430D01*
X9568533Y-6140430D02*
X9568533Y-5940430D01*
X9654248Y-6140430D02*
X9654248Y-6035668D01*
X9654248Y-6035668D02*
X9644724Y-6016621D01*
X9644724Y-6016621D02*
X9625676Y-6007097D01*
X9625676Y-6007097D02*
X9597105Y-6007097D01*
X9597105Y-6007097D02*
X9578057Y-6016621D01*
X9578057Y-6016621D02*
X9568533Y-6026145D01*
X9778057Y-6140430D02*
X9759010Y-6130907D01*
X9759010Y-6130907D02*
X9749486Y-6121383D01*
X9749486Y-6121383D02*
X9739962Y-6102335D01*
X9739962Y-6102335D02*
X9739962Y-6045192D01*
X9739962Y-6045192D02*
X9749486Y-6026145D01*
X9749486Y-6026145D02*
X9759010Y-6016621D01*
X9759010Y-6016621D02*
X9778057Y-6007097D01*
X9778057Y-6007097D02*
X9806629Y-6007097D01*
X9806629Y-6007097D02*
X9825676Y-6016621D01*
X9825676Y-6016621D02*
X9835200Y-6026145D01*
X9835200Y-6026145D02*
X9844724Y-6045192D01*
X9844724Y-6045192D02*
X9844724Y-6102335D01*
X9844724Y-6102335D02*
X9835200Y-6121383D01*
X9835200Y-6121383D02*
X9825676Y-6130907D01*
X9825676Y-6130907D02*
X9806629Y-6140430D01*
X9806629Y-6140430D02*
X9778057Y-6140430D01*
X9959010Y-6140430D02*
X9939962Y-6130907D01*
X9939962Y-6130907D02*
X9930438Y-6111859D01*
X9930438Y-6111859D02*
X9930438Y-5940430D01*
X10111391Y-6130907D02*
X10092343Y-6140430D01*
X10092343Y-6140430D02*
X10054248Y-6140430D01*
X10054248Y-6140430D02*
X10035200Y-6130907D01*
X10035200Y-6130907D02*
X10025676Y-6111859D01*
X10025676Y-6111859D02*
X10025676Y-6035668D01*
X10025676Y-6035668D02*
X10035200Y-6016621D01*
X10035200Y-6016621D02*
X10054248Y-6007097D01*
X10054248Y-6007097D02*
X10092343Y-6007097D01*
X10092343Y-6007097D02*
X10111391Y-6016621D01*
X10111391Y-6016621D02*
X10120914Y-6035668D01*
X10120914Y-6035668D02*
X10120914Y-6054716D01*
X10120914Y-6054716D02*
X10025676Y-6073764D01*
X10197105Y-6130907D02*
X10216152Y-6140430D01*
X10216152Y-6140430D02*
X10254248Y-6140430D01*
X10254248Y-6140430D02*
X10273295Y-6130907D01*
X10273295Y-6130907D02*
X10282819Y-6111859D01*
X10282819Y-6111859D02*
X10282819Y-6102335D01*
X10282819Y-6102335D02*
X10273295Y-6083287D01*
X10273295Y-6083287D02*
X10254248Y-6073764D01*
X10254248Y-6073764D02*
X10225676Y-6073764D01*
X10225676Y-6073764D02*
X10206629Y-6064240D01*
X10206629Y-6064240D02*
X10197105Y-6045192D01*
X10197105Y-6045192D02*
X10197105Y-6035668D01*
X10197105Y-6035668D02*
X10206629Y-6016621D01*
X10206629Y-6016621D02*
X10225676Y-6007097D01*
X10225676Y-6007097D02*
X10254248Y-6007097D01*
X10254248Y-6007097D02*
X10273295Y-6016621D01*
X10349486Y-6216621D02*
X10359010Y-6207097D01*
X10359010Y-6207097D02*
X10378057Y-6178526D01*
X10378057Y-6178526D02*
X10387581Y-6159478D01*
X10387581Y-6159478D02*
X10397105Y-6130907D01*
X10397105Y-6130907D02*
X10406629Y-6083287D01*
X10406629Y-6083287D02*
X10406629Y-6045192D01*
X10406629Y-6045192D02*
X10397105Y-5997573D01*
X10397105Y-5997573D02*
X10387581Y-5969002D01*
X10387581Y-5969002D02*
X10378057Y-5949954D01*
X10378057Y-5949954D02*
X10359010Y-5921383D01*
X10359010Y-5921383D02*
X10349486Y-5911859D01*
D12*
X5383947Y-6312947D02*
G75*
G02*
X5353947Y-6312947I-15000J0D01*
G01*
X5353947Y-6312947D02*
G75*
G02*
X5383947Y-6312947I15000J0D01*
G01*
D11*
X5682819Y-6204430D02*
X5701866Y-6204430D01*
X5701866Y-6204430D02*
X5720914Y-6213954D01*
X5720914Y-6213954D02*
X5730438Y-6223478D01*
X5730438Y-6223478D02*
X5739961Y-6242526D01*
X5739961Y-6242526D02*
X5749485Y-6280621D01*
X5749485Y-6280621D02*
X5749485Y-6328240D01*
X5749485Y-6328240D02*
X5739961Y-6366335D01*
X5739961Y-6366335D02*
X5730438Y-6385383D01*
X5730438Y-6385383D02*
X5720914Y-6394907D01*
X5720914Y-6394907D02*
X5701866Y-6404430D01*
X5701866Y-6404430D02*
X5682819Y-6404430D01*
X5682819Y-6404430D02*
X5663771Y-6394907D01*
X5663771Y-6394907D02*
X5654247Y-6385383D01*
X5654247Y-6385383D02*
X5644723Y-6366335D01*
X5644723Y-6366335D02*
X5635200Y-6328240D01*
X5635200Y-6328240D02*
X5635200Y-6280621D01*
X5635200Y-6280621D02*
X5644723Y-6242526D01*
X5644723Y-6242526D02*
X5654247Y-6223478D01*
X5654247Y-6223478D02*
X5663771Y-6213954D01*
X5663771Y-6213954D02*
X5682819Y-6204430D01*
X5835200Y-6385383D02*
X5844723Y-6394907D01*
X5844723Y-6394907D02*
X5835200Y-6404430D01*
X5835200Y-6404430D02*
X5825676Y-6394907D01*
X5825676Y-6394907D02*
X5835200Y-6385383D01*
X5835200Y-6385383D02*
X5835200Y-6404430D01*
X5911390Y-6204430D02*
X6035200Y-6204430D01*
X6035200Y-6204430D02*
X5968533Y-6280621D01*
X5968533Y-6280621D02*
X5997104Y-6280621D01*
X5997104Y-6280621D02*
X6016152Y-6290145D01*
X6016152Y-6290145D02*
X6025676Y-6299668D01*
X6025676Y-6299668D02*
X6035200Y-6318716D01*
X6035200Y-6318716D02*
X6035200Y-6366335D01*
X6035200Y-6366335D02*
X6025676Y-6385383D01*
X6025676Y-6385383D02*
X6016152Y-6394907D01*
X6016152Y-6394907D02*
X5997104Y-6404430D01*
X5997104Y-6404430D02*
X5939961Y-6404430D01*
X5939961Y-6404430D02*
X5920914Y-6394907D01*
X5920914Y-6394907D02*
X5911390Y-6385383D01*
X6159009Y-6204430D02*
X6178057Y-6204430D01*
X6178057Y-6204430D02*
X6197104Y-6213954D01*
X6197104Y-6213954D02*
X6206628Y-6223478D01*
X6206628Y-6223478D02*
X6216152Y-6242526D01*
X6216152Y-6242526D02*
X6225676Y-6280621D01*
X6225676Y-6280621D02*
X6225676Y-6328240D01*
X6225676Y-6328240D02*
X6216152Y-6366335D01*
X6216152Y-6366335D02*
X6206628Y-6385383D01*
X6206628Y-6385383D02*
X6197104Y-6394907D01*
X6197104Y-6394907D02*
X6178057Y-6404430D01*
X6178057Y-6404430D02*
X6159009Y-6404430D01*
X6159009Y-6404430D02*
X6139961Y-6394907D01*
X6139961Y-6394907D02*
X6130438Y-6385383D01*
X6130438Y-6385383D02*
X6120914Y-6366335D01*
X6120914Y-6366335D02*
X6111390Y-6328240D01*
X6111390Y-6328240D02*
X6111390Y-6280621D01*
X6111390Y-6280621D02*
X6120914Y-6242526D01*
X6120914Y-6242526D02*
X6130438Y-6223478D01*
X6130438Y-6223478D02*
X6139961Y-6213954D01*
X6139961Y-6213954D02*
X6159009Y-6204430D01*
X6349485Y-6204430D02*
X6368533Y-6204430D01*
X6368533Y-6204430D02*
X6387581Y-6213954D01*
X6387581Y-6213954D02*
X6397104Y-6223478D01*
X6397104Y-6223478D02*
X6406628Y-6242526D01*
X6406628Y-6242526D02*
X6416152Y-6280621D01*
X6416152Y-6280621D02*
X6416152Y-6328240D01*
X6416152Y-6328240D02*
X6406628Y-6366335D01*
X6406628Y-6366335D02*
X6397104Y-6385383D01*
X6397104Y-6385383D02*
X6387581Y-6394907D01*
X6387581Y-6394907D02*
X6368533Y-6404430D01*
X6368533Y-6404430D02*
X6349485Y-6404430D01*
X6349485Y-6404430D02*
X6330438Y-6394907D01*
X6330438Y-6394907D02*
X6320914Y-6385383D01*
X6320914Y-6385383D02*
X6311390Y-6366335D01*
X6311390Y-6366335D02*
X6301866Y-6328240D01*
X6301866Y-6328240D02*
X6301866Y-6280621D01*
X6301866Y-6280621D02*
X6311390Y-6242526D01*
X6311390Y-6242526D02*
X6320914Y-6223478D01*
X6320914Y-6223478D02*
X6330438Y-6213954D01*
X6330438Y-6213954D02*
X6349485Y-6204430D01*
X6501866Y-6404430D02*
X6501866Y-6271097D01*
X6501866Y-6290145D02*
X6511390Y-6280621D01*
X6511390Y-6280621D02*
X6530438Y-6271097D01*
X6530438Y-6271097D02*
X6559009Y-6271097D01*
X6559009Y-6271097D02*
X6578057Y-6280621D01*
X6578057Y-6280621D02*
X6587581Y-6299668D01*
X6587581Y-6299668D02*
X6587581Y-6404430D01*
X6587581Y-6299668D02*
X6597104Y-6280621D01*
X6597104Y-6280621D02*
X6616152Y-6271097D01*
X6616152Y-6271097D02*
X6644723Y-6271097D01*
X6644723Y-6271097D02*
X6663771Y-6280621D01*
X6663771Y-6280621D02*
X6673295Y-6299668D01*
X6673295Y-6299668D02*
X6673295Y-6404430D01*
X6768533Y-6404430D02*
X6768533Y-6271097D01*
X6768533Y-6290145D02*
X6778057Y-6280621D01*
X6778057Y-6280621D02*
X6797104Y-6271097D01*
X6797104Y-6271097D02*
X6825676Y-6271097D01*
X6825676Y-6271097D02*
X6844723Y-6280621D01*
X6844723Y-6280621D02*
X6854247Y-6299668D01*
X6854247Y-6299668D02*
X6854247Y-6404430D01*
X6854247Y-6299668D02*
X6863771Y-6280621D01*
X6863771Y-6280621D02*
X6882819Y-6271097D01*
X6882819Y-6271097D02*
X6911390Y-6271097D01*
X6911390Y-6271097D02*
X6930438Y-6280621D01*
X6930438Y-6280621D02*
X6939962Y-6299668D01*
X6939962Y-6299668D02*
X6939962Y-6404430D01*
X7330438Y-6194907D02*
X7159009Y-6452049D01*
X7587581Y-6204430D02*
X7606628Y-6204430D01*
X7606628Y-6204430D02*
X7625676Y-6213954D01*
X7625676Y-6213954D02*
X7635200Y-6223478D01*
X7635200Y-6223478D02*
X7644724Y-6242526D01*
X7644724Y-6242526D02*
X7654247Y-6280621D01*
X7654247Y-6280621D02*
X7654247Y-6328240D01*
X7654247Y-6328240D02*
X7644724Y-6366335D01*
X7644724Y-6366335D02*
X7635200Y-6385383D01*
X7635200Y-6385383D02*
X7625676Y-6394907D01*
X7625676Y-6394907D02*
X7606628Y-6404430D01*
X7606628Y-6404430D02*
X7587581Y-6404430D01*
X7587581Y-6404430D02*
X7568533Y-6394907D01*
X7568533Y-6394907D02*
X7559009Y-6385383D01*
X7559009Y-6385383D02*
X7549485Y-6366335D01*
X7549485Y-6366335D02*
X7539962Y-6328240D01*
X7539962Y-6328240D02*
X7539962Y-6280621D01*
X7539962Y-6280621D02*
X7549485Y-6242526D01*
X7549485Y-6242526D02*
X7559009Y-6223478D01*
X7559009Y-6223478D02*
X7568533Y-6213954D01*
X7568533Y-6213954D02*
X7587581Y-6204430D01*
X7739962Y-6385383D02*
X7749485Y-6394907D01*
X7749485Y-6394907D02*
X7739962Y-6404430D01*
X7739962Y-6404430D02*
X7730438Y-6394907D01*
X7730438Y-6394907D02*
X7739962Y-6385383D01*
X7739962Y-6385383D02*
X7739962Y-6404430D01*
X7873295Y-6204430D02*
X7892343Y-6204430D01*
X7892343Y-6204430D02*
X7911390Y-6213954D01*
X7911390Y-6213954D02*
X7920914Y-6223478D01*
X7920914Y-6223478D02*
X7930438Y-6242526D01*
X7930438Y-6242526D02*
X7939962Y-6280621D01*
X7939962Y-6280621D02*
X7939962Y-6328240D01*
X7939962Y-6328240D02*
X7930438Y-6366335D01*
X7930438Y-6366335D02*
X7920914Y-6385383D01*
X7920914Y-6385383D02*
X7911390Y-6394907D01*
X7911390Y-6394907D02*
X7892343Y-6404430D01*
X7892343Y-6404430D02*
X7873295Y-6404430D01*
X7873295Y-6404430D02*
X7854247Y-6394907D01*
X7854247Y-6394907D02*
X7844724Y-6385383D01*
X7844724Y-6385383D02*
X7835200Y-6366335D01*
X7835200Y-6366335D02*
X7825676Y-6328240D01*
X7825676Y-6328240D02*
X7825676Y-6280621D01*
X7825676Y-6280621D02*
X7835200Y-6242526D01*
X7835200Y-6242526D02*
X7844724Y-6223478D01*
X7844724Y-6223478D02*
X7854247Y-6213954D01*
X7854247Y-6213954D02*
X7873295Y-6204430D01*
X8130438Y-6404430D02*
X8016152Y-6404430D01*
X8073295Y-6404430D02*
X8073295Y-6204430D01*
X8073295Y-6204430D02*
X8054247Y-6233002D01*
X8054247Y-6233002D02*
X8035200Y-6252049D01*
X8035200Y-6252049D02*
X8016152Y-6261573D01*
X8320914Y-6404430D02*
X8206628Y-6404430D01*
X8263771Y-6404430D02*
X8263771Y-6204430D01*
X8263771Y-6204430D02*
X8244724Y-6233002D01*
X8244724Y-6233002D02*
X8225676Y-6252049D01*
X8225676Y-6252049D02*
X8206628Y-6261573D01*
X8435200Y-6290145D02*
X8416152Y-6280621D01*
X8416152Y-6280621D02*
X8406628Y-6271097D01*
X8406628Y-6271097D02*
X8397105Y-6252049D01*
X8397105Y-6252049D02*
X8397105Y-6242526D01*
X8397105Y-6242526D02*
X8406628Y-6223478D01*
X8406628Y-6223478D02*
X8416152Y-6213954D01*
X8416152Y-6213954D02*
X8435200Y-6204430D01*
X8435200Y-6204430D02*
X8473295Y-6204430D01*
X8473295Y-6204430D02*
X8492343Y-6213954D01*
X8492343Y-6213954D02*
X8501867Y-6223478D01*
X8501867Y-6223478D02*
X8511390Y-6242526D01*
X8511390Y-6242526D02*
X8511390Y-6252049D01*
X8511390Y-6252049D02*
X8501867Y-6271097D01*
X8501867Y-6271097D02*
X8492343Y-6280621D01*
X8492343Y-6280621D02*
X8473295Y-6290145D01*
X8473295Y-6290145D02*
X8435200Y-6290145D01*
X8435200Y-6290145D02*
X8416152Y-6299668D01*
X8416152Y-6299668D02*
X8406628Y-6309192D01*
X8406628Y-6309192D02*
X8397105Y-6328240D01*
X8397105Y-6328240D02*
X8397105Y-6366335D01*
X8397105Y-6366335D02*
X8406628Y-6385383D01*
X8406628Y-6385383D02*
X8416152Y-6394907D01*
X8416152Y-6394907D02*
X8435200Y-6404430D01*
X8435200Y-6404430D02*
X8473295Y-6404430D01*
X8473295Y-6404430D02*
X8492343Y-6394907D01*
X8492343Y-6394907D02*
X8501867Y-6385383D01*
X8501867Y-6385383D02*
X8511390Y-6366335D01*
X8511390Y-6366335D02*
X8511390Y-6328240D01*
X8511390Y-6328240D02*
X8501867Y-6309192D01*
X8501867Y-6309192D02*
X8492343Y-6299668D01*
X8492343Y-6299668D02*
X8473295Y-6290145D01*
X8587581Y-6204430D02*
X8587581Y-6242526D01*
X8663771Y-6204430D02*
X8663771Y-6242526D01*
X8959010Y-6480621D02*
X8949486Y-6471097D01*
X8949486Y-6471097D02*
X8930438Y-6442526D01*
X8930438Y-6442526D02*
X8920914Y-6423478D01*
X8920914Y-6423478D02*
X8911390Y-6394907D01*
X8911390Y-6394907D02*
X8901867Y-6347287D01*
X8901867Y-6347287D02*
X8901867Y-6309192D01*
X8901867Y-6309192D02*
X8911390Y-6261573D01*
X8911390Y-6261573D02*
X8920914Y-6233002D01*
X8920914Y-6233002D02*
X8930438Y-6213954D01*
X8930438Y-6213954D02*
X8949486Y-6185383D01*
X8949486Y-6185383D02*
X8959010Y-6175859D01*
X9120914Y-6271097D02*
X9120914Y-6404430D01*
X9073295Y-6194907D02*
X9025676Y-6337764D01*
X9025676Y-6337764D02*
X9149486Y-6337764D01*
X9378057Y-6404430D02*
X9378057Y-6204430D01*
X9463771Y-6404430D02*
X9463771Y-6299668D01*
X9463771Y-6299668D02*
X9454248Y-6280621D01*
X9454248Y-6280621D02*
X9435200Y-6271097D01*
X9435200Y-6271097D02*
X9406629Y-6271097D01*
X9406629Y-6271097D02*
X9387581Y-6280621D01*
X9387581Y-6280621D02*
X9378057Y-6290145D01*
X9587581Y-6404430D02*
X9568533Y-6394907D01*
X9568533Y-6394907D02*
X9559010Y-6385383D01*
X9559010Y-6385383D02*
X9549486Y-6366335D01*
X9549486Y-6366335D02*
X9549486Y-6309192D01*
X9549486Y-6309192D02*
X9559010Y-6290145D01*
X9559010Y-6290145D02*
X9568533Y-6280621D01*
X9568533Y-6280621D02*
X9587581Y-6271097D01*
X9587581Y-6271097D02*
X9616152Y-6271097D01*
X9616152Y-6271097D02*
X9635200Y-6280621D01*
X9635200Y-6280621D02*
X9644724Y-6290145D01*
X9644724Y-6290145D02*
X9654248Y-6309192D01*
X9654248Y-6309192D02*
X9654248Y-6366335D01*
X9654248Y-6366335D02*
X9644724Y-6385383D01*
X9644724Y-6385383D02*
X9635200Y-6394907D01*
X9635200Y-6394907D02*
X9616152Y-6404430D01*
X9616152Y-6404430D02*
X9587581Y-6404430D01*
X9768533Y-6404430D02*
X9749486Y-6394907D01*
X9749486Y-6394907D02*
X9739962Y-6375859D01*
X9739962Y-6375859D02*
X9739962Y-6204430D01*
X9920914Y-6394907D02*
X9901867Y-6404430D01*
X9901867Y-6404430D02*
X9863771Y-6404430D01*
X9863771Y-6404430D02*
X9844724Y-6394907D01*
X9844724Y-6394907D02*
X9835200Y-6375859D01*
X9835200Y-6375859D02*
X9835200Y-6299668D01*
X9835200Y-6299668D02*
X9844724Y-6280621D01*
X9844724Y-6280621D02*
X9863771Y-6271097D01*
X9863771Y-6271097D02*
X9901867Y-6271097D01*
X9901867Y-6271097D02*
X9920914Y-6280621D01*
X9920914Y-6280621D02*
X9930438Y-6299668D01*
X9930438Y-6299668D02*
X9930438Y-6318716D01*
X9930438Y-6318716D02*
X9835200Y-6337764D01*
X10006629Y-6394907D02*
X10025676Y-6404430D01*
X10025676Y-6404430D02*
X10063771Y-6404430D01*
X10063771Y-6404430D02*
X10082819Y-6394907D01*
X10082819Y-6394907D02*
X10092343Y-6375859D01*
X10092343Y-6375859D02*
X10092343Y-6366335D01*
X10092343Y-6366335D02*
X10082819Y-6347287D01*
X10082819Y-6347287D02*
X10063771Y-6337764D01*
X10063771Y-6337764D02*
X10035200Y-6337764D01*
X10035200Y-6337764D02*
X10016152Y-6328240D01*
X10016152Y-6328240D02*
X10006629Y-6309192D01*
X10006629Y-6309192D02*
X10006629Y-6299668D01*
X10006629Y-6299668D02*
X10016152Y-6280621D01*
X10016152Y-6280621D02*
X10035200Y-6271097D01*
X10035200Y-6271097D02*
X10063771Y-6271097D01*
X10063771Y-6271097D02*
X10082819Y-6280621D01*
X10159010Y-6480621D02*
X10168533Y-6471097D01*
X10168533Y-6471097D02*
X10187581Y-6442526D01*
X10187581Y-6442526D02*
X10197105Y-6423478D01*
X10197105Y-6423478D02*
X10206629Y-6394907D01*
X10206629Y-6394907D02*
X10216152Y-6347287D01*
X10216152Y-6347287D02*
X10216152Y-6309192D01*
X10216152Y-6309192D02*
X10206629Y-6261573D01*
X10206629Y-6261573D02*
X10197105Y-6233002D01*
X10197105Y-6233002D02*
X10187581Y-6213954D01*
X10187581Y-6213954D02*
X10168533Y-6185383D01*
X10168533Y-6185383D02*
X10159010Y-6175859D01*
D12*
X5351447Y-6544447D02*
X5351447Y-6609447D01*
X5318947Y-6576947D02*
X5383947Y-6576947D01*
D11*
X5682819Y-6468430D02*
X5701866Y-6468430D01*
X5701866Y-6468430D02*
X5720914Y-6477954D01*
X5720914Y-6477954D02*
X5730438Y-6487478D01*
X5730438Y-6487478D02*
X5739961Y-6506526D01*
X5739961Y-6506526D02*
X5749485Y-6544621D01*
X5749485Y-6544621D02*
X5749485Y-6592240D01*
X5749485Y-6592240D02*
X5739961Y-6630335D01*
X5739961Y-6630335D02*
X5730438Y-6649383D01*
X5730438Y-6649383D02*
X5720914Y-6658907D01*
X5720914Y-6658907D02*
X5701866Y-6668430D01*
X5701866Y-6668430D02*
X5682819Y-6668430D01*
X5682819Y-6668430D02*
X5663771Y-6658907D01*
X5663771Y-6658907D02*
X5654247Y-6649383D01*
X5654247Y-6649383D02*
X5644723Y-6630335D01*
X5644723Y-6630335D02*
X5635200Y-6592240D01*
X5635200Y-6592240D02*
X5635200Y-6544621D01*
X5635200Y-6544621D02*
X5644723Y-6506526D01*
X5644723Y-6506526D02*
X5654247Y-6487478D01*
X5654247Y-6487478D02*
X5663771Y-6477954D01*
X5663771Y-6477954D02*
X5682819Y-6468430D01*
X5835200Y-6649383D02*
X5844723Y-6658907D01*
X5844723Y-6658907D02*
X5835200Y-6668430D01*
X5835200Y-6668430D02*
X5825676Y-6658907D01*
X5825676Y-6658907D02*
X5835200Y-6649383D01*
X5835200Y-6649383D02*
X5835200Y-6668430D01*
X6016152Y-6468430D02*
X5978057Y-6468430D01*
X5978057Y-6468430D02*
X5959009Y-6477954D01*
X5959009Y-6477954D02*
X5949485Y-6487478D01*
X5949485Y-6487478D02*
X5930438Y-6516049D01*
X5930438Y-6516049D02*
X5920914Y-6554145D01*
X5920914Y-6554145D02*
X5920914Y-6630335D01*
X5920914Y-6630335D02*
X5930438Y-6649383D01*
X5930438Y-6649383D02*
X5939961Y-6658907D01*
X5939961Y-6658907D02*
X5959009Y-6668430D01*
X5959009Y-6668430D02*
X5997104Y-6668430D01*
X5997104Y-6668430D02*
X6016152Y-6658907D01*
X6016152Y-6658907D02*
X6025676Y-6649383D01*
X6025676Y-6649383D02*
X6035200Y-6630335D01*
X6035200Y-6630335D02*
X6035200Y-6582716D01*
X6035200Y-6582716D02*
X6025676Y-6563668D01*
X6025676Y-6563668D02*
X6016152Y-6554145D01*
X6016152Y-6554145D02*
X5997104Y-6544621D01*
X5997104Y-6544621D02*
X5959009Y-6544621D01*
X5959009Y-6544621D02*
X5939961Y-6554145D01*
X5939961Y-6554145D02*
X5930438Y-6563668D01*
X5930438Y-6563668D02*
X5920914Y-6582716D01*
X6216152Y-6468430D02*
X6120914Y-6468430D01*
X6120914Y-6468430D02*
X6111390Y-6563668D01*
X6111390Y-6563668D02*
X6120914Y-6554145D01*
X6120914Y-6554145D02*
X6139961Y-6544621D01*
X6139961Y-6544621D02*
X6187581Y-6544621D01*
X6187581Y-6544621D02*
X6206628Y-6554145D01*
X6206628Y-6554145D02*
X6216152Y-6563668D01*
X6216152Y-6563668D02*
X6225676Y-6582716D01*
X6225676Y-6582716D02*
X6225676Y-6630335D01*
X6225676Y-6630335D02*
X6216152Y-6649383D01*
X6216152Y-6649383D02*
X6206628Y-6658907D01*
X6206628Y-6658907D02*
X6187581Y-6668430D01*
X6187581Y-6668430D02*
X6139961Y-6668430D01*
X6139961Y-6668430D02*
X6120914Y-6658907D01*
X6120914Y-6658907D02*
X6111390Y-6649383D01*
X6349485Y-6468430D02*
X6368533Y-6468430D01*
X6368533Y-6468430D02*
X6387581Y-6477954D01*
X6387581Y-6477954D02*
X6397104Y-6487478D01*
X6397104Y-6487478D02*
X6406628Y-6506526D01*
X6406628Y-6506526D02*
X6416152Y-6544621D01*
X6416152Y-6544621D02*
X6416152Y-6592240D01*
X6416152Y-6592240D02*
X6406628Y-6630335D01*
X6406628Y-6630335D02*
X6397104Y-6649383D01*
X6397104Y-6649383D02*
X6387581Y-6658907D01*
X6387581Y-6658907D02*
X6368533Y-6668430D01*
X6368533Y-6668430D02*
X6349485Y-6668430D01*
X6349485Y-6668430D02*
X6330438Y-6658907D01*
X6330438Y-6658907D02*
X6320914Y-6649383D01*
X6320914Y-6649383D02*
X6311390Y-6630335D01*
X6311390Y-6630335D02*
X6301866Y-6592240D01*
X6301866Y-6592240D02*
X6301866Y-6544621D01*
X6301866Y-6544621D02*
X6311390Y-6506526D01*
X6311390Y-6506526D02*
X6320914Y-6487478D01*
X6320914Y-6487478D02*
X6330438Y-6477954D01*
X6330438Y-6477954D02*
X6349485Y-6468430D01*
X6501866Y-6668430D02*
X6501866Y-6535097D01*
X6501866Y-6554145D02*
X6511390Y-6544621D01*
X6511390Y-6544621D02*
X6530438Y-6535097D01*
X6530438Y-6535097D02*
X6559009Y-6535097D01*
X6559009Y-6535097D02*
X6578057Y-6544621D01*
X6578057Y-6544621D02*
X6587581Y-6563668D01*
X6587581Y-6563668D02*
X6587581Y-6668430D01*
X6587581Y-6563668D02*
X6597104Y-6544621D01*
X6597104Y-6544621D02*
X6616152Y-6535097D01*
X6616152Y-6535097D02*
X6644723Y-6535097D01*
X6644723Y-6535097D02*
X6663771Y-6544621D01*
X6663771Y-6544621D02*
X6673295Y-6563668D01*
X6673295Y-6563668D02*
X6673295Y-6668430D01*
X6768533Y-6668430D02*
X6768533Y-6535097D01*
X6768533Y-6554145D02*
X6778057Y-6544621D01*
X6778057Y-6544621D02*
X6797104Y-6535097D01*
X6797104Y-6535097D02*
X6825676Y-6535097D01*
X6825676Y-6535097D02*
X6844723Y-6544621D01*
X6844723Y-6544621D02*
X6854247Y-6563668D01*
X6854247Y-6563668D02*
X6854247Y-6668430D01*
X6854247Y-6563668D02*
X6863771Y-6544621D01*
X6863771Y-6544621D02*
X6882819Y-6535097D01*
X6882819Y-6535097D02*
X6911390Y-6535097D01*
X6911390Y-6535097D02*
X6930438Y-6544621D01*
X6930438Y-6544621D02*
X6939962Y-6563668D01*
X6939962Y-6563668D02*
X6939962Y-6668430D01*
X7330438Y-6458907D02*
X7159009Y-6716049D01*
X7587581Y-6468430D02*
X7606628Y-6468430D01*
X7606628Y-6468430D02*
X7625676Y-6477954D01*
X7625676Y-6477954D02*
X7635200Y-6487478D01*
X7635200Y-6487478D02*
X7644724Y-6506526D01*
X7644724Y-6506526D02*
X7654247Y-6544621D01*
X7654247Y-6544621D02*
X7654247Y-6592240D01*
X7654247Y-6592240D02*
X7644724Y-6630335D01*
X7644724Y-6630335D02*
X7635200Y-6649383D01*
X7635200Y-6649383D02*
X7625676Y-6658907D01*
X7625676Y-6658907D02*
X7606628Y-6668430D01*
X7606628Y-6668430D02*
X7587581Y-6668430D01*
X7587581Y-6668430D02*
X7568533Y-6658907D01*
X7568533Y-6658907D02*
X7559009Y-6649383D01*
X7559009Y-6649383D02*
X7549485Y-6630335D01*
X7549485Y-6630335D02*
X7539962Y-6592240D01*
X7539962Y-6592240D02*
X7539962Y-6544621D01*
X7539962Y-6544621D02*
X7549485Y-6506526D01*
X7549485Y-6506526D02*
X7559009Y-6487478D01*
X7559009Y-6487478D02*
X7568533Y-6477954D01*
X7568533Y-6477954D02*
X7587581Y-6468430D01*
X7739962Y-6649383D02*
X7749485Y-6658907D01*
X7749485Y-6658907D02*
X7739962Y-6668430D01*
X7739962Y-6668430D02*
X7730438Y-6658907D01*
X7730438Y-6658907D02*
X7739962Y-6649383D01*
X7739962Y-6649383D02*
X7739962Y-6668430D01*
X7873295Y-6468430D02*
X7892343Y-6468430D01*
X7892343Y-6468430D02*
X7911390Y-6477954D01*
X7911390Y-6477954D02*
X7920914Y-6487478D01*
X7920914Y-6487478D02*
X7930438Y-6506526D01*
X7930438Y-6506526D02*
X7939962Y-6544621D01*
X7939962Y-6544621D02*
X7939962Y-6592240D01*
X7939962Y-6592240D02*
X7930438Y-6630335D01*
X7930438Y-6630335D02*
X7920914Y-6649383D01*
X7920914Y-6649383D02*
X7911390Y-6658907D01*
X7911390Y-6658907D02*
X7892343Y-6668430D01*
X7892343Y-6668430D02*
X7873295Y-6668430D01*
X7873295Y-6668430D02*
X7854247Y-6658907D01*
X7854247Y-6658907D02*
X7844724Y-6649383D01*
X7844724Y-6649383D02*
X7835200Y-6630335D01*
X7835200Y-6630335D02*
X7825676Y-6592240D01*
X7825676Y-6592240D02*
X7825676Y-6544621D01*
X7825676Y-6544621D02*
X7835200Y-6506526D01*
X7835200Y-6506526D02*
X7844724Y-6487478D01*
X7844724Y-6487478D02*
X7854247Y-6477954D01*
X7854247Y-6477954D02*
X7873295Y-6468430D01*
X8016152Y-6487478D02*
X8025676Y-6477954D01*
X8025676Y-6477954D02*
X8044724Y-6468430D01*
X8044724Y-6468430D02*
X8092343Y-6468430D01*
X8092343Y-6468430D02*
X8111390Y-6477954D01*
X8111390Y-6477954D02*
X8120914Y-6487478D01*
X8120914Y-6487478D02*
X8130438Y-6506526D01*
X8130438Y-6506526D02*
X8130438Y-6525573D01*
X8130438Y-6525573D02*
X8120914Y-6554145D01*
X8120914Y-6554145D02*
X8006628Y-6668430D01*
X8006628Y-6668430D02*
X8130438Y-6668430D01*
X8311390Y-6468430D02*
X8216152Y-6468430D01*
X8216152Y-6468430D02*
X8206628Y-6563668D01*
X8206628Y-6563668D02*
X8216152Y-6554145D01*
X8216152Y-6554145D02*
X8235200Y-6544621D01*
X8235200Y-6544621D02*
X8282819Y-6544621D01*
X8282819Y-6544621D02*
X8301866Y-6554145D01*
X8301866Y-6554145D02*
X8311390Y-6563668D01*
X8311390Y-6563668D02*
X8320914Y-6582716D01*
X8320914Y-6582716D02*
X8320914Y-6630335D01*
X8320914Y-6630335D02*
X8311390Y-6649383D01*
X8311390Y-6649383D02*
X8301866Y-6658907D01*
X8301866Y-6658907D02*
X8282819Y-6668430D01*
X8282819Y-6668430D02*
X8235200Y-6668430D01*
X8235200Y-6668430D02*
X8216152Y-6658907D01*
X8216152Y-6658907D02*
X8206628Y-6649383D01*
X8492343Y-6468430D02*
X8454247Y-6468430D01*
X8454247Y-6468430D02*
X8435200Y-6477954D01*
X8435200Y-6477954D02*
X8425676Y-6487478D01*
X8425676Y-6487478D02*
X8406628Y-6516049D01*
X8406628Y-6516049D02*
X8397105Y-6554145D01*
X8397105Y-6554145D02*
X8397105Y-6630335D01*
X8397105Y-6630335D02*
X8406628Y-6649383D01*
X8406628Y-6649383D02*
X8416152Y-6658907D01*
X8416152Y-6658907D02*
X8435200Y-6668430D01*
X8435200Y-6668430D02*
X8473295Y-6668430D01*
X8473295Y-6668430D02*
X8492343Y-6658907D01*
X8492343Y-6658907D02*
X8501867Y-6649383D01*
X8501867Y-6649383D02*
X8511390Y-6630335D01*
X8511390Y-6630335D02*
X8511390Y-6582716D01*
X8511390Y-6582716D02*
X8501867Y-6563668D01*
X8501867Y-6563668D02*
X8492343Y-6554145D01*
X8492343Y-6554145D02*
X8473295Y-6544621D01*
X8473295Y-6544621D02*
X8435200Y-6544621D01*
X8435200Y-6544621D02*
X8416152Y-6554145D01*
X8416152Y-6554145D02*
X8406628Y-6563668D01*
X8406628Y-6563668D02*
X8397105Y-6582716D01*
X8587581Y-6468430D02*
X8587581Y-6506526D01*
X8663771Y-6468430D02*
X8663771Y-6506526D01*
X8959010Y-6744621D02*
X8949486Y-6735097D01*
X8949486Y-6735097D02*
X8930438Y-6706526D01*
X8930438Y-6706526D02*
X8920914Y-6687478D01*
X8920914Y-6687478D02*
X8911390Y-6658907D01*
X8911390Y-6658907D02*
X8901867Y-6611287D01*
X8901867Y-6611287D02*
X8901867Y-6573192D01*
X8901867Y-6573192D02*
X8911390Y-6525573D01*
X8911390Y-6525573D02*
X8920914Y-6497002D01*
X8920914Y-6497002D02*
X8930438Y-6477954D01*
X8930438Y-6477954D02*
X8949486Y-6449383D01*
X8949486Y-6449383D02*
X8959010Y-6439859D01*
X9139962Y-6668430D02*
X9025676Y-6668430D01*
X9082819Y-6668430D02*
X9082819Y-6468430D01*
X9082819Y-6468430D02*
X9063771Y-6497002D01*
X9063771Y-6497002D02*
X9044724Y-6516049D01*
X9044724Y-6516049D02*
X9025676Y-6525573D01*
X9311390Y-6468430D02*
X9273295Y-6468430D01*
X9273295Y-6468430D02*
X9254248Y-6477954D01*
X9254248Y-6477954D02*
X9244724Y-6487478D01*
X9244724Y-6487478D02*
X9225676Y-6516049D01*
X9225676Y-6516049D02*
X9216152Y-6554145D01*
X9216152Y-6554145D02*
X9216152Y-6630335D01*
X9216152Y-6630335D02*
X9225676Y-6649383D01*
X9225676Y-6649383D02*
X9235200Y-6658907D01*
X9235200Y-6658907D02*
X9254248Y-6668430D01*
X9254248Y-6668430D02*
X9292343Y-6668430D01*
X9292343Y-6668430D02*
X9311390Y-6658907D01*
X9311390Y-6658907D02*
X9320914Y-6649383D01*
X9320914Y-6649383D02*
X9330438Y-6630335D01*
X9330438Y-6630335D02*
X9330438Y-6582716D01*
X9330438Y-6582716D02*
X9320914Y-6563668D01*
X9320914Y-6563668D02*
X9311390Y-6554145D01*
X9311390Y-6554145D02*
X9292343Y-6544621D01*
X9292343Y-6544621D02*
X9254248Y-6544621D01*
X9254248Y-6544621D02*
X9235200Y-6554145D01*
X9235200Y-6554145D02*
X9225676Y-6563668D01*
X9225676Y-6563668D02*
X9216152Y-6582716D01*
X9568533Y-6668430D02*
X9568533Y-6468430D01*
X9654248Y-6668430D02*
X9654248Y-6563668D01*
X9654248Y-6563668D02*
X9644724Y-6544621D01*
X9644724Y-6544621D02*
X9625676Y-6535097D01*
X9625676Y-6535097D02*
X9597105Y-6535097D01*
X9597105Y-6535097D02*
X9578057Y-6544621D01*
X9578057Y-6544621D02*
X9568533Y-6554145D01*
X9778057Y-6668430D02*
X9759010Y-6658907D01*
X9759010Y-6658907D02*
X9749486Y-6649383D01*
X9749486Y-6649383D02*
X9739962Y-6630335D01*
X9739962Y-6630335D02*
X9739962Y-6573192D01*
X9739962Y-6573192D02*
X9749486Y-6554145D01*
X9749486Y-6554145D02*
X9759010Y-6544621D01*
X9759010Y-6544621D02*
X9778057Y-6535097D01*
X9778057Y-6535097D02*
X9806629Y-6535097D01*
X9806629Y-6535097D02*
X9825676Y-6544621D01*
X9825676Y-6544621D02*
X9835200Y-6554145D01*
X9835200Y-6554145D02*
X9844724Y-6573192D01*
X9844724Y-6573192D02*
X9844724Y-6630335D01*
X9844724Y-6630335D02*
X9835200Y-6649383D01*
X9835200Y-6649383D02*
X9825676Y-6658907D01*
X9825676Y-6658907D02*
X9806629Y-6668430D01*
X9806629Y-6668430D02*
X9778057Y-6668430D01*
X9959010Y-6668430D02*
X9939962Y-6658907D01*
X9939962Y-6658907D02*
X9930438Y-6639859D01*
X9930438Y-6639859D02*
X9930438Y-6468430D01*
X10111391Y-6658907D02*
X10092343Y-6668430D01*
X10092343Y-6668430D02*
X10054248Y-6668430D01*
X10054248Y-6668430D02*
X10035200Y-6658907D01*
X10035200Y-6658907D02*
X10025676Y-6639859D01*
X10025676Y-6639859D02*
X10025676Y-6563668D01*
X10025676Y-6563668D02*
X10035200Y-6544621D01*
X10035200Y-6544621D02*
X10054248Y-6535097D01*
X10054248Y-6535097D02*
X10092343Y-6535097D01*
X10092343Y-6535097D02*
X10111391Y-6544621D01*
X10111391Y-6544621D02*
X10120914Y-6563668D01*
X10120914Y-6563668D02*
X10120914Y-6582716D01*
X10120914Y-6582716D02*
X10025676Y-6601764D01*
X10197105Y-6658907D02*
X10216152Y-6668430D01*
X10216152Y-6668430D02*
X10254248Y-6668430D01*
X10254248Y-6668430D02*
X10273295Y-6658907D01*
X10273295Y-6658907D02*
X10282819Y-6639859D01*
X10282819Y-6639859D02*
X10282819Y-6630335D01*
X10282819Y-6630335D02*
X10273295Y-6611287D01*
X10273295Y-6611287D02*
X10254248Y-6601764D01*
X10254248Y-6601764D02*
X10225676Y-6601764D01*
X10225676Y-6601764D02*
X10206629Y-6592240D01*
X10206629Y-6592240D02*
X10197105Y-6573192D01*
X10197105Y-6573192D02*
X10197105Y-6563668D01*
X10197105Y-6563668D02*
X10206629Y-6544621D01*
X10206629Y-6544621D02*
X10225676Y-6535097D01*
X10225676Y-6535097D02*
X10254248Y-6535097D01*
X10254248Y-6535097D02*
X10273295Y-6544621D01*
X10349486Y-6744621D02*
X10359010Y-6735097D01*
X10359010Y-6735097D02*
X10378057Y-6706526D01*
X10378057Y-6706526D02*
X10387581Y-6687478D01*
X10387581Y-6687478D02*
X10397105Y-6658907D01*
X10397105Y-6658907D02*
X10406629Y-6611287D01*
X10406629Y-6611287D02*
X10406629Y-6573192D01*
X10406629Y-6573192D02*
X10397105Y-6525573D01*
X10397105Y-6525573D02*
X10387581Y-6497002D01*
X10387581Y-6497002D02*
X10378057Y-6477954D01*
X10378057Y-6477954D02*
X10359010Y-6449383D01*
X10359010Y-6449383D02*
X10349486Y-6439859D01*
D12*
X5369302Y-6876302D02*
X5369302Y-6805591D01*
X5298591Y-6805591D01*
X5298591Y-6876302D01*
X5369302Y-6876302D01*
D11*
X5749485Y-6932430D02*
X5635200Y-6932430D01*
X5692342Y-6932430D02*
X5692342Y-6732430D01*
X5692342Y-6732430D02*
X5673295Y-6761002D01*
X5673295Y-6761002D02*
X5654247Y-6780049D01*
X5654247Y-6780049D02*
X5635200Y-6789573D01*
X5835200Y-6913383D02*
X5844723Y-6922907D01*
X5844723Y-6922907D02*
X5835200Y-6932430D01*
X5835200Y-6932430D02*
X5825676Y-6922907D01*
X5825676Y-6922907D02*
X5835200Y-6913383D01*
X5835200Y-6913383D02*
X5835200Y-6932430D01*
X5968533Y-6732430D02*
X5987581Y-6732430D01*
X5987581Y-6732430D02*
X6006628Y-6741954D01*
X6006628Y-6741954D02*
X6016152Y-6751478D01*
X6016152Y-6751478D02*
X6025676Y-6770526D01*
X6025676Y-6770526D02*
X6035200Y-6808621D01*
X6035200Y-6808621D02*
X6035200Y-6856240D01*
X6035200Y-6856240D02*
X6025676Y-6894335D01*
X6025676Y-6894335D02*
X6016152Y-6913383D01*
X6016152Y-6913383D02*
X6006628Y-6922907D01*
X6006628Y-6922907D02*
X5987581Y-6932430D01*
X5987581Y-6932430D02*
X5968533Y-6932430D01*
X5968533Y-6932430D02*
X5949485Y-6922907D01*
X5949485Y-6922907D02*
X5939961Y-6913383D01*
X5939961Y-6913383D02*
X5930438Y-6894335D01*
X5930438Y-6894335D02*
X5920914Y-6856240D01*
X5920914Y-6856240D02*
X5920914Y-6808621D01*
X5920914Y-6808621D02*
X5930438Y-6770526D01*
X5930438Y-6770526D02*
X5939961Y-6751478D01*
X5939961Y-6751478D02*
X5949485Y-6741954D01*
X5949485Y-6741954D02*
X5968533Y-6732430D01*
X6159009Y-6732430D02*
X6178057Y-6732430D01*
X6178057Y-6732430D02*
X6197104Y-6741954D01*
X6197104Y-6741954D02*
X6206628Y-6751478D01*
X6206628Y-6751478D02*
X6216152Y-6770526D01*
X6216152Y-6770526D02*
X6225676Y-6808621D01*
X6225676Y-6808621D02*
X6225676Y-6856240D01*
X6225676Y-6856240D02*
X6216152Y-6894335D01*
X6216152Y-6894335D02*
X6206628Y-6913383D01*
X6206628Y-6913383D02*
X6197104Y-6922907D01*
X6197104Y-6922907D02*
X6178057Y-6932430D01*
X6178057Y-6932430D02*
X6159009Y-6932430D01*
X6159009Y-6932430D02*
X6139961Y-6922907D01*
X6139961Y-6922907D02*
X6130438Y-6913383D01*
X6130438Y-6913383D02*
X6120914Y-6894335D01*
X6120914Y-6894335D02*
X6111390Y-6856240D01*
X6111390Y-6856240D02*
X6111390Y-6808621D01*
X6111390Y-6808621D02*
X6120914Y-6770526D01*
X6120914Y-6770526D02*
X6130438Y-6751478D01*
X6130438Y-6751478D02*
X6139961Y-6741954D01*
X6139961Y-6741954D02*
X6159009Y-6732430D01*
X6349485Y-6732430D02*
X6368533Y-6732430D01*
X6368533Y-6732430D02*
X6387581Y-6741954D01*
X6387581Y-6741954D02*
X6397104Y-6751478D01*
X6397104Y-6751478D02*
X6406628Y-6770526D01*
X6406628Y-6770526D02*
X6416152Y-6808621D01*
X6416152Y-6808621D02*
X6416152Y-6856240D01*
X6416152Y-6856240D02*
X6406628Y-6894335D01*
X6406628Y-6894335D02*
X6397104Y-6913383D01*
X6397104Y-6913383D02*
X6387581Y-6922907D01*
X6387581Y-6922907D02*
X6368533Y-6932430D01*
X6368533Y-6932430D02*
X6349485Y-6932430D01*
X6349485Y-6932430D02*
X6330438Y-6922907D01*
X6330438Y-6922907D02*
X6320914Y-6913383D01*
X6320914Y-6913383D02*
X6311390Y-6894335D01*
X6311390Y-6894335D02*
X6301866Y-6856240D01*
X6301866Y-6856240D02*
X6301866Y-6808621D01*
X6301866Y-6808621D02*
X6311390Y-6770526D01*
X6311390Y-6770526D02*
X6320914Y-6751478D01*
X6320914Y-6751478D02*
X6330438Y-6741954D01*
X6330438Y-6741954D02*
X6349485Y-6732430D01*
X6501866Y-6932430D02*
X6501866Y-6799097D01*
X6501866Y-6818145D02*
X6511390Y-6808621D01*
X6511390Y-6808621D02*
X6530438Y-6799097D01*
X6530438Y-6799097D02*
X6559009Y-6799097D01*
X6559009Y-6799097D02*
X6578057Y-6808621D01*
X6578057Y-6808621D02*
X6587581Y-6827668D01*
X6587581Y-6827668D02*
X6587581Y-6932430D01*
X6587581Y-6827668D02*
X6597104Y-6808621D01*
X6597104Y-6808621D02*
X6616152Y-6799097D01*
X6616152Y-6799097D02*
X6644723Y-6799097D01*
X6644723Y-6799097D02*
X6663771Y-6808621D01*
X6663771Y-6808621D02*
X6673295Y-6827668D01*
X6673295Y-6827668D02*
X6673295Y-6932430D01*
X6768533Y-6932430D02*
X6768533Y-6799097D01*
X6768533Y-6818145D02*
X6778057Y-6808621D01*
X6778057Y-6808621D02*
X6797104Y-6799097D01*
X6797104Y-6799097D02*
X6825676Y-6799097D01*
X6825676Y-6799097D02*
X6844723Y-6808621D01*
X6844723Y-6808621D02*
X6854247Y-6827668D01*
X6854247Y-6827668D02*
X6854247Y-6932430D01*
X6854247Y-6827668D02*
X6863771Y-6808621D01*
X6863771Y-6808621D02*
X6882819Y-6799097D01*
X6882819Y-6799097D02*
X6911390Y-6799097D01*
X6911390Y-6799097D02*
X6930438Y-6808621D01*
X6930438Y-6808621D02*
X6939962Y-6827668D01*
X6939962Y-6827668D02*
X6939962Y-6932430D01*
X7330438Y-6722907D02*
X7159009Y-6980049D01*
X7587581Y-6732430D02*
X7606628Y-6732430D01*
X7606628Y-6732430D02*
X7625676Y-6741954D01*
X7625676Y-6741954D02*
X7635200Y-6751478D01*
X7635200Y-6751478D02*
X7644724Y-6770526D01*
X7644724Y-6770526D02*
X7654247Y-6808621D01*
X7654247Y-6808621D02*
X7654247Y-6856240D01*
X7654247Y-6856240D02*
X7644724Y-6894335D01*
X7644724Y-6894335D02*
X7635200Y-6913383D01*
X7635200Y-6913383D02*
X7625676Y-6922907D01*
X7625676Y-6922907D02*
X7606628Y-6932430D01*
X7606628Y-6932430D02*
X7587581Y-6932430D01*
X7587581Y-6932430D02*
X7568533Y-6922907D01*
X7568533Y-6922907D02*
X7559009Y-6913383D01*
X7559009Y-6913383D02*
X7549485Y-6894335D01*
X7549485Y-6894335D02*
X7539962Y-6856240D01*
X7539962Y-6856240D02*
X7539962Y-6808621D01*
X7539962Y-6808621D02*
X7549485Y-6770526D01*
X7549485Y-6770526D02*
X7559009Y-6751478D01*
X7559009Y-6751478D02*
X7568533Y-6741954D01*
X7568533Y-6741954D02*
X7587581Y-6732430D01*
X7739962Y-6913383D02*
X7749485Y-6922907D01*
X7749485Y-6922907D02*
X7739962Y-6932430D01*
X7739962Y-6932430D02*
X7730438Y-6922907D01*
X7730438Y-6922907D02*
X7739962Y-6913383D01*
X7739962Y-6913383D02*
X7739962Y-6932430D01*
X7873295Y-6732430D02*
X7892343Y-6732430D01*
X7892343Y-6732430D02*
X7911390Y-6741954D01*
X7911390Y-6741954D02*
X7920914Y-6751478D01*
X7920914Y-6751478D02*
X7930438Y-6770526D01*
X7930438Y-6770526D02*
X7939962Y-6808621D01*
X7939962Y-6808621D02*
X7939962Y-6856240D01*
X7939962Y-6856240D02*
X7930438Y-6894335D01*
X7930438Y-6894335D02*
X7920914Y-6913383D01*
X7920914Y-6913383D02*
X7911390Y-6922907D01*
X7911390Y-6922907D02*
X7892343Y-6932430D01*
X7892343Y-6932430D02*
X7873295Y-6932430D01*
X7873295Y-6932430D02*
X7854247Y-6922907D01*
X7854247Y-6922907D02*
X7844724Y-6913383D01*
X7844724Y-6913383D02*
X7835200Y-6894335D01*
X7835200Y-6894335D02*
X7825676Y-6856240D01*
X7825676Y-6856240D02*
X7825676Y-6808621D01*
X7825676Y-6808621D02*
X7835200Y-6770526D01*
X7835200Y-6770526D02*
X7844724Y-6751478D01*
X7844724Y-6751478D02*
X7854247Y-6741954D01*
X7854247Y-6741954D02*
X7873295Y-6732430D01*
X8006628Y-6732430D02*
X8130438Y-6732430D01*
X8130438Y-6732430D02*
X8063771Y-6808621D01*
X8063771Y-6808621D02*
X8092343Y-6808621D01*
X8092343Y-6808621D02*
X8111390Y-6818145D01*
X8111390Y-6818145D02*
X8120914Y-6827668D01*
X8120914Y-6827668D02*
X8130438Y-6846716D01*
X8130438Y-6846716D02*
X8130438Y-6894335D01*
X8130438Y-6894335D02*
X8120914Y-6913383D01*
X8120914Y-6913383D02*
X8111390Y-6922907D01*
X8111390Y-6922907D02*
X8092343Y-6932430D01*
X8092343Y-6932430D02*
X8035200Y-6932430D01*
X8035200Y-6932430D02*
X8016152Y-6922907D01*
X8016152Y-6922907D02*
X8006628Y-6913383D01*
X8225676Y-6932430D02*
X8263771Y-6932430D01*
X8263771Y-6932430D02*
X8282819Y-6922907D01*
X8282819Y-6922907D02*
X8292343Y-6913383D01*
X8292343Y-6913383D02*
X8311390Y-6884811D01*
X8311390Y-6884811D02*
X8320914Y-6846716D01*
X8320914Y-6846716D02*
X8320914Y-6770526D01*
X8320914Y-6770526D02*
X8311390Y-6751478D01*
X8311390Y-6751478D02*
X8301866Y-6741954D01*
X8301866Y-6741954D02*
X8282819Y-6732430D01*
X8282819Y-6732430D02*
X8244724Y-6732430D01*
X8244724Y-6732430D02*
X8225676Y-6741954D01*
X8225676Y-6741954D02*
X8216152Y-6751478D01*
X8216152Y-6751478D02*
X8206628Y-6770526D01*
X8206628Y-6770526D02*
X8206628Y-6818145D01*
X8206628Y-6818145D02*
X8216152Y-6837192D01*
X8216152Y-6837192D02*
X8225676Y-6846716D01*
X8225676Y-6846716D02*
X8244724Y-6856240D01*
X8244724Y-6856240D02*
X8282819Y-6856240D01*
X8282819Y-6856240D02*
X8301866Y-6846716D01*
X8301866Y-6846716D02*
X8311390Y-6837192D01*
X8311390Y-6837192D02*
X8320914Y-6818145D01*
X8492343Y-6799097D02*
X8492343Y-6932430D01*
X8444724Y-6722907D02*
X8397105Y-6865764D01*
X8397105Y-6865764D02*
X8520914Y-6865764D01*
X8587581Y-6732430D02*
X8587581Y-6770526D01*
X8663771Y-6732430D02*
X8663771Y-6770526D01*
X8959010Y-7008621D02*
X8949486Y-6999097D01*
X8949486Y-6999097D02*
X8930438Y-6970526D01*
X8930438Y-6970526D02*
X8920914Y-6951478D01*
X8920914Y-6951478D02*
X8911390Y-6922907D01*
X8911390Y-6922907D02*
X8901867Y-6875287D01*
X8901867Y-6875287D02*
X8901867Y-6837192D01*
X8901867Y-6837192D02*
X8911390Y-6789573D01*
X8911390Y-6789573D02*
X8920914Y-6761002D01*
X8920914Y-6761002D02*
X8930438Y-6741954D01*
X8930438Y-6741954D02*
X8949486Y-6713383D01*
X8949486Y-6713383D02*
X8959010Y-6703859D01*
X9063771Y-6818145D02*
X9044724Y-6808621D01*
X9044724Y-6808621D02*
X9035200Y-6799097D01*
X9035200Y-6799097D02*
X9025676Y-6780049D01*
X9025676Y-6780049D02*
X9025676Y-6770526D01*
X9025676Y-6770526D02*
X9035200Y-6751478D01*
X9035200Y-6751478D02*
X9044724Y-6741954D01*
X9044724Y-6741954D02*
X9063771Y-6732430D01*
X9063771Y-6732430D02*
X9101867Y-6732430D01*
X9101867Y-6732430D02*
X9120914Y-6741954D01*
X9120914Y-6741954D02*
X9130438Y-6751478D01*
X9130438Y-6751478D02*
X9139962Y-6770526D01*
X9139962Y-6770526D02*
X9139962Y-6780049D01*
X9139962Y-6780049D02*
X9130438Y-6799097D01*
X9130438Y-6799097D02*
X9120914Y-6808621D01*
X9120914Y-6808621D02*
X9101867Y-6818145D01*
X9101867Y-6818145D02*
X9063771Y-6818145D01*
X9063771Y-6818145D02*
X9044724Y-6827668D01*
X9044724Y-6827668D02*
X9035200Y-6837192D01*
X9035200Y-6837192D02*
X9025676Y-6856240D01*
X9025676Y-6856240D02*
X9025676Y-6894335D01*
X9025676Y-6894335D02*
X9035200Y-6913383D01*
X9035200Y-6913383D02*
X9044724Y-6922907D01*
X9044724Y-6922907D02*
X9063771Y-6932430D01*
X9063771Y-6932430D02*
X9101867Y-6932430D01*
X9101867Y-6932430D02*
X9120914Y-6922907D01*
X9120914Y-6922907D02*
X9130438Y-6913383D01*
X9130438Y-6913383D02*
X9139962Y-6894335D01*
X9139962Y-6894335D02*
X9139962Y-6856240D01*
X9139962Y-6856240D02*
X9130438Y-6837192D01*
X9130438Y-6837192D02*
X9120914Y-6827668D01*
X9120914Y-6827668D02*
X9101867Y-6818145D01*
X9378057Y-6932430D02*
X9378057Y-6732430D01*
X9463771Y-6932430D02*
X9463771Y-6827668D01*
X9463771Y-6827668D02*
X9454248Y-6808621D01*
X9454248Y-6808621D02*
X9435200Y-6799097D01*
X9435200Y-6799097D02*
X9406629Y-6799097D01*
X9406629Y-6799097D02*
X9387581Y-6808621D01*
X9387581Y-6808621D02*
X9378057Y-6818145D01*
X9587581Y-6932430D02*
X9568533Y-6922907D01*
X9568533Y-6922907D02*
X9559010Y-6913383D01*
X9559010Y-6913383D02*
X9549486Y-6894335D01*
X9549486Y-6894335D02*
X9549486Y-6837192D01*
X9549486Y-6837192D02*
X9559010Y-6818145D01*
X9559010Y-6818145D02*
X9568533Y-6808621D01*
X9568533Y-6808621D02*
X9587581Y-6799097D01*
X9587581Y-6799097D02*
X9616152Y-6799097D01*
X9616152Y-6799097D02*
X9635200Y-6808621D01*
X9635200Y-6808621D02*
X9644724Y-6818145D01*
X9644724Y-6818145D02*
X9654248Y-6837192D01*
X9654248Y-6837192D02*
X9654248Y-6894335D01*
X9654248Y-6894335D02*
X9644724Y-6913383D01*
X9644724Y-6913383D02*
X9635200Y-6922907D01*
X9635200Y-6922907D02*
X9616152Y-6932430D01*
X9616152Y-6932430D02*
X9587581Y-6932430D01*
X9768533Y-6932430D02*
X9749486Y-6922907D01*
X9749486Y-6922907D02*
X9739962Y-6903859D01*
X9739962Y-6903859D02*
X9739962Y-6732430D01*
X9920914Y-6922907D02*
X9901867Y-6932430D01*
X9901867Y-6932430D02*
X9863771Y-6932430D01*
X9863771Y-6932430D02*
X9844724Y-6922907D01*
X9844724Y-6922907D02*
X9835200Y-6903859D01*
X9835200Y-6903859D02*
X9835200Y-6827668D01*
X9835200Y-6827668D02*
X9844724Y-6808621D01*
X9844724Y-6808621D02*
X9863771Y-6799097D01*
X9863771Y-6799097D02*
X9901867Y-6799097D01*
X9901867Y-6799097D02*
X9920914Y-6808621D01*
X9920914Y-6808621D02*
X9930438Y-6827668D01*
X9930438Y-6827668D02*
X9930438Y-6846716D01*
X9930438Y-6846716D02*
X9835200Y-6865764D01*
X10006629Y-6922907D02*
X10025676Y-6932430D01*
X10025676Y-6932430D02*
X10063771Y-6932430D01*
X10063771Y-6932430D02*
X10082819Y-6922907D01*
X10082819Y-6922907D02*
X10092343Y-6903859D01*
X10092343Y-6903859D02*
X10092343Y-6894335D01*
X10092343Y-6894335D02*
X10082819Y-6875287D01*
X10082819Y-6875287D02*
X10063771Y-6865764D01*
X10063771Y-6865764D02*
X10035200Y-6865764D01*
X10035200Y-6865764D02*
X10016152Y-6856240D01*
X10016152Y-6856240D02*
X10006629Y-6837192D01*
X10006629Y-6837192D02*
X10006629Y-6827668D01*
X10006629Y-6827668D02*
X10016152Y-6808621D01*
X10016152Y-6808621D02*
X10035200Y-6799097D01*
X10035200Y-6799097D02*
X10063771Y-6799097D01*
X10063771Y-6799097D02*
X10082819Y-6808621D01*
X10159010Y-7008621D02*
X10168533Y-6999097D01*
X10168533Y-6999097D02*
X10187581Y-6970526D01*
X10187581Y-6970526D02*
X10197105Y-6951478D01*
X10197105Y-6951478D02*
X10206629Y-6922907D01*
X10206629Y-6922907D02*
X10216152Y-6875287D01*
X10216152Y-6875287D02*
X10216152Y-6837192D01*
X10216152Y-6837192D02*
X10206629Y-6789573D01*
X10206629Y-6789573D02*
X10197105Y-6761002D01*
X10197105Y-6761002D02*
X10187581Y-6741954D01*
X10187581Y-6741954D02*
X10168533Y-6713383D01*
X10168533Y-6713383D02*
X10159010Y-6703859D01*
M02*
