G04 #@! TF.GenerationSoftware,KiCad,Pcbnew,8.0.1*
G04 #@! TF.CreationDate,2024-09-18T22:43:32-06:00*
G04 #@! TF.ProjectId,semg,73656d67-2e6b-4696-9361-645f70636258,rev?*
G04 #@! TF.SameCoordinates,Original*
G04 #@! TF.FileFunction,Copper,L4,Bot*
G04 #@! TF.FilePolarity,Positive*
%FSLAX46Y46*%
G04 Gerber Fmt 4.6, Leading zero omitted, Abs format (unit mm)*
G04 Created by KiCad (PCBNEW 8.0.1) date 2024-09-18 22:43:32*
%MOMM*%
%LPD*%
G01*
G04 APERTURE LIST*
G04 Aperture macros list*
%AMFreePoly0*
4,1,18,0.017678,0.267678,0.260356,0.025000,0.750000,0.025000,0.767678,0.017678,0.775000,0.000000,0.767678,-0.017678,0.517678,-0.267678,0.500000,-0.275000,-0.500000,-0.275000,-0.517678,-0.267678,-0.767678,-0.017678,-0.775000,0.000000,-0.767678,0.017678,-0.750000,0.025000,-0.260356,0.025000,-0.017678,0.267678,0.000000,0.275000,0.017678,0.267678,0.017678,0.267678,$1*%
%AMFreePoly1*
4,1,17,0.017678,0.287678,0.767678,-0.462322,0.775000,-0.480000,0.767678,-0.497678,0.750000,-0.505000,0.325000,-0.505000,0.307322,-0.497678,0.000000,-0.190356,-0.307322,-0.497678,-0.325000,-0.505000,-0.750000,-0.505000,-0.767678,-0.497678,-0.775000,-0.480000,-0.767678,-0.462322,-0.017678,0.287678,0.000000,0.295000,0.017678,0.287678,0.017678,0.287678,$1*%
G04 Aperture macros list end*
G04 #@! TA.AperFunction,EtchedComponent*
%ADD10C,0.000000*%
G04 #@! TD*
G04 #@! TA.AperFunction,ComponentPad*
%ADD11R,2.000000X2.000000*%
G04 #@! TD*
G04 #@! TA.AperFunction,ComponentPad*
%ADD12O,2.000000X2.000000*%
G04 #@! TD*
G04 #@! TA.AperFunction,ComponentPad*
%ADD13C,0.600000*%
G04 #@! TD*
G04 #@! TA.AperFunction,ComponentPad*
%ADD14R,1.000000X1.000000*%
G04 #@! TD*
G04 #@! TA.AperFunction,ComponentPad*
%ADD15O,1.000000X1.000000*%
G04 #@! TD*
G04 #@! TA.AperFunction,SMDPad,CuDef*
%ADD16FreePoly0,90.000000*%
G04 #@! TD*
G04 #@! TA.AperFunction,SMDPad,CuDef*
%ADD17FreePoly1,90.000000*%
G04 #@! TD*
G04 #@! TA.AperFunction,SMDPad,CuDef*
%ADD18FreePoly0,180.000000*%
G04 #@! TD*
G04 #@! TA.AperFunction,SMDPad,CuDef*
%ADD19FreePoly1,180.000000*%
G04 #@! TD*
G04 #@! TA.AperFunction,SMDPad,CuDef*
%ADD20R,0.380000X0.620000*%
G04 #@! TD*
G04 #@! TA.AperFunction,SMDPad,CuDef*
%ADD21R,0.380000X0.240000*%
G04 #@! TD*
G04 #@! TA.AperFunction,ViaPad*
%ADD22C,0.600000*%
G04 #@! TD*
G04 #@! TA.AperFunction,Conductor*
%ADD23C,0.100000*%
G04 #@! TD*
G04 #@! TA.AperFunction,Conductor*
%ADD24C,0.180000*%
G04 #@! TD*
G04 #@! TA.AperFunction,Conductor*
%ADD25C,0.200000*%
G04 #@! TD*
G04 APERTURE END LIST*
D10*
G04 #@! TA.AperFunction,EtchedComponent*
G36*
X63200000Y-31350000D02*
G01*
X62000000Y-31350000D01*
X62000000Y-30750000D01*
X63200000Y-30750000D01*
X63200000Y-31350000D01*
G37*
G04 #@! TD.AperFunction*
G04 #@! TA.AperFunction,EtchedComponent*
G36*
X63400000Y-43050000D02*
G01*
X62200000Y-43050000D01*
X62200000Y-42450000D01*
X63400000Y-42450000D01*
X63400000Y-43050000D01*
G37*
G04 #@! TD.AperFunction*
D11*
X75250000Y-17050000D03*
D12*
X72710000Y-17050000D03*
D11*
X70170000Y-17050000D03*
D12*
X67630000Y-17050000D03*
D11*
X65090000Y-17050000D03*
D12*
X62550000Y-17050000D03*
D11*
X60010000Y-17050000D03*
D12*
X57470000Y-17050000D03*
D13*
X63200000Y-31050000D03*
X62000000Y-31050000D03*
D14*
X70810000Y-49875000D03*
D15*
X70810000Y-51145000D03*
X69540000Y-49875000D03*
X69540000Y-51145000D03*
X68270000Y-49875000D03*
X68270000Y-51145000D03*
X67000000Y-49875000D03*
X67000000Y-51145000D03*
X65730000Y-49875000D03*
X65730000Y-51145000D03*
X64460000Y-49875000D03*
X64460000Y-51145000D03*
X63190000Y-49875000D03*
X63190000Y-51145000D03*
X61920000Y-49875000D03*
X61920000Y-51145000D03*
D13*
X63400000Y-42750000D03*
X62200000Y-42750000D03*
D16*
X57022500Y-34650000D03*
D17*
X56397500Y-34650000D03*
D18*
X64750000Y-33027500D03*
D19*
X64750000Y-33652500D03*
D20*
X65280000Y-44650000D03*
X67420000Y-44650000D03*
X65280000Y-43050000D03*
X67420000Y-43050000D03*
D21*
X65280000Y-44050000D03*
X67420000Y-44050000D03*
X65280000Y-43650000D03*
X67420000Y-43650000D03*
D20*
X65280000Y-26550000D03*
X67420000Y-26550000D03*
X65280000Y-24950000D03*
X67420000Y-24950000D03*
D21*
X65280000Y-25950000D03*
X67420000Y-25950000D03*
X65280000Y-25550000D03*
X67420000Y-25550000D03*
D18*
X68050000Y-32600000D03*
D19*
X68050000Y-33225000D03*
D16*
X57022500Y-31050000D03*
D17*
X56397500Y-31050000D03*
D18*
X70750000Y-31977500D03*
D19*
X70750000Y-32602500D03*
D16*
X57022500Y-37800000D03*
D17*
X56397500Y-37800000D03*
D22*
X74900000Y-47300000D03*
X76300000Y-47250000D03*
X57850000Y-47300000D03*
X61350000Y-37250000D03*
X61350000Y-35025000D03*
X76750000Y-41700000D03*
X76750000Y-50400000D03*
X57850000Y-48550000D03*
X65400000Y-40130000D03*
X76750000Y-21325000D03*
X56392881Y-41700000D03*
X62900000Y-36050000D03*
X74900000Y-48450000D03*
X56000000Y-50400000D03*
X66450000Y-33250000D03*
X62150000Y-29475000D03*
X57450000Y-28775000D03*
X69300000Y-39975000D03*
X75350000Y-28750000D03*
X70347195Y-43661708D03*
X56000000Y-21325000D03*
X67000000Y-44650000D03*
X57850000Y-43550000D03*
X74900000Y-43550000D03*
X62450000Y-20750000D03*
X70150000Y-20750000D03*
X74900000Y-23175000D03*
X57850000Y-23175000D03*
X65450000Y-36740000D03*
X64739256Y-37107217D03*
X74900000Y-24425000D03*
X57850000Y-24425000D03*
X65888687Y-37408998D03*
X66789081Y-37426403D03*
X57850000Y-25675000D03*
X74900000Y-25675000D03*
X57850000Y-44800000D03*
X74900000Y-44800000D03*
X63302031Y-37700000D03*
X64100000Y-37600000D03*
X74900000Y-46050000D03*
X57850000Y-46050000D03*
X70450000Y-22850000D03*
X62250000Y-22850000D03*
X70450000Y-24950000D03*
X62250000Y-24950000D03*
X70150000Y-38250000D03*
X70173483Y-42880793D03*
X68650000Y-35464579D03*
X71050000Y-38250000D03*
X71050000Y-41750000D03*
X69250000Y-34850000D03*
X74900000Y-26925000D03*
X67200000Y-36740000D03*
X57850000Y-26925000D03*
X62492303Y-36912319D03*
X74950000Y-37125000D03*
X57850000Y-37125000D03*
X62700000Y-44750000D03*
X63800000Y-40750000D03*
X61350000Y-35975000D03*
X61650000Y-40750000D03*
X57850000Y-33375000D03*
X57850000Y-34625000D03*
X57850000Y-35875000D03*
X77550000Y-24850000D03*
X72200001Y-26960000D03*
X74950000Y-35875000D03*
X74950000Y-33375000D03*
X74950000Y-34625000D03*
D23*
X62375000Y-52000000D02*
X63280000Y-51095000D01*
X60522182Y-52000000D02*
X62375000Y-52000000D01*
X55842881Y-47320699D02*
X60522182Y-52000000D01*
X55842881Y-28932119D02*
X55842881Y-47320699D01*
X57850000Y-26925000D02*
X55842881Y-28932119D01*
X63345000Y-52300000D02*
X64550000Y-51095000D01*
X60397918Y-52300000D02*
X63345000Y-52300000D01*
X55542881Y-27982119D02*
X55542881Y-47444963D01*
X55542881Y-47444963D02*
X60397918Y-52300000D01*
X57850000Y-25675000D02*
X55542881Y-27982119D01*
X55242881Y-47569227D02*
X60273654Y-52600000D01*
X55242881Y-27032119D02*
X55242881Y-47569227D01*
X57850000Y-24425000D02*
X55242881Y-27032119D01*
X60273654Y-52600000D02*
X64315000Y-52600000D01*
X64315000Y-52600000D02*
X65820000Y-51095000D01*
X65285000Y-52900000D02*
X67090000Y-51095000D01*
X60149390Y-52900000D02*
X65285000Y-52900000D01*
X54942881Y-47693491D02*
X60149390Y-52900000D01*
X54942881Y-26082119D02*
X54942881Y-47693491D01*
X57850000Y-23175000D02*
X54942881Y-26082119D01*
X74950000Y-47250000D02*
X74900000Y-47300000D01*
D24*
X58200000Y-47650000D02*
X74550000Y-47650000D01*
X57850000Y-47300000D02*
X58200000Y-47650000D01*
X74550000Y-47650000D02*
X74900000Y-47300000D01*
D23*
X76300000Y-47250000D02*
X74950000Y-47250000D01*
X61350000Y-35025000D02*
X60800000Y-35575000D01*
X60800000Y-35575000D02*
X60800000Y-36700000D01*
X60800000Y-36700000D02*
X61350000Y-37250000D01*
D25*
X68360000Y-51095000D02*
X68360000Y-52460000D01*
X68360000Y-52460000D02*
X68600000Y-52700000D01*
D24*
X57850000Y-48550000D02*
X74800000Y-48550000D01*
X74800000Y-48550000D02*
X74900000Y-48450000D01*
X70756406Y-42290793D02*
X69919207Y-42290793D01*
X72900000Y-45550000D02*
X74900000Y-43550000D01*
X74900000Y-43550000D02*
X72015613Y-43550000D01*
X72015613Y-43550000D02*
X70756406Y-42290793D01*
X57850000Y-43550000D02*
X59850000Y-45550000D01*
X67560000Y-44650000D02*
X67420000Y-44650000D01*
X69919207Y-42290793D02*
X67560000Y-44650000D01*
X59850000Y-45550000D02*
X72900000Y-45550000D01*
D23*
X62350000Y-20750000D02*
X60010000Y-18410000D01*
X60010000Y-18410000D02*
X60010000Y-17050000D01*
X62450000Y-20750000D02*
X62350000Y-20750000D01*
X70150000Y-20750000D02*
X71550000Y-20750000D01*
X71550000Y-20750000D02*
X75250000Y-17050000D01*
X65450000Y-36740000D02*
X65338687Y-36851313D01*
D24*
X59675000Y-21350000D02*
X73075000Y-21350000D01*
X73075000Y-21350000D02*
X74900000Y-23175000D01*
D23*
X74148528Y-40600000D02*
X77250000Y-37498528D01*
X65338687Y-36851313D02*
X65338687Y-37636816D01*
X77250000Y-25525000D02*
X74900000Y-23175000D01*
X65338687Y-37636816D02*
X68301871Y-40600000D01*
X68301871Y-40600000D02*
X74148528Y-40600000D01*
X77250000Y-37498528D02*
X77250000Y-25525000D01*
D24*
X57850000Y-23175000D02*
X59675000Y-21350000D01*
D23*
X56397500Y-34650000D02*
X56397500Y-37800000D01*
D24*
X56400000Y-37802500D02*
X56397500Y-37800000D01*
D23*
X64682039Y-37050000D02*
X64739256Y-37107217D01*
X56904607Y-38834619D02*
X61365381Y-38834619D01*
X56397500Y-31050000D02*
X56397500Y-34650000D01*
D24*
X64739256Y-37107217D02*
X64642039Y-37010000D01*
D23*
X63150000Y-37050000D02*
X64682039Y-37050000D01*
X56397500Y-38327512D02*
X56904607Y-38834619D01*
X56397500Y-37800000D02*
X56397500Y-38327512D01*
X61365381Y-38834619D02*
X63150000Y-37050000D01*
D24*
X72525000Y-22050000D02*
X74900000Y-24425000D01*
D23*
X74899264Y-39425000D02*
X76950000Y-37374264D01*
X76950000Y-26475000D02*
X74900000Y-24425000D01*
X76950000Y-37374264D02*
X76950000Y-26475000D01*
X65888687Y-37408998D02*
X67904689Y-39425000D01*
X67904689Y-39425000D02*
X74899264Y-39425000D01*
D24*
X60225000Y-22050000D02*
X72525000Y-22050000D01*
X57850000Y-24425000D02*
X60225000Y-22050000D01*
D23*
X74800000Y-39100000D02*
X76650000Y-37250000D01*
X76650000Y-27425000D02*
X74900000Y-25675000D01*
D24*
X73025000Y-27550000D02*
X74900000Y-25675000D01*
D23*
X76650000Y-37250000D02*
X76650000Y-27425000D01*
X68462678Y-39100000D02*
X74800000Y-39100000D01*
D24*
X57850000Y-25675000D02*
X59725000Y-27550000D01*
D23*
X66789081Y-37426403D02*
X68462678Y-39100000D01*
D24*
X59725000Y-27550000D02*
X73025000Y-27550000D01*
D23*
X63302031Y-38809849D02*
X65692182Y-41200000D01*
D24*
X59400000Y-46350000D02*
X73350000Y-46350000D01*
X57850000Y-44800000D02*
X59400000Y-46350000D01*
D23*
X75450000Y-42174264D02*
X75450000Y-44250000D01*
X63302031Y-37700000D02*
X63302031Y-38809849D01*
X74475736Y-41200000D02*
X75450000Y-42174264D01*
X75450000Y-44250000D02*
X74900000Y-44800000D01*
D24*
X73350000Y-46350000D02*
X74900000Y-44800000D01*
D23*
X65692182Y-41200000D02*
X74475736Y-41200000D01*
D24*
X74000000Y-46950000D02*
X74900000Y-46050000D01*
D23*
X64100000Y-37636847D02*
X67363153Y-40900000D01*
X75750000Y-45200000D02*
X74900000Y-46050000D01*
X67363153Y-40900000D02*
X74600000Y-40900000D01*
D24*
X58750000Y-46950000D02*
X74000000Y-46950000D01*
D23*
X64100000Y-37600000D02*
X64100000Y-37636847D01*
X75750000Y-42050000D02*
X75750000Y-45200000D01*
D24*
X57850000Y-46050000D02*
X58750000Y-46950000D01*
D23*
X74600000Y-40900000D02*
X75750000Y-42050000D01*
D24*
X70450000Y-22850000D02*
X68350000Y-24950000D01*
X68350000Y-24950000D02*
X67420000Y-24950000D01*
X64350000Y-24950000D02*
X65280000Y-24950000D01*
X62250000Y-22850000D02*
X64350000Y-24950000D01*
X70450000Y-24950000D02*
X68850000Y-26550000D01*
X68850000Y-26550000D02*
X67420000Y-26550000D01*
X62250000Y-24950000D02*
X63850000Y-26550000D01*
X63850000Y-26550000D02*
X65280000Y-26550000D01*
D23*
X67990000Y-45210000D02*
X65770000Y-45210000D01*
X70173483Y-42880793D02*
X70173483Y-43026517D01*
X68650000Y-35464579D02*
X68650000Y-36750000D01*
X70173483Y-43026517D02*
X67990000Y-45210000D01*
X65770000Y-45210000D02*
X65210000Y-44650000D01*
X68650000Y-36750000D02*
X70150000Y-38250000D01*
X71050000Y-41750000D02*
X68650000Y-41750000D01*
X69250000Y-34850000D02*
X69250000Y-36450000D01*
X68650000Y-41750000D02*
X67350000Y-43050000D01*
X69250000Y-36450000D02*
X71050000Y-38250000D01*
D24*
X73275000Y-28550000D02*
X74900000Y-26925000D01*
D23*
X76350000Y-37050000D02*
X76350000Y-28375000D01*
D24*
X59475000Y-28550000D02*
X73275000Y-28550000D01*
D23*
X76350000Y-28375000D02*
X74900000Y-26925000D01*
X67200000Y-36740000D02*
X69260000Y-38800000D01*
D24*
X57850000Y-26925000D02*
X59475000Y-28550000D01*
D23*
X69260000Y-38800000D02*
X74600000Y-38800000D01*
X74600000Y-38800000D02*
X76350000Y-37050000D01*
X59259619Y-38534619D02*
X57850000Y-37125000D01*
X62492303Y-36912319D02*
X62492303Y-37264644D01*
X61222328Y-38534619D02*
X59259619Y-38534619D01*
D24*
X72085000Y-34260000D02*
X74950000Y-37125000D01*
X57850000Y-37125000D02*
X60715000Y-34260000D01*
X60715000Y-34260000D02*
X72085000Y-34260000D01*
D23*
X62492303Y-37264644D02*
X61222328Y-38534619D01*
X57850000Y-31877500D02*
X57022500Y-31050000D01*
X59387500Y-31837500D02*
X70610000Y-31837500D01*
X57850000Y-33375000D02*
X59387500Y-31837500D01*
X57850000Y-33375000D02*
X57850000Y-31877500D01*
X70610000Y-31837500D02*
X70750000Y-31977500D01*
X57850000Y-34625000D02*
X57047500Y-34625000D01*
X67910000Y-32460000D02*
X68050000Y-32600000D01*
X57047500Y-34625000D02*
X57022500Y-34650000D01*
X60015000Y-32460000D02*
X67910000Y-32460000D01*
X57850000Y-34625000D02*
X60015000Y-32460000D01*
X60837500Y-32887500D02*
X64610000Y-32887500D01*
X57300000Y-36425000D02*
X57300000Y-37522500D01*
X57300000Y-37522500D02*
X57022500Y-37800000D01*
X57850000Y-35875000D02*
X60837500Y-32887500D01*
X57850000Y-35875000D02*
X57300000Y-36425000D01*
X64610000Y-32887500D02*
X64750000Y-33027500D01*
X72200001Y-26960000D02*
X72200001Y-24650001D01*
X72200001Y-24650001D02*
X71800000Y-24250000D01*
X70175000Y-49050000D02*
X69630000Y-49595000D01*
X77550000Y-47100000D02*
X75600000Y-49050000D01*
X70372182Y-24250000D02*
X71800000Y-24250000D01*
X77550000Y-24850000D02*
X77550000Y-47100000D01*
X68672182Y-25950000D02*
X70372182Y-24250000D01*
X69630000Y-49595000D02*
X69630000Y-49825000D01*
X75600000Y-49050000D02*
X70175000Y-49050000D01*
X67420000Y-25950000D02*
X68672182Y-25950000D01*
X72887249Y-33812249D02*
X74950000Y-35875000D01*
X64750000Y-33652500D02*
X64909749Y-33812249D01*
X64909749Y-33812249D02*
X72887249Y-33812249D01*
X70750000Y-32602500D02*
X74177500Y-32602500D01*
X74177500Y-32602500D02*
X74950000Y-33375000D01*
X73550000Y-33225000D02*
X74950000Y-34625000D01*
X68050000Y-33225000D02*
X73550000Y-33225000D01*
G04 #@! TA.AperFunction,Conductor*
G36*
X62788657Y-37868115D02*
G01*
X62844591Y-37909986D01*
X62858118Y-37932786D01*
X62876651Y-37973369D01*
X62876654Y-37973373D01*
X62970903Y-38082143D01*
X62994571Y-38097353D01*
X63040324Y-38150155D01*
X63051531Y-38201668D01*
X63051531Y-38760021D01*
X63051531Y-38859677D01*
X63089667Y-38951746D01*
X65479818Y-41341897D01*
X65550285Y-41412364D01*
X65642354Y-41450500D01*
X68295877Y-41450500D01*
X68362916Y-41470185D01*
X68408671Y-41522989D01*
X68418615Y-41592147D01*
X68389590Y-41655703D01*
X68383558Y-41662181D01*
X67542558Y-42503181D01*
X67481235Y-42536666D01*
X67454877Y-42539500D01*
X67210247Y-42539500D01*
X67151770Y-42551131D01*
X67151769Y-42551132D01*
X67085447Y-42595447D01*
X67041132Y-42661769D01*
X67041131Y-42661770D01*
X67029500Y-42720247D01*
X67029500Y-42720252D01*
X67029500Y-43379748D01*
X67029500Y-43379750D01*
X67029499Y-43379750D01*
X67037667Y-43420808D01*
X67037667Y-43469192D01*
X67029500Y-43510249D01*
X67029500Y-43510252D01*
X67029500Y-43789748D01*
X67033238Y-43808542D01*
X67036673Y-43825810D01*
X67036673Y-43874190D01*
X67029500Y-43910252D01*
X67029500Y-44027465D01*
X67009815Y-44094504D01*
X66957011Y-44140259D01*
X66936350Y-44146326D01*
X66936548Y-44147001D01*
X66789949Y-44190045D01*
X66668873Y-44267856D01*
X66668872Y-44267856D01*
X66668872Y-44267857D01*
X66659050Y-44279192D01*
X66574623Y-44376626D01*
X66574622Y-44376628D01*
X66514834Y-44507543D01*
X66494353Y-44650000D01*
X66514834Y-44792457D01*
X66517215Y-44800562D01*
X66517217Y-44870431D01*
X66479444Y-44929211D01*
X66415890Y-44958237D01*
X66398239Y-44959500D01*
X65925122Y-44959500D01*
X65858083Y-44939815D01*
X65837446Y-44923185D01*
X65706817Y-44792556D01*
X65673334Y-44731235D01*
X65670500Y-44704877D01*
X65670500Y-44320249D01*
X65662333Y-44279192D01*
X65662333Y-44230808D01*
X65670500Y-44189750D01*
X65670500Y-43910254D01*
X65670400Y-43909240D01*
X65670500Y-43908712D01*
X65670500Y-43904160D01*
X65671363Y-43904160D01*
X65683414Y-43840594D01*
X65719491Y-43797811D01*
X65827190Y-43717186D01*
X65913350Y-43602093D01*
X65913354Y-43602086D01*
X65963596Y-43467379D01*
X65963598Y-43467372D01*
X65969999Y-43407844D01*
X65970000Y-43407827D01*
X65970000Y-43240000D01*
X64590000Y-43240000D01*
X64590000Y-43407844D01*
X64596401Y-43467372D01*
X64596403Y-43467379D01*
X64646645Y-43602086D01*
X64646649Y-43602093D01*
X64732809Y-43717187D01*
X64732812Y-43717190D01*
X64840508Y-43797812D01*
X64882379Y-43853746D01*
X64888942Y-43904160D01*
X64889500Y-43904160D01*
X64889500Y-43908447D01*
X64889601Y-43909223D01*
X64889500Y-43910249D01*
X64889500Y-43910252D01*
X64889500Y-44189748D01*
X64889500Y-44189750D01*
X64889499Y-44189750D01*
X64897667Y-44230808D01*
X64897667Y-44279192D01*
X64889500Y-44320249D01*
X64889500Y-44979752D01*
X64901131Y-45038229D01*
X64901132Y-45038231D01*
X64920094Y-45066608D01*
X64940973Y-45133285D01*
X64922489Y-45200665D01*
X64870511Y-45247356D01*
X64816993Y-45259500D01*
X63192294Y-45259500D01*
X63125255Y-45239815D01*
X63079500Y-45187011D01*
X63069556Y-45117853D01*
X63098581Y-45054297D01*
X63125377Y-45023373D01*
X63185165Y-44892457D01*
X63205647Y-44750000D01*
X63185165Y-44607543D01*
X63125377Y-44476627D01*
X63031128Y-44367857D01*
X62910053Y-44290047D01*
X62910051Y-44290046D01*
X62910049Y-44290045D01*
X62910050Y-44290045D01*
X62771963Y-44249500D01*
X62771961Y-44249500D01*
X62628039Y-44249500D01*
X62628036Y-44249500D01*
X62489949Y-44290045D01*
X62368873Y-44367856D01*
X62274623Y-44476626D01*
X62274622Y-44476628D01*
X62214834Y-44607543D01*
X62194353Y-44750000D01*
X62214834Y-44892456D01*
X62274622Y-45023371D01*
X62274623Y-45023373D01*
X62301419Y-45054297D01*
X62330444Y-45117853D01*
X62320500Y-45187011D01*
X62274745Y-45239815D01*
X62207706Y-45259500D01*
X60021691Y-45259500D01*
X59954652Y-45239815D01*
X59934010Y-45223181D01*
X58387618Y-43676789D01*
X58354133Y-43615466D01*
X58352561Y-43571462D01*
X58355647Y-43550000D01*
X58343665Y-43466661D01*
X63036892Y-43466661D01*
X63050692Y-43475333D01*
X63050691Y-43475333D01*
X63220861Y-43534878D01*
X63399997Y-43555062D01*
X63400003Y-43555062D01*
X63579138Y-43534878D01*
X63579141Y-43534877D01*
X63749305Y-43475334D01*
X63749306Y-43475334D01*
X63763106Y-43466661D01*
X63763106Y-43466660D01*
X63400001Y-43103553D01*
X63400000Y-43103553D01*
X63036892Y-43466660D01*
X63036892Y-43466661D01*
X58343665Y-43466661D01*
X58335165Y-43407543D01*
X58275377Y-43276627D01*
X58181128Y-43167857D01*
X58060053Y-43090047D01*
X58060051Y-43090046D01*
X58060049Y-43090045D01*
X58060050Y-43090045D01*
X57921963Y-43049500D01*
X57921961Y-43049500D01*
X57778039Y-43049500D01*
X57778036Y-43049500D01*
X57639949Y-43090045D01*
X57518873Y-43167856D01*
X57424623Y-43276626D01*
X57424622Y-43276628D01*
X57364834Y-43407543D01*
X57344353Y-43550000D01*
X57364834Y-43692456D01*
X57423403Y-43820702D01*
X57424623Y-43823373D01*
X57518872Y-43932143D01*
X57639947Y-44009953D01*
X57639950Y-44009954D01*
X57639949Y-44009954D01*
X57778036Y-44050499D01*
X57778038Y-44050500D01*
X57888309Y-44050500D01*
X57955348Y-44070185D01*
X57975990Y-44086819D01*
X57976990Y-44087819D01*
X58010475Y-44149142D01*
X58005491Y-44218834D01*
X57963619Y-44274767D01*
X57898155Y-44299184D01*
X57889309Y-44299500D01*
X57778036Y-44299500D01*
X57639949Y-44340045D01*
X57518873Y-44417856D01*
X57424623Y-44526626D01*
X57424622Y-44526628D01*
X57364834Y-44657543D01*
X57344353Y-44800000D01*
X57364834Y-44942456D01*
X57408573Y-45038229D01*
X57424623Y-45073373D01*
X57518872Y-45182143D01*
X57639947Y-45259953D01*
X57639950Y-45259954D01*
X57639949Y-45259954D01*
X57778036Y-45300499D01*
X57778038Y-45300500D01*
X57888309Y-45300500D01*
X57955348Y-45320185D01*
X57975990Y-45336819D01*
X57976990Y-45337819D01*
X58010475Y-45399142D01*
X58005491Y-45468834D01*
X57963619Y-45524767D01*
X57898155Y-45549184D01*
X57889309Y-45549500D01*
X57778036Y-45549500D01*
X57639949Y-45590045D01*
X57518873Y-45667856D01*
X57424623Y-45776626D01*
X57424622Y-45776628D01*
X57364834Y-45907543D01*
X57344353Y-46050000D01*
X57364834Y-46192456D01*
X57424622Y-46323371D01*
X57424623Y-46323373D01*
X57518872Y-46432143D01*
X57639947Y-46509953D01*
X57639950Y-46509954D01*
X57639949Y-46509954D01*
X57778036Y-46550499D01*
X57778038Y-46550500D01*
X57888309Y-46550500D01*
X57955348Y-46570185D01*
X57975990Y-46586819D01*
X57976990Y-46587819D01*
X58010475Y-46649142D01*
X58005491Y-46718834D01*
X57963619Y-46774767D01*
X57898155Y-46799184D01*
X57889309Y-46799500D01*
X57778036Y-46799500D01*
X57639949Y-46840045D01*
X57518873Y-46917856D01*
X57424623Y-47026626D01*
X57424622Y-47026628D01*
X57364834Y-47157543D01*
X57344353Y-47300000D01*
X57364834Y-47442456D01*
X57421216Y-47565913D01*
X57424623Y-47573373D01*
X57518872Y-47682143D01*
X57639947Y-47759953D01*
X57639950Y-47759954D01*
X57639949Y-47759954D01*
X57778036Y-47800499D01*
X57778038Y-47800500D01*
X57888309Y-47800500D01*
X57955348Y-47820185D01*
X57975990Y-47836819D01*
X58021629Y-47882458D01*
X58087871Y-47920703D01*
X58161755Y-47940500D01*
X58161757Y-47940500D01*
X74588243Y-47940500D01*
X74588245Y-47940500D01*
X74662129Y-47920703D01*
X74728371Y-47882458D01*
X74728374Y-47882455D01*
X74774009Y-47836820D01*
X74835332Y-47803334D01*
X74861691Y-47800500D01*
X74971962Y-47800500D01*
X74971962Y-47800499D01*
X75110053Y-47759953D01*
X75231128Y-47682143D01*
X75325377Y-47573373D01*
X75325553Y-47572986D01*
X75325831Y-47572665D01*
X75330171Y-47565913D01*
X75331142Y-47566537D01*
X75371309Y-47520184D01*
X75438347Y-47500500D01*
X75798174Y-47500500D01*
X75865213Y-47520185D01*
X75891887Y-47543297D01*
X75968872Y-47632143D01*
X76089947Y-47709953D01*
X76089950Y-47709954D01*
X76089949Y-47709954D01*
X76197107Y-47741417D01*
X76203582Y-47743319D01*
X76228036Y-47750499D01*
X76228038Y-47750500D01*
X76245877Y-47750500D01*
X76312916Y-47770185D01*
X76358671Y-47822989D01*
X76368615Y-47892147D01*
X76339590Y-47955703D01*
X76333558Y-47962181D01*
X75532558Y-48763181D01*
X75471235Y-48796666D01*
X75444877Y-48799500D01*
X70125170Y-48799500D01*
X70033103Y-48837636D01*
X69731223Y-49139515D01*
X69669900Y-49172999D01*
X69628606Y-49174930D01*
X69625062Y-49174500D01*
X69625056Y-49174500D01*
X69454944Y-49174500D01*
X69289773Y-49215210D01*
X69139150Y-49294263D01*
X69011815Y-49407072D01*
X69007049Y-49413978D01*
X68952766Y-49457968D01*
X68883317Y-49465627D01*
X68820753Y-49434523D01*
X68802951Y-49413978D01*
X68798184Y-49407072D01*
X68670849Y-49294263D01*
X68520226Y-49215210D01*
X68355056Y-49174500D01*
X68184944Y-49174500D01*
X68019773Y-49215210D01*
X67869150Y-49294263D01*
X67741815Y-49407072D01*
X67737049Y-49413978D01*
X67682766Y-49457968D01*
X67613317Y-49465627D01*
X67550753Y-49434523D01*
X67532951Y-49413978D01*
X67528184Y-49407072D01*
X67400849Y-49294263D01*
X67250226Y-49215210D01*
X67085056Y-49174500D01*
X66914944Y-49174500D01*
X66749773Y-49215210D01*
X66599150Y-49294263D01*
X66471815Y-49407072D01*
X66467049Y-49413978D01*
X66412766Y-49457968D01*
X66343317Y-49465627D01*
X66280753Y-49434523D01*
X66262951Y-49413978D01*
X66258184Y-49407072D01*
X66130849Y-49294263D01*
X65980226Y-49215210D01*
X65815056Y-49174500D01*
X65644944Y-49174500D01*
X65479773Y-49215210D01*
X65329150Y-49294263D01*
X65201815Y-49407072D01*
X65197049Y-49413978D01*
X65142766Y-49457968D01*
X65073317Y-49465627D01*
X65010753Y-49434523D01*
X64992951Y-49413978D01*
X64988184Y-49407072D01*
X64860849Y-49294263D01*
X64710226Y-49215210D01*
X64545056Y-49174500D01*
X64374944Y-49174500D01*
X64209773Y-49215210D01*
X64059150Y-49294263D01*
X63931815Y-49407072D01*
X63927049Y-49413978D01*
X63872766Y-49457968D01*
X63803317Y-49465627D01*
X63740753Y-49434523D01*
X63722951Y-49413978D01*
X63718184Y-49407072D01*
X63590849Y-49294263D01*
X63440226Y-49215210D01*
X63275056Y-49174500D01*
X63104944Y-49174500D01*
X62939773Y-49215210D01*
X62789150Y-49294263D01*
X62661815Y-49407072D01*
X62657049Y-49413978D01*
X62602766Y-49457968D01*
X62533317Y-49465627D01*
X62470753Y-49434523D01*
X62452951Y-49413978D01*
X62448184Y-49407072D01*
X62320849Y-49294263D01*
X62170226Y-49215210D01*
X62005056Y-49174500D01*
X61834944Y-49174500D01*
X61669773Y-49215210D01*
X61519150Y-49294263D01*
X61391816Y-49407072D01*
X61295182Y-49547068D01*
X61234860Y-49706125D01*
X61234859Y-49706130D01*
X61214355Y-49875000D01*
X61234859Y-50043869D01*
X61234860Y-50043874D01*
X61295182Y-50202931D01*
X61391818Y-50342930D01*
X61475634Y-50417185D01*
X61512761Y-50476374D01*
X61511993Y-50546240D01*
X61475634Y-50602815D01*
X61391818Y-50677069D01*
X61295182Y-50817068D01*
X61234860Y-50976125D01*
X61234859Y-50976130D01*
X61214355Y-51145000D01*
X61234859Y-51313869D01*
X61234860Y-51313874D01*
X61294071Y-51470000D01*
X61295182Y-51472930D01*
X61351873Y-51555061D01*
X61373756Y-51621414D01*
X61356291Y-51689065D01*
X61305024Y-51736536D01*
X61249823Y-51749500D01*
X60677304Y-51749500D01*
X60610265Y-51729815D01*
X60589623Y-51713181D01*
X56129700Y-47253257D01*
X56096215Y-47191934D01*
X56093381Y-47165576D01*
X56093381Y-42750000D01*
X61694353Y-42750000D01*
X61714834Y-42892456D01*
X61738336Y-42943917D01*
X61774623Y-43023373D01*
X61868872Y-43132143D01*
X61989947Y-43209953D01*
X61989950Y-43209954D01*
X61989949Y-43209954D01*
X62128036Y-43250499D01*
X62128038Y-43250500D01*
X62128039Y-43250500D01*
X62271962Y-43250500D01*
X62271962Y-43250499D01*
X62410053Y-43209953D01*
X62531128Y-43132143D01*
X62531128Y-43132142D01*
X62538589Y-43127348D01*
X62539884Y-43129364D01*
X62591696Y-43105697D01*
X62623564Y-43110275D01*
X62623999Y-43106422D01*
X62683338Y-43113107D01*
X63016609Y-42779837D01*
X63250000Y-42779837D01*
X63272836Y-42834968D01*
X63315032Y-42877164D01*
X63370163Y-42900000D01*
X63429837Y-42900000D01*
X63484968Y-42877164D01*
X63527164Y-42834968D01*
X63550000Y-42779837D01*
X63550000Y-42750000D01*
X63753553Y-42750000D01*
X64116660Y-43113106D01*
X64116661Y-43113106D01*
X64125334Y-43099306D01*
X64125334Y-43099305D01*
X64184877Y-42929141D01*
X64184878Y-42929138D01*
X64192668Y-42860000D01*
X64590000Y-42860000D01*
X65090000Y-42860000D01*
X65090000Y-42240000D01*
X65470000Y-42240000D01*
X65470000Y-42860000D01*
X65970000Y-42860000D01*
X65970000Y-42692172D01*
X65969999Y-42692155D01*
X65963598Y-42632627D01*
X65963596Y-42632620D01*
X65913354Y-42497913D01*
X65913350Y-42497906D01*
X65827190Y-42382812D01*
X65827187Y-42382809D01*
X65712093Y-42296649D01*
X65712086Y-42296645D01*
X65577379Y-42246403D01*
X65577372Y-42246401D01*
X65517844Y-42240000D01*
X65470000Y-42240000D01*
X65090000Y-42240000D01*
X65042155Y-42240000D01*
X64982627Y-42246401D01*
X64982620Y-42246403D01*
X64847913Y-42296645D01*
X64847906Y-42296649D01*
X64732812Y-42382809D01*
X64732809Y-42382812D01*
X64646649Y-42497906D01*
X64646645Y-42497913D01*
X64596403Y-42632620D01*
X64596401Y-42632627D01*
X64590000Y-42692155D01*
X64590000Y-42860000D01*
X64192668Y-42860000D01*
X64205062Y-42750002D01*
X64205062Y-42749997D01*
X64184878Y-42570861D01*
X64125333Y-42400692D01*
X64116661Y-42386892D01*
X64116660Y-42386892D01*
X63753553Y-42750000D01*
X63550000Y-42750000D01*
X63550000Y-42720163D01*
X63527164Y-42665032D01*
X63484968Y-42622836D01*
X63429837Y-42600000D01*
X63370163Y-42600000D01*
X63315032Y-42622836D01*
X63272836Y-42665032D01*
X63250000Y-42720163D01*
X63250000Y-42779837D01*
X63016609Y-42779837D01*
X63046446Y-42750000D01*
X63046446Y-42749999D01*
X62683338Y-42386891D01*
X62623997Y-42393578D01*
X62623566Y-42389755D01*
X62592917Y-42394471D01*
X62539762Y-42370825D01*
X62538589Y-42372652D01*
X62471267Y-42329387D01*
X62410053Y-42290047D01*
X62410051Y-42290046D01*
X62410049Y-42290045D01*
X62410050Y-42290045D01*
X62271963Y-42249500D01*
X62271961Y-42249500D01*
X62128039Y-42249500D01*
X62128036Y-42249500D01*
X61989949Y-42290045D01*
X61868873Y-42367856D01*
X61774623Y-42476626D01*
X61774622Y-42476628D01*
X61714834Y-42607543D01*
X61694353Y-42750000D01*
X56093381Y-42750000D01*
X56093381Y-42033338D01*
X63036891Y-42033338D01*
X63400000Y-42396446D01*
X63400001Y-42396446D01*
X63763107Y-42033338D01*
X63749304Y-42024665D01*
X63579138Y-41965121D01*
X63400003Y-41944938D01*
X63399997Y-41944938D01*
X63220861Y-41965121D01*
X63220858Y-41965122D01*
X63050701Y-42024662D01*
X63050691Y-42024667D01*
X63036891Y-42033337D01*
X63036891Y-42033338D01*
X56093381Y-42033338D01*
X56093381Y-40750000D01*
X61144353Y-40750000D01*
X61164834Y-40892456D01*
X61190886Y-40949500D01*
X61224623Y-41023373D01*
X61318872Y-41132143D01*
X61439947Y-41209953D01*
X61439950Y-41209954D01*
X61439949Y-41209954D01*
X61578036Y-41250499D01*
X61578038Y-41250500D01*
X61578039Y-41250500D01*
X61721962Y-41250500D01*
X61721962Y-41250499D01*
X61860053Y-41209953D01*
X61981128Y-41132143D01*
X62075377Y-41023373D01*
X62135165Y-40892457D01*
X62155647Y-40750000D01*
X63294353Y-40750000D01*
X63314834Y-40892456D01*
X63340886Y-40949500D01*
X63374623Y-41023373D01*
X63468872Y-41132143D01*
X63589947Y-41209953D01*
X63589950Y-41209954D01*
X63589949Y-41209954D01*
X63728036Y-41250499D01*
X63728038Y-41250500D01*
X63728039Y-41250500D01*
X63871962Y-41250500D01*
X63871962Y-41250499D01*
X64010053Y-41209953D01*
X64131128Y-41132143D01*
X64225377Y-41023373D01*
X64285165Y-40892457D01*
X64305647Y-40750000D01*
X64285165Y-40607543D01*
X64225377Y-40476627D01*
X64131128Y-40367857D01*
X64010053Y-40290047D01*
X64010051Y-40290046D01*
X64010049Y-40290045D01*
X64010050Y-40290045D01*
X63871963Y-40249500D01*
X63871961Y-40249500D01*
X63728039Y-40249500D01*
X63728036Y-40249500D01*
X63589949Y-40290045D01*
X63468873Y-40367856D01*
X63374623Y-40476626D01*
X63374622Y-40476628D01*
X63314834Y-40607543D01*
X63294353Y-40750000D01*
X62155647Y-40750000D01*
X62135165Y-40607543D01*
X62075377Y-40476627D01*
X61981128Y-40367857D01*
X61860053Y-40290047D01*
X61860051Y-40290046D01*
X61860049Y-40290045D01*
X61860050Y-40290045D01*
X61721963Y-40249500D01*
X61721961Y-40249500D01*
X61578039Y-40249500D01*
X61578036Y-40249500D01*
X61439949Y-40290045D01*
X61318873Y-40367856D01*
X61224623Y-40476626D01*
X61224622Y-40476628D01*
X61164834Y-40607543D01*
X61144353Y-40750000D01*
X56093381Y-40750000D01*
X56093381Y-38677015D01*
X56113066Y-38609976D01*
X56165870Y-38564221D01*
X56235028Y-38554277D01*
X56298584Y-38583302D01*
X56305050Y-38589323D01*
X56458135Y-38742407D01*
X56685172Y-38969444D01*
X56685175Y-38969448D01*
X56692243Y-38976516D01*
X56762710Y-39046983D01*
X56794976Y-39060347D01*
X56794978Y-39060349D01*
X56794979Y-39060349D01*
X56854780Y-39085120D01*
X56854781Y-39085120D01*
X56968869Y-39085120D01*
X56968877Y-39085119D01*
X61415207Y-39085119D01*
X61415209Y-39085119D01*
X61507278Y-39046983D01*
X62657645Y-37896614D01*
X62718966Y-37863131D01*
X62788657Y-37868115D01*
G37*
G04 #@! TD.AperFunction*
G04 #@! TA.AperFunction,Conductor*
G36*
X77218834Y-37986468D02*
G01*
X77274767Y-38028340D01*
X77299184Y-38093804D01*
X77299500Y-38102650D01*
X77299500Y-46944877D01*
X77279815Y-47011916D01*
X77263181Y-47032558D01*
X77010992Y-47284746D01*
X76949669Y-47318231D01*
X76879977Y-47313247D01*
X76824044Y-47271375D01*
X76800573Y-47214711D01*
X76791244Y-47149828D01*
X76785165Y-47107543D01*
X76725377Y-46976627D01*
X76631128Y-46867857D01*
X76510053Y-46790047D01*
X76510051Y-46790046D01*
X76510049Y-46790045D01*
X76510050Y-46790045D01*
X76371963Y-46749500D01*
X76371961Y-46749500D01*
X76228039Y-46749500D01*
X76228036Y-46749500D01*
X76089949Y-46790045D01*
X75968873Y-46867856D01*
X75891887Y-46956703D01*
X75833109Y-46994477D01*
X75798174Y-46999500D01*
X75358501Y-46999500D01*
X75291462Y-46979815D01*
X75264788Y-46956703D01*
X75231128Y-46917857D01*
X75110053Y-46840047D01*
X75110051Y-46840046D01*
X75110049Y-46840045D01*
X75110050Y-46840045D01*
X74971963Y-46799500D01*
X74971961Y-46799500D01*
X74860690Y-46799500D01*
X74793651Y-46779815D01*
X74747896Y-46727011D01*
X74737952Y-46657853D01*
X74766977Y-46594297D01*
X74773009Y-46587819D01*
X74774009Y-46586819D01*
X74835332Y-46553334D01*
X74861690Y-46550500D01*
X74971962Y-46550500D01*
X74971962Y-46550499D01*
X75110053Y-46509953D01*
X75231128Y-46432143D01*
X75325377Y-46323373D01*
X75385165Y-46192457D01*
X75405647Y-46050000D01*
X75395450Y-45979079D01*
X75405394Y-45909922D01*
X75430504Y-45873754D01*
X75874455Y-45429803D01*
X75874458Y-45429802D01*
X75891896Y-45412364D01*
X75891897Y-45412364D01*
X75962364Y-45341897D01*
X75988294Y-45279297D01*
X76000501Y-45249827D01*
X76000501Y-45150172D01*
X76000501Y-45140183D01*
X76000500Y-45140169D01*
X76000500Y-42114270D01*
X76000501Y-42114261D01*
X76000501Y-42000174D01*
X76000500Y-42000170D01*
X75962364Y-41908104D01*
X75962363Y-41908102D01*
X75884832Y-41830571D01*
X75884825Y-41830565D01*
X74741897Y-40687636D01*
X74741894Y-40687634D01*
X74682305Y-40662951D01*
X74627902Y-40619110D01*
X74605838Y-40552815D01*
X74623118Y-40485116D01*
X74642074Y-40460714D01*
X77087819Y-38014968D01*
X77149142Y-37981484D01*
X77218834Y-37986468D01*
G37*
G04 #@! TD.AperFunction*
G04 #@! TA.AperFunction,Conductor*
G36*
X70886531Y-42831747D02*
G01*
X71783155Y-43728371D01*
X71837242Y-43782458D01*
X71903484Y-43820703D01*
X71977368Y-43840500D01*
X72053859Y-43840500D01*
X73899309Y-43840500D01*
X73966348Y-43860185D01*
X74012103Y-43912989D01*
X74022047Y-43982147D01*
X73993022Y-44045703D01*
X73986990Y-44052181D01*
X72815990Y-45223181D01*
X72754667Y-45256666D01*
X72728309Y-45259500D01*
X68594123Y-45259500D01*
X68527084Y-45239815D01*
X68481329Y-45187011D01*
X68471385Y-45117853D01*
X68500410Y-45054297D01*
X68506442Y-45047819D01*
X70136649Y-43417612D01*
X70197972Y-43384127D01*
X70224330Y-43381293D01*
X70245445Y-43381293D01*
X70245445Y-43381292D01*
X70383536Y-43340746D01*
X70504611Y-43262936D01*
X70598860Y-43154166D01*
X70658648Y-43023250D01*
X70676112Y-42901781D01*
X70705137Y-42838226D01*
X70763915Y-42800451D01*
X70833784Y-42800451D01*
X70886531Y-42831747D01*
G37*
G04 #@! TD.AperFunction*
G04 #@! TA.AperFunction,Conductor*
G36*
X63827748Y-38019980D02*
G01*
X63889948Y-38059954D01*
X63999104Y-38092004D01*
X64017314Y-38097351D01*
X64028036Y-38100499D01*
X64028038Y-38100500D01*
X64158030Y-38100500D01*
X64225069Y-38120185D01*
X64245711Y-38136819D01*
X66846711Y-40737819D01*
X66880196Y-40799142D01*
X66875212Y-40868834D01*
X66833340Y-40924767D01*
X66767876Y-40949184D01*
X66759030Y-40949500D01*
X65847305Y-40949500D01*
X65780266Y-40929815D01*
X65759624Y-40913181D01*
X63588850Y-38742407D01*
X63555365Y-38681084D01*
X63552531Y-38654726D01*
X63552531Y-38201668D01*
X63572216Y-38134629D01*
X63609489Y-38097354D01*
X63633159Y-38082143D01*
X63666995Y-38043092D01*
X63725771Y-38005318D01*
X63795641Y-38005317D01*
X63827748Y-38019980D01*
G37*
G04 #@! TD.AperFunction*
G04 #@! TA.AperFunction,Conductor*
G36*
X74486444Y-39695185D02*
G01*
X74532199Y-39747989D01*
X74542143Y-39817147D01*
X74513118Y-39880703D01*
X74507086Y-39887181D01*
X74081086Y-40313181D01*
X74019763Y-40346666D01*
X73993405Y-40349500D01*
X68456994Y-40349500D01*
X68389955Y-40329815D01*
X68369313Y-40313181D01*
X67943313Y-39887181D01*
X67909828Y-39825858D01*
X67914812Y-39756166D01*
X67956684Y-39700233D01*
X68022148Y-39675816D01*
X68030994Y-39675500D01*
X74419405Y-39675500D01*
X74486444Y-39695185D01*
G37*
G04 #@! TD.AperFunction*
G04 #@! TA.AperFunction,Conductor*
G36*
X68712341Y-34570185D02*
G01*
X68758096Y-34622989D01*
X68768040Y-34692147D01*
X68765115Y-34705588D01*
X68743242Y-34857726D01*
X68714217Y-34921282D01*
X68655439Y-34959056D01*
X68620504Y-34964079D01*
X68578036Y-34964079D01*
X68439949Y-35004624D01*
X68318873Y-35082435D01*
X68224623Y-35191205D01*
X68224622Y-35191207D01*
X68164834Y-35322122D01*
X68144353Y-35464579D01*
X68164834Y-35607035D01*
X68195360Y-35673876D01*
X68224623Y-35737952D01*
X68318872Y-35846722D01*
X68342540Y-35861932D01*
X68388293Y-35914734D01*
X68399500Y-35966247D01*
X68399500Y-36799829D01*
X68437636Y-36891897D01*
X69619492Y-38073753D01*
X69652977Y-38135076D01*
X69654549Y-38179080D01*
X69644353Y-38249999D01*
X69666097Y-38401235D01*
X69664279Y-38401496D01*
X69664278Y-38460438D01*
X69626502Y-38519215D01*
X69562945Y-38548238D01*
X69545302Y-38549500D01*
X69415122Y-38549500D01*
X69348083Y-38529815D01*
X69327441Y-38513181D01*
X67730507Y-36916246D01*
X67697022Y-36854923D01*
X67695450Y-36810920D01*
X67705647Y-36740000D01*
X67685165Y-36597543D01*
X67625377Y-36466627D01*
X67531128Y-36357857D01*
X67410053Y-36280047D01*
X67410051Y-36280046D01*
X67410049Y-36280045D01*
X67410050Y-36280045D01*
X67271963Y-36239500D01*
X67271961Y-36239500D01*
X67128039Y-36239500D01*
X67128036Y-36239500D01*
X66989949Y-36280045D01*
X66868873Y-36357856D01*
X66774623Y-36466626D01*
X66774622Y-36466628D01*
X66714834Y-36597543D01*
X66694353Y-36740000D01*
X66694353Y-36740001D01*
X66705629Y-36818434D01*
X66695685Y-36887593D01*
X66649929Y-36940396D01*
X66617827Y-36955057D01*
X66579029Y-36966449D01*
X66457953Y-37044260D01*
X66457952Y-37044260D01*
X66440135Y-37064822D01*
X66381355Y-37102595D01*
X66311486Y-37102593D01*
X66252712Y-37064820D01*
X66219815Y-37026855D01*
X66098740Y-36949045D01*
X66098738Y-36949044D01*
X66098736Y-36949043D01*
X66098737Y-36949043D01*
X66035699Y-36930534D01*
X65976920Y-36892760D01*
X65947895Y-36829204D01*
X65947895Y-36793916D01*
X65955647Y-36740000D01*
X65935165Y-36597543D01*
X65875377Y-36466627D01*
X65781128Y-36357857D01*
X65660053Y-36280047D01*
X65660051Y-36280046D01*
X65660049Y-36280045D01*
X65660050Y-36280045D01*
X65521963Y-36239500D01*
X65521961Y-36239500D01*
X65378039Y-36239500D01*
X65378036Y-36239500D01*
X65239949Y-36280045D01*
X65118873Y-36357856D01*
X65024623Y-36466626D01*
X65024622Y-36466628D01*
X64987612Y-36547668D01*
X64941857Y-36600472D01*
X64874817Y-36620156D01*
X64839886Y-36615134D01*
X64811218Y-36606717D01*
X64811217Y-36606717D01*
X64667295Y-36606717D01*
X64667292Y-36606717D01*
X64529205Y-36647262D01*
X64408129Y-36725073D01*
X64408128Y-36725073D01*
X64408128Y-36725074D01*
X64386527Y-36750004D01*
X64380722Y-36756703D01*
X64321944Y-36794477D01*
X64287009Y-36799500D01*
X63100169Y-36799500D01*
X63096317Y-36800266D01*
X63026726Y-36794036D01*
X62971550Y-36751171D01*
X62959336Y-36730159D01*
X62917682Y-36638949D01*
X62917679Y-36638945D01*
X62908645Y-36628519D01*
X62823431Y-36530176D01*
X62702356Y-36452366D01*
X62702354Y-36452365D01*
X62702352Y-36452364D01*
X62702353Y-36452364D01*
X62564266Y-36411819D01*
X62564264Y-36411819D01*
X62420342Y-36411819D01*
X62420339Y-36411819D01*
X62282252Y-36452364D01*
X62161176Y-36530175D01*
X62066926Y-36638945D01*
X62066925Y-36638947D01*
X62007137Y-36769862D01*
X61987299Y-36907844D01*
X61958274Y-36971400D01*
X61899496Y-37009174D01*
X61829626Y-37009174D01*
X61770848Y-36971400D01*
X61751477Y-36949045D01*
X61681128Y-36867857D01*
X61560053Y-36790047D01*
X61560051Y-36790046D01*
X61560049Y-36790045D01*
X61560050Y-36790045D01*
X61421963Y-36749500D01*
X61421961Y-36749500D01*
X61278039Y-36749500D01*
X61278032Y-36749500D01*
X61274525Y-36750004D01*
X61271022Y-36749500D01*
X61269171Y-36749500D01*
X61269171Y-36749233D01*
X61205367Y-36740055D01*
X61169207Y-36714946D01*
X61128519Y-36674258D01*
X61095034Y-36612935D01*
X61100018Y-36543243D01*
X61141890Y-36487310D01*
X61207354Y-36462893D01*
X61251132Y-36467599D01*
X61278039Y-36475500D01*
X61278040Y-36475500D01*
X61421962Y-36475500D01*
X61421962Y-36475499D01*
X61560053Y-36434953D01*
X61681128Y-36357143D01*
X61775377Y-36248373D01*
X61835165Y-36117457D01*
X61855647Y-35975000D01*
X61835165Y-35832543D01*
X61775377Y-35701627D01*
X61681128Y-35592857D01*
X61681126Y-35592855D01*
X61675320Y-35586155D01*
X61676564Y-35585076D01*
X61644341Y-35534936D01*
X61644341Y-35465066D01*
X61676565Y-35414923D01*
X61675320Y-35413845D01*
X61681126Y-35407144D01*
X61681128Y-35407143D01*
X61775377Y-35298373D01*
X61835165Y-35167457D01*
X61855647Y-35025000D01*
X61835165Y-34882543D01*
X61775377Y-34751627D01*
X61775374Y-34751624D01*
X61770582Y-34744166D01*
X61772945Y-34742646D01*
X61749883Y-34692139D01*
X61759831Y-34622981D01*
X61805590Y-34570180D01*
X61872622Y-34550500D01*
X68645302Y-34550500D01*
X68712341Y-34570185D01*
G37*
G04 #@! TD.AperFunction*
G04 #@! TA.AperFunction,Conductor*
G36*
X57778037Y-27425500D02*
G01*
X57888309Y-27425500D01*
X57955348Y-27445185D01*
X57975990Y-27461819D01*
X59296629Y-28782458D01*
X59362871Y-28820703D01*
X59436755Y-28840500D01*
X59436757Y-28840500D01*
X73313243Y-28840500D01*
X73313245Y-28840500D01*
X73387129Y-28820703D01*
X73453371Y-28782458D01*
X74774009Y-27461818D01*
X74835332Y-27428334D01*
X74861690Y-27425500D01*
X74971963Y-27425500D01*
X74975461Y-27424997D01*
X74978960Y-27425500D01*
X74980830Y-27425500D01*
X74980830Y-27425768D01*
X75044620Y-27434939D01*
X75080792Y-27460053D01*
X76063181Y-28442441D01*
X76096666Y-28503764D01*
X76099500Y-28530122D01*
X76099500Y-36894877D01*
X76079815Y-36961916D01*
X76063181Y-36982558D01*
X75632740Y-37412998D01*
X75571417Y-37446483D01*
X75501725Y-37441499D01*
X75445792Y-37399627D01*
X75421375Y-37334163D01*
X75432266Y-37273804D01*
X75435165Y-37267457D01*
X75455647Y-37125000D01*
X75435165Y-36982543D01*
X75375377Y-36851627D01*
X75281128Y-36742857D01*
X75160053Y-36665047D01*
X75160051Y-36665046D01*
X75160049Y-36665045D01*
X75160050Y-36665045D01*
X75021963Y-36624500D01*
X75021961Y-36624500D01*
X74911691Y-36624500D01*
X74844652Y-36604815D01*
X74824010Y-36588181D01*
X74823010Y-36587181D01*
X74789525Y-36525858D01*
X74794509Y-36456166D01*
X74836381Y-36400233D01*
X74901845Y-36375816D01*
X74910691Y-36375500D01*
X75021962Y-36375500D01*
X75021962Y-36375499D01*
X75160053Y-36334953D01*
X75281128Y-36257143D01*
X75375377Y-36148373D01*
X75435165Y-36017457D01*
X75455647Y-35875000D01*
X75435165Y-35732543D01*
X75375377Y-35601627D01*
X75281128Y-35492857D01*
X75160053Y-35415047D01*
X75160051Y-35415046D01*
X75160049Y-35415045D01*
X75160050Y-35415045D01*
X75021963Y-35374500D01*
X75021961Y-35374500D01*
X74878039Y-35374500D01*
X74878032Y-35374500D01*
X74874525Y-35375004D01*
X74871022Y-35374500D01*
X74869171Y-35374500D01*
X74869171Y-35374233D01*
X74805367Y-35365055D01*
X74769207Y-35339946D01*
X74763911Y-35334650D01*
X74730426Y-35273327D01*
X74735410Y-35203635D01*
X74777282Y-35147702D01*
X74842746Y-35123285D01*
X74868949Y-35126399D01*
X74869260Y-35124238D01*
X74878038Y-35125500D01*
X74878039Y-35125500D01*
X75021962Y-35125500D01*
X75021962Y-35125499D01*
X75160053Y-35084953D01*
X75281128Y-35007143D01*
X75375377Y-34898373D01*
X75435165Y-34767457D01*
X75455647Y-34625000D01*
X75435165Y-34482543D01*
X75375377Y-34351627D01*
X75281128Y-34242857D01*
X75160053Y-34165047D01*
X75160051Y-34165046D01*
X75160049Y-34165045D01*
X75160050Y-34165045D01*
X75021963Y-34124500D01*
X75021961Y-34124500D01*
X74878039Y-34124500D01*
X74878032Y-34124500D01*
X74874525Y-34125004D01*
X74871022Y-34124500D01*
X74869171Y-34124500D01*
X74869171Y-34124233D01*
X74805367Y-34115055D01*
X74769207Y-34089946D01*
X74763911Y-34084650D01*
X74730426Y-34023327D01*
X74735410Y-33953635D01*
X74777282Y-33897702D01*
X74842746Y-33873285D01*
X74868949Y-33876399D01*
X74869260Y-33874238D01*
X74878038Y-33875500D01*
X74878039Y-33875500D01*
X75021962Y-33875500D01*
X75021962Y-33875499D01*
X75160053Y-33834953D01*
X75281128Y-33757143D01*
X75375377Y-33648373D01*
X75435165Y-33517457D01*
X75455647Y-33375000D01*
X75435165Y-33232543D01*
X75375377Y-33101627D01*
X75281128Y-32992857D01*
X75160053Y-32915047D01*
X75160051Y-32915046D01*
X75160049Y-32915045D01*
X75160050Y-32915045D01*
X75021963Y-32874500D01*
X75021961Y-32874500D01*
X74878039Y-32874500D01*
X74878032Y-32874500D01*
X74874525Y-32875004D01*
X74871022Y-32874500D01*
X74869171Y-32874500D01*
X74869171Y-32874233D01*
X74805367Y-32865055D01*
X74769207Y-32839946D01*
X74319397Y-32390136D01*
X74227329Y-32352000D01*
X74227328Y-32352000D01*
X71840915Y-32352000D01*
X71773876Y-32332315D01*
X71728121Y-32279511D01*
X71718177Y-32210353D01*
X71720024Y-32200406D01*
X71735177Y-32134019D01*
X71731860Y-32114500D01*
X71725184Y-32075215D01*
X71726541Y-32026848D01*
X71735177Y-31989020D01*
X71719856Y-31898856D01*
X71711069Y-31877643D01*
X71666523Y-31810977D01*
X71416523Y-31560977D01*
X71408326Y-31555500D01*
X71349865Y-31516436D01*
X71349862Y-31516434D01*
X71349857Y-31516431D01*
X71345222Y-31514511D01*
X71328645Y-31507644D01*
X71328639Y-31507642D01*
X71250002Y-31492000D01*
X71250000Y-31492000D01*
X70250000Y-31492000D01*
X70249998Y-31492000D01*
X70171360Y-31507642D01*
X70171354Y-31507644D01*
X70150147Y-31516429D01*
X70150134Y-31516436D01*
X70078412Y-31564361D01*
X70077236Y-31562601D01*
X70021760Y-31586166D01*
X70007400Y-31587000D01*
X63668465Y-31587000D01*
X63601426Y-31567315D01*
X63555671Y-31514511D01*
X63545727Y-31445353D01*
X63574751Y-31381798D01*
X63625377Y-31323373D01*
X63685165Y-31192457D01*
X63705647Y-31050000D01*
X63685165Y-30907543D01*
X63625377Y-30776627D01*
X63531128Y-30667857D01*
X63410053Y-30590047D01*
X63410051Y-30590046D01*
X63410049Y-30590045D01*
X63410050Y-30590045D01*
X63271963Y-30549500D01*
X63271961Y-30549500D01*
X63235879Y-30549500D01*
X63208285Y-30546391D01*
X63200001Y-30544500D01*
X63200000Y-30544500D01*
X62000000Y-30544500D01*
X61999995Y-30544500D01*
X61962544Y-30548720D01*
X61948660Y-30549500D01*
X61928036Y-30549500D01*
X61789949Y-30590045D01*
X61668873Y-30667856D01*
X61574623Y-30776626D01*
X61574622Y-30776628D01*
X61514834Y-30907543D01*
X61494353Y-31050000D01*
X61514834Y-31192456D01*
X61526298Y-31217558D01*
X61574623Y-31323373D01*
X61625248Y-31381798D01*
X61654273Y-31445353D01*
X61644329Y-31514511D01*
X61598575Y-31567315D01*
X61531535Y-31587000D01*
X59337670Y-31587000D01*
X59245602Y-31625136D01*
X59245601Y-31625137D01*
X58312181Y-32558558D01*
X58250858Y-32592043D01*
X58181166Y-32587059D01*
X58125233Y-32545187D01*
X58100816Y-32479723D01*
X58100500Y-32470877D01*
X58100500Y-31941770D01*
X58100501Y-31941761D01*
X58100501Y-31827674D01*
X58100500Y-31827670D01*
X58062364Y-31735604D01*
X58062363Y-31735602D01*
X57984832Y-31658071D01*
X57984825Y-31658065D01*
X57544319Y-31217558D01*
X57510834Y-31156235D01*
X57508000Y-31129877D01*
X57508000Y-30549997D01*
X57492357Y-30471360D01*
X57492355Y-30471354D01*
X57483569Y-30450143D01*
X57439023Y-30383477D01*
X57189023Y-30133477D01*
X57187292Y-30132320D01*
X57122365Y-30088936D01*
X57122362Y-30088934D01*
X57122357Y-30088931D01*
X57101144Y-30080144D01*
X57101142Y-30080143D01*
X57101141Y-30080143D01*
X57034018Y-30064822D01*
X56975215Y-30074814D01*
X56926852Y-30073457D01*
X56889021Y-30064822D01*
X56814178Y-30077540D01*
X56798856Y-30080144D01*
X56777643Y-30088931D01*
X56777642Y-30088932D01*
X56777634Y-30088936D01*
X56710982Y-30133473D01*
X56710974Y-30133479D01*
X56305062Y-30539392D01*
X56243739Y-30572877D01*
X56174047Y-30567893D01*
X56118114Y-30526021D01*
X56093697Y-30460557D01*
X56093381Y-30451711D01*
X56093381Y-29087240D01*
X56113066Y-29020201D01*
X56129695Y-28999564D01*
X57669207Y-27460051D01*
X57730528Y-27426568D01*
X57774531Y-27424996D01*
X57778037Y-27425500D01*
G37*
G04 #@! TD.AperFunction*
G04 #@! TA.AperFunction,Conductor*
G36*
X67023250Y-32730185D02*
G01*
X67069005Y-32782989D01*
X67078458Y-32813725D01*
X67080142Y-32823637D01*
X67080143Y-32823641D01*
X67080144Y-32823644D01*
X67088931Y-32844857D01*
X67088934Y-32844862D01*
X67088936Y-32844865D01*
X67133473Y-32911517D01*
X67133479Y-32911525D01*
X67572022Y-33350068D01*
X67605507Y-33411391D01*
X67600523Y-33481083D01*
X67558651Y-33537016D01*
X67493187Y-33561433D01*
X67484341Y-33561749D01*
X65743159Y-33561749D01*
X65676120Y-33542064D01*
X65630365Y-33489260D01*
X65620421Y-33420102D01*
X65649446Y-33356546D01*
X65655478Y-33350068D01*
X65666523Y-33339023D01*
X65711069Y-33272357D01*
X65719856Y-33251144D01*
X65735177Y-33184020D01*
X65725184Y-33125215D01*
X65726541Y-33076848D01*
X65735177Y-33039020D01*
X65719856Y-32948856D01*
X65711069Y-32927643D01*
X65703091Y-32915703D01*
X65694865Y-32903392D01*
X65673986Y-32836715D01*
X65692470Y-32769335D01*
X65744448Y-32722644D01*
X65797966Y-32710500D01*
X66956211Y-32710500D01*
X67023250Y-32730185D01*
G37*
G04 #@! TD.AperFunction*
G04 #@! TA.AperFunction,Conductor*
G36*
X73798577Y-14564967D02*
G01*
X73861763Y-14564966D01*
X73867172Y-14565084D01*
X74251245Y-14581849D01*
X74261978Y-14582789D01*
X74640451Y-14632614D01*
X74651070Y-14634486D01*
X75023770Y-14717108D01*
X75034185Y-14719899D01*
X75398243Y-14834684D01*
X75408386Y-14838375D01*
X75761082Y-14984462D01*
X75770842Y-14989014D01*
X76036609Y-15127362D01*
X76109442Y-15165276D01*
X76118810Y-15170685D01*
X76440734Y-15375770D01*
X76449596Y-15381975D01*
X76611839Y-15506467D01*
X76752422Y-15614338D01*
X76760709Y-15621291D01*
X77042138Y-15879170D01*
X77049787Y-15886819D01*
X77307669Y-16168245D01*
X77314622Y-16176532D01*
X77546987Y-16479350D01*
X77553192Y-16488211D01*
X77758284Y-16810138D01*
X77763693Y-16819506D01*
X77939950Y-17158086D01*
X77944522Y-17167891D01*
X78090595Y-17520536D01*
X78094295Y-17530701D01*
X78209082Y-17894751D01*
X78211881Y-17905199D01*
X78294497Y-18277841D01*
X78296376Y-18288495D01*
X78346202Y-18666939D01*
X78347145Y-18677715D01*
X78363848Y-19060208D01*
X78363966Y-19065618D01*
X78363966Y-48990966D01*
X78363965Y-48990984D01*
X78363965Y-49061764D01*
X78363847Y-49067172D01*
X78347083Y-49451220D01*
X78346140Y-49461997D01*
X78296320Y-49840429D01*
X78294442Y-49851082D01*
X78211827Y-50223745D01*
X78209027Y-50234194D01*
X78094248Y-50598231D01*
X78090548Y-50608396D01*
X77944479Y-50961040D01*
X77939907Y-50970845D01*
X77763659Y-51309416D01*
X77758251Y-51318784D01*
X77553157Y-51640719D01*
X77546952Y-51649580D01*
X77314592Y-51952398D01*
X77307638Y-51960685D01*
X77049759Y-52242110D01*
X77042110Y-52249759D01*
X76760685Y-52507638D01*
X76752398Y-52514592D01*
X76449580Y-52746952D01*
X76440719Y-52753157D01*
X76118784Y-52958251D01*
X76109416Y-52963659D01*
X75770845Y-53139907D01*
X75761040Y-53144479D01*
X75408396Y-53290548D01*
X75398231Y-53294248D01*
X75034194Y-53409027D01*
X75023745Y-53411827D01*
X74651082Y-53494442D01*
X74640429Y-53496320D01*
X74261997Y-53546140D01*
X74251220Y-53547083D01*
X73867172Y-53563847D01*
X73861764Y-53563965D01*
X73790983Y-53563965D01*
X73790967Y-53563966D01*
X58867176Y-53563966D01*
X58861767Y-53563848D01*
X58775015Y-53560059D01*
X58477722Y-53547078D01*
X58466946Y-53546135D01*
X58088510Y-53496310D01*
X58077856Y-53494431D01*
X57705214Y-53411815D01*
X57694766Y-53409016D01*
X57330728Y-53294233D01*
X57320562Y-53290533D01*
X56967910Y-53144456D01*
X56958107Y-53139884D01*
X56695204Y-53003024D01*
X56619542Y-52963636D01*
X56610176Y-52958229D01*
X56288250Y-52753136D01*
X56279389Y-52746931D01*
X55976576Y-52514570D01*
X55968289Y-52507617D01*
X55686866Y-52249738D01*
X55679217Y-52242089D01*
X55439509Y-51980491D01*
X55421339Y-51960662D01*
X55414395Y-51952385D01*
X55182029Y-51649554D01*
X55175826Y-51640695D01*
X54970744Y-51318776D01*
X54965335Y-51309408D01*
X54879751Y-51145000D01*
X54789076Y-50970813D01*
X54784524Y-50961052D01*
X54638439Y-50608362D01*
X54634748Y-50598219D01*
X54620347Y-50552545D01*
X54519965Y-50234167D01*
X54517173Y-50223745D01*
X54434553Y-49851058D01*
X54432681Y-49840439D01*
X54382857Y-49461972D01*
X54381917Y-49451239D01*
X54365084Y-49065610D01*
X54364966Y-49060200D01*
X54364967Y-48998577D01*
X54364966Y-48998573D01*
X54364966Y-47743320D01*
X54692381Y-47743320D01*
X54730517Y-47835388D01*
X54730518Y-47835389D01*
X59929955Y-53034825D01*
X59929958Y-53034829D01*
X59929959Y-53034829D01*
X59937025Y-53041895D01*
X59937026Y-53041897D01*
X60007493Y-53112364D01*
X60045630Y-53128160D01*
X60099563Y-53150501D01*
X60099564Y-53150501D01*
X60213652Y-53150501D01*
X60213660Y-53150500D01*
X65334826Y-53150500D01*
X65334828Y-53150500D01*
X65426897Y-53112364D01*
X66688045Y-51851214D01*
X66749366Y-51817731D01*
X66805399Y-51818500D01*
X66914944Y-51845500D01*
X67085056Y-51845500D01*
X67250225Y-51804790D01*
X67347852Y-51753550D01*
X67416358Y-51739825D01*
X67481412Y-51765317D01*
X67501331Y-51784683D01*
X67559472Y-51855528D01*
X67711739Y-51980491D01*
X67885465Y-52073349D01*
X68020000Y-52114159D01*
X68020000Y-51354618D01*
X68070446Y-51405064D01*
X68144555Y-51447851D01*
X68227213Y-51470000D01*
X68312787Y-51470000D01*
X68395445Y-51447851D01*
X68469554Y-51405064D01*
X68520000Y-51354618D01*
X68520000Y-52114159D01*
X68654534Y-52073349D01*
X68828260Y-51980491D01*
X68980527Y-51855529D01*
X69038668Y-51784683D01*
X69096413Y-51745348D01*
X69166258Y-51743477D01*
X69192149Y-51753551D01*
X69289775Y-51804790D01*
X69454944Y-51845500D01*
X69625056Y-51845500D01*
X69790225Y-51804790D01*
X69907046Y-51743477D01*
X69940849Y-51725736D01*
X69940850Y-51725734D01*
X69940852Y-51725734D01*
X70068183Y-51612929D01*
X70072950Y-51606021D01*
X70127230Y-51562033D01*
X70196678Y-51554372D01*
X70259244Y-51585473D01*
X70277046Y-51606017D01*
X70281817Y-51612929D01*
X70323188Y-51649580D01*
X70409150Y-51725736D01*
X70549738Y-51799522D01*
X70559775Y-51804790D01*
X70724944Y-51845500D01*
X70895056Y-51845500D01*
X71060225Y-51804790D01*
X71177046Y-51743477D01*
X71210849Y-51725736D01*
X71210850Y-51725734D01*
X71210852Y-51725734D01*
X71338183Y-51612929D01*
X71434818Y-51472930D01*
X71495140Y-51313872D01*
X71515645Y-51145000D01*
X71495140Y-50976128D01*
X71493136Y-50970845D01*
X71434817Y-50817068D01*
X71434816Y-50817066D01*
X71372017Y-50726088D01*
X71350133Y-50659733D01*
X71367598Y-50592082D01*
X71405175Y-50552545D01*
X71454552Y-50519552D01*
X71498867Y-50453231D01*
X71498867Y-50453229D01*
X71498868Y-50453229D01*
X71510499Y-50394752D01*
X71510500Y-50394750D01*
X71510500Y-49424500D01*
X71530185Y-49357461D01*
X71582989Y-49311706D01*
X71634500Y-49300500D01*
X75649826Y-49300500D01*
X75649828Y-49300500D01*
X75741897Y-49262364D01*
X77762364Y-47241897D01*
X77800500Y-47149828D01*
X77800500Y-47050173D01*
X77800500Y-25351668D01*
X77820185Y-25284629D01*
X77857458Y-25247354D01*
X77881128Y-25232143D01*
X77975377Y-25123373D01*
X78035165Y-24992457D01*
X78055647Y-24850000D01*
X78035165Y-24707543D01*
X77975377Y-24576627D01*
X77881128Y-24467857D01*
X77760053Y-24390047D01*
X77760051Y-24390046D01*
X77760049Y-24390045D01*
X77760050Y-24390045D01*
X77621963Y-24349500D01*
X77621961Y-24349500D01*
X77478039Y-24349500D01*
X77478036Y-24349500D01*
X77339949Y-24390045D01*
X77218873Y-24467856D01*
X77124623Y-24576626D01*
X77124622Y-24576628D01*
X77064834Y-24707544D01*
X77062335Y-24716056D01*
X77060527Y-24715525D01*
X77036110Y-24768986D01*
X76977331Y-24806758D01*
X76907461Y-24806755D01*
X76854720Y-24775460D01*
X75430507Y-23351246D01*
X75397022Y-23289923D01*
X75395450Y-23245918D01*
X75405647Y-23175000D01*
X75385165Y-23032543D01*
X75325377Y-22901627D01*
X75231128Y-22792857D01*
X75110053Y-22715047D01*
X75110051Y-22715046D01*
X75110049Y-22715045D01*
X75110050Y-22715045D01*
X74971963Y-22674500D01*
X74971961Y-22674500D01*
X74861691Y-22674500D01*
X74794652Y-22654815D01*
X74774010Y-22638181D01*
X73253373Y-21117544D01*
X73253371Y-21117542D01*
X73220250Y-21098419D01*
X73187130Y-21079297D01*
X73150187Y-21069398D01*
X73113245Y-21059500D01*
X73113244Y-21059500D01*
X71894123Y-21059500D01*
X71827084Y-21039815D01*
X71781329Y-20987011D01*
X71771385Y-20917853D01*
X71800410Y-20854297D01*
X71806442Y-20847819D01*
X74367442Y-18286819D01*
X74428765Y-18253334D01*
X74455123Y-18250500D01*
X76269750Y-18250500D01*
X76269751Y-18250499D01*
X76284568Y-18247552D01*
X76328229Y-18238868D01*
X76328229Y-18238867D01*
X76328231Y-18238867D01*
X76394552Y-18194552D01*
X76438867Y-18128231D01*
X76438867Y-18128229D01*
X76438868Y-18128229D01*
X76450499Y-18069752D01*
X76450500Y-18069750D01*
X76450500Y-16030249D01*
X76450499Y-16030247D01*
X76438868Y-15971770D01*
X76438867Y-15971769D01*
X76394552Y-15905447D01*
X76328230Y-15861132D01*
X76328229Y-15861131D01*
X76269752Y-15849500D01*
X76269748Y-15849500D01*
X74230252Y-15849500D01*
X74230247Y-15849500D01*
X74171770Y-15861131D01*
X74171769Y-15861132D01*
X74105447Y-15905447D01*
X74061132Y-15971769D01*
X74061131Y-15971770D01*
X74049500Y-16030247D01*
X74049500Y-16519578D01*
X74029815Y-16586617D01*
X73977011Y-16632372D01*
X73907853Y-16642316D01*
X73844297Y-16613291D01*
X73814500Y-16574850D01*
X73735061Y-16415316D01*
X73735056Y-16415308D01*
X73600979Y-16237761D01*
X73436562Y-16087876D01*
X73436560Y-16087874D01*
X73247404Y-15970754D01*
X73247398Y-15970752D01*
X73039940Y-15890382D01*
X72821243Y-15849500D01*
X72598757Y-15849500D01*
X72380060Y-15890382D01*
X72248864Y-15941207D01*
X72172601Y-15970752D01*
X72172595Y-15970754D01*
X71983439Y-16087874D01*
X71983437Y-16087876D01*
X71819020Y-16237761D01*
X71684943Y-16415308D01*
X71684938Y-16415316D01*
X71605500Y-16574850D01*
X71557997Y-16626087D01*
X71490334Y-16643508D01*
X71423994Y-16621582D01*
X71380039Y-16567271D01*
X71370500Y-16519578D01*
X71370500Y-16030249D01*
X71370499Y-16030247D01*
X71358868Y-15971770D01*
X71358867Y-15971769D01*
X71314552Y-15905447D01*
X71248230Y-15861132D01*
X71248229Y-15861131D01*
X71189752Y-15849500D01*
X71189748Y-15849500D01*
X69150252Y-15849500D01*
X69150247Y-15849500D01*
X69091770Y-15861131D01*
X69091769Y-15861132D01*
X69025447Y-15905447D01*
X68981132Y-15971769D01*
X68981131Y-15971770D01*
X68969500Y-16030247D01*
X68969500Y-16519578D01*
X68949815Y-16586617D01*
X68897011Y-16632372D01*
X68827853Y-16642316D01*
X68764297Y-16613291D01*
X68734500Y-16574850D01*
X68655061Y-16415316D01*
X68655056Y-16415308D01*
X68520979Y-16237761D01*
X68356562Y-16087876D01*
X68356560Y-16087874D01*
X68167404Y-15970754D01*
X68167398Y-15970752D01*
X67959940Y-15890382D01*
X67741243Y-15849500D01*
X67518757Y-15849500D01*
X67300060Y-15890382D01*
X67168864Y-15941207D01*
X67092601Y-15970752D01*
X67092595Y-15970754D01*
X66903439Y-16087874D01*
X66903437Y-16087876D01*
X66739020Y-16237761D01*
X66604943Y-16415308D01*
X66604938Y-16415316D01*
X66525500Y-16574850D01*
X66477997Y-16626087D01*
X66410334Y-16643508D01*
X66343994Y-16621582D01*
X66300039Y-16567271D01*
X66290500Y-16519578D01*
X66290500Y-16030249D01*
X66290499Y-16030247D01*
X66278868Y-15971770D01*
X66278867Y-15971769D01*
X66234552Y-15905447D01*
X66168230Y-15861132D01*
X66168229Y-15861131D01*
X66109752Y-15849500D01*
X66109748Y-15849500D01*
X64070252Y-15849500D01*
X64070247Y-15849500D01*
X64011770Y-15861131D01*
X64011769Y-15861132D01*
X63945447Y-15905447D01*
X63901132Y-15971769D01*
X63901131Y-15971770D01*
X63889500Y-16030247D01*
X63889500Y-16519578D01*
X63869815Y-16586617D01*
X63817011Y-16632372D01*
X63747853Y-16642316D01*
X63684297Y-16613291D01*
X63654500Y-16574850D01*
X63575061Y-16415316D01*
X63575056Y-16415308D01*
X63440979Y-16237761D01*
X63276562Y-16087876D01*
X63276560Y-16087874D01*
X63087404Y-15970754D01*
X63087398Y-15970752D01*
X62879940Y-15890382D01*
X62661243Y-15849500D01*
X62438757Y-15849500D01*
X62220060Y-15890382D01*
X62088864Y-15941207D01*
X62012601Y-15970752D01*
X62012595Y-15970754D01*
X61823439Y-16087874D01*
X61823437Y-16087876D01*
X61659020Y-16237761D01*
X61524943Y-16415308D01*
X61524938Y-16415316D01*
X61445500Y-16574850D01*
X61397997Y-16626087D01*
X61330334Y-16643508D01*
X61263994Y-16621582D01*
X61220039Y-16567271D01*
X61210500Y-16519578D01*
X61210500Y-16030249D01*
X61210499Y-16030247D01*
X61198868Y-15971770D01*
X61198867Y-15971769D01*
X61154552Y-15905447D01*
X61088230Y-15861132D01*
X61088229Y-15861131D01*
X61029752Y-15849500D01*
X61029748Y-15849500D01*
X58990252Y-15849500D01*
X58990247Y-15849500D01*
X58931770Y-15861131D01*
X58931769Y-15861132D01*
X58865447Y-15905447D01*
X58821132Y-15971769D01*
X58821131Y-15971770D01*
X58809500Y-16030247D01*
X58809500Y-16519578D01*
X58789815Y-16586617D01*
X58737011Y-16632372D01*
X58667853Y-16642316D01*
X58604297Y-16613291D01*
X58574500Y-16574850D01*
X58495061Y-16415316D01*
X58495056Y-16415308D01*
X58360979Y-16237761D01*
X58196562Y-16087876D01*
X58196560Y-16087874D01*
X58007404Y-15970754D01*
X58007398Y-15970752D01*
X57799940Y-15890382D01*
X57581243Y-15849500D01*
X57358757Y-15849500D01*
X57140060Y-15890382D01*
X57008864Y-15941207D01*
X56932601Y-15970752D01*
X56932595Y-15970754D01*
X56743439Y-16087874D01*
X56743437Y-16087876D01*
X56579020Y-16237761D01*
X56444943Y-16415308D01*
X56444938Y-16415316D01*
X56345775Y-16614461D01*
X56345769Y-16614476D01*
X56284885Y-16828462D01*
X56284884Y-16828464D01*
X56264357Y-17049999D01*
X56264357Y-17050000D01*
X56284884Y-17271535D01*
X56284885Y-17271537D01*
X56345769Y-17485523D01*
X56345775Y-17485538D01*
X56444938Y-17684683D01*
X56444943Y-17684691D01*
X56579020Y-17862238D01*
X56743437Y-18012123D01*
X56743439Y-18012125D01*
X56932595Y-18129245D01*
X56932596Y-18129245D01*
X56932599Y-18129247D01*
X57140060Y-18209618D01*
X57358757Y-18250500D01*
X57358759Y-18250500D01*
X57581241Y-18250500D01*
X57581243Y-18250500D01*
X57799940Y-18209618D01*
X58007401Y-18129247D01*
X58196562Y-18012124D01*
X58360981Y-17862236D01*
X58495058Y-17684689D01*
X58574500Y-17525149D01*
X58622003Y-17473912D01*
X58689666Y-17456491D01*
X58756006Y-17478417D01*
X58799961Y-17532728D01*
X58809500Y-17580421D01*
X58809500Y-18069752D01*
X58821131Y-18128229D01*
X58821132Y-18128230D01*
X58865447Y-18194552D01*
X58931769Y-18238867D01*
X58931770Y-18238868D01*
X58990247Y-18250499D01*
X58990250Y-18250500D01*
X58990252Y-18250500D01*
X59635500Y-18250500D01*
X59702539Y-18270185D01*
X59748294Y-18322989D01*
X59759500Y-18374500D01*
X59759500Y-18459829D01*
X59797636Y-18551897D01*
X61908034Y-20662294D01*
X61941519Y-20723617D01*
X61944353Y-20749975D01*
X61944353Y-20749999D01*
X61964834Y-20892457D01*
X61967215Y-20900562D01*
X61967217Y-20970431D01*
X61929444Y-21029211D01*
X61865890Y-21058237D01*
X61848239Y-21059500D01*
X59636755Y-21059500D01*
X59562869Y-21079297D01*
X59496629Y-21117542D01*
X59496626Y-21117544D01*
X57975989Y-22638181D01*
X57914666Y-22671666D01*
X57888308Y-22674500D01*
X57778036Y-22674500D01*
X57639949Y-22715045D01*
X57518873Y-22792856D01*
X57424623Y-22901626D01*
X57424622Y-22901628D01*
X57364834Y-23032543D01*
X57344353Y-23175000D01*
X57354549Y-23245918D01*
X57344605Y-23315076D01*
X57319492Y-23351245D01*
X54800984Y-25869755D01*
X54730518Y-25940220D01*
X54730517Y-25940221D01*
X54692381Y-26032289D01*
X54692381Y-47743320D01*
X54364966Y-47743320D01*
X54364966Y-19067170D01*
X54365084Y-19061761D01*
X54374900Y-18836959D01*
X54381854Y-18677699D01*
X54382794Y-18666965D01*
X54432623Y-18288495D01*
X54434494Y-18277877D01*
X54517120Y-17905187D01*
X54519917Y-17894751D01*
X54634704Y-17530699D01*
X54638393Y-17520563D01*
X54784474Y-17167894D01*
X54789044Y-17158097D01*
X54845316Y-17050000D01*
X54965305Y-16819506D01*
X54970696Y-16810168D01*
X55175793Y-16488232D01*
X55181989Y-16479383D01*
X55182014Y-16479350D01*
X55414376Y-16176532D01*
X55421308Y-16168270D01*
X55679202Y-15886828D01*
X55686828Y-15879202D01*
X55968270Y-15621308D01*
X55976533Y-15614374D01*
X56279383Y-15381988D01*
X56288232Y-15375793D01*
X56610168Y-15170696D01*
X56619509Y-15165302D01*
X56958103Y-14989041D01*
X56967894Y-14984474D01*
X57320563Y-14838393D01*
X57330699Y-14834704D01*
X57694761Y-14719913D01*
X57705187Y-14717120D01*
X58077877Y-14634494D01*
X58088496Y-14632622D01*
X58466963Y-14582794D01*
X58477701Y-14581854D01*
X58861767Y-14565084D01*
X58867176Y-14564966D01*
X58930362Y-14564966D01*
X73798573Y-14564966D01*
X73798577Y-14564967D01*
G37*
G04 #@! TD.AperFunction*
M02*
