G04 #@! TF.GenerationSoftware,KiCad,Pcbnew,8.0.1*
G04 #@! TF.CreationDate,2024-09-18T22:43:32-06:00*
G04 #@! TF.ProjectId,semg,73656d67-2e6b-4696-9361-645f70636258,rev?*
G04 #@! TF.SameCoordinates,Original*
G04 #@! TF.FileFunction,Legend,Bot*
G04 #@! TF.FilePolarity,Positive*
%FSLAX46Y46*%
G04 Gerber Fmt 4.6, Leading zero omitted, Abs format (unit mm)*
G04 Created by KiCad (PCBNEW 8.0.1) date 2024-09-18 22:43:32*
%MOMM*%
%LPD*%
G01*
G04 APERTURE LIST*
G04 Aperture macros list*
%AMRoundRect*
0 Rectangle with rounded corners*
0 $1 Rounding radius*
0 $2 $3 $4 $5 $6 $7 $8 $9 X,Y pos of 4 corners*
0 Add a 4 corners polygon primitive as box body*
4,1,4,$2,$3,$4,$5,$6,$7,$8,$9,$2,$3,0*
0 Add four circle primitives for the rounded corners*
1,1,$1+$1,$2,$3*
1,1,$1+$1,$4,$5*
1,1,$1+$1,$6,$7*
1,1,$1+$1,$8,$9*
0 Add four rect primitives between the rounded corners*
20,1,$1+$1,$2,$3,$4,$5,0*
20,1,$1+$1,$4,$5,$6,$7,0*
20,1,$1+$1,$6,$7,$8,$9,0*
20,1,$1+$1,$8,$9,$2,$3,0*%
%AMFreePoly0*
4,1,18,0.017678,0.267678,0.260356,0.025000,0.750000,0.025000,0.767678,0.017678,0.775000,0.000000,0.767678,-0.017678,0.517678,-0.267678,0.500000,-0.275000,-0.500000,-0.275000,-0.517678,-0.267678,-0.767678,-0.017678,-0.775000,0.000000,-0.767678,0.017678,-0.750000,0.025000,-0.260356,0.025000,-0.017678,0.267678,0.000000,0.275000,0.017678,0.267678,0.017678,0.267678,$1*%
%AMFreePoly1*
4,1,17,0.017678,0.287678,0.767678,-0.462322,0.775000,-0.480000,0.767678,-0.497678,0.750000,-0.505000,0.325000,-0.505000,0.307322,-0.497678,0.000000,-0.190356,-0.307322,-0.497678,-0.325000,-0.505000,-0.750000,-0.505000,-0.767678,-0.497678,-0.775000,-0.480000,-0.767678,-0.462322,-0.017678,0.287678,0.000000,0.295000,0.017678,0.287678,0.017678,0.287678,$1*%
G04 Aperture macros list end*
%ADD10C,0.150000*%
%ADD11C,0.100000*%
%ADD12C,0.050000*%
%ADD13R,2.000000X2.000000*%
%ADD14O,2.000000X2.000000*%
%ADD15R,1.000000X1.000000*%
%ADD16O,1.000000X1.000000*%
%ADD17FreePoly0,90.000000*%
%ADD18FreePoly1,90.000000*%
%ADD19FreePoly0,180.000000*%
%ADD20FreePoly1,180.000000*%
%ADD21RoundRect,0.102000X0.190000X-0.310000X0.190000X0.310000X-0.190000X0.310000X-0.190000X-0.310000X0*%
%ADD22RoundRect,0.102000X0.190000X-0.120000X0.190000X0.120000X-0.190000X0.120000X-0.190000X-0.120000X0*%
G04 APERTURE END LIST*
D10*
X59359580Y-34007142D02*
X59407200Y-33959523D01*
X59407200Y-33959523D02*
X59454819Y-33816666D01*
X59454819Y-33816666D02*
X59454819Y-33721428D01*
X59454819Y-33721428D02*
X59407200Y-33578571D01*
X59407200Y-33578571D02*
X59311961Y-33483333D01*
X59311961Y-33483333D02*
X59216723Y-33435714D01*
X59216723Y-33435714D02*
X59026247Y-33388095D01*
X59026247Y-33388095D02*
X58883390Y-33388095D01*
X58883390Y-33388095D02*
X58692914Y-33435714D01*
X58692914Y-33435714D02*
X58597676Y-33483333D01*
X58597676Y-33483333D02*
X58502438Y-33578571D01*
X58502438Y-33578571D02*
X58454819Y-33721428D01*
X58454819Y-33721428D02*
X58454819Y-33816666D01*
X58454819Y-33816666D02*
X58502438Y-33959523D01*
X58502438Y-33959523D02*
X58550057Y-34007142D01*
X59407200Y-34388095D02*
X59454819Y-34530952D01*
X59454819Y-34530952D02*
X59454819Y-34769047D01*
X59454819Y-34769047D02*
X59407200Y-34864285D01*
X59407200Y-34864285D02*
X59359580Y-34911904D01*
X59359580Y-34911904D02*
X59264342Y-34959523D01*
X59264342Y-34959523D02*
X59169104Y-34959523D01*
X59169104Y-34959523D02*
X59073866Y-34911904D01*
X59073866Y-34911904D02*
X59026247Y-34864285D01*
X59026247Y-34864285D02*
X58978628Y-34769047D01*
X58978628Y-34769047D02*
X58931009Y-34578571D01*
X58931009Y-34578571D02*
X58883390Y-34483333D01*
X58883390Y-34483333D02*
X58835771Y-34435714D01*
X58835771Y-34435714D02*
X58740533Y-34388095D01*
X58740533Y-34388095D02*
X58645295Y-34388095D01*
X58645295Y-34388095D02*
X58550057Y-34435714D01*
X58550057Y-34435714D02*
X58502438Y-34483333D01*
X58502438Y-34483333D02*
X58454819Y-34578571D01*
X58454819Y-34578571D02*
X58454819Y-34816666D01*
X58454819Y-34816666D02*
X58502438Y-34959523D01*
X58550057Y-35340476D02*
X58502438Y-35388095D01*
X58502438Y-35388095D02*
X58454819Y-35483333D01*
X58454819Y-35483333D02*
X58454819Y-35721428D01*
X58454819Y-35721428D02*
X58502438Y-35816666D01*
X58502438Y-35816666D02*
X58550057Y-35864285D01*
X58550057Y-35864285D02*
X58645295Y-35911904D01*
X58645295Y-35911904D02*
X58740533Y-35911904D01*
X58740533Y-35911904D02*
X58883390Y-35864285D01*
X58883390Y-35864285D02*
X59454819Y-35292857D01*
X59454819Y-35292857D02*
X59454819Y-35911904D01*
X66011904Y-35509580D02*
X66059523Y-35557200D01*
X66059523Y-35557200D02*
X66202380Y-35604819D01*
X66202380Y-35604819D02*
X66297618Y-35604819D01*
X66297618Y-35604819D02*
X66440475Y-35557200D01*
X66440475Y-35557200D02*
X66535713Y-35461961D01*
X66535713Y-35461961D02*
X66583332Y-35366723D01*
X66583332Y-35366723D02*
X66630951Y-35176247D01*
X66630951Y-35176247D02*
X66630951Y-35033390D01*
X66630951Y-35033390D02*
X66583332Y-34842914D01*
X66583332Y-34842914D02*
X66535713Y-34747676D01*
X66535713Y-34747676D02*
X66440475Y-34652438D01*
X66440475Y-34652438D02*
X66297618Y-34604819D01*
X66297618Y-34604819D02*
X66202380Y-34604819D01*
X66202380Y-34604819D02*
X66059523Y-34652438D01*
X66059523Y-34652438D02*
X66011904Y-34700057D01*
X65678570Y-34604819D02*
X65059523Y-34604819D01*
X65059523Y-34604819D02*
X65392856Y-34985771D01*
X65392856Y-34985771D02*
X65249999Y-34985771D01*
X65249999Y-34985771D02*
X65154761Y-35033390D01*
X65154761Y-35033390D02*
X65107142Y-35081009D01*
X65107142Y-35081009D02*
X65059523Y-35176247D01*
X65059523Y-35176247D02*
X65059523Y-35414342D01*
X65059523Y-35414342D02*
X65107142Y-35509580D01*
X65107142Y-35509580D02*
X65154761Y-35557200D01*
X65154761Y-35557200D02*
X65249999Y-35604819D01*
X65249999Y-35604819D02*
X65535713Y-35604819D01*
X65535713Y-35604819D02*
X65630951Y-35557200D01*
X65630951Y-35557200D02*
X65678570Y-35509580D01*
X64630951Y-35223866D02*
X63869047Y-35223866D01*
X62964285Y-34604819D02*
X63154761Y-34604819D01*
X63154761Y-34604819D02*
X63249999Y-34652438D01*
X63249999Y-34652438D02*
X63297618Y-34700057D01*
X63297618Y-34700057D02*
X63392856Y-34842914D01*
X63392856Y-34842914D02*
X63440475Y-35033390D01*
X63440475Y-35033390D02*
X63440475Y-35414342D01*
X63440475Y-35414342D02*
X63392856Y-35509580D01*
X63392856Y-35509580D02*
X63345237Y-35557200D01*
X63345237Y-35557200D02*
X63249999Y-35604819D01*
X63249999Y-35604819D02*
X63059523Y-35604819D01*
X63059523Y-35604819D02*
X62964285Y-35557200D01*
X62964285Y-35557200D02*
X62916666Y-35509580D01*
X62916666Y-35509580D02*
X62869047Y-35414342D01*
X62869047Y-35414342D02*
X62869047Y-35176247D01*
X62869047Y-35176247D02*
X62916666Y-35081009D01*
X62916666Y-35081009D02*
X62964285Y-35033390D01*
X62964285Y-35033390D02*
X63059523Y-34985771D01*
X63059523Y-34985771D02*
X63249999Y-34985771D01*
X63249999Y-34985771D02*
X63345237Y-35033390D01*
X63345237Y-35033390D02*
X63392856Y-35081009D01*
X63392856Y-35081009D02*
X63440475Y-35176247D01*
X65804819Y-43516666D02*
X66519104Y-43516666D01*
X66519104Y-43516666D02*
X66661961Y-43469047D01*
X66661961Y-43469047D02*
X66757200Y-43373809D01*
X66757200Y-43373809D02*
X66804819Y-43230952D01*
X66804819Y-43230952D02*
X66804819Y-43135714D01*
X65804819Y-44421428D02*
X65804819Y-44230952D01*
X65804819Y-44230952D02*
X65852438Y-44135714D01*
X65852438Y-44135714D02*
X65900057Y-44088095D01*
X65900057Y-44088095D02*
X66042914Y-43992857D01*
X66042914Y-43992857D02*
X66233390Y-43945238D01*
X66233390Y-43945238D02*
X66614342Y-43945238D01*
X66614342Y-43945238D02*
X66709580Y-43992857D01*
X66709580Y-43992857D02*
X66757200Y-44040476D01*
X66757200Y-44040476D02*
X66804819Y-44135714D01*
X66804819Y-44135714D02*
X66804819Y-44326190D01*
X66804819Y-44326190D02*
X66757200Y-44421428D01*
X66757200Y-44421428D02*
X66709580Y-44469047D01*
X66709580Y-44469047D02*
X66614342Y-44516666D01*
X66614342Y-44516666D02*
X66376247Y-44516666D01*
X66376247Y-44516666D02*
X66281009Y-44469047D01*
X66281009Y-44469047D02*
X66233390Y-44421428D01*
X66233390Y-44421428D02*
X66185771Y-44326190D01*
X66185771Y-44326190D02*
X66185771Y-44135714D01*
X66185771Y-44135714D02*
X66233390Y-44040476D01*
X66233390Y-44040476D02*
X66281009Y-43992857D01*
X66281009Y-43992857D02*
X66376247Y-43945238D01*
X65804819Y-25416666D02*
X66519104Y-25416666D01*
X66519104Y-25416666D02*
X66661961Y-25369047D01*
X66661961Y-25369047D02*
X66757200Y-25273809D01*
X66757200Y-25273809D02*
X66804819Y-25130952D01*
X66804819Y-25130952D02*
X66804819Y-25035714D01*
X65804819Y-26369047D02*
X65804819Y-25892857D01*
X65804819Y-25892857D02*
X66281009Y-25845238D01*
X66281009Y-25845238D02*
X66233390Y-25892857D01*
X66233390Y-25892857D02*
X66185771Y-25988095D01*
X66185771Y-25988095D02*
X66185771Y-26226190D01*
X66185771Y-26226190D02*
X66233390Y-26321428D01*
X66233390Y-26321428D02*
X66281009Y-26369047D01*
X66281009Y-26369047D02*
X66376247Y-26416666D01*
X66376247Y-26416666D02*
X66614342Y-26416666D01*
X66614342Y-26416666D02*
X66709580Y-26369047D01*
X66709580Y-26369047D02*
X66757200Y-26321428D01*
X66757200Y-26321428D02*
X66804819Y-26226190D01*
X66804819Y-26226190D02*
X66804819Y-25988095D01*
X66804819Y-25988095D02*
X66757200Y-25892857D01*
X66757200Y-25892857D02*
X66709580Y-25845238D01*
X68511904Y-31509580D02*
X68559523Y-31557200D01*
X68559523Y-31557200D02*
X68702380Y-31604819D01*
X68702380Y-31604819D02*
X68797618Y-31604819D01*
X68797618Y-31604819D02*
X68940475Y-31557200D01*
X68940475Y-31557200D02*
X69035713Y-31461961D01*
X69035713Y-31461961D02*
X69083332Y-31366723D01*
X69083332Y-31366723D02*
X69130951Y-31176247D01*
X69130951Y-31176247D02*
X69130951Y-31033390D01*
X69130951Y-31033390D02*
X69083332Y-30842914D01*
X69083332Y-30842914D02*
X69035713Y-30747676D01*
X69035713Y-30747676D02*
X68940475Y-30652438D01*
X68940475Y-30652438D02*
X68797618Y-30604819D01*
X68797618Y-30604819D02*
X68702380Y-30604819D01*
X68702380Y-30604819D02*
X68559523Y-30652438D01*
X68559523Y-30652438D02*
X68511904Y-30700057D01*
X68130951Y-30700057D02*
X68083332Y-30652438D01*
X68083332Y-30652438D02*
X67988094Y-30604819D01*
X67988094Y-30604819D02*
X67749999Y-30604819D01*
X67749999Y-30604819D02*
X67654761Y-30652438D01*
X67654761Y-30652438D02*
X67607142Y-30700057D01*
X67607142Y-30700057D02*
X67559523Y-30795295D01*
X67559523Y-30795295D02*
X67559523Y-30890533D01*
X67559523Y-30890533D02*
X67607142Y-31033390D01*
X67607142Y-31033390D02*
X68178570Y-31604819D01*
X68178570Y-31604819D02*
X67559523Y-31604819D01*
X67130951Y-31223866D02*
X66369047Y-31223866D01*
X65416666Y-30604819D02*
X65892856Y-30604819D01*
X65892856Y-30604819D02*
X65940475Y-31081009D01*
X65940475Y-31081009D02*
X65892856Y-31033390D01*
X65892856Y-31033390D02*
X65797618Y-30985771D01*
X65797618Y-30985771D02*
X65559523Y-30985771D01*
X65559523Y-30985771D02*
X65464285Y-31033390D01*
X65464285Y-31033390D02*
X65416666Y-31081009D01*
X65416666Y-31081009D02*
X65369047Y-31176247D01*
X65369047Y-31176247D02*
X65369047Y-31414342D01*
X65369047Y-31414342D02*
X65416666Y-31509580D01*
X65416666Y-31509580D02*
X65464285Y-31557200D01*
X65464285Y-31557200D02*
X65559523Y-31604819D01*
X65559523Y-31604819D02*
X65797618Y-31604819D01*
X65797618Y-31604819D02*
X65892856Y-31557200D01*
X65892856Y-31557200D02*
X65940475Y-31509580D01*
X55459580Y-30407142D02*
X55507200Y-30359523D01*
X55507200Y-30359523D02*
X55554819Y-30216666D01*
X55554819Y-30216666D02*
X55554819Y-30121428D01*
X55554819Y-30121428D02*
X55507200Y-29978571D01*
X55507200Y-29978571D02*
X55411961Y-29883333D01*
X55411961Y-29883333D02*
X55316723Y-29835714D01*
X55316723Y-29835714D02*
X55126247Y-29788095D01*
X55126247Y-29788095D02*
X54983390Y-29788095D01*
X54983390Y-29788095D02*
X54792914Y-29835714D01*
X54792914Y-29835714D02*
X54697676Y-29883333D01*
X54697676Y-29883333D02*
X54602438Y-29978571D01*
X54602438Y-29978571D02*
X54554819Y-30121428D01*
X54554819Y-30121428D02*
X54554819Y-30216666D01*
X54554819Y-30216666D02*
X54602438Y-30359523D01*
X54602438Y-30359523D02*
X54650057Y-30407142D01*
X55507200Y-30788095D02*
X55554819Y-30930952D01*
X55554819Y-30930952D02*
X55554819Y-31169047D01*
X55554819Y-31169047D02*
X55507200Y-31264285D01*
X55507200Y-31264285D02*
X55459580Y-31311904D01*
X55459580Y-31311904D02*
X55364342Y-31359523D01*
X55364342Y-31359523D02*
X55269104Y-31359523D01*
X55269104Y-31359523D02*
X55173866Y-31311904D01*
X55173866Y-31311904D02*
X55126247Y-31264285D01*
X55126247Y-31264285D02*
X55078628Y-31169047D01*
X55078628Y-31169047D02*
X55031009Y-30978571D01*
X55031009Y-30978571D02*
X54983390Y-30883333D01*
X54983390Y-30883333D02*
X54935771Y-30835714D01*
X54935771Y-30835714D02*
X54840533Y-30788095D01*
X54840533Y-30788095D02*
X54745295Y-30788095D01*
X54745295Y-30788095D02*
X54650057Y-30835714D01*
X54650057Y-30835714D02*
X54602438Y-30883333D01*
X54602438Y-30883333D02*
X54554819Y-30978571D01*
X54554819Y-30978571D02*
X54554819Y-31216666D01*
X54554819Y-31216666D02*
X54602438Y-31359523D01*
X55554819Y-32311904D02*
X55554819Y-31740476D01*
X55554819Y-32026190D02*
X54554819Y-32026190D01*
X54554819Y-32026190D02*
X54697676Y-31930952D01*
X54697676Y-31930952D02*
X54792914Y-31835714D01*
X54792914Y-31835714D02*
X54840533Y-31740476D01*
X73411904Y-34309580D02*
X73459523Y-34357200D01*
X73459523Y-34357200D02*
X73602380Y-34404819D01*
X73602380Y-34404819D02*
X73697618Y-34404819D01*
X73697618Y-34404819D02*
X73840475Y-34357200D01*
X73840475Y-34357200D02*
X73935713Y-34261961D01*
X73935713Y-34261961D02*
X73983332Y-34166723D01*
X73983332Y-34166723D02*
X74030951Y-33976247D01*
X74030951Y-33976247D02*
X74030951Y-33833390D01*
X74030951Y-33833390D02*
X73983332Y-33642914D01*
X73983332Y-33642914D02*
X73935713Y-33547676D01*
X73935713Y-33547676D02*
X73840475Y-33452438D01*
X73840475Y-33452438D02*
X73697618Y-33404819D01*
X73697618Y-33404819D02*
X73602380Y-33404819D01*
X73602380Y-33404819D02*
X73459523Y-33452438D01*
X73459523Y-33452438D02*
X73411904Y-33500057D01*
X72459523Y-34404819D02*
X73030951Y-34404819D01*
X72745237Y-34404819D02*
X72745237Y-33404819D01*
X72745237Y-33404819D02*
X72840475Y-33547676D01*
X72840475Y-33547676D02*
X72935713Y-33642914D01*
X72935713Y-33642914D02*
X73030951Y-33690533D01*
X72030951Y-34023866D02*
X71269047Y-34023866D01*
X70364285Y-33738152D02*
X70364285Y-34404819D01*
X70602380Y-33357200D02*
X70840475Y-34071485D01*
X70840475Y-34071485D02*
X70221428Y-34071485D01*
X55509580Y-37157142D02*
X55557200Y-37109523D01*
X55557200Y-37109523D02*
X55604819Y-36966666D01*
X55604819Y-36966666D02*
X55604819Y-36871428D01*
X55604819Y-36871428D02*
X55557200Y-36728571D01*
X55557200Y-36728571D02*
X55461961Y-36633333D01*
X55461961Y-36633333D02*
X55366723Y-36585714D01*
X55366723Y-36585714D02*
X55176247Y-36538095D01*
X55176247Y-36538095D02*
X55033390Y-36538095D01*
X55033390Y-36538095D02*
X54842914Y-36585714D01*
X54842914Y-36585714D02*
X54747676Y-36633333D01*
X54747676Y-36633333D02*
X54652438Y-36728571D01*
X54652438Y-36728571D02*
X54604819Y-36871428D01*
X54604819Y-36871428D02*
X54604819Y-36966666D01*
X54604819Y-36966666D02*
X54652438Y-37109523D01*
X54652438Y-37109523D02*
X54700057Y-37157142D01*
X55557200Y-37538095D02*
X55604819Y-37680952D01*
X55604819Y-37680952D02*
X55604819Y-37919047D01*
X55604819Y-37919047D02*
X55557200Y-38014285D01*
X55557200Y-38014285D02*
X55509580Y-38061904D01*
X55509580Y-38061904D02*
X55414342Y-38109523D01*
X55414342Y-38109523D02*
X55319104Y-38109523D01*
X55319104Y-38109523D02*
X55223866Y-38061904D01*
X55223866Y-38061904D02*
X55176247Y-38014285D01*
X55176247Y-38014285D02*
X55128628Y-37919047D01*
X55128628Y-37919047D02*
X55081009Y-37728571D01*
X55081009Y-37728571D02*
X55033390Y-37633333D01*
X55033390Y-37633333D02*
X54985771Y-37585714D01*
X54985771Y-37585714D02*
X54890533Y-37538095D01*
X54890533Y-37538095D02*
X54795295Y-37538095D01*
X54795295Y-37538095D02*
X54700057Y-37585714D01*
X54700057Y-37585714D02*
X54652438Y-37633333D01*
X54652438Y-37633333D02*
X54604819Y-37728571D01*
X54604819Y-37728571D02*
X54604819Y-37966666D01*
X54604819Y-37966666D02*
X54652438Y-38109523D01*
X54604819Y-38442857D02*
X54604819Y-39061904D01*
X54604819Y-39061904D02*
X54985771Y-38728571D01*
X54985771Y-38728571D02*
X54985771Y-38871428D01*
X54985771Y-38871428D02*
X55033390Y-38966666D01*
X55033390Y-38966666D02*
X55081009Y-39014285D01*
X55081009Y-39014285D02*
X55176247Y-39061904D01*
X55176247Y-39061904D02*
X55414342Y-39061904D01*
X55414342Y-39061904D02*
X55509580Y-39014285D01*
X55509580Y-39014285D02*
X55557200Y-38966666D01*
X55557200Y-38966666D02*
X55604819Y-38871428D01*
X55604819Y-38871428D02*
X55604819Y-38585714D01*
X55604819Y-38585714D02*
X55557200Y-38490476D01*
X55557200Y-38490476D02*
X55509580Y-38442857D01*
D11*
X67227000Y-42200000D02*
X65470000Y-42200000D01*
X67227000Y-45500000D02*
X65475000Y-45500000D01*
X67227000Y-24100000D02*
X65470000Y-24100000D01*
X67227000Y-27400000D02*
X65475000Y-27400000D01*
%LPC*%
D12*
X56877500Y-34325000D02*
X56552500Y-34650000D01*
X56877500Y-34975000D01*
X56877500Y-35400000D01*
X56127500Y-34650000D01*
X56877500Y-33900000D01*
X56877500Y-34325000D01*
G36*
X56877500Y-34325000D02*
G01*
X56552500Y-34650000D01*
X56877500Y-34975000D01*
X56877500Y-35400000D01*
X56127500Y-34650000D01*
X56877500Y-33900000D01*
X56877500Y-34325000D01*
G37*
X57272500Y-34150000D02*
X57272500Y-35150000D01*
X57022500Y-35400000D01*
X57022500Y-34900000D01*
X56772500Y-34650000D01*
X57022500Y-34400000D01*
X57022500Y-33900000D01*
X57272500Y-34150000D01*
G36*
X57272500Y-34150000D02*
G01*
X57272500Y-35150000D01*
X57022500Y-35400000D01*
X57022500Y-34900000D01*
X56772500Y-34650000D01*
X57022500Y-34400000D01*
X57022500Y-33900000D01*
X57272500Y-34150000D01*
G37*
X64750000Y-33497500D02*
X65075000Y-33172500D01*
X65500000Y-33172500D01*
X64750000Y-33922500D01*
X64000000Y-33172500D01*
X64425000Y-33172500D01*
X64750000Y-33497500D01*
G36*
X64750000Y-33497500D02*
G01*
X65075000Y-33172500D01*
X65500000Y-33172500D01*
X64750000Y-33922500D01*
X64000000Y-33172500D01*
X64425000Y-33172500D01*
X64750000Y-33497500D01*
G37*
X65500000Y-33027500D02*
X65000000Y-33027500D01*
X64750000Y-33277500D01*
X64500000Y-33027500D01*
X64000000Y-33027500D01*
X64250000Y-32777500D01*
X65250000Y-32777500D01*
X65500000Y-33027500D01*
G36*
X65500000Y-33027500D02*
G01*
X65000000Y-33027500D01*
X64750000Y-33277500D01*
X64500000Y-33027500D01*
X64000000Y-33027500D01*
X64250000Y-32777500D01*
X65250000Y-32777500D01*
X65500000Y-33027500D01*
G37*
X68050000Y-33070000D02*
X68375000Y-32745000D01*
X68800000Y-32745000D01*
X68050000Y-33495000D01*
X67300000Y-32745000D01*
X67725000Y-32745000D01*
X68050000Y-33070000D01*
G36*
X68050000Y-33070000D02*
G01*
X68375000Y-32745000D01*
X68800000Y-32745000D01*
X68050000Y-33495000D01*
X67300000Y-32745000D01*
X67725000Y-32745000D01*
X68050000Y-33070000D01*
G37*
X68800000Y-32600000D02*
X68300000Y-32600000D01*
X68050000Y-32850000D01*
X67800000Y-32600000D01*
X67300000Y-32600000D01*
X67550000Y-32350000D01*
X68550000Y-32350000D01*
X68800000Y-32600000D01*
G36*
X68800000Y-32600000D02*
G01*
X68300000Y-32600000D01*
X68050000Y-32850000D01*
X67800000Y-32600000D01*
X67300000Y-32600000D01*
X67550000Y-32350000D01*
X68550000Y-32350000D01*
X68800000Y-32600000D01*
G37*
X56877500Y-30725000D02*
X56552500Y-31050000D01*
X56877500Y-31375000D01*
X56877500Y-31800000D01*
X56127500Y-31050000D01*
X56877500Y-30300000D01*
X56877500Y-30725000D01*
G36*
X56877500Y-30725000D02*
G01*
X56552500Y-31050000D01*
X56877500Y-31375000D01*
X56877500Y-31800000D01*
X56127500Y-31050000D01*
X56877500Y-30300000D01*
X56877500Y-30725000D01*
G37*
X57272500Y-30550000D02*
X57272500Y-31550000D01*
X57022500Y-31800000D01*
X57022500Y-31300000D01*
X56772500Y-31050000D01*
X57022500Y-30800000D01*
X57022500Y-30300000D01*
X57272500Y-30550000D01*
G36*
X57272500Y-30550000D02*
G01*
X57272500Y-31550000D01*
X57022500Y-31800000D01*
X57022500Y-31300000D01*
X56772500Y-31050000D01*
X57022500Y-30800000D01*
X57022500Y-30300000D01*
X57272500Y-30550000D01*
G37*
X70750000Y-32447500D02*
X71075000Y-32122500D01*
X71500000Y-32122500D01*
X70750000Y-32872500D01*
X70000000Y-32122500D01*
X70425000Y-32122500D01*
X70750000Y-32447500D01*
G36*
X70750000Y-32447500D02*
G01*
X71075000Y-32122500D01*
X71500000Y-32122500D01*
X70750000Y-32872500D01*
X70000000Y-32122500D01*
X70425000Y-32122500D01*
X70750000Y-32447500D01*
G37*
X71500000Y-31977500D02*
X71000000Y-31977500D01*
X70750000Y-32227500D01*
X70500000Y-31977500D01*
X70000000Y-31977500D01*
X70250000Y-31727500D01*
X71250000Y-31727500D01*
X71500000Y-31977500D01*
G36*
X71500000Y-31977500D02*
G01*
X71000000Y-31977500D01*
X70750000Y-32227500D01*
X70500000Y-31977500D01*
X70000000Y-31977500D01*
X70250000Y-31727500D01*
X71250000Y-31727500D01*
X71500000Y-31977500D01*
G37*
X56877500Y-37475000D02*
X56552500Y-37800000D01*
X56877500Y-38125000D01*
X56877500Y-38550000D01*
X56127500Y-37800000D01*
X56877500Y-37050000D01*
X56877500Y-37475000D01*
G36*
X56877500Y-37475000D02*
G01*
X56552500Y-37800000D01*
X56877500Y-38125000D01*
X56877500Y-38550000D01*
X56127500Y-37800000D01*
X56877500Y-37050000D01*
X56877500Y-37475000D01*
G37*
X57272500Y-37300000D02*
X57272500Y-38300000D01*
X57022500Y-38550000D01*
X57022500Y-38050000D01*
X56772500Y-37800000D01*
X57022500Y-37550000D01*
X57022500Y-37050000D01*
X57272500Y-37300000D01*
G36*
X57272500Y-37300000D02*
G01*
X57272500Y-38300000D01*
X57022500Y-38550000D01*
X57022500Y-38050000D01*
X56772500Y-37800000D01*
X57022500Y-37550000D01*
X57022500Y-37050000D01*
X57272500Y-37300000D01*
G37*
D13*
X75250000Y-17050000D03*
D14*
X72710000Y-17050000D03*
D13*
X70170000Y-17050000D03*
D14*
X67630000Y-17050000D03*
D13*
X65090000Y-17050000D03*
D14*
X62550000Y-17050000D03*
D13*
X60010000Y-17050000D03*
D14*
X57470000Y-17050000D03*
D15*
X70810000Y-49875000D03*
D16*
X70810000Y-51145000D03*
X69540000Y-49875000D03*
X69540000Y-51145000D03*
X68270000Y-49875000D03*
X68270000Y-51145000D03*
X67000000Y-49875000D03*
X67000000Y-51145000D03*
X65730000Y-49875000D03*
X65730000Y-51145000D03*
X64460000Y-49875000D03*
X64460000Y-51145000D03*
X63190000Y-49875000D03*
X63190000Y-51145000D03*
X61920000Y-49875000D03*
X61920000Y-51145000D03*
D17*
X57022500Y-34650000D03*
D18*
X56397500Y-34650000D03*
D19*
X64750000Y-33027500D03*
D20*
X64750000Y-33652500D03*
D21*
X65280000Y-44650000D03*
X67420000Y-44650000D03*
X65280000Y-43050000D03*
X67420000Y-43050000D03*
D22*
X65280000Y-44050000D03*
X67420000Y-44050000D03*
X65280000Y-43650000D03*
X67420000Y-43650000D03*
D21*
X65280000Y-26550000D03*
X67420000Y-26550000D03*
X65280000Y-24950000D03*
X67420000Y-24950000D03*
D22*
X65280000Y-25950000D03*
X67420000Y-25950000D03*
X65280000Y-25550000D03*
X67420000Y-25550000D03*
D19*
X68050000Y-32600000D03*
D20*
X68050000Y-33225000D03*
D17*
X57022500Y-31050000D03*
D18*
X56397500Y-31050000D03*
D19*
X70750000Y-31977500D03*
D20*
X70750000Y-32602500D03*
D17*
X57022500Y-37800000D03*
D18*
X56397500Y-37800000D03*
%LPD*%
M02*
