G04 #@! TF.GenerationSoftware,KiCad,Pcbnew,8.0.1*
G04 #@! TF.CreationDate,2024-09-18T22:43:32-06:00*
G04 #@! TF.ProjectId,semg,73656d67-2e6b-4696-9361-645f70636258,rev?*
G04 #@! TF.SameCoordinates,Original*
G04 #@! TF.FileFunction,Copper,L3,Inr*
G04 #@! TF.FilePolarity,Positive*
%FSLAX46Y46*%
G04 Gerber Fmt 4.6, Leading zero omitted, Abs format (unit mm)*
G04 Created by KiCad (PCBNEW 8.0.1) date 2024-09-18 22:43:32*
%MOMM*%
%LPD*%
G01*
G04 APERTURE LIST*
G04 #@! TA.AperFunction,ComponentPad*
%ADD10R,2.000000X2.000000*%
G04 #@! TD*
G04 #@! TA.AperFunction,ComponentPad*
%ADD11O,2.000000X2.000000*%
G04 #@! TD*
G04 #@! TA.AperFunction,ComponentPad*
%ADD12C,0.600000*%
G04 #@! TD*
G04 #@! TA.AperFunction,ComponentPad*
%ADD13R,1.000000X1.000000*%
G04 #@! TD*
G04 #@! TA.AperFunction,ComponentPad*
%ADD14O,1.000000X1.000000*%
G04 #@! TD*
G04 #@! TA.AperFunction,ViaPad*
%ADD15C,0.600000*%
G04 #@! TD*
G04 APERTURE END LIST*
D10*
X75250000Y-17050000D03*
D11*
X72710000Y-17050000D03*
D10*
X70170000Y-17050000D03*
D11*
X67630000Y-17050000D03*
D10*
X65090000Y-17050000D03*
D11*
X62550000Y-17050000D03*
D10*
X60010000Y-17050000D03*
D11*
X57470000Y-17050000D03*
D12*
X63200000Y-31050000D03*
X62000000Y-31050000D03*
D13*
X70810000Y-49875000D03*
D14*
X70810000Y-51145000D03*
X69540000Y-49875000D03*
X69540000Y-51145000D03*
X68270000Y-49875000D03*
X68270000Y-51145000D03*
X67000000Y-49875000D03*
X67000000Y-51145000D03*
X65730000Y-49875000D03*
X65730000Y-51145000D03*
X64460000Y-49875000D03*
X64460000Y-51145000D03*
X63190000Y-49875000D03*
X63190000Y-51145000D03*
X61920000Y-49875000D03*
X61920000Y-51145000D03*
D12*
X63400000Y-42750000D03*
X62200000Y-42750000D03*
D15*
X74900000Y-47300000D03*
X76300000Y-47250000D03*
X57850000Y-47300000D03*
X61350000Y-37250000D03*
X61350000Y-35025000D03*
X76750000Y-41700000D03*
X76750000Y-50400000D03*
X57850000Y-48550000D03*
X65400000Y-40130000D03*
X76750000Y-21325000D03*
X56392881Y-41700000D03*
X62900000Y-36050000D03*
X74900000Y-48450000D03*
X56000000Y-50400000D03*
X66450000Y-33250000D03*
X62150000Y-29475000D03*
X57450000Y-28775000D03*
X69300000Y-39975000D03*
X75350000Y-28750000D03*
X70347195Y-43661708D03*
X56000000Y-21325000D03*
X67000000Y-44650000D03*
X57850000Y-43550000D03*
X74900000Y-43550000D03*
X62450000Y-20750000D03*
X70150000Y-20750000D03*
X74900000Y-23175000D03*
X57850000Y-23175000D03*
X65450000Y-36740000D03*
X64739256Y-37107217D03*
X74900000Y-24425000D03*
X57850000Y-24425000D03*
X65888687Y-37408998D03*
X66789081Y-37426403D03*
X57850000Y-25675000D03*
X74900000Y-25675000D03*
X57850000Y-44800000D03*
X74900000Y-44800000D03*
X63302031Y-37700000D03*
X64100000Y-37600000D03*
X74900000Y-46050000D03*
X57850000Y-46050000D03*
X70450000Y-22850000D03*
X62250000Y-22850000D03*
X70450000Y-24950000D03*
X62250000Y-24950000D03*
X70150000Y-38250000D03*
X70173483Y-42880793D03*
X68650000Y-35464579D03*
X71050000Y-38250000D03*
X71050000Y-41750000D03*
X69250000Y-34850000D03*
X74900000Y-26925000D03*
X67200000Y-36740000D03*
X57850000Y-26925000D03*
X62492303Y-36912319D03*
X74950000Y-37125000D03*
X57850000Y-37125000D03*
X62700000Y-44750000D03*
X63800000Y-40750000D03*
X61350000Y-35975000D03*
X61650000Y-40750000D03*
X57850000Y-33375000D03*
X57850000Y-34625000D03*
X57850000Y-35875000D03*
X77550000Y-24850000D03*
X72200001Y-26960000D03*
X74950000Y-35875000D03*
X74950000Y-33375000D03*
X74950000Y-34625000D03*
G04 #@! TA.AperFunction,Conductor*
G36*
X73798577Y-14564967D02*
G01*
X73861763Y-14564966D01*
X73867172Y-14565084D01*
X74251245Y-14581849D01*
X74261978Y-14582789D01*
X74640451Y-14632614D01*
X74651070Y-14634486D01*
X75023770Y-14717108D01*
X75034185Y-14719899D01*
X75398243Y-14834684D01*
X75408386Y-14838375D01*
X75761082Y-14984462D01*
X75770842Y-14989014D01*
X76036609Y-15127362D01*
X76109442Y-15165276D01*
X76118810Y-15170685D01*
X76440734Y-15375770D01*
X76449596Y-15381975D01*
X76695910Y-15570976D01*
X76752422Y-15614338D01*
X76760705Y-15621287D01*
X76944768Y-15789948D01*
X77042138Y-15879170D01*
X77049787Y-15886819D01*
X77307669Y-16168245D01*
X77314622Y-16176532D01*
X77546987Y-16479350D01*
X77553192Y-16488211D01*
X77758284Y-16810138D01*
X77763693Y-16819506D01*
X77939950Y-17158086D01*
X77944522Y-17167891D01*
X78090595Y-17520536D01*
X78094295Y-17530701D01*
X78209082Y-17894751D01*
X78211881Y-17905199D01*
X78294497Y-18277841D01*
X78296376Y-18288495D01*
X78346202Y-18666939D01*
X78347145Y-18677715D01*
X78363848Y-19060208D01*
X78363966Y-19065618D01*
X78363966Y-48990966D01*
X78363965Y-48990984D01*
X78363965Y-49061764D01*
X78363847Y-49067172D01*
X78347083Y-49451220D01*
X78346140Y-49461997D01*
X78296320Y-49840429D01*
X78294442Y-49851082D01*
X78211827Y-50223745D01*
X78209027Y-50234194D01*
X78094248Y-50598231D01*
X78090548Y-50608396D01*
X77944479Y-50961040D01*
X77939907Y-50970845D01*
X77763659Y-51309416D01*
X77758251Y-51318784D01*
X77553157Y-51640719D01*
X77546952Y-51649580D01*
X77314592Y-51952398D01*
X77307638Y-51960685D01*
X77049759Y-52242110D01*
X77042110Y-52249759D01*
X76760685Y-52507638D01*
X76752398Y-52514592D01*
X76449580Y-52746952D01*
X76440719Y-52753157D01*
X76118784Y-52958251D01*
X76109416Y-52963659D01*
X75770845Y-53139907D01*
X75761040Y-53144479D01*
X75408396Y-53290548D01*
X75398231Y-53294248D01*
X75034194Y-53409027D01*
X75023745Y-53411827D01*
X74651082Y-53494442D01*
X74640429Y-53496320D01*
X74261997Y-53546140D01*
X74251220Y-53547083D01*
X73867172Y-53563847D01*
X73861764Y-53563965D01*
X73790983Y-53563965D01*
X73790967Y-53563966D01*
X58867176Y-53563966D01*
X58861767Y-53563848D01*
X58775015Y-53560059D01*
X58477722Y-53547078D01*
X58466946Y-53546135D01*
X58088510Y-53496310D01*
X58077856Y-53494431D01*
X57705214Y-53411815D01*
X57694766Y-53409016D01*
X57330728Y-53294233D01*
X57320562Y-53290533D01*
X56967910Y-53144456D01*
X56958107Y-53139884D01*
X56695204Y-53003024D01*
X56619542Y-52963636D01*
X56610176Y-52958229D01*
X56288250Y-52753136D01*
X56279389Y-52746931D01*
X55976576Y-52514570D01*
X55968289Y-52507617D01*
X55686866Y-52249738D01*
X55679217Y-52242089D01*
X55421339Y-51960662D01*
X55414395Y-51952385D01*
X55182029Y-51649554D01*
X55175826Y-51640695D01*
X54970744Y-51318776D01*
X54965335Y-51309408D01*
X54879752Y-51145002D01*
X61164751Y-51145002D01*
X61183685Y-51313056D01*
X61239545Y-51472694D01*
X61239547Y-51472697D01*
X61329518Y-51615884D01*
X61329523Y-51615890D01*
X61449109Y-51735476D01*
X61449115Y-51735481D01*
X61592302Y-51825452D01*
X61592305Y-51825454D01*
X61592309Y-51825455D01*
X61592310Y-51825456D01*
X61664913Y-51850860D01*
X61751943Y-51881314D01*
X61919997Y-51900249D01*
X61920000Y-51900249D01*
X61920003Y-51900249D01*
X62088056Y-51881314D01*
X62088059Y-51881313D01*
X62247690Y-51825456D01*
X62247692Y-51825454D01*
X62247694Y-51825454D01*
X62247697Y-51825452D01*
X62390884Y-51735481D01*
X62390885Y-51735480D01*
X62390890Y-51735477D01*
X62467319Y-51659048D01*
X62528642Y-51625563D01*
X62598334Y-51630547D01*
X62642681Y-51659048D01*
X62719109Y-51735476D01*
X62719115Y-51735481D01*
X62862302Y-51825452D01*
X62862305Y-51825454D01*
X62862309Y-51825455D01*
X62862310Y-51825456D01*
X62934913Y-51850860D01*
X63021943Y-51881314D01*
X63189997Y-51900249D01*
X63190000Y-51900249D01*
X63190003Y-51900249D01*
X63358056Y-51881314D01*
X63358059Y-51881313D01*
X63517690Y-51825456D01*
X63517692Y-51825454D01*
X63517694Y-51825454D01*
X63517697Y-51825452D01*
X63660884Y-51735481D01*
X63660885Y-51735480D01*
X63660890Y-51735477D01*
X63737319Y-51659048D01*
X63798642Y-51625563D01*
X63868334Y-51630547D01*
X63912681Y-51659048D01*
X63989109Y-51735476D01*
X63989115Y-51735481D01*
X64132302Y-51825452D01*
X64132305Y-51825454D01*
X64132309Y-51825455D01*
X64132310Y-51825456D01*
X64204913Y-51850860D01*
X64291943Y-51881314D01*
X64459997Y-51900249D01*
X64460000Y-51900249D01*
X64460003Y-51900249D01*
X64628056Y-51881314D01*
X64628059Y-51881313D01*
X64787690Y-51825456D01*
X64787692Y-51825454D01*
X64787694Y-51825454D01*
X64787697Y-51825452D01*
X64930884Y-51735481D01*
X64930885Y-51735480D01*
X64930890Y-51735477D01*
X65007319Y-51659048D01*
X65068642Y-51625563D01*
X65138334Y-51630547D01*
X65182681Y-51659048D01*
X65259109Y-51735476D01*
X65259115Y-51735481D01*
X65402302Y-51825452D01*
X65402305Y-51825454D01*
X65402309Y-51825455D01*
X65402310Y-51825456D01*
X65474913Y-51850860D01*
X65561943Y-51881314D01*
X65729997Y-51900249D01*
X65730000Y-51900249D01*
X65730003Y-51900249D01*
X65898056Y-51881314D01*
X65898059Y-51881313D01*
X66057690Y-51825456D01*
X66057692Y-51825454D01*
X66057694Y-51825454D01*
X66057697Y-51825452D01*
X66200884Y-51735481D01*
X66200885Y-51735480D01*
X66200890Y-51735477D01*
X66277319Y-51659048D01*
X66338642Y-51625563D01*
X66408334Y-51630547D01*
X66452681Y-51659048D01*
X66529109Y-51735476D01*
X66529115Y-51735481D01*
X66672302Y-51825452D01*
X66672305Y-51825454D01*
X66672309Y-51825455D01*
X66672310Y-51825456D01*
X66744913Y-51850860D01*
X66831943Y-51881314D01*
X66999997Y-51900249D01*
X67000000Y-51900249D01*
X67000003Y-51900249D01*
X67168056Y-51881314D01*
X67168059Y-51881313D01*
X67327690Y-51825456D01*
X67327692Y-51825454D01*
X67327694Y-51825454D01*
X67327697Y-51825452D01*
X67470884Y-51735481D01*
X67470885Y-51735480D01*
X67470890Y-51735477D01*
X67547319Y-51659048D01*
X67608642Y-51625563D01*
X67678334Y-51630547D01*
X67722681Y-51659048D01*
X67799109Y-51735476D01*
X67799115Y-51735481D01*
X67942302Y-51825452D01*
X67942305Y-51825454D01*
X67942309Y-51825455D01*
X67942310Y-51825456D01*
X68014913Y-51850860D01*
X68101943Y-51881314D01*
X68269997Y-51900249D01*
X68270000Y-51900249D01*
X68270003Y-51900249D01*
X68438056Y-51881314D01*
X68438059Y-51881313D01*
X68597690Y-51825456D01*
X68597692Y-51825454D01*
X68597694Y-51825454D01*
X68597697Y-51825452D01*
X68740884Y-51735481D01*
X68740885Y-51735480D01*
X68740890Y-51735477D01*
X68817319Y-51659048D01*
X68878642Y-51625563D01*
X68948334Y-51630547D01*
X68992681Y-51659048D01*
X69069109Y-51735476D01*
X69069115Y-51735481D01*
X69212302Y-51825452D01*
X69212305Y-51825454D01*
X69212309Y-51825455D01*
X69212310Y-51825456D01*
X69284913Y-51850860D01*
X69371943Y-51881314D01*
X69539997Y-51900249D01*
X69540000Y-51900249D01*
X69540003Y-51900249D01*
X69708056Y-51881314D01*
X69708059Y-51881313D01*
X69867690Y-51825456D01*
X69867692Y-51825454D01*
X69867694Y-51825454D01*
X69867697Y-51825452D01*
X70010884Y-51735481D01*
X70010885Y-51735480D01*
X70010890Y-51735477D01*
X70087319Y-51659048D01*
X70148642Y-51625563D01*
X70218334Y-51630547D01*
X70262681Y-51659048D01*
X70339109Y-51735476D01*
X70339115Y-51735481D01*
X70482302Y-51825452D01*
X70482305Y-51825454D01*
X70482309Y-51825455D01*
X70482310Y-51825456D01*
X70554913Y-51850860D01*
X70641943Y-51881314D01*
X70809997Y-51900249D01*
X70810000Y-51900249D01*
X70810003Y-51900249D01*
X70978056Y-51881314D01*
X70978059Y-51881313D01*
X71137690Y-51825456D01*
X71137692Y-51825454D01*
X71137694Y-51825454D01*
X71137697Y-51825452D01*
X71280884Y-51735481D01*
X71280885Y-51735480D01*
X71280890Y-51735477D01*
X71400477Y-51615890D01*
X71400481Y-51615884D01*
X71490452Y-51472697D01*
X71490454Y-51472694D01*
X71490454Y-51472692D01*
X71490456Y-51472690D01*
X71546313Y-51313059D01*
X71546313Y-51313058D01*
X71546314Y-51313056D01*
X71565249Y-51145002D01*
X71565249Y-51144997D01*
X71546314Y-50976943D01*
X71527694Y-50923730D01*
X71490456Y-50817310D01*
X71490454Y-50817307D01*
X71490454Y-50817306D01*
X71438828Y-50735145D01*
X71419827Y-50667908D01*
X71440194Y-50601073D01*
X71474930Y-50566071D01*
X71490601Y-50555601D01*
X71545966Y-50472740D01*
X71560435Y-50400000D01*
X76194750Y-50400000D01*
X76204326Y-50472739D01*
X76213670Y-50543708D01*
X76213671Y-50543712D01*
X76269137Y-50677622D01*
X76269138Y-50677624D01*
X76269139Y-50677625D01*
X76357379Y-50792621D01*
X76472375Y-50880861D01*
X76606291Y-50936330D01*
X76733280Y-50953048D01*
X76749999Y-50955250D01*
X76750000Y-50955250D01*
X76750001Y-50955250D01*
X76764977Y-50953278D01*
X76893709Y-50936330D01*
X77027625Y-50880861D01*
X77142621Y-50792621D01*
X77230861Y-50677625D01*
X77286330Y-50543709D01*
X77305250Y-50400000D01*
X77286330Y-50256291D01*
X77230861Y-50122375D01*
X77142621Y-50007379D01*
X77027625Y-49919139D01*
X77027624Y-49919138D01*
X77027622Y-49919137D01*
X76893712Y-49863671D01*
X76893710Y-49863670D01*
X76893709Y-49863670D01*
X76821854Y-49854210D01*
X76750001Y-49844750D01*
X76749999Y-49844750D01*
X76606291Y-49863670D01*
X76606287Y-49863671D01*
X76472377Y-49919137D01*
X76357379Y-50007379D01*
X76269137Y-50122377D01*
X76213671Y-50256287D01*
X76213670Y-50256291D01*
X76194750Y-50400000D01*
X71560435Y-50400000D01*
X71560500Y-50399674D01*
X71560500Y-49350326D01*
X71560500Y-49350323D01*
X71560499Y-49350321D01*
X71545967Y-49277264D01*
X71545966Y-49277260D01*
X71525193Y-49246171D01*
X71490601Y-49194399D01*
X71407740Y-49139034D01*
X71407739Y-49139033D01*
X71407735Y-49139032D01*
X71334677Y-49124500D01*
X71334674Y-49124500D01*
X70285326Y-49124500D01*
X70285323Y-49124500D01*
X70212264Y-49139032D01*
X70212260Y-49139033D01*
X70129398Y-49194399D01*
X70118929Y-49210069D01*
X70065317Y-49254874D01*
X69995992Y-49263581D01*
X69949855Y-49246171D01*
X69867697Y-49194547D01*
X69867694Y-49194545D01*
X69708056Y-49138685D01*
X69540003Y-49119751D01*
X69539997Y-49119751D01*
X69371943Y-49138685D01*
X69212305Y-49194545D01*
X69212302Y-49194547D01*
X69069115Y-49284518D01*
X69069109Y-49284523D01*
X68992681Y-49360952D01*
X68931358Y-49394437D01*
X68861666Y-49389453D01*
X68817319Y-49360952D01*
X68740890Y-49284523D01*
X68740884Y-49284518D01*
X68597697Y-49194547D01*
X68597694Y-49194545D01*
X68438056Y-49138685D01*
X68270003Y-49119751D01*
X68269997Y-49119751D01*
X68101943Y-49138685D01*
X67942305Y-49194545D01*
X67942302Y-49194547D01*
X67799115Y-49284518D01*
X67799109Y-49284523D01*
X67722681Y-49360952D01*
X67661358Y-49394437D01*
X67591666Y-49389453D01*
X67547319Y-49360952D01*
X67470890Y-49284523D01*
X67470884Y-49284518D01*
X67327697Y-49194547D01*
X67327694Y-49194545D01*
X67168056Y-49138685D01*
X67000003Y-49119751D01*
X66999997Y-49119751D01*
X66831943Y-49138685D01*
X66672305Y-49194545D01*
X66672302Y-49194547D01*
X66529115Y-49284518D01*
X66529109Y-49284523D01*
X66452681Y-49360952D01*
X66391358Y-49394437D01*
X66321666Y-49389453D01*
X66277319Y-49360952D01*
X66200890Y-49284523D01*
X66200884Y-49284518D01*
X66057697Y-49194547D01*
X66057694Y-49194545D01*
X65898056Y-49138685D01*
X65730003Y-49119751D01*
X65729997Y-49119751D01*
X65561943Y-49138685D01*
X65402305Y-49194545D01*
X65402302Y-49194547D01*
X65259115Y-49284518D01*
X65259109Y-49284523D01*
X65182681Y-49360952D01*
X65121358Y-49394437D01*
X65051666Y-49389453D01*
X65007319Y-49360952D01*
X64930890Y-49284523D01*
X64930884Y-49284518D01*
X64787697Y-49194547D01*
X64787694Y-49194545D01*
X64628056Y-49138685D01*
X64460003Y-49119751D01*
X64459997Y-49119751D01*
X64291943Y-49138685D01*
X64132305Y-49194545D01*
X64132302Y-49194547D01*
X63989115Y-49284518D01*
X63989109Y-49284523D01*
X63912681Y-49360952D01*
X63851358Y-49394437D01*
X63781666Y-49389453D01*
X63737319Y-49360952D01*
X63660890Y-49284523D01*
X63660884Y-49284518D01*
X63517697Y-49194547D01*
X63517694Y-49194545D01*
X63358056Y-49138685D01*
X63190003Y-49119751D01*
X63189997Y-49119751D01*
X63021943Y-49138685D01*
X62862305Y-49194545D01*
X62862302Y-49194547D01*
X62719115Y-49284518D01*
X62719109Y-49284523D01*
X62642681Y-49360952D01*
X62581358Y-49394437D01*
X62511666Y-49389453D01*
X62467319Y-49360952D01*
X62390890Y-49284523D01*
X62390884Y-49284518D01*
X62247697Y-49194547D01*
X62247694Y-49194545D01*
X62088056Y-49138685D01*
X61920003Y-49119751D01*
X61919997Y-49119751D01*
X61751943Y-49138685D01*
X61592305Y-49194545D01*
X61592302Y-49194547D01*
X61449115Y-49284518D01*
X61449109Y-49284523D01*
X61329523Y-49404109D01*
X61329518Y-49404115D01*
X61239547Y-49547302D01*
X61239545Y-49547305D01*
X61183685Y-49706943D01*
X61164751Y-49874997D01*
X61164751Y-49875002D01*
X61183685Y-50043056D01*
X61239545Y-50202694D01*
X61239547Y-50202697D01*
X61329518Y-50345884D01*
X61329523Y-50345890D01*
X61405952Y-50422319D01*
X61439437Y-50483642D01*
X61434453Y-50553334D01*
X61405952Y-50597681D01*
X61329523Y-50674109D01*
X61329518Y-50674115D01*
X61239547Y-50817302D01*
X61239545Y-50817305D01*
X61183685Y-50976943D01*
X61164751Y-51144997D01*
X61164751Y-51145002D01*
X54879752Y-51145002D01*
X54879749Y-51144997D01*
X54789076Y-50970813D01*
X54784524Y-50961052D01*
X54638439Y-50608362D01*
X54634748Y-50598219D01*
X54621311Y-50555601D01*
X54572251Y-50400000D01*
X55444750Y-50400000D01*
X55454326Y-50472739D01*
X55463670Y-50543708D01*
X55463671Y-50543712D01*
X55519137Y-50677622D01*
X55519138Y-50677624D01*
X55519139Y-50677625D01*
X55607379Y-50792621D01*
X55722375Y-50880861D01*
X55856291Y-50936330D01*
X55983280Y-50953048D01*
X55999999Y-50955250D01*
X56000000Y-50955250D01*
X56000001Y-50955250D01*
X56014977Y-50953278D01*
X56143709Y-50936330D01*
X56277625Y-50880861D01*
X56392621Y-50792621D01*
X56480861Y-50677625D01*
X56536330Y-50543709D01*
X56555250Y-50400000D01*
X56536330Y-50256291D01*
X56480861Y-50122375D01*
X56392621Y-50007379D01*
X56277625Y-49919139D01*
X56277624Y-49919138D01*
X56277622Y-49919137D01*
X56143712Y-49863671D01*
X56143710Y-49863670D01*
X56143709Y-49863670D01*
X56071854Y-49854210D01*
X56000001Y-49844750D01*
X55999999Y-49844750D01*
X55856291Y-49863670D01*
X55856287Y-49863671D01*
X55722377Y-49919137D01*
X55607379Y-50007379D01*
X55519137Y-50122377D01*
X55463671Y-50256287D01*
X55463670Y-50256291D01*
X55444750Y-50400000D01*
X54572251Y-50400000D01*
X54519965Y-50234167D01*
X54517173Y-50223745D01*
X54434553Y-49851058D01*
X54432681Y-49840439D01*
X54382857Y-49461972D01*
X54381917Y-49451239D01*
X54365084Y-49065610D01*
X54364966Y-49060200D01*
X54364967Y-48998577D01*
X54364966Y-48998573D01*
X54364966Y-48550000D01*
X57294750Y-48550000D01*
X57313670Y-48693708D01*
X57313671Y-48693712D01*
X57369137Y-48827622D01*
X57369138Y-48827624D01*
X57369139Y-48827625D01*
X57457379Y-48942621D01*
X57572375Y-49030861D01*
X57706291Y-49086330D01*
X57833280Y-49103048D01*
X57849999Y-49105250D01*
X57850000Y-49105250D01*
X57850001Y-49105250D01*
X57864977Y-49103278D01*
X57993709Y-49086330D01*
X58127625Y-49030861D01*
X58242621Y-48942621D01*
X58330861Y-48827625D01*
X58386330Y-48693709D01*
X58405250Y-48550000D01*
X58392085Y-48450000D01*
X74344750Y-48450000D01*
X74357915Y-48550000D01*
X74363670Y-48593708D01*
X74363671Y-48593712D01*
X74419137Y-48727622D01*
X74419138Y-48727624D01*
X74419139Y-48727625D01*
X74507379Y-48842621D01*
X74622375Y-48930861D01*
X74622376Y-48930861D01*
X74622377Y-48930862D01*
X74667013Y-48949350D01*
X74756291Y-48986330D01*
X74883280Y-49003048D01*
X74899999Y-49005250D01*
X74900000Y-49005250D01*
X74900001Y-49005250D01*
X74914977Y-49003278D01*
X75043709Y-48986330D01*
X75177625Y-48930861D01*
X75292621Y-48842621D01*
X75380861Y-48727625D01*
X75436330Y-48593709D01*
X75455250Y-48450000D01*
X75436330Y-48306291D01*
X75380861Y-48172375D01*
X75292621Y-48057379D01*
X75292619Y-48057378D01*
X75292619Y-48057377D01*
X75212267Y-47995721D01*
X75183145Y-47973374D01*
X75141943Y-47916948D01*
X75137788Y-47847202D01*
X75172000Y-47786282D01*
X75183145Y-47776625D01*
X75292621Y-47692621D01*
X75380861Y-47577625D01*
X75436330Y-47443709D01*
X75455250Y-47300000D01*
X75448667Y-47250000D01*
X75744750Y-47250000D01*
X75763670Y-47393708D01*
X75763671Y-47393712D01*
X75819137Y-47527622D01*
X75819138Y-47527624D01*
X75819139Y-47527625D01*
X75907379Y-47642621D01*
X76022375Y-47730861D01*
X76156291Y-47786330D01*
X76283280Y-47803048D01*
X76299999Y-47805250D01*
X76300000Y-47805250D01*
X76300001Y-47805250D01*
X76314977Y-47803278D01*
X76443709Y-47786330D01*
X76577625Y-47730861D01*
X76692621Y-47642621D01*
X76780861Y-47527625D01*
X76836330Y-47393709D01*
X76855250Y-47250000D01*
X76836330Y-47106291D01*
X76780861Y-46972375D01*
X76692621Y-46857379D01*
X76577625Y-46769139D01*
X76577624Y-46769138D01*
X76577622Y-46769137D01*
X76443712Y-46713671D01*
X76443710Y-46713670D01*
X76443709Y-46713670D01*
X76371854Y-46704210D01*
X76300001Y-46694750D01*
X76299999Y-46694750D01*
X76156291Y-46713670D01*
X76156287Y-46713671D01*
X76022377Y-46769137D01*
X75907379Y-46857379D01*
X75819137Y-46972377D01*
X75763671Y-47106287D01*
X75763670Y-47106291D01*
X75744750Y-47249999D01*
X75744750Y-47250000D01*
X75448667Y-47250000D01*
X75436330Y-47156291D01*
X75380861Y-47022375D01*
X75292621Y-46907379D01*
X75177625Y-46819139D01*
X75106213Y-46789559D01*
X75051813Y-46745721D01*
X75029747Y-46679427D01*
X75047026Y-46611728D01*
X75098162Y-46564117D01*
X75106189Y-46560450D01*
X75177625Y-46530861D01*
X75292621Y-46442621D01*
X75380861Y-46327625D01*
X75436330Y-46193709D01*
X75455250Y-46050000D01*
X75436330Y-45906291D01*
X75380861Y-45772375D01*
X75292621Y-45657379D01*
X75177625Y-45569139D01*
X75106213Y-45539559D01*
X75051813Y-45495721D01*
X75029747Y-45429427D01*
X75047026Y-45361728D01*
X75098162Y-45314117D01*
X75106189Y-45310450D01*
X75177625Y-45280861D01*
X75292621Y-45192621D01*
X75380861Y-45077625D01*
X75436330Y-44943709D01*
X75455250Y-44800000D01*
X75436330Y-44656291D01*
X75380861Y-44522375D01*
X75292621Y-44407379D01*
X75177625Y-44319139D01*
X75106213Y-44289559D01*
X75051813Y-44245721D01*
X75029747Y-44179427D01*
X75047026Y-44111728D01*
X75098162Y-44064117D01*
X75106189Y-44060450D01*
X75177625Y-44030861D01*
X75292621Y-43942621D01*
X75380861Y-43827625D01*
X75436330Y-43693709D01*
X75455250Y-43550000D01*
X75436330Y-43406291D01*
X75386641Y-43286329D01*
X75380862Y-43272377D01*
X75380861Y-43272376D01*
X75380861Y-43272375D01*
X75292621Y-43157379D01*
X75177625Y-43069139D01*
X75177624Y-43069138D01*
X75177622Y-43069137D01*
X75043712Y-43013671D01*
X75043710Y-43013670D01*
X75043709Y-43013670D01*
X74971854Y-43004210D01*
X74900001Y-42994750D01*
X74899999Y-42994750D01*
X74756291Y-43013670D01*
X74756287Y-43013671D01*
X74622377Y-43069137D01*
X74507379Y-43157379D01*
X74419137Y-43272377D01*
X74363671Y-43406287D01*
X74363670Y-43406291D01*
X74344750Y-43549999D01*
X74344750Y-43550000D01*
X74363670Y-43693708D01*
X74363671Y-43693712D01*
X74419137Y-43827622D01*
X74419138Y-43827624D01*
X74419139Y-43827625D01*
X74507379Y-43942621D01*
X74622375Y-44030861D01*
X74622376Y-44030861D01*
X74622377Y-44030862D01*
X74693783Y-44060439D01*
X74748187Y-44104279D01*
X74770252Y-44170573D01*
X74752973Y-44238273D01*
X74701836Y-44285884D01*
X74693783Y-44289561D01*
X74622377Y-44319137D01*
X74507379Y-44407379D01*
X74419137Y-44522377D01*
X74363671Y-44656287D01*
X74363670Y-44656291D01*
X74344750Y-44800000D01*
X74361552Y-44927625D01*
X74363670Y-44943708D01*
X74363671Y-44943712D01*
X74419137Y-45077622D01*
X74419138Y-45077624D01*
X74419139Y-45077625D01*
X74507379Y-45192621D01*
X74622375Y-45280861D01*
X74622376Y-45280861D01*
X74622377Y-45280862D01*
X74693783Y-45310439D01*
X74748187Y-45354279D01*
X74770252Y-45420573D01*
X74752973Y-45488273D01*
X74701836Y-45535884D01*
X74693783Y-45539561D01*
X74622377Y-45569137D01*
X74507379Y-45657379D01*
X74419137Y-45772377D01*
X74363671Y-45906287D01*
X74363670Y-45906291D01*
X74344750Y-46049999D01*
X74344750Y-46050000D01*
X74363670Y-46193708D01*
X74363671Y-46193712D01*
X74419137Y-46327622D01*
X74419138Y-46327624D01*
X74419139Y-46327625D01*
X74507379Y-46442621D01*
X74622375Y-46530861D01*
X74622376Y-46530861D01*
X74622377Y-46530862D01*
X74693783Y-46560439D01*
X74748187Y-46604279D01*
X74770252Y-46670573D01*
X74752973Y-46738273D01*
X74701836Y-46785884D01*
X74693783Y-46789561D01*
X74622377Y-46819137D01*
X74507379Y-46907379D01*
X74419137Y-47022377D01*
X74363671Y-47156287D01*
X74363670Y-47156291D01*
X74344750Y-47299999D01*
X74344750Y-47300000D01*
X74363670Y-47443708D01*
X74363671Y-47443712D01*
X74419137Y-47577622D01*
X74419138Y-47577624D01*
X74419139Y-47577625D01*
X74507379Y-47692621D01*
X74567764Y-47738956D01*
X74616854Y-47776625D01*
X74658056Y-47833053D01*
X74662211Y-47902799D01*
X74627998Y-47963719D01*
X74616854Y-47973375D01*
X74507381Y-48057377D01*
X74507380Y-48057378D01*
X74507379Y-48057379D01*
X74463259Y-48114877D01*
X74419137Y-48172377D01*
X74363671Y-48306287D01*
X74363670Y-48306291D01*
X74350505Y-48406291D01*
X74344750Y-48450000D01*
X58392085Y-48450000D01*
X58386330Y-48406291D01*
X58330861Y-48272375D01*
X58242621Y-48157379D01*
X58127625Y-48069139D01*
X58056213Y-48039559D01*
X58001813Y-47995721D01*
X57979747Y-47929427D01*
X57997026Y-47861728D01*
X58048162Y-47814117D01*
X58056189Y-47810450D01*
X58127625Y-47780861D01*
X58242621Y-47692621D01*
X58330861Y-47577625D01*
X58386330Y-47443709D01*
X58405250Y-47300000D01*
X58386330Y-47156291D01*
X58330861Y-47022375D01*
X58242621Y-46907379D01*
X58127625Y-46819139D01*
X58056213Y-46789559D01*
X58001813Y-46745721D01*
X57979747Y-46679427D01*
X57997026Y-46611728D01*
X58048162Y-46564117D01*
X58056189Y-46560450D01*
X58127625Y-46530861D01*
X58242621Y-46442621D01*
X58330861Y-46327625D01*
X58386330Y-46193709D01*
X58405250Y-46050000D01*
X58386330Y-45906291D01*
X58330861Y-45772375D01*
X58242621Y-45657379D01*
X58127625Y-45569139D01*
X58056213Y-45539559D01*
X58001813Y-45495721D01*
X57979747Y-45429427D01*
X57997026Y-45361728D01*
X58048162Y-45314117D01*
X58056189Y-45310450D01*
X58127625Y-45280861D01*
X58242621Y-45192621D01*
X58330861Y-45077625D01*
X58386330Y-44943709D01*
X58405250Y-44800000D01*
X58386330Y-44656291D01*
X58383724Y-44650000D01*
X66444750Y-44650000D01*
X66463670Y-44793708D01*
X66463671Y-44793712D01*
X66519137Y-44927622D01*
X66519138Y-44927624D01*
X66519139Y-44927625D01*
X66607379Y-45042621D01*
X66722375Y-45130861D01*
X66856291Y-45186330D01*
X66983280Y-45203048D01*
X66999999Y-45205250D01*
X67000000Y-45205250D01*
X67000001Y-45205250D01*
X67014977Y-45203278D01*
X67143709Y-45186330D01*
X67277625Y-45130861D01*
X67392621Y-45042621D01*
X67480861Y-44927625D01*
X67536330Y-44793709D01*
X67555250Y-44650000D01*
X67536330Y-44506291D01*
X67480861Y-44372375D01*
X67392621Y-44257379D01*
X67277625Y-44169139D01*
X67277624Y-44169138D01*
X67277622Y-44169137D01*
X67143712Y-44113671D01*
X67143710Y-44113670D01*
X67143709Y-44113670D01*
X67071854Y-44104210D01*
X67000001Y-44094750D01*
X66999999Y-44094750D01*
X66856291Y-44113670D01*
X66856287Y-44113671D01*
X66722377Y-44169137D01*
X66607379Y-44257379D01*
X66519137Y-44372377D01*
X66463671Y-44506287D01*
X66463670Y-44506291D01*
X66444750Y-44649999D01*
X66444750Y-44650000D01*
X58383724Y-44650000D01*
X58330861Y-44522375D01*
X58242621Y-44407379D01*
X58127625Y-44319139D01*
X58056213Y-44289559D01*
X58001813Y-44245721D01*
X57979747Y-44179427D01*
X57997026Y-44111728D01*
X58048162Y-44064117D01*
X58056189Y-44060450D01*
X58127625Y-44030861D01*
X58242621Y-43942621D01*
X58330861Y-43827625D01*
X58386330Y-43693709D01*
X58405250Y-43550000D01*
X58394278Y-43466661D01*
X61836892Y-43466661D01*
X61850692Y-43475333D01*
X61850691Y-43475333D01*
X62020861Y-43534878D01*
X62199997Y-43555062D01*
X62200003Y-43555062D01*
X62379138Y-43534878D01*
X62379141Y-43534877D01*
X62549305Y-43475334D01*
X62549306Y-43475334D01*
X62563106Y-43466661D01*
X62563106Y-43466660D01*
X62200001Y-43103553D01*
X62200000Y-43103553D01*
X61836892Y-43466660D01*
X61836892Y-43466661D01*
X58394278Y-43466661D01*
X58386330Y-43406291D01*
X58336641Y-43286329D01*
X58330862Y-43272377D01*
X58330861Y-43272376D01*
X58330861Y-43272375D01*
X58242621Y-43157379D01*
X58127625Y-43069139D01*
X58127624Y-43069138D01*
X58127622Y-43069137D01*
X57993712Y-43013671D01*
X57993710Y-43013670D01*
X57993709Y-43013670D01*
X57921854Y-43004210D01*
X57850001Y-42994750D01*
X57849999Y-42994750D01*
X57706291Y-43013670D01*
X57706287Y-43013671D01*
X57572377Y-43069137D01*
X57457379Y-43157379D01*
X57369137Y-43272377D01*
X57313671Y-43406287D01*
X57313670Y-43406291D01*
X57294750Y-43549999D01*
X57294750Y-43550000D01*
X57313670Y-43693708D01*
X57313671Y-43693712D01*
X57369137Y-43827622D01*
X57369138Y-43827624D01*
X57369139Y-43827625D01*
X57457379Y-43942621D01*
X57572375Y-44030861D01*
X57572376Y-44030861D01*
X57572377Y-44030862D01*
X57643783Y-44060439D01*
X57698187Y-44104279D01*
X57720252Y-44170573D01*
X57702973Y-44238273D01*
X57651836Y-44285884D01*
X57643783Y-44289561D01*
X57572377Y-44319137D01*
X57457379Y-44407379D01*
X57369137Y-44522377D01*
X57313671Y-44656287D01*
X57313670Y-44656291D01*
X57294750Y-44800000D01*
X57311552Y-44927625D01*
X57313670Y-44943708D01*
X57313671Y-44943712D01*
X57369137Y-45077622D01*
X57369138Y-45077624D01*
X57369139Y-45077625D01*
X57457379Y-45192621D01*
X57572375Y-45280861D01*
X57572376Y-45280861D01*
X57572377Y-45280862D01*
X57643783Y-45310439D01*
X57698187Y-45354279D01*
X57720252Y-45420573D01*
X57702973Y-45488273D01*
X57651836Y-45535884D01*
X57643783Y-45539561D01*
X57572377Y-45569137D01*
X57457379Y-45657379D01*
X57369137Y-45772377D01*
X57313671Y-45906287D01*
X57313670Y-45906291D01*
X57294750Y-46049999D01*
X57294750Y-46050000D01*
X57313670Y-46193708D01*
X57313671Y-46193712D01*
X57369137Y-46327622D01*
X57369138Y-46327624D01*
X57369139Y-46327625D01*
X57457379Y-46442621D01*
X57572375Y-46530861D01*
X57572376Y-46530861D01*
X57572377Y-46530862D01*
X57643783Y-46560439D01*
X57698187Y-46604279D01*
X57720252Y-46670573D01*
X57702973Y-46738273D01*
X57651836Y-46785884D01*
X57643783Y-46789561D01*
X57572377Y-46819137D01*
X57457379Y-46907379D01*
X57369137Y-47022377D01*
X57313671Y-47156287D01*
X57313670Y-47156291D01*
X57294750Y-47299999D01*
X57294750Y-47300000D01*
X57313670Y-47443708D01*
X57313671Y-47443712D01*
X57369137Y-47577622D01*
X57369138Y-47577624D01*
X57369139Y-47577625D01*
X57457379Y-47692621D01*
X57572375Y-47780861D01*
X57572376Y-47780861D01*
X57572377Y-47780862D01*
X57643783Y-47810439D01*
X57698187Y-47854279D01*
X57720252Y-47920573D01*
X57702973Y-47988273D01*
X57651836Y-48035884D01*
X57643783Y-48039561D01*
X57572377Y-48069137D01*
X57457379Y-48157379D01*
X57369137Y-48272377D01*
X57313671Y-48406287D01*
X57313670Y-48406291D01*
X57294750Y-48549999D01*
X57294750Y-48550000D01*
X54364966Y-48550000D01*
X54364966Y-42750002D01*
X61394938Y-42750002D01*
X61415121Y-42929138D01*
X61474665Y-43099304D01*
X61483338Y-43113107D01*
X61816609Y-42779837D01*
X62050000Y-42779837D01*
X62072836Y-42834968D01*
X62115032Y-42877164D01*
X62170163Y-42900000D01*
X62229837Y-42900000D01*
X62284968Y-42877164D01*
X62327164Y-42834968D01*
X62350000Y-42779837D01*
X62350000Y-42750000D01*
X62553553Y-42750000D01*
X62918100Y-43114546D01*
X62981355Y-43125628D01*
X63001900Y-43138416D01*
X63007377Y-43142619D01*
X63007379Y-43142621D01*
X63122375Y-43230861D01*
X63256291Y-43286330D01*
X63383280Y-43303048D01*
X63399999Y-43305250D01*
X63400000Y-43305250D01*
X63400001Y-43305250D01*
X63414977Y-43303278D01*
X63543709Y-43286330D01*
X63677625Y-43230861D01*
X63792621Y-43142621D01*
X63880861Y-43027625D01*
X63936330Y-42893709D01*
X63938030Y-42880793D01*
X69618233Y-42880793D01*
X69637153Y-43024501D01*
X69637154Y-43024505D01*
X69692620Y-43158415D01*
X69692621Y-43158417D01*
X69692622Y-43158418D01*
X69780066Y-43272377D01*
X69780864Y-43273416D01*
X69805019Y-43291951D01*
X69846221Y-43348380D01*
X69850375Y-43418126D01*
X69844093Y-43437777D01*
X69828537Y-43475334D01*
X69810865Y-43517999D01*
X69791945Y-43661708D01*
X69796158Y-43693712D01*
X69810865Y-43805416D01*
X69810866Y-43805420D01*
X69866332Y-43939330D01*
X69866333Y-43939332D01*
X69866334Y-43939333D01*
X69954574Y-44054329D01*
X70069570Y-44142569D01*
X70203486Y-44198038D01*
X70330475Y-44214756D01*
X70347194Y-44216958D01*
X70347195Y-44216958D01*
X70347196Y-44216958D01*
X70362172Y-44214986D01*
X70490904Y-44198038D01*
X70624820Y-44142569D01*
X70739816Y-44054329D01*
X70828056Y-43939333D01*
X70883525Y-43805417D01*
X70902445Y-43661708D01*
X70883525Y-43517999D01*
X70828056Y-43384083D01*
X70739816Y-43269087D01*
X70739813Y-43269085D01*
X70739812Y-43269083D01*
X70715660Y-43250551D01*
X70674457Y-43194123D01*
X70670302Y-43124377D01*
X70676585Y-43104723D01*
X70708519Y-43027625D01*
X70709813Y-43024502D01*
X70728733Y-42880793D01*
X70709813Y-42737084D01*
X70654344Y-42603168D01*
X70566104Y-42488172D01*
X70451108Y-42399932D01*
X70451107Y-42399931D01*
X70451105Y-42399930D01*
X70317195Y-42344464D01*
X70317193Y-42344463D01*
X70317192Y-42344463D01*
X70245337Y-42335003D01*
X70173484Y-42325543D01*
X70173482Y-42325543D01*
X70029774Y-42344463D01*
X70029770Y-42344464D01*
X69895860Y-42399930D01*
X69780862Y-42488172D01*
X69692620Y-42603170D01*
X69637154Y-42737080D01*
X69637153Y-42737084D01*
X69618233Y-42880792D01*
X69618233Y-42880793D01*
X63938030Y-42880793D01*
X63955250Y-42750000D01*
X63936330Y-42606291D01*
X63880861Y-42472375D01*
X63792621Y-42357379D01*
X63677625Y-42269139D01*
X63677624Y-42269138D01*
X63677622Y-42269137D01*
X63543712Y-42213671D01*
X63543710Y-42213670D01*
X63543709Y-42213670D01*
X63471854Y-42204210D01*
X63400001Y-42194750D01*
X63399999Y-42194750D01*
X63256291Y-42213670D01*
X63256287Y-42213671D01*
X63122376Y-42269138D01*
X63122374Y-42269139D01*
X63001901Y-42361582D01*
X62936732Y-42386776D01*
X62917060Y-42386492D01*
X62553553Y-42750000D01*
X62350000Y-42750000D01*
X62350000Y-42720163D01*
X62327164Y-42665032D01*
X62284968Y-42622836D01*
X62229837Y-42600000D01*
X62170163Y-42600000D01*
X62115032Y-42622836D01*
X62072836Y-42665032D01*
X62050000Y-42720163D01*
X62050000Y-42779837D01*
X61816609Y-42779837D01*
X61846446Y-42750000D01*
X61846446Y-42749999D01*
X61483338Y-42386891D01*
X61483337Y-42386891D01*
X61474667Y-42400691D01*
X61474662Y-42400701D01*
X61415122Y-42570858D01*
X61415121Y-42570861D01*
X61394938Y-42749997D01*
X61394938Y-42750002D01*
X54364966Y-42750002D01*
X54364966Y-41700000D01*
X55837631Y-41700000D01*
X55856551Y-41843708D01*
X55856552Y-41843712D01*
X55912018Y-41977622D01*
X55912019Y-41977624D01*
X55912020Y-41977625D01*
X56000260Y-42092621D01*
X56115256Y-42180861D01*
X56115257Y-42180861D01*
X56115258Y-42180862D01*
X56159894Y-42199350D01*
X56249172Y-42236330D01*
X56376161Y-42253048D01*
X56392880Y-42255250D01*
X56392881Y-42255250D01*
X56392882Y-42255250D01*
X56407858Y-42253278D01*
X56536590Y-42236330D01*
X56670506Y-42180861D01*
X56785502Y-42092621D01*
X56830992Y-42033338D01*
X61836891Y-42033338D01*
X62200000Y-42396446D01*
X62200001Y-42396446D01*
X62563107Y-42033338D01*
X62549304Y-42024665D01*
X62379138Y-41965121D01*
X62200003Y-41944938D01*
X62199997Y-41944938D01*
X62020861Y-41965121D01*
X62020858Y-41965122D01*
X61850701Y-42024662D01*
X61850691Y-42024667D01*
X61836891Y-42033337D01*
X61836891Y-42033338D01*
X56830992Y-42033338D01*
X56873742Y-41977625D01*
X56929211Y-41843709D01*
X56941548Y-41750000D01*
X70494750Y-41750000D01*
X70513670Y-41893708D01*
X70513671Y-41893712D01*
X70569137Y-42027622D01*
X70569138Y-42027624D01*
X70569139Y-42027625D01*
X70657379Y-42142621D01*
X70772375Y-42230861D01*
X70772376Y-42230861D01*
X70772377Y-42230862D01*
X70817013Y-42249350D01*
X70906291Y-42286330D01*
X71033280Y-42303048D01*
X71049999Y-42305250D01*
X71050000Y-42305250D01*
X71050001Y-42305250D01*
X71064977Y-42303278D01*
X71193709Y-42286330D01*
X71327625Y-42230861D01*
X71442621Y-42142621D01*
X71530861Y-42027625D01*
X71586330Y-41893709D01*
X71605250Y-41750000D01*
X71598667Y-41700000D01*
X76194750Y-41700000D01*
X76213670Y-41843708D01*
X76213671Y-41843712D01*
X76269137Y-41977622D01*
X76269138Y-41977624D01*
X76269139Y-41977625D01*
X76357379Y-42092621D01*
X76472375Y-42180861D01*
X76472376Y-42180861D01*
X76472377Y-42180862D01*
X76517013Y-42199350D01*
X76606291Y-42236330D01*
X76733280Y-42253048D01*
X76749999Y-42255250D01*
X76750000Y-42255250D01*
X76750001Y-42255250D01*
X76764977Y-42253278D01*
X76893709Y-42236330D01*
X77027625Y-42180861D01*
X77142621Y-42092621D01*
X77230861Y-41977625D01*
X77286330Y-41843709D01*
X77305250Y-41700000D01*
X77286330Y-41556291D01*
X77230861Y-41422375D01*
X77142621Y-41307379D01*
X77027625Y-41219139D01*
X77027624Y-41219138D01*
X77027622Y-41219137D01*
X76893712Y-41163671D01*
X76893710Y-41163670D01*
X76893709Y-41163670D01*
X76821854Y-41154210D01*
X76750001Y-41144750D01*
X76749999Y-41144750D01*
X76606291Y-41163670D01*
X76606287Y-41163671D01*
X76472377Y-41219137D01*
X76357379Y-41307379D01*
X76269137Y-41422377D01*
X76213671Y-41556287D01*
X76213670Y-41556291D01*
X76194750Y-41699999D01*
X76194750Y-41700000D01*
X71598667Y-41700000D01*
X71586330Y-41606291D01*
X71530861Y-41472375D01*
X71442621Y-41357379D01*
X71327625Y-41269139D01*
X71327624Y-41269138D01*
X71327622Y-41269137D01*
X71193712Y-41213671D01*
X71193710Y-41213670D01*
X71193709Y-41213670D01*
X71121854Y-41204210D01*
X71050001Y-41194750D01*
X71049999Y-41194750D01*
X70906291Y-41213670D01*
X70906287Y-41213671D01*
X70772377Y-41269137D01*
X70657379Y-41357379D01*
X70569137Y-41472377D01*
X70513671Y-41606287D01*
X70513670Y-41606291D01*
X70494750Y-41749999D01*
X70494750Y-41750000D01*
X56941548Y-41750000D01*
X56948131Y-41700000D01*
X56929211Y-41556291D01*
X56873742Y-41422375D01*
X56785502Y-41307379D01*
X56670506Y-41219139D01*
X56670505Y-41219138D01*
X56670503Y-41219137D01*
X56536593Y-41163671D01*
X56536591Y-41163670D01*
X56536590Y-41163670D01*
X56464735Y-41154210D01*
X56392882Y-41144750D01*
X56392880Y-41144750D01*
X56249172Y-41163670D01*
X56249168Y-41163671D01*
X56115258Y-41219137D01*
X56000260Y-41307379D01*
X55912018Y-41422377D01*
X55856552Y-41556287D01*
X55856551Y-41556291D01*
X55837631Y-41699999D01*
X55837631Y-41700000D01*
X54364966Y-41700000D01*
X54364966Y-40130000D01*
X64844750Y-40130000D01*
X64863670Y-40273708D01*
X64863671Y-40273712D01*
X64919137Y-40407622D01*
X64919138Y-40407624D01*
X64919139Y-40407625D01*
X65007379Y-40522621D01*
X65122375Y-40610861D01*
X65256291Y-40666330D01*
X65383280Y-40683048D01*
X65399999Y-40685250D01*
X65400000Y-40685250D01*
X65400001Y-40685250D01*
X65414977Y-40683278D01*
X65543709Y-40666330D01*
X65677625Y-40610861D01*
X65792621Y-40522621D01*
X65880861Y-40407625D01*
X65936330Y-40273709D01*
X65955250Y-40130000D01*
X65953763Y-40118709D01*
X65953048Y-40113280D01*
X65936330Y-39986291D01*
X65931653Y-39975000D01*
X68744750Y-39975000D01*
X68763670Y-40118708D01*
X68763671Y-40118712D01*
X68819137Y-40252622D01*
X68819138Y-40252624D01*
X68819139Y-40252625D01*
X68907379Y-40367621D01*
X69022375Y-40455861D01*
X69156291Y-40511330D01*
X69283280Y-40528048D01*
X69299999Y-40530250D01*
X69300000Y-40530250D01*
X69300001Y-40530250D01*
X69314977Y-40528278D01*
X69443709Y-40511330D01*
X69577625Y-40455861D01*
X69692621Y-40367621D01*
X69780861Y-40252625D01*
X69836330Y-40118709D01*
X69855250Y-39975000D01*
X69836330Y-39831291D01*
X69780861Y-39697375D01*
X69692621Y-39582379D01*
X69577625Y-39494139D01*
X69577624Y-39494138D01*
X69577622Y-39494137D01*
X69443712Y-39438671D01*
X69443710Y-39438670D01*
X69443709Y-39438670D01*
X69371854Y-39429210D01*
X69300001Y-39419750D01*
X69299999Y-39419750D01*
X69156291Y-39438670D01*
X69156287Y-39438671D01*
X69022377Y-39494137D01*
X68907379Y-39582379D01*
X68819137Y-39697377D01*
X68763671Y-39831287D01*
X68763670Y-39831291D01*
X68744750Y-39974999D01*
X68744750Y-39975000D01*
X65931653Y-39975000D01*
X65880861Y-39852375D01*
X65792621Y-39737379D01*
X65677625Y-39649139D01*
X65677624Y-39649138D01*
X65677622Y-39649137D01*
X65543712Y-39593671D01*
X65543710Y-39593670D01*
X65543709Y-39593670D01*
X65457947Y-39582379D01*
X65400001Y-39574750D01*
X65399999Y-39574750D01*
X65256291Y-39593670D01*
X65256287Y-39593671D01*
X65122377Y-39649137D01*
X65007379Y-39737379D01*
X64919137Y-39852377D01*
X64863671Y-39986287D01*
X64863670Y-39986291D01*
X64844750Y-40129999D01*
X64844750Y-40130000D01*
X54364966Y-40130000D01*
X54364966Y-37125000D01*
X57294750Y-37125000D01*
X57299601Y-37161850D01*
X57313670Y-37268708D01*
X57313671Y-37268712D01*
X57369137Y-37402622D01*
X57369138Y-37402624D01*
X57369139Y-37402625D01*
X57457379Y-37517621D01*
X57572375Y-37605861D01*
X57706291Y-37661330D01*
X57833280Y-37678048D01*
X57849999Y-37680250D01*
X57850000Y-37680250D01*
X57850001Y-37680250D01*
X57864977Y-37678278D01*
X57993709Y-37661330D01*
X58127625Y-37605861D01*
X58242621Y-37517621D01*
X58330861Y-37402625D01*
X58386330Y-37268709D01*
X58388793Y-37250000D01*
X60794750Y-37250000D01*
X60813600Y-37393181D01*
X60813670Y-37393708D01*
X60813671Y-37393712D01*
X60869137Y-37527622D01*
X60869138Y-37527624D01*
X60869139Y-37527625D01*
X60957379Y-37642621D01*
X61072375Y-37730861D01*
X61206291Y-37786330D01*
X61333280Y-37803048D01*
X61349999Y-37805250D01*
X61350000Y-37805250D01*
X61350001Y-37805250D01*
X61364977Y-37803278D01*
X61493709Y-37786330D01*
X61627625Y-37730861D01*
X61742621Y-37642621D01*
X61830861Y-37527625D01*
X61886330Y-37393709D01*
X61888657Y-37376031D01*
X61916923Y-37312135D01*
X61975247Y-37273663D01*
X62045112Y-37272831D01*
X62092702Y-37300686D01*
X62093235Y-37299992D01*
X62098764Y-37304235D01*
X62099277Y-37304535D01*
X62099677Y-37304935D01*
X62099679Y-37304937D01*
X62099682Y-37304940D01*
X62214678Y-37393180D01*
X62214679Y-37393180D01*
X62214680Y-37393181D01*
X62252867Y-37408998D01*
X62348594Y-37448649D01*
X62475583Y-37465367D01*
X62492302Y-37467569D01*
X62492303Y-37467569D01*
X62492304Y-37467569D01*
X62515582Y-37464504D01*
X62622193Y-37450468D01*
X62691226Y-37461233D01*
X62743482Y-37507613D01*
X62762368Y-37574882D01*
X62761316Y-37589592D01*
X62748542Y-37686623D01*
X62746781Y-37700000D01*
X62755883Y-37769139D01*
X62765701Y-37843708D01*
X62765702Y-37843712D01*
X62821168Y-37977622D01*
X62821169Y-37977624D01*
X62821170Y-37977625D01*
X62909410Y-38092621D01*
X63024406Y-38180861D01*
X63158322Y-38236330D01*
X63285311Y-38253048D01*
X63302030Y-38255250D01*
X63302031Y-38255250D01*
X63302032Y-38255250D01*
X63317008Y-38253278D01*
X63341907Y-38250000D01*
X69594750Y-38250000D01*
X69613670Y-38393708D01*
X69613671Y-38393712D01*
X69669137Y-38527622D01*
X69669138Y-38527624D01*
X69669139Y-38527625D01*
X69757379Y-38642621D01*
X69872375Y-38730861D01*
X70006291Y-38786330D01*
X70133280Y-38803048D01*
X70149999Y-38805250D01*
X70150000Y-38805250D01*
X70150001Y-38805250D01*
X70164977Y-38803278D01*
X70293709Y-38786330D01*
X70427625Y-38730861D01*
X70524515Y-38656514D01*
X70589682Y-38631321D01*
X70658127Y-38645359D01*
X70675480Y-38656510D01*
X70772375Y-38730861D01*
X70906291Y-38786330D01*
X71033280Y-38803048D01*
X71049999Y-38805250D01*
X71050000Y-38805250D01*
X71050001Y-38805250D01*
X71064977Y-38803278D01*
X71193709Y-38786330D01*
X71327625Y-38730861D01*
X71442621Y-38642621D01*
X71530861Y-38527625D01*
X71586330Y-38393709D01*
X71605250Y-38250000D01*
X71586330Y-38106291D01*
X71530861Y-37972375D01*
X71442621Y-37857379D01*
X71327625Y-37769139D01*
X71327624Y-37769138D01*
X71327622Y-37769137D01*
X71193712Y-37713671D01*
X71193710Y-37713670D01*
X71193709Y-37713670D01*
X71089877Y-37700000D01*
X71050001Y-37694750D01*
X71049999Y-37694750D01*
X70906291Y-37713670D01*
X70906287Y-37713671D01*
X70772377Y-37769137D01*
X70749971Y-37786330D01*
X70675484Y-37843485D01*
X70610318Y-37868679D01*
X70541873Y-37854641D01*
X70524519Y-37843489D01*
X70427625Y-37769139D01*
X70427624Y-37769138D01*
X70427622Y-37769137D01*
X70293712Y-37713671D01*
X70293710Y-37713670D01*
X70293709Y-37713670D01*
X70189877Y-37700000D01*
X70150001Y-37694750D01*
X70149999Y-37694750D01*
X70006291Y-37713670D01*
X70006287Y-37713671D01*
X69872377Y-37769137D01*
X69757379Y-37857379D01*
X69669137Y-37972377D01*
X69613671Y-38106287D01*
X69613670Y-38106291D01*
X69594750Y-38249999D01*
X69594750Y-38250000D01*
X63341907Y-38250000D01*
X63445740Y-38236330D01*
X63579656Y-38180861D01*
X63692584Y-38094207D01*
X63757752Y-38069013D01*
X63815523Y-38078022D01*
X63822372Y-38080859D01*
X63822375Y-38080861D01*
X63956291Y-38136330D01*
X64083280Y-38153048D01*
X64099999Y-38155250D01*
X64100000Y-38155250D01*
X64100001Y-38155250D01*
X64114977Y-38153278D01*
X64243709Y-38136330D01*
X64377625Y-38080861D01*
X64492621Y-37992621D01*
X64580861Y-37877625D01*
X64636330Y-37743709D01*
X64636330Y-37743703D01*
X64638587Y-37738256D01*
X64682428Y-37683852D01*
X64736964Y-37662768D01*
X64739253Y-37662466D01*
X64739256Y-37662467D01*
X64882965Y-37643547D01*
X65016881Y-37588078D01*
X65131877Y-37499838D01*
X65131885Y-37499826D01*
X65131895Y-37499819D01*
X65137624Y-37494091D01*
X65138517Y-37494984D01*
X65188310Y-37458623D01*
X65258056Y-37454465D01*
X65318977Y-37488674D01*
X65348977Y-37545198D01*
X65350254Y-37544857D01*
X65352358Y-37552710D01*
X65407824Y-37686620D01*
X65407825Y-37686622D01*
X65407826Y-37686623D01*
X65496066Y-37801619D01*
X65611062Y-37889859D01*
X65744978Y-37945328D01*
X65871967Y-37962046D01*
X65888686Y-37964248D01*
X65888687Y-37964248D01*
X65888688Y-37964248D01*
X65903664Y-37962276D01*
X66032396Y-37945328D01*
X66166312Y-37889859D01*
X66252058Y-37824063D01*
X66317225Y-37798870D01*
X66385670Y-37812908D01*
X66403030Y-37824065D01*
X66511454Y-37907263D01*
X66511455Y-37907263D01*
X66511456Y-37907264D01*
X66645372Y-37962733D01*
X66772361Y-37979451D01*
X66789080Y-37981653D01*
X66789081Y-37981653D01*
X66789082Y-37981653D01*
X66804058Y-37979681D01*
X66932790Y-37962733D01*
X67066706Y-37907264D01*
X67181702Y-37819024D01*
X67269942Y-37704028D01*
X67325411Y-37570112D01*
X67344331Y-37426403D01*
X67337982Y-37378180D01*
X67348747Y-37309147D01*
X67395126Y-37256891D01*
X67413469Y-37247435D01*
X67433377Y-37239188D01*
X67477625Y-37220861D01*
X67592621Y-37132621D01*
X67598469Y-37125000D01*
X74394750Y-37125000D01*
X74399601Y-37161850D01*
X74413670Y-37268708D01*
X74413671Y-37268712D01*
X74469137Y-37402622D01*
X74469138Y-37402624D01*
X74469139Y-37402625D01*
X74557379Y-37517621D01*
X74672375Y-37605861D01*
X74806291Y-37661330D01*
X74933280Y-37678048D01*
X74949999Y-37680250D01*
X74950000Y-37680250D01*
X74950001Y-37680250D01*
X74964977Y-37678278D01*
X75093709Y-37661330D01*
X75227625Y-37605861D01*
X75342621Y-37517621D01*
X75430861Y-37402625D01*
X75486330Y-37268709D01*
X75505250Y-37125000D01*
X75486330Y-36981291D01*
X75435172Y-36857783D01*
X75430862Y-36847377D01*
X75430861Y-36847376D01*
X75430861Y-36847375D01*
X75342621Y-36732379D01*
X75227625Y-36644139D01*
X75156213Y-36614559D01*
X75101813Y-36570721D01*
X75079747Y-36504427D01*
X75097026Y-36436728D01*
X75148162Y-36389117D01*
X75156189Y-36385450D01*
X75227625Y-36355861D01*
X75342621Y-36267621D01*
X75430861Y-36152625D01*
X75486330Y-36018709D01*
X75505250Y-35875000D01*
X75486330Y-35731291D01*
X75449350Y-35642013D01*
X75430862Y-35597377D01*
X75430861Y-35597376D01*
X75430861Y-35597375D01*
X75342621Y-35482379D01*
X75227625Y-35394139D01*
X75156213Y-35364559D01*
X75101813Y-35320721D01*
X75079747Y-35254427D01*
X75097026Y-35186728D01*
X75148162Y-35139117D01*
X75156189Y-35135450D01*
X75227625Y-35105861D01*
X75342621Y-35017621D01*
X75430861Y-34902625D01*
X75486330Y-34768709D01*
X75505250Y-34625000D01*
X75486330Y-34481291D01*
X75430861Y-34347375D01*
X75342621Y-34232379D01*
X75227625Y-34144139D01*
X75156213Y-34114559D01*
X75101813Y-34070721D01*
X75079747Y-34004427D01*
X75097026Y-33936728D01*
X75148162Y-33889117D01*
X75156189Y-33885450D01*
X75227625Y-33855861D01*
X75342621Y-33767621D01*
X75430861Y-33652625D01*
X75486330Y-33518709D01*
X75505250Y-33375000D01*
X75486330Y-33231291D01*
X75434554Y-33106291D01*
X75430862Y-33097377D01*
X75430861Y-33097376D01*
X75430861Y-33097375D01*
X75342621Y-32982379D01*
X75227625Y-32894139D01*
X75227624Y-32894138D01*
X75227622Y-32894137D01*
X75093712Y-32838671D01*
X75093710Y-32838670D01*
X75093709Y-32838670D01*
X75021854Y-32829210D01*
X74950001Y-32819750D01*
X74949999Y-32819750D01*
X74806291Y-32838670D01*
X74806287Y-32838671D01*
X74672377Y-32894137D01*
X74557379Y-32982379D01*
X74469137Y-33097377D01*
X74413671Y-33231287D01*
X74413670Y-33231291D01*
X74394750Y-33374999D01*
X74394750Y-33375000D01*
X74413670Y-33518708D01*
X74413671Y-33518712D01*
X74469137Y-33652622D01*
X74469138Y-33652624D01*
X74469139Y-33652625D01*
X74557379Y-33767621D01*
X74672375Y-33855861D01*
X74672376Y-33855861D01*
X74672377Y-33855862D01*
X74743783Y-33885439D01*
X74798187Y-33929279D01*
X74820252Y-33995573D01*
X74802973Y-34063273D01*
X74751836Y-34110884D01*
X74743783Y-34114561D01*
X74672377Y-34144137D01*
X74557379Y-34232379D01*
X74469137Y-34347377D01*
X74413671Y-34481287D01*
X74413670Y-34481291D01*
X74394750Y-34625000D01*
X74405452Y-34706292D01*
X74413670Y-34768708D01*
X74413671Y-34768712D01*
X74469137Y-34902622D01*
X74469138Y-34902624D01*
X74469139Y-34902625D01*
X74557379Y-35017621D01*
X74672375Y-35105861D01*
X74672376Y-35105861D01*
X74672377Y-35105862D01*
X74743783Y-35135439D01*
X74798187Y-35179279D01*
X74820252Y-35245573D01*
X74802973Y-35313273D01*
X74751836Y-35360884D01*
X74743783Y-35364561D01*
X74672377Y-35394137D01*
X74557379Y-35482379D01*
X74469137Y-35597377D01*
X74413671Y-35731287D01*
X74413670Y-35731291D01*
X74397094Y-35857199D01*
X74394750Y-35875000D01*
X74411326Y-36000908D01*
X74413670Y-36018708D01*
X74413671Y-36018712D01*
X74469137Y-36152622D01*
X74469138Y-36152624D01*
X74469139Y-36152625D01*
X74557379Y-36267621D01*
X74672375Y-36355861D01*
X74672376Y-36355861D01*
X74672377Y-36355862D01*
X74743783Y-36385439D01*
X74798187Y-36429279D01*
X74820252Y-36495573D01*
X74802973Y-36563273D01*
X74751836Y-36610884D01*
X74743783Y-36614561D01*
X74672377Y-36644137D01*
X74557379Y-36732379D01*
X74469137Y-36847377D01*
X74413671Y-36981287D01*
X74413670Y-36981291D01*
X74403831Y-37056028D01*
X74394750Y-37125000D01*
X67598469Y-37125000D01*
X67680861Y-37017625D01*
X67736330Y-36883709D01*
X67755250Y-36740000D01*
X67736330Y-36596291D01*
X67680861Y-36462375D01*
X67592621Y-36347379D01*
X67477625Y-36259139D01*
X67477624Y-36259138D01*
X67477622Y-36259137D01*
X67343712Y-36203671D01*
X67343710Y-36203670D01*
X67343709Y-36203670D01*
X67268042Y-36193708D01*
X67200001Y-36184750D01*
X67199999Y-36184750D01*
X67056291Y-36203670D01*
X67056287Y-36203671D01*
X66922377Y-36259137D01*
X66807379Y-36347379D01*
X66719137Y-36462377D01*
X66663671Y-36596287D01*
X66663670Y-36596291D01*
X66644750Y-36739999D01*
X66644750Y-36740002D01*
X66651098Y-36788222D01*
X66640332Y-36857258D01*
X66593952Y-36909513D01*
X66575611Y-36918968D01*
X66511457Y-36945540D01*
X66511455Y-36945542D01*
X66425711Y-37011336D01*
X66360542Y-37036530D01*
X66292097Y-37022491D01*
X66274739Y-37011336D01*
X66166312Y-36928137D01*
X66166310Y-36928135D01*
X66077997Y-36891556D01*
X66023593Y-36847716D01*
X66001528Y-36781422D01*
X66002509Y-36760813D01*
X66005250Y-36740000D01*
X65986330Y-36596291D01*
X65930861Y-36462375D01*
X65842621Y-36347379D01*
X65727625Y-36259139D01*
X65727624Y-36259138D01*
X65727622Y-36259137D01*
X65593712Y-36203671D01*
X65593710Y-36203670D01*
X65593709Y-36203670D01*
X65518042Y-36193708D01*
X65450001Y-36184750D01*
X65449999Y-36184750D01*
X65306291Y-36203670D01*
X65306287Y-36203671D01*
X65172377Y-36259137D01*
X65057379Y-36347379D01*
X64969137Y-36462377D01*
X64958470Y-36488130D01*
X64914628Y-36542533D01*
X64848333Y-36564596D01*
X64827725Y-36563614D01*
X64739258Y-36551967D01*
X64739255Y-36551967D01*
X64595547Y-36570887D01*
X64595543Y-36570888D01*
X64461633Y-36626354D01*
X64346635Y-36714596D01*
X64258393Y-36829594D01*
X64200667Y-36968961D01*
X64156827Y-37023365D01*
X64102292Y-37044448D01*
X63956291Y-37063670D01*
X63956287Y-37063671D01*
X63822377Y-37119137D01*
X63804806Y-37132620D01*
X63709446Y-37205792D01*
X63644278Y-37230986D01*
X63586509Y-37221977D01*
X63445743Y-37163671D01*
X63445741Y-37163670D01*
X63445740Y-37163670D01*
X63350142Y-37151084D01*
X63302032Y-37144750D01*
X63302029Y-37144750D01*
X63172141Y-37161850D01*
X63103106Y-37151084D01*
X63050850Y-37104704D01*
X63031965Y-37037435D01*
X63033016Y-37022733D01*
X63047553Y-36912319D01*
X63028633Y-36768610D01*
X63013846Y-36732912D01*
X63006378Y-36663446D01*
X63037653Y-36600967D01*
X63080951Y-36570903D01*
X63177625Y-36530861D01*
X63292621Y-36442621D01*
X63380861Y-36327625D01*
X63436330Y-36193709D01*
X63455250Y-36050000D01*
X63436330Y-35906291D01*
X63380861Y-35772375D01*
X63292621Y-35657379D01*
X63177625Y-35569139D01*
X63177624Y-35569138D01*
X63177622Y-35569137D01*
X63043712Y-35513671D01*
X63043710Y-35513670D01*
X63043709Y-35513670D01*
X62971854Y-35504210D01*
X62900001Y-35494750D01*
X62899999Y-35494750D01*
X62756291Y-35513670D01*
X62756287Y-35513671D01*
X62622377Y-35569137D01*
X62507379Y-35657379D01*
X62419137Y-35772377D01*
X62363671Y-35906287D01*
X62363670Y-35906291D01*
X62344750Y-36049999D01*
X62344750Y-36050000D01*
X62363670Y-36193708D01*
X62363671Y-36193712D01*
X62378455Y-36229404D01*
X62385924Y-36298873D01*
X62354648Y-36361352D01*
X62311346Y-36391417D01*
X62214680Y-36431456D01*
X62099682Y-36519698D01*
X62011440Y-36634696D01*
X61955974Y-36768606D01*
X61955973Y-36768608D01*
X61953645Y-36786292D01*
X61925376Y-36850187D01*
X61867050Y-36888656D01*
X61797185Y-36889485D01*
X61749601Y-36861632D01*
X61749068Y-36862327D01*
X61743535Y-36858082D01*
X61743025Y-36857783D01*
X61742625Y-36857383D01*
X61742622Y-36857381D01*
X61742621Y-36857379D01*
X61627625Y-36769139D01*
X61627624Y-36769138D01*
X61627622Y-36769137D01*
X61493712Y-36713671D01*
X61493710Y-36713670D01*
X61493709Y-36713670D01*
X61421854Y-36704210D01*
X61350001Y-36694750D01*
X61349999Y-36694750D01*
X61206291Y-36713670D01*
X61206287Y-36713671D01*
X61072377Y-36769137D01*
X60957379Y-36857379D01*
X60869137Y-36972377D01*
X60813671Y-37106287D01*
X60813670Y-37106291D01*
X60794750Y-37250000D01*
X58388793Y-37250000D01*
X58405250Y-37125000D01*
X58386330Y-36981291D01*
X58335172Y-36857783D01*
X58330862Y-36847377D01*
X58330861Y-36847376D01*
X58330861Y-36847375D01*
X58242621Y-36732379D01*
X58127625Y-36644139D01*
X58056213Y-36614559D01*
X58001813Y-36570721D01*
X57979747Y-36504427D01*
X57997026Y-36436728D01*
X58048162Y-36389117D01*
X58056189Y-36385450D01*
X58127625Y-36355861D01*
X58242621Y-36267621D01*
X58330861Y-36152625D01*
X58386330Y-36018709D01*
X58405250Y-35875000D01*
X58386330Y-35731291D01*
X58349350Y-35642013D01*
X58330862Y-35597377D01*
X58330861Y-35597376D01*
X58330861Y-35597375D01*
X58242621Y-35482379D01*
X58127625Y-35394139D01*
X58056213Y-35364559D01*
X58001813Y-35320721D01*
X57979747Y-35254427D01*
X57997026Y-35186728D01*
X58048162Y-35139117D01*
X58056189Y-35135450D01*
X58127625Y-35105861D01*
X58233005Y-35025000D01*
X60794750Y-35025000D01*
X60813670Y-35168708D01*
X60813671Y-35168712D01*
X60869137Y-35302622D01*
X60869138Y-35302624D01*
X60869139Y-35302625D01*
X60957379Y-35417621D01*
X61072375Y-35505861D01*
X61206291Y-35561330D01*
X61333280Y-35578048D01*
X61349999Y-35580250D01*
X61350000Y-35580250D01*
X61350001Y-35580250D01*
X61364977Y-35578278D01*
X61493709Y-35561330D01*
X61627625Y-35505861D01*
X61681424Y-35464579D01*
X68094750Y-35464579D01*
X68107487Y-35561328D01*
X68113670Y-35608287D01*
X68113671Y-35608291D01*
X68169137Y-35742201D01*
X68169138Y-35742203D01*
X68169139Y-35742204D01*
X68257379Y-35857200D01*
X68372375Y-35945440D01*
X68506291Y-36000909D01*
X68633280Y-36017627D01*
X68649999Y-36019829D01*
X68650000Y-36019829D01*
X68650001Y-36019829D01*
X68664977Y-36017857D01*
X68793709Y-36000909D01*
X68927625Y-35945440D01*
X69042621Y-35857200D01*
X69130861Y-35742204D01*
X69186330Y-35608288D01*
X69199990Y-35504530D01*
X69228255Y-35440637D01*
X69286579Y-35402165D01*
X69306737Y-35397780D01*
X69393709Y-35386330D01*
X69527625Y-35330861D01*
X69642621Y-35242621D01*
X69730861Y-35127625D01*
X69786330Y-34993709D01*
X69805250Y-34850000D01*
X69786330Y-34706291D01*
X69730861Y-34572375D01*
X69642621Y-34457379D01*
X69527625Y-34369139D01*
X69527624Y-34369138D01*
X69527622Y-34369137D01*
X69393712Y-34313671D01*
X69393710Y-34313670D01*
X69393709Y-34313670D01*
X69321854Y-34304210D01*
X69250001Y-34294750D01*
X69249999Y-34294750D01*
X69106291Y-34313670D01*
X69106287Y-34313671D01*
X68972377Y-34369137D01*
X68857379Y-34457379D01*
X68769137Y-34572377D01*
X68713671Y-34706287D01*
X68713670Y-34706292D01*
X68700010Y-34810046D01*
X68671743Y-34873942D01*
X68613418Y-34912413D01*
X68593258Y-34916799D01*
X68506291Y-34928249D01*
X68506287Y-34928250D01*
X68372377Y-34983716D01*
X68257379Y-35071958D01*
X68169137Y-35186956D01*
X68113671Y-35320866D01*
X68113670Y-35320870D01*
X68103545Y-35397779D01*
X68094750Y-35464579D01*
X61681424Y-35464579D01*
X61742621Y-35417621D01*
X61830861Y-35302625D01*
X61886330Y-35168709D01*
X61905250Y-35025000D01*
X61886330Y-34881291D01*
X61830861Y-34747375D01*
X61742621Y-34632379D01*
X61627625Y-34544139D01*
X61627624Y-34544138D01*
X61627622Y-34544137D01*
X61493712Y-34488671D01*
X61493710Y-34488670D01*
X61493709Y-34488670D01*
X61421854Y-34479210D01*
X61350001Y-34469750D01*
X61349999Y-34469750D01*
X61206291Y-34488670D01*
X61206287Y-34488671D01*
X61072377Y-34544137D01*
X60957379Y-34632379D01*
X60869137Y-34747377D01*
X60813671Y-34881287D01*
X60813670Y-34881291D01*
X60794750Y-35024999D01*
X60794750Y-35025000D01*
X58233005Y-35025000D01*
X58242621Y-35017621D01*
X58330861Y-34902625D01*
X58386330Y-34768709D01*
X58405250Y-34625000D01*
X58386330Y-34481291D01*
X58330861Y-34347375D01*
X58242621Y-34232379D01*
X58127625Y-34144139D01*
X58056213Y-34114559D01*
X58001813Y-34070721D01*
X57979747Y-34004427D01*
X57997026Y-33936728D01*
X58048162Y-33889117D01*
X58056189Y-33885450D01*
X58127625Y-33855861D01*
X58242621Y-33767621D01*
X58330861Y-33652625D01*
X58386330Y-33518709D01*
X58405250Y-33375000D01*
X58388793Y-33250000D01*
X65894750Y-33250000D01*
X65913670Y-33393708D01*
X65913671Y-33393712D01*
X65969137Y-33527622D01*
X65969138Y-33527624D01*
X65969139Y-33527625D01*
X66057379Y-33642621D01*
X66172375Y-33730861D01*
X66306291Y-33786330D01*
X66433280Y-33803048D01*
X66449999Y-33805250D01*
X66450000Y-33805250D01*
X66450001Y-33805250D01*
X66464977Y-33803278D01*
X66593709Y-33786330D01*
X66727625Y-33730861D01*
X66842621Y-33642621D01*
X66930861Y-33527625D01*
X66986330Y-33393709D01*
X67005250Y-33250000D01*
X66986330Y-33106291D01*
X66930861Y-32972375D01*
X66842621Y-32857379D01*
X66727625Y-32769139D01*
X66727624Y-32769138D01*
X66727622Y-32769137D01*
X66593712Y-32713671D01*
X66593710Y-32713670D01*
X66593709Y-32713670D01*
X66521854Y-32704210D01*
X66450001Y-32694750D01*
X66449999Y-32694750D01*
X66306291Y-32713670D01*
X66306287Y-32713671D01*
X66172377Y-32769137D01*
X66057379Y-32857379D01*
X65969137Y-32972377D01*
X65913671Y-33106287D01*
X65913670Y-33106291D01*
X65894750Y-33249999D01*
X65894750Y-33250000D01*
X58388793Y-33250000D01*
X58386330Y-33231291D01*
X58334554Y-33106291D01*
X58330862Y-33097377D01*
X58330861Y-33097376D01*
X58330861Y-33097375D01*
X58242621Y-32982379D01*
X58127625Y-32894139D01*
X58127624Y-32894138D01*
X58127622Y-32894137D01*
X57993712Y-32838671D01*
X57993710Y-32838670D01*
X57993709Y-32838670D01*
X57921854Y-32829210D01*
X57850001Y-32819750D01*
X57849999Y-32819750D01*
X57706291Y-32838670D01*
X57706287Y-32838671D01*
X57572377Y-32894137D01*
X57457379Y-32982379D01*
X57369137Y-33097377D01*
X57313671Y-33231287D01*
X57313670Y-33231291D01*
X57294750Y-33374999D01*
X57294750Y-33375000D01*
X57313670Y-33518708D01*
X57313671Y-33518712D01*
X57369137Y-33652622D01*
X57369138Y-33652624D01*
X57369139Y-33652625D01*
X57457379Y-33767621D01*
X57572375Y-33855861D01*
X57572376Y-33855861D01*
X57572377Y-33855862D01*
X57643783Y-33885439D01*
X57698187Y-33929279D01*
X57720252Y-33995573D01*
X57702973Y-34063273D01*
X57651836Y-34110884D01*
X57643783Y-34114561D01*
X57572377Y-34144137D01*
X57457379Y-34232379D01*
X57369137Y-34347377D01*
X57313671Y-34481287D01*
X57313670Y-34481291D01*
X57294750Y-34625000D01*
X57305452Y-34706292D01*
X57313670Y-34768708D01*
X57313671Y-34768712D01*
X57369137Y-34902622D01*
X57369138Y-34902624D01*
X57369139Y-34902625D01*
X57457379Y-35017621D01*
X57572375Y-35105861D01*
X57572376Y-35105861D01*
X57572377Y-35105862D01*
X57643783Y-35135439D01*
X57698187Y-35179279D01*
X57720252Y-35245573D01*
X57702973Y-35313273D01*
X57651836Y-35360884D01*
X57643783Y-35364561D01*
X57572377Y-35394137D01*
X57457379Y-35482379D01*
X57369137Y-35597377D01*
X57313671Y-35731287D01*
X57313670Y-35731291D01*
X57297094Y-35857199D01*
X57294750Y-35875000D01*
X57311326Y-36000908D01*
X57313670Y-36018708D01*
X57313671Y-36018712D01*
X57369137Y-36152622D01*
X57369138Y-36152624D01*
X57369139Y-36152625D01*
X57457379Y-36267621D01*
X57572375Y-36355861D01*
X57572376Y-36355861D01*
X57572377Y-36355862D01*
X57643783Y-36385439D01*
X57698187Y-36429279D01*
X57720252Y-36495573D01*
X57702973Y-36563273D01*
X57651836Y-36610884D01*
X57643783Y-36614561D01*
X57572377Y-36644137D01*
X57457379Y-36732379D01*
X57369137Y-36847377D01*
X57313671Y-36981287D01*
X57313670Y-36981291D01*
X57303831Y-37056028D01*
X57294750Y-37125000D01*
X54364966Y-37125000D01*
X54364966Y-31766661D01*
X61636892Y-31766661D01*
X61650692Y-31775333D01*
X61650691Y-31775333D01*
X61820861Y-31834878D01*
X61999997Y-31855062D01*
X62000003Y-31855062D01*
X62179138Y-31834878D01*
X62179141Y-31834877D01*
X62349305Y-31775334D01*
X62349306Y-31775334D01*
X62363106Y-31766661D01*
X62363106Y-31766660D01*
X62000001Y-31403553D01*
X62000000Y-31403553D01*
X61636892Y-31766660D01*
X61636892Y-31766661D01*
X54364966Y-31766661D01*
X54364966Y-31050002D01*
X61194938Y-31050002D01*
X61215121Y-31229138D01*
X61274665Y-31399304D01*
X61283338Y-31413107D01*
X61616609Y-31079837D01*
X61850000Y-31079837D01*
X61872836Y-31134968D01*
X61915032Y-31177164D01*
X61970163Y-31200000D01*
X62029837Y-31200000D01*
X62084968Y-31177164D01*
X62127164Y-31134968D01*
X62150000Y-31079837D01*
X62150000Y-31050000D01*
X62353553Y-31050000D01*
X62718100Y-31414546D01*
X62781355Y-31425628D01*
X62801900Y-31438416D01*
X62807377Y-31442619D01*
X62807379Y-31442621D01*
X62922375Y-31530861D01*
X63056291Y-31586330D01*
X63183280Y-31603048D01*
X63199999Y-31605250D01*
X63200000Y-31605250D01*
X63200001Y-31605250D01*
X63214977Y-31603278D01*
X63343709Y-31586330D01*
X63477625Y-31530861D01*
X63592621Y-31442621D01*
X63680861Y-31327625D01*
X63736330Y-31193709D01*
X63755250Y-31050000D01*
X63736330Y-30906291D01*
X63680861Y-30772375D01*
X63592621Y-30657379D01*
X63477625Y-30569139D01*
X63477624Y-30569138D01*
X63477622Y-30569137D01*
X63343712Y-30513671D01*
X63343710Y-30513670D01*
X63343709Y-30513670D01*
X63271854Y-30504210D01*
X63200001Y-30494750D01*
X63199999Y-30494750D01*
X63056291Y-30513670D01*
X63056287Y-30513671D01*
X62922376Y-30569138D01*
X62922374Y-30569139D01*
X62801901Y-30661582D01*
X62736732Y-30686776D01*
X62717060Y-30686492D01*
X62353553Y-31050000D01*
X62150000Y-31050000D01*
X62150000Y-31020163D01*
X62127164Y-30965032D01*
X62084968Y-30922836D01*
X62029837Y-30900000D01*
X61970163Y-30900000D01*
X61915032Y-30922836D01*
X61872836Y-30965032D01*
X61850000Y-31020163D01*
X61850000Y-31079837D01*
X61616609Y-31079837D01*
X61646446Y-31050000D01*
X61646446Y-31049999D01*
X61283338Y-30686891D01*
X61283337Y-30686891D01*
X61274667Y-30700691D01*
X61274662Y-30700701D01*
X61215122Y-30870858D01*
X61215121Y-30870861D01*
X61194938Y-31049997D01*
X61194938Y-31050002D01*
X54364966Y-31050002D01*
X54364966Y-29475000D01*
X61594750Y-29475000D01*
X61613670Y-29618708D01*
X61613671Y-29618712D01*
X61669137Y-29752622D01*
X61669138Y-29752624D01*
X61669139Y-29752625D01*
X61757379Y-29867621D01*
X61872375Y-29955861D01*
X61872376Y-29955861D01*
X61872377Y-29955862D01*
X62004203Y-30010465D01*
X62058607Y-30054305D01*
X62080672Y-30120599D01*
X62063393Y-30188299D01*
X62012256Y-30235909D01*
X61970635Y-30248246D01*
X61820861Y-30265121D01*
X61820858Y-30265122D01*
X61650701Y-30324662D01*
X61650691Y-30324667D01*
X61636891Y-30333337D01*
X61636891Y-30333338D01*
X62000000Y-30696446D01*
X62000001Y-30696446D01*
X62363107Y-30333338D01*
X62349301Y-30324663D01*
X62175010Y-30263676D01*
X62118234Y-30222955D01*
X62092487Y-30158002D01*
X62105943Y-30089440D01*
X62154331Y-30039038D01*
X62199778Y-30023696D01*
X62293709Y-30011330D01*
X62427625Y-29955861D01*
X62542621Y-29867621D01*
X62630861Y-29752625D01*
X62686330Y-29618709D01*
X62705250Y-29475000D01*
X62686330Y-29331291D01*
X62630861Y-29197375D01*
X62542621Y-29082379D01*
X62427625Y-28994139D01*
X62427624Y-28994138D01*
X62427622Y-28994137D01*
X62293712Y-28938671D01*
X62293710Y-28938670D01*
X62293709Y-28938670D01*
X62221854Y-28929210D01*
X62150001Y-28919750D01*
X62149999Y-28919750D01*
X62006291Y-28938670D01*
X62006287Y-28938671D01*
X61872377Y-28994137D01*
X61757379Y-29082379D01*
X61669137Y-29197377D01*
X61613671Y-29331287D01*
X61613670Y-29331291D01*
X61594750Y-29474999D01*
X61594750Y-29475000D01*
X54364966Y-29475000D01*
X54364966Y-28775000D01*
X56894750Y-28775000D01*
X56910378Y-28893708D01*
X56913670Y-28918708D01*
X56913671Y-28918712D01*
X56969137Y-29052622D01*
X56969138Y-29052624D01*
X56969139Y-29052625D01*
X57057379Y-29167621D01*
X57172375Y-29255861D01*
X57306291Y-29311330D01*
X57433280Y-29328048D01*
X57449999Y-29330250D01*
X57450000Y-29330250D01*
X57450001Y-29330250D01*
X57464977Y-29328278D01*
X57593709Y-29311330D01*
X57727625Y-29255861D01*
X57842621Y-29167621D01*
X57930861Y-29052625D01*
X57986330Y-28918709D01*
X58005250Y-28775000D01*
X58001959Y-28750000D01*
X74794750Y-28750000D01*
X74813670Y-28893708D01*
X74813671Y-28893712D01*
X74869137Y-29027622D01*
X74869138Y-29027624D01*
X74869139Y-29027625D01*
X74957379Y-29142621D01*
X75072375Y-29230861D01*
X75206291Y-29286330D01*
X75333280Y-29303048D01*
X75349999Y-29305250D01*
X75350000Y-29305250D01*
X75350001Y-29305250D01*
X75364977Y-29303278D01*
X75493709Y-29286330D01*
X75627625Y-29230861D01*
X75742621Y-29142621D01*
X75830861Y-29027625D01*
X75886330Y-28893709D01*
X75905250Y-28750000D01*
X75886330Y-28606291D01*
X75830861Y-28472375D01*
X75742621Y-28357379D01*
X75627625Y-28269139D01*
X75627624Y-28269138D01*
X75627622Y-28269137D01*
X75493712Y-28213671D01*
X75493710Y-28213670D01*
X75493709Y-28213670D01*
X75421854Y-28204210D01*
X75350001Y-28194750D01*
X75349999Y-28194750D01*
X75206291Y-28213670D01*
X75206287Y-28213671D01*
X75072377Y-28269137D01*
X74957379Y-28357379D01*
X74869137Y-28472377D01*
X74813671Y-28606287D01*
X74813670Y-28606291D01*
X74794750Y-28749999D01*
X74794750Y-28750000D01*
X58001959Y-28750000D01*
X57986330Y-28631291D01*
X57930861Y-28497375D01*
X57842621Y-28382379D01*
X57727625Y-28294139D01*
X57727624Y-28294138D01*
X57727622Y-28294137D01*
X57593712Y-28238671D01*
X57593710Y-28238670D01*
X57593709Y-28238670D01*
X57521854Y-28229210D01*
X57450001Y-28219750D01*
X57449999Y-28219750D01*
X57306291Y-28238670D01*
X57306287Y-28238671D01*
X57172377Y-28294137D01*
X57057379Y-28382379D01*
X56969137Y-28497377D01*
X56913671Y-28631287D01*
X56913670Y-28631291D01*
X56898042Y-28749999D01*
X56894750Y-28775000D01*
X54364966Y-28775000D01*
X54364966Y-26925000D01*
X57294750Y-26925000D01*
X57313670Y-27068708D01*
X57313671Y-27068712D01*
X57369137Y-27202622D01*
X57369138Y-27202624D01*
X57369139Y-27202625D01*
X57457379Y-27317621D01*
X57572375Y-27405861D01*
X57706291Y-27461330D01*
X57833280Y-27478048D01*
X57849999Y-27480250D01*
X57850000Y-27480250D01*
X57850001Y-27480250D01*
X57864977Y-27478278D01*
X57993709Y-27461330D01*
X58127625Y-27405861D01*
X58242621Y-27317621D01*
X58330861Y-27202625D01*
X58386330Y-27068709D01*
X58400642Y-26960000D01*
X71644751Y-26960000D01*
X71659063Y-27068712D01*
X71663671Y-27103708D01*
X71663672Y-27103712D01*
X71719138Y-27237622D01*
X71719139Y-27237624D01*
X71719140Y-27237625D01*
X71807380Y-27352621D01*
X71922376Y-27440861D01*
X72056292Y-27496330D01*
X72183281Y-27513048D01*
X72200000Y-27515250D01*
X72200001Y-27515250D01*
X72200002Y-27515250D01*
X72214978Y-27513278D01*
X72343710Y-27496330D01*
X72477626Y-27440861D01*
X72592622Y-27352621D01*
X72680862Y-27237625D01*
X72736331Y-27103709D01*
X72755251Y-26960000D01*
X72750643Y-26925000D01*
X74344750Y-26925000D01*
X74363670Y-27068708D01*
X74363671Y-27068712D01*
X74419137Y-27202622D01*
X74419138Y-27202624D01*
X74419139Y-27202625D01*
X74507379Y-27317621D01*
X74622375Y-27405861D01*
X74756291Y-27461330D01*
X74883280Y-27478048D01*
X74899999Y-27480250D01*
X74900000Y-27480250D01*
X74900001Y-27480250D01*
X74914977Y-27478278D01*
X75043709Y-27461330D01*
X75177625Y-27405861D01*
X75292621Y-27317621D01*
X75380861Y-27202625D01*
X75436330Y-27068709D01*
X75455250Y-26925000D01*
X75436330Y-26781291D01*
X75380861Y-26647375D01*
X75292621Y-26532379D01*
X75177625Y-26444139D01*
X75106213Y-26414559D01*
X75051813Y-26370721D01*
X75029747Y-26304427D01*
X75047026Y-26236728D01*
X75098162Y-26189117D01*
X75106189Y-26185450D01*
X75177625Y-26155861D01*
X75292621Y-26067621D01*
X75380861Y-25952625D01*
X75436330Y-25818709D01*
X75455250Y-25675000D01*
X75436330Y-25531291D01*
X75380861Y-25397375D01*
X75292621Y-25282379D01*
X75177625Y-25194139D01*
X75106213Y-25164559D01*
X75051813Y-25120721D01*
X75029747Y-25054427D01*
X75047026Y-24986728D01*
X75098162Y-24939117D01*
X75106189Y-24935450D01*
X75177625Y-24905861D01*
X75250424Y-24850000D01*
X76994750Y-24850000D01*
X77007915Y-24950000D01*
X77013670Y-24993708D01*
X77013671Y-24993712D01*
X77069137Y-25127622D01*
X77069138Y-25127624D01*
X77069139Y-25127625D01*
X77157379Y-25242621D01*
X77272375Y-25330861D01*
X77272376Y-25330861D01*
X77272377Y-25330862D01*
X77317013Y-25349350D01*
X77406291Y-25386330D01*
X77533280Y-25403048D01*
X77549999Y-25405250D01*
X77550000Y-25405250D01*
X77550001Y-25405250D01*
X77564977Y-25403278D01*
X77693709Y-25386330D01*
X77827625Y-25330861D01*
X77942621Y-25242621D01*
X78030861Y-25127625D01*
X78086330Y-24993709D01*
X78105250Y-24850000D01*
X78086330Y-24706291D01*
X78030861Y-24572375D01*
X77942621Y-24457379D01*
X77827625Y-24369139D01*
X77827624Y-24369138D01*
X77827622Y-24369137D01*
X77693712Y-24313671D01*
X77693710Y-24313670D01*
X77693709Y-24313670D01*
X77621854Y-24304210D01*
X77550001Y-24294750D01*
X77549999Y-24294750D01*
X77406291Y-24313670D01*
X77406287Y-24313671D01*
X77272377Y-24369137D01*
X77157379Y-24457379D01*
X77069137Y-24572377D01*
X77013671Y-24706287D01*
X77013670Y-24706291D01*
X77000505Y-24806291D01*
X76994750Y-24850000D01*
X75250424Y-24850000D01*
X75292621Y-24817621D01*
X75380861Y-24702625D01*
X75436330Y-24568709D01*
X75455250Y-24425000D01*
X75453758Y-24413671D01*
X75451267Y-24394750D01*
X75436330Y-24281291D01*
X75380861Y-24147375D01*
X75292621Y-24032379D01*
X75177625Y-23944139D01*
X75106213Y-23914559D01*
X75051813Y-23870721D01*
X75029747Y-23804427D01*
X75047026Y-23736728D01*
X75098162Y-23689117D01*
X75106189Y-23685450D01*
X75177625Y-23655861D01*
X75292621Y-23567621D01*
X75380861Y-23452625D01*
X75436330Y-23318709D01*
X75455250Y-23175000D01*
X75436330Y-23031291D01*
X75380861Y-22897375D01*
X75292621Y-22782379D01*
X75177625Y-22694139D01*
X75177624Y-22694138D01*
X75177622Y-22694137D01*
X75043712Y-22638671D01*
X75043710Y-22638670D01*
X75043709Y-22638670D01*
X74971854Y-22629210D01*
X74900001Y-22619750D01*
X74899999Y-22619750D01*
X74756291Y-22638670D01*
X74756287Y-22638671D01*
X74622377Y-22694137D01*
X74507379Y-22782379D01*
X74419137Y-22897377D01*
X74363671Y-23031287D01*
X74363670Y-23031291D01*
X74344750Y-23174999D01*
X74344750Y-23175000D01*
X74363670Y-23318708D01*
X74363671Y-23318712D01*
X74419137Y-23452622D01*
X74419138Y-23452624D01*
X74419139Y-23452625D01*
X74507379Y-23567621D01*
X74622375Y-23655861D01*
X74622376Y-23655861D01*
X74622377Y-23655862D01*
X74693783Y-23685439D01*
X74748187Y-23729279D01*
X74770252Y-23795573D01*
X74752973Y-23863273D01*
X74701836Y-23910884D01*
X74693783Y-23914561D01*
X74622377Y-23944137D01*
X74507379Y-24032379D01*
X74419137Y-24147377D01*
X74363671Y-24281287D01*
X74363670Y-24281291D01*
X74344750Y-24424999D01*
X74344750Y-24425000D01*
X74363670Y-24568708D01*
X74363671Y-24568712D01*
X74419137Y-24702622D01*
X74419138Y-24702624D01*
X74419139Y-24702625D01*
X74507379Y-24817621D01*
X74622375Y-24905861D01*
X74622376Y-24905861D01*
X74622377Y-24905862D01*
X74693783Y-24935439D01*
X74748187Y-24979279D01*
X74770252Y-25045573D01*
X74752973Y-25113273D01*
X74701836Y-25160884D01*
X74693783Y-25164561D01*
X74622377Y-25194137D01*
X74507379Y-25282379D01*
X74419137Y-25397377D01*
X74363671Y-25531287D01*
X74363670Y-25531291D01*
X74344750Y-25674999D01*
X74344750Y-25675000D01*
X74363670Y-25818708D01*
X74363671Y-25818712D01*
X74419137Y-25952622D01*
X74419138Y-25952624D01*
X74419139Y-25952625D01*
X74507379Y-26067621D01*
X74622375Y-26155861D01*
X74622376Y-26155861D01*
X74622377Y-26155862D01*
X74693783Y-26185439D01*
X74748187Y-26229279D01*
X74770252Y-26295573D01*
X74752973Y-26363273D01*
X74701836Y-26410884D01*
X74693783Y-26414561D01*
X74622377Y-26444137D01*
X74507379Y-26532379D01*
X74419137Y-26647377D01*
X74363671Y-26781287D01*
X74363670Y-26781291D01*
X74344750Y-26924999D01*
X74344750Y-26925000D01*
X72750643Y-26925000D01*
X72736331Y-26816291D01*
X72680862Y-26682375D01*
X72592622Y-26567379D01*
X72477626Y-26479139D01*
X72477625Y-26479138D01*
X72477623Y-26479137D01*
X72343713Y-26423671D01*
X72343711Y-26423670D01*
X72343710Y-26423670D01*
X72271855Y-26414210D01*
X72200002Y-26404750D01*
X72200000Y-26404750D01*
X72056292Y-26423670D01*
X72056288Y-26423671D01*
X71922378Y-26479137D01*
X71807380Y-26567379D01*
X71719138Y-26682377D01*
X71663672Y-26816287D01*
X71663671Y-26816291D01*
X71644751Y-26960000D01*
X58400642Y-26960000D01*
X58405250Y-26925000D01*
X58386330Y-26781291D01*
X58330861Y-26647375D01*
X58242621Y-26532379D01*
X58127625Y-26444139D01*
X58056213Y-26414559D01*
X58001813Y-26370721D01*
X57979747Y-26304427D01*
X57997026Y-26236728D01*
X58048162Y-26189117D01*
X58056189Y-26185450D01*
X58127625Y-26155861D01*
X58242621Y-26067621D01*
X58330861Y-25952625D01*
X58386330Y-25818709D01*
X58405250Y-25675000D01*
X58386330Y-25531291D01*
X58330861Y-25397375D01*
X58242621Y-25282379D01*
X58127625Y-25194139D01*
X58056213Y-25164559D01*
X58001813Y-25120721D01*
X57979747Y-25054427D01*
X57997026Y-24986728D01*
X58036473Y-24950000D01*
X61694750Y-24950000D01*
X61713670Y-25093708D01*
X61713671Y-25093712D01*
X61769137Y-25227622D01*
X61769138Y-25227624D01*
X61769139Y-25227625D01*
X61857379Y-25342621D01*
X61972375Y-25430861D01*
X62106291Y-25486330D01*
X62233280Y-25503048D01*
X62249999Y-25505250D01*
X62250000Y-25505250D01*
X62250001Y-25505250D01*
X62264977Y-25503278D01*
X62393709Y-25486330D01*
X62527625Y-25430861D01*
X62642621Y-25342621D01*
X62730861Y-25227625D01*
X62786330Y-25093709D01*
X62805250Y-24950000D01*
X69894750Y-24950000D01*
X69913670Y-25093708D01*
X69913671Y-25093712D01*
X69969137Y-25227622D01*
X69969138Y-25227624D01*
X69969139Y-25227625D01*
X70057379Y-25342621D01*
X70172375Y-25430861D01*
X70306291Y-25486330D01*
X70433280Y-25503048D01*
X70449999Y-25505250D01*
X70450000Y-25505250D01*
X70450001Y-25505250D01*
X70464977Y-25503278D01*
X70593709Y-25486330D01*
X70727625Y-25430861D01*
X70842621Y-25342621D01*
X70930861Y-25227625D01*
X70986330Y-25093709D01*
X71005250Y-24950000D01*
X70986330Y-24806291D01*
X70930861Y-24672375D01*
X70842621Y-24557379D01*
X70727625Y-24469139D01*
X70727624Y-24469138D01*
X70727622Y-24469137D01*
X70593712Y-24413671D01*
X70593710Y-24413670D01*
X70593709Y-24413670D01*
X70521854Y-24404210D01*
X70450001Y-24394750D01*
X70449999Y-24394750D01*
X70306291Y-24413670D01*
X70306287Y-24413671D01*
X70172377Y-24469137D01*
X70057379Y-24557379D01*
X69969137Y-24672377D01*
X69913671Y-24806287D01*
X69913670Y-24806291D01*
X69894750Y-24949999D01*
X69894750Y-24950000D01*
X62805250Y-24950000D01*
X62786330Y-24806291D01*
X62730861Y-24672375D01*
X62642621Y-24557379D01*
X62527625Y-24469139D01*
X62527624Y-24469138D01*
X62527622Y-24469137D01*
X62393712Y-24413671D01*
X62393710Y-24413670D01*
X62393709Y-24413670D01*
X62321854Y-24404210D01*
X62250001Y-24394750D01*
X62249999Y-24394750D01*
X62106291Y-24413670D01*
X62106287Y-24413671D01*
X61972377Y-24469137D01*
X61857379Y-24557379D01*
X61769137Y-24672377D01*
X61713671Y-24806287D01*
X61713670Y-24806291D01*
X61694750Y-24949999D01*
X61694750Y-24950000D01*
X58036473Y-24950000D01*
X58048162Y-24939117D01*
X58056189Y-24935450D01*
X58127625Y-24905861D01*
X58242621Y-24817621D01*
X58330861Y-24702625D01*
X58386330Y-24568709D01*
X58405250Y-24425000D01*
X58403758Y-24413671D01*
X58401267Y-24394750D01*
X58386330Y-24281291D01*
X58330861Y-24147375D01*
X58242621Y-24032379D01*
X58127625Y-23944139D01*
X58056213Y-23914559D01*
X58001813Y-23870721D01*
X57979747Y-23804427D01*
X57997026Y-23736728D01*
X58048162Y-23689117D01*
X58056189Y-23685450D01*
X58127625Y-23655861D01*
X58242621Y-23567621D01*
X58330861Y-23452625D01*
X58386330Y-23318709D01*
X58405250Y-23175000D01*
X58386330Y-23031291D01*
X58330861Y-22897375D01*
X58294509Y-22850000D01*
X61694750Y-22850000D01*
X61713670Y-22993708D01*
X61713671Y-22993712D01*
X61769137Y-23127622D01*
X61769138Y-23127624D01*
X61769139Y-23127625D01*
X61857379Y-23242621D01*
X61972375Y-23330861D01*
X62106291Y-23386330D01*
X62233280Y-23403048D01*
X62249999Y-23405250D01*
X62250000Y-23405250D01*
X62250001Y-23405250D01*
X62264977Y-23403278D01*
X62393709Y-23386330D01*
X62527625Y-23330861D01*
X62642621Y-23242621D01*
X62730861Y-23127625D01*
X62786330Y-22993709D01*
X62805250Y-22850000D01*
X69894750Y-22850000D01*
X69913670Y-22993708D01*
X69913671Y-22993712D01*
X69969137Y-23127622D01*
X69969138Y-23127624D01*
X69969139Y-23127625D01*
X70057379Y-23242621D01*
X70172375Y-23330861D01*
X70306291Y-23386330D01*
X70433280Y-23403048D01*
X70449999Y-23405250D01*
X70450000Y-23405250D01*
X70450001Y-23405250D01*
X70464977Y-23403278D01*
X70593709Y-23386330D01*
X70727625Y-23330861D01*
X70842621Y-23242621D01*
X70930861Y-23127625D01*
X70986330Y-22993709D01*
X71005250Y-22850000D01*
X70986330Y-22706291D01*
X70930861Y-22572375D01*
X70842621Y-22457379D01*
X70727625Y-22369139D01*
X70727624Y-22369138D01*
X70727622Y-22369137D01*
X70593712Y-22313671D01*
X70593710Y-22313670D01*
X70593709Y-22313670D01*
X70521854Y-22304210D01*
X70450001Y-22294750D01*
X70449999Y-22294750D01*
X70306291Y-22313670D01*
X70306287Y-22313671D01*
X70172377Y-22369137D01*
X70057379Y-22457379D01*
X69969137Y-22572377D01*
X69913671Y-22706287D01*
X69913670Y-22706291D01*
X69894750Y-22849999D01*
X69894750Y-22850000D01*
X62805250Y-22850000D01*
X62786330Y-22706291D01*
X62730861Y-22572375D01*
X62642621Y-22457379D01*
X62527625Y-22369139D01*
X62527624Y-22369138D01*
X62527622Y-22369137D01*
X62393712Y-22313671D01*
X62393710Y-22313670D01*
X62393709Y-22313670D01*
X62321854Y-22304210D01*
X62250001Y-22294750D01*
X62249999Y-22294750D01*
X62106291Y-22313670D01*
X62106287Y-22313671D01*
X61972377Y-22369137D01*
X61857379Y-22457379D01*
X61769137Y-22572377D01*
X61713671Y-22706287D01*
X61713670Y-22706291D01*
X61694750Y-22849999D01*
X61694750Y-22850000D01*
X58294509Y-22850000D01*
X58242621Y-22782379D01*
X58127625Y-22694139D01*
X58127624Y-22694138D01*
X58127622Y-22694137D01*
X57993712Y-22638671D01*
X57993710Y-22638670D01*
X57993709Y-22638670D01*
X57921854Y-22629210D01*
X57850001Y-22619750D01*
X57849999Y-22619750D01*
X57706291Y-22638670D01*
X57706287Y-22638671D01*
X57572377Y-22694137D01*
X57457379Y-22782379D01*
X57369137Y-22897377D01*
X57313671Y-23031287D01*
X57313670Y-23031291D01*
X57294750Y-23174999D01*
X57294750Y-23175000D01*
X57313670Y-23318708D01*
X57313671Y-23318712D01*
X57369137Y-23452622D01*
X57369138Y-23452624D01*
X57369139Y-23452625D01*
X57457379Y-23567621D01*
X57572375Y-23655861D01*
X57572376Y-23655861D01*
X57572377Y-23655862D01*
X57643783Y-23685439D01*
X57698187Y-23729279D01*
X57720252Y-23795573D01*
X57702973Y-23863273D01*
X57651836Y-23910884D01*
X57643783Y-23914561D01*
X57572377Y-23944137D01*
X57457379Y-24032379D01*
X57369137Y-24147377D01*
X57313671Y-24281287D01*
X57313670Y-24281291D01*
X57294750Y-24424999D01*
X57294750Y-24425000D01*
X57313670Y-24568708D01*
X57313671Y-24568712D01*
X57369137Y-24702622D01*
X57369138Y-24702624D01*
X57369139Y-24702625D01*
X57457379Y-24817621D01*
X57572375Y-24905861D01*
X57572376Y-24905861D01*
X57572377Y-24905862D01*
X57643783Y-24935439D01*
X57698187Y-24979279D01*
X57720252Y-25045573D01*
X57702973Y-25113273D01*
X57651836Y-25160884D01*
X57643783Y-25164561D01*
X57572377Y-25194137D01*
X57457379Y-25282379D01*
X57369137Y-25397377D01*
X57313671Y-25531287D01*
X57313670Y-25531291D01*
X57294750Y-25674999D01*
X57294750Y-25675000D01*
X57313670Y-25818708D01*
X57313671Y-25818712D01*
X57369137Y-25952622D01*
X57369138Y-25952624D01*
X57369139Y-25952625D01*
X57457379Y-26067621D01*
X57572375Y-26155861D01*
X57572376Y-26155861D01*
X57572377Y-26155862D01*
X57643783Y-26185439D01*
X57698187Y-26229279D01*
X57720252Y-26295573D01*
X57702973Y-26363273D01*
X57651836Y-26410884D01*
X57643783Y-26414561D01*
X57572377Y-26444137D01*
X57457379Y-26532379D01*
X57369137Y-26647377D01*
X57313671Y-26781287D01*
X57313670Y-26781291D01*
X57294750Y-26924999D01*
X57294750Y-26925000D01*
X54364966Y-26925000D01*
X54364966Y-21325000D01*
X55444750Y-21325000D01*
X55463670Y-21468708D01*
X55463671Y-21468712D01*
X55519137Y-21602622D01*
X55519138Y-21602624D01*
X55519139Y-21602625D01*
X55607379Y-21717621D01*
X55722375Y-21805861D01*
X55856291Y-21861330D01*
X55983280Y-21878048D01*
X55999999Y-21880250D01*
X56000000Y-21880250D01*
X56000001Y-21880250D01*
X56014977Y-21878278D01*
X56143709Y-21861330D01*
X56277625Y-21805861D01*
X56392621Y-21717621D01*
X56480861Y-21602625D01*
X56536330Y-21468709D01*
X56555250Y-21325000D01*
X76194750Y-21325000D01*
X76213670Y-21468708D01*
X76213671Y-21468712D01*
X76269137Y-21602622D01*
X76269138Y-21602624D01*
X76269139Y-21602625D01*
X76357379Y-21717621D01*
X76472375Y-21805861D01*
X76606291Y-21861330D01*
X76733280Y-21878048D01*
X76749999Y-21880250D01*
X76750000Y-21880250D01*
X76750001Y-21880250D01*
X76764977Y-21878278D01*
X76893709Y-21861330D01*
X77027625Y-21805861D01*
X77142621Y-21717621D01*
X77230861Y-21602625D01*
X77286330Y-21468709D01*
X77305250Y-21325000D01*
X77286330Y-21181291D01*
X77230861Y-21047375D01*
X77142621Y-20932379D01*
X77027625Y-20844139D01*
X77027624Y-20844138D01*
X77027622Y-20844137D01*
X76893712Y-20788671D01*
X76893710Y-20788670D01*
X76893709Y-20788670D01*
X76821854Y-20779210D01*
X76750001Y-20769750D01*
X76749999Y-20769750D01*
X76606291Y-20788670D01*
X76606287Y-20788671D01*
X76472377Y-20844137D01*
X76357379Y-20932379D01*
X76269137Y-21047377D01*
X76213671Y-21181287D01*
X76213670Y-21181291D01*
X76194750Y-21324999D01*
X76194750Y-21325000D01*
X56555250Y-21325000D01*
X56536330Y-21181291D01*
X56480861Y-21047375D01*
X56392621Y-20932379D01*
X56277625Y-20844139D01*
X56277624Y-20844138D01*
X56277622Y-20844137D01*
X56143712Y-20788671D01*
X56143710Y-20788670D01*
X56143709Y-20788670D01*
X56071854Y-20779210D01*
X56000001Y-20769750D01*
X55999999Y-20769750D01*
X55856291Y-20788670D01*
X55856287Y-20788671D01*
X55722377Y-20844137D01*
X55607379Y-20932379D01*
X55519137Y-21047377D01*
X55463671Y-21181287D01*
X55463670Y-21181291D01*
X55444750Y-21324999D01*
X55444750Y-21325000D01*
X54364966Y-21325000D01*
X54364966Y-20750000D01*
X61894750Y-20750000D01*
X61913670Y-20893708D01*
X61913671Y-20893712D01*
X61969137Y-21027622D01*
X61969138Y-21027624D01*
X61969139Y-21027625D01*
X62057379Y-21142621D01*
X62172375Y-21230861D01*
X62306291Y-21286330D01*
X62433280Y-21303048D01*
X62449999Y-21305250D01*
X62450000Y-21305250D01*
X62450001Y-21305250D01*
X62464977Y-21303278D01*
X62593709Y-21286330D01*
X62727625Y-21230861D01*
X62842621Y-21142621D01*
X62930861Y-21027625D01*
X62986330Y-20893709D01*
X63005250Y-20750000D01*
X69594750Y-20750000D01*
X69613670Y-20893708D01*
X69613671Y-20893712D01*
X69669137Y-21027622D01*
X69669138Y-21027624D01*
X69669139Y-21027625D01*
X69757379Y-21142621D01*
X69872375Y-21230861D01*
X70006291Y-21286330D01*
X70133280Y-21303048D01*
X70149999Y-21305250D01*
X70150000Y-21305250D01*
X70150001Y-21305250D01*
X70164977Y-21303278D01*
X70293709Y-21286330D01*
X70427625Y-21230861D01*
X70542621Y-21142621D01*
X70630861Y-21027625D01*
X70686330Y-20893709D01*
X70705250Y-20750000D01*
X70686330Y-20606291D01*
X70630861Y-20472375D01*
X70542621Y-20357379D01*
X70427625Y-20269139D01*
X70427624Y-20269138D01*
X70427622Y-20269137D01*
X70293712Y-20213671D01*
X70293710Y-20213670D01*
X70293709Y-20213670D01*
X70221854Y-20204210D01*
X70150001Y-20194750D01*
X70149999Y-20194750D01*
X70006291Y-20213670D01*
X70006287Y-20213671D01*
X69872377Y-20269137D01*
X69757379Y-20357379D01*
X69669137Y-20472377D01*
X69613671Y-20606287D01*
X69613670Y-20606291D01*
X69594750Y-20749999D01*
X69594750Y-20750000D01*
X63005250Y-20750000D01*
X62986330Y-20606291D01*
X62930861Y-20472375D01*
X62842621Y-20357379D01*
X62727625Y-20269139D01*
X62727624Y-20269138D01*
X62727622Y-20269137D01*
X62593712Y-20213671D01*
X62593710Y-20213670D01*
X62593709Y-20213670D01*
X62521854Y-20204210D01*
X62450001Y-20194750D01*
X62449999Y-20194750D01*
X62306291Y-20213670D01*
X62306287Y-20213671D01*
X62172377Y-20269137D01*
X62057379Y-20357379D01*
X61969137Y-20472377D01*
X61913671Y-20606287D01*
X61913670Y-20606291D01*
X61894750Y-20749999D01*
X61894750Y-20750000D01*
X54364966Y-20750000D01*
X54364966Y-19067170D01*
X54365084Y-19061761D01*
X54374900Y-18836959D01*
X54381854Y-18677699D01*
X54382794Y-18666965D01*
X54432623Y-18288495D01*
X54434494Y-18277877D01*
X54517120Y-17905187D01*
X54519917Y-17894751D01*
X54634704Y-17530699D01*
X54638393Y-17520563D01*
X54729754Y-17300000D01*
X55985960Y-17300000D01*
X56046411Y-17538716D01*
X56146267Y-17766367D01*
X56282232Y-17974478D01*
X56450592Y-18157364D01*
X56450602Y-18157373D01*
X56646762Y-18310051D01*
X56646771Y-18310057D01*
X56865385Y-18428364D01*
X56865396Y-18428369D01*
X57100507Y-18509083D01*
X57219999Y-18529023D01*
X57220000Y-18529022D01*
X57220000Y-17483012D01*
X57277007Y-17515925D01*
X57404174Y-17550000D01*
X57535826Y-17550000D01*
X57662993Y-17515925D01*
X57720000Y-17483012D01*
X57720000Y-18529023D01*
X57839492Y-18509083D01*
X58074603Y-18428369D01*
X58074614Y-18428364D01*
X58293228Y-18310057D01*
X58293237Y-18310051D01*
X58489397Y-18157373D01*
X58489406Y-18157365D01*
X58559786Y-18080912D01*
X58619672Y-18044921D01*
X58689511Y-18047020D01*
X58747127Y-18086544D01*
X58772633Y-18140700D01*
X58774032Y-18147737D01*
X58774033Y-18147739D01*
X58774034Y-18147740D01*
X58829399Y-18230601D01*
X58908022Y-18283134D01*
X58912260Y-18285966D01*
X58912264Y-18285967D01*
X58985321Y-18300499D01*
X58985324Y-18300500D01*
X58985326Y-18300500D01*
X61034676Y-18300500D01*
X61034677Y-18300499D01*
X61107740Y-18285966D01*
X61190601Y-18230601D01*
X61245966Y-18147740D01*
X61247365Y-18140705D01*
X61279748Y-18078794D01*
X61340463Y-18044218D01*
X61410233Y-18047956D01*
X61460213Y-18080911D01*
X61530599Y-18157370D01*
X61530602Y-18157373D01*
X61726762Y-18310051D01*
X61726771Y-18310057D01*
X61945385Y-18428364D01*
X61945396Y-18428369D01*
X62180507Y-18509083D01*
X62299999Y-18529023D01*
X62300000Y-18529022D01*
X62300000Y-17483012D01*
X62357007Y-17515925D01*
X62484174Y-17550000D01*
X62615826Y-17550000D01*
X62742993Y-17515925D01*
X62800000Y-17483012D01*
X62800000Y-18529023D01*
X62919492Y-18509083D01*
X63154603Y-18428369D01*
X63154614Y-18428364D01*
X63373228Y-18310057D01*
X63373237Y-18310051D01*
X63569397Y-18157373D01*
X63569406Y-18157365D01*
X63639786Y-18080912D01*
X63699672Y-18044921D01*
X63769511Y-18047020D01*
X63827127Y-18086544D01*
X63852633Y-18140700D01*
X63854032Y-18147737D01*
X63854033Y-18147739D01*
X63854034Y-18147740D01*
X63909399Y-18230601D01*
X63988022Y-18283134D01*
X63992260Y-18285966D01*
X63992264Y-18285967D01*
X64065321Y-18300499D01*
X64065324Y-18300500D01*
X64065326Y-18300500D01*
X66114676Y-18300500D01*
X66114677Y-18300499D01*
X66187740Y-18285966D01*
X66270601Y-18230601D01*
X66325966Y-18147740D01*
X66327365Y-18140705D01*
X66359748Y-18078794D01*
X66420463Y-18044218D01*
X66490233Y-18047956D01*
X66540213Y-18080911D01*
X66610599Y-18157370D01*
X66610602Y-18157373D01*
X66806762Y-18310051D01*
X66806771Y-18310057D01*
X67025385Y-18428364D01*
X67025396Y-18428369D01*
X67260507Y-18509083D01*
X67379999Y-18529023D01*
X67380000Y-18529022D01*
X67380000Y-17483012D01*
X67437007Y-17515925D01*
X67564174Y-17550000D01*
X67695826Y-17550000D01*
X67822993Y-17515925D01*
X67880000Y-17483012D01*
X67880000Y-18529023D01*
X67999492Y-18509083D01*
X68234603Y-18428369D01*
X68234614Y-18428364D01*
X68453228Y-18310057D01*
X68453237Y-18310051D01*
X68649397Y-18157373D01*
X68649406Y-18157365D01*
X68719786Y-18080912D01*
X68779672Y-18044921D01*
X68849511Y-18047020D01*
X68907127Y-18086544D01*
X68932633Y-18140700D01*
X68934032Y-18147737D01*
X68934033Y-18147739D01*
X68934034Y-18147740D01*
X68989399Y-18230601D01*
X69068022Y-18283134D01*
X69072260Y-18285966D01*
X69072264Y-18285967D01*
X69145321Y-18300499D01*
X69145324Y-18300500D01*
X69145326Y-18300500D01*
X71194676Y-18300500D01*
X71194677Y-18300499D01*
X71267740Y-18285966D01*
X71350601Y-18230601D01*
X71405966Y-18147740D01*
X71407365Y-18140705D01*
X71439748Y-18078794D01*
X71500463Y-18044218D01*
X71570233Y-18047956D01*
X71620213Y-18080911D01*
X71690599Y-18157370D01*
X71690602Y-18157373D01*
X71886762Y-18310051D01*
X71886771Y-18310057D01*
X72105385Y-18428364D01*
X72105396Y-18428369D01*
X72340507Y-18509083D01*
X72459999Y-18529023D01*
X72460000Y-18529022D01*
X72460000Y-17483012D01*
X72517007Y-17515925D01*
X72644174Y-17550000D01*
X72775826Y-17550000D01*
X72902993Y-17515925D01*
X72960000Y-17483012D01*
X72960000Y-18529023D01*
X73079492Y-18509083D01*
X73314603Y-18428369D01*
X73314614Y-18428364D01*
X73533228Y-18310057D01*
X73533237Y-18310051D01*
X73729397Y-18157373D01*
X73729406Y-18157365D01*
X73799786Y-18080912D01*
X73859672Y-18044921D01*
X73929511Y-18047020D01*
X73987127Y-18086544D01*
X74012633Y-18140700D01*
X74014032Y-18147737D01*
X74014033Y-18147739D01*
X74014034Y-18147740D01*
X74069399Y-18230601D01*
X74148022Y-18283134D01*
X74152260Y-18285966D01*
X74152264Y-18285967D01*
X74225321Y-18300499D01*
X74225324Y-18300500D01*
X74225326Y-18300500D01*
X76274676Y-18300500D01*
X76274677Y-18300499D01*
X76347740Y-18285966D01*
X76430601Y-18230601D01*
X76485966Y-18147740D01*
X76500500Y-18074674D01*
X76500500Y-16025326D01*
X76500500Y-16025323D01*
X76500499Y-16025321D01*
X76485967Y-15952264D01*
X76485966Y-15952260D01*
X76479535Y-15942635D01*
X76430601Y-15869399D01*
X76347740Y-15814034D01*
X76347739Y-15814033D01*
X76347735Y-15814032D01*
X76274677Y-15799500D01*
X76274674Y-15799500D01*
X74225326Y-15799500D01*
X74225323Y-15799500D01*
X74152264Y-15814032D01*
X74152260Y-15814033D01*
X74069399Y-15869399D01*
X74014033Y-15952260D01*
X74014033Y-15952262D01*
X74012633Y-15959300D01*
X73980245Y-16021210D01*
X73919528Y-16055782D01*
X73849759Y-16052040D01*
X73799786Y-16019088D01*
X73729400Y-15942629D01*
X73729397Y-15942626D01*
X73533237Y-15789948D01*
X73533228Y-15789942D01*
X73314614Y-15671635D01*
X73314603Y-15671630D01*
X73079492Y-15590916D01*
X72960000Y-15570976D01*
X72960000Y-16616988D01*
X72902993Y-16584075D01*
X72775826Y-16550000D01*
X72644174Y-16550000D01*
X72517007Y-16584075D01*
X72460000Y-16616988D01*
X72460000Y-15570976D01*
X72459999Y-15570976D01*
X72340507Y-15590916D01*
X72105396Y-15671630D01*
X72105385Y-15671635D01*
X71886771Y-15789942D01*
X71886762Y-15789948D01*
X71690602Y-15942626D01*
X71690598Y-15942630D01*
X71620212Y-16019089D01*
X71560325Y-16055079D01*
X71490487Y-16052978D01*
X71432871Y-16013454D01*
X71407365Y-15959294D01*
X71405966Y-15952260D01*
X71399535Y-15942635D01*
X71350601Y-15869399D01*
X71267740Y-15814034D01*
X71267739Y-15814033D01*
X71267735Y-15814032D01*
X71194677Y-15799500D01*
X71194674Y-15799500D01*
X69145326Y-15799500D01*
X69145323Y-15799500D01*
X69072264Y-15814032D01*
X69072260Y-15814033D01*
X68989399Y-15869399D01*
X68934033Y-15952260D01*
X68934033Y-15952262D01*
X68932633Y-15959300D01*
X68900245Y-16021210D01*
X68839528Y-16055782D01*
X68769759Y-16052040D01*
X68719786Y-16019088D01*
X68649400Y-15942629D01*
X68649397Y-15942626D01*
X68453237Y-15789948D01*
X68453228Y-15789942D01*
X68234614Y-15671635D01*
X68234603Y-15671630D01*
X67999492Y-15590916D01*
X67880000Y-15570976D01*
X67880000Y-16616988D01*
X67822993Y-16584075D01*
X67695826Y-16550000D01*
X67564174Y-16550000D01*
X67437007Y-16584075D01*
X67380000Y-16616988D01*
X67380000Y-15570976D01*
X67379999Y-15570976D01*
X67260507Y-15590916D01*
X67025396Y-15671630D01*
X67025385Y-15671635D01*
X66806771Y-15789942D01*
X66806762Y-15789948D01*
X66610602Y-15942626D01*
X66610598Y-15942630D01*
X66540212Y-16019089D01*
X66480325Y-16055079D01*
X66410487Y-16052978D01*
X66352871Y-16013454D01*
X66327365Y-15959294D01*
X66325966Y-15952260D01*
X66319535Y-15942635D01*
X66270601Y-15869399D01*
X66187740Y-15814034D01*
X66187739Y-15814033D01*
X66187735Y-15814032D01*
X66114677Y-15799500D01*
X66114674Y-15799500D01*
X64065326Y-15799500D01*
X64065323Y-15799500D01*
X63992264Y-15814032D01*
X63992260Y-15814033D01*
X63909399Y-15869399D01*
X63854033Y-15952260D01*
X63854033Y-15952262D01*
X63852633Y-15959300D01*
X63820245Y-16021210D01*
X63759528Y-16055782D01*
X63689759Y-16052040D01*
X63639786Y-16019088D01*
X63569400Y-15942629D01*
X63569397Y-15942626D01*
X63373237Y-15789948D01*
X63373228Y-15789942D01*
X63154614Y-15671635D01*
X63154603Y-15671630D01*
X62919492Y-15590916D01*
X62800000Y-15570976D01*
X62800000Y-16616988D01*
X62742993Y-16584075D01*
X62615826Y-16550000D01*
X62484174Y-16550000D01*
X62357007Y-16584075D01*
X62300000Y-16616988D01*
X62300000Y-15570976D01*
X62299999Y-15570976D01*
X62180507Y-15590916D01*
X61945396Y-15671630D01*
X61945385Y-15671635D01*
X61726771Y-15789942D01*
X61726762Y-15789948D01*
X61530602Y-15942626D01*
X61530598Y-15942630D01*
X61460212Y-16019089D01*
X61400325Y-16055079D01*
X61330487Y-16052978D01*
X61272871Y-16013454D01*
X61247365Y-15959294D01*
X61245966Y-15952260D01*
X61239535Y-15942635D01*
X61190601Y-15869399D01*
X61107740Y-15814034D01*
X61107739Y-15814033D01*
X61107735Y-15814032D01*
X61034677Y-15799500D01*
X61034674Y-15799500D01*
X58985326Y-15799500D01*
X58985323Y-15799500D01*
X58912264Y-15814032D01*
X58912260Y-15814033D01*
X58829399Y-15869399D01*
X58774033Y-15952260D01*
X58774033Y-15952262D01*
X58772633Y-15959300D01*
X58740245Y-16021210D01*
X58679528Y-16055782D01*
X58609759Y-16052040D01*
X58559786Y-16019088D01*
X58489400Y-15942629D01*
X58489397Y-15942626D01*
X58293237Y-15789948D01*
X58293228Y-15789942D01*
X58074614Y-15671635D01*
X58074603Y-15671630D01*
X57839492Y-15590916D01*
X57720000Y-15570976D01*
X57720000Y-16616988D01*
X57662993Y-16584075D01*
X57535826Y-16550000D01*
X57404174Y-16550000D01*
X57277007Y-16584075D01*
X57220000Y-16616988D01*
X57220000Y-15570976D01*
X57219999Y-15570976D01*
X57100507Y-15590916D01*
X56865396Y-15671630D01*
X56865385Y-15671635D01*
X56646771Y-15789942D01*
X56646762Y-15789948D01*
X56450602Y-15942626D01*
X56450592Y-15942635D01*
X56282232Y-16125521D01*
X56146267Y-16333632D01*
X56046411Y-16561283D01*
X55985960Y-16800000D01*
X57036988Y-16800000D01*
X57004075Y-16857007D01*
X56970000Y-16984174D01*
X56970000Y-17115826D01*
X57004075Y-17242993D01*
X57036988Y-17300000D01*
X55985960Y-17300000D01*
X54729754Y-17300000D01*
X54784474Y-17167894D01*
X54789044Y-17158097D01*
X54879583Y-16984174D01*
X54965305Y-16819506D01*
X54970696Y-16810168D01*
X55175793Y-16488232D01*
X55181989Y-16479383D01*
X55414369Y-16176540D01*
X55421308Y-16168270D01*
X55679202Y-15886828D01*
X55686828Y-15879202D01*
X55968270Y-15621308D01*
X55976533Y-15614374D01*
X56279383Y-15381988D01*
X56288232Y-15375793D01*
X56610168Y-15170696D01*
X56619509Y-15165302D01*
X56958103Y-14989041D01*
X56967894Y-14984474D01*
X57320563Y-14838393D01*
X57330699Y-14834704D01*
X57694761Y-14719913D01*
X57705187Y-14717120D01*
X58077877Y-14634494D01*
X58088496Y-14632622D01*
X58466963Y-14582794D01*
X58477701Y-14581854D01*
X58861767Y-14565084D01*
X58867176Y-14564966D01*
X58930362Y-14564966D01*
X73798573Y-14564966D01*
X73798577Y-14564967D01*
G37*
G04 #@! TD.AperFunction*
M02*
