G04 #@! TF.GenerationSoftware,KiCad,Pcbnew,8.0.1*
G04 #@! TF.CreationDate,2024-09-18T22:43:32-06:00*
G04 #@! TF.ProjectId,semg,73656d67-2e6b-4696-9361-645f70636258,rev?*
G04 #@! TF.SameCoordinates,Original*
G04 #@! TF.FileFunction,Legend,Top*
G04 #@! TF.FilePolarity,Positive*
%FSLAX46Y46*%
G04 Gerber Fmt 4.6, Leading zero omitted, Abs format (unit mm)*
G04 Created by KiCad (PCBNEW 8.0.1) date 2024-09-18 22:43:32*
%MOMM*%
%LPD*%
G01*
G04 APERTURE LIST*
G04 Aperture macros list*
%AMRoundRect*
0 Rectangle with rounded corners*
0 $1 Rounding radius*
0 $2 $3 $4 $5 $6 $7 $8 $9 X,Y pos of 4 corners*
0 Add a 4 corners polygon primitive as box body*
4,1,4,$2,$3,$4,$5,$6,$7,$8,$9,$2,$3,0*
0 Add four circle primitives for the rounded corners*
1,1,$1+$1,$2,$3*
1,1,$1+$1,$4,$5*
1,1,$1+$1,$6,$7*
1,1,$1+$1,$8,$9*
0 Add four rect primitives between the rounded corners*
20,1,$1+$1,$2,$3,$4,$5,0*
20,1,$1+$1,$4,$5,$6,$7,0*
20,1,$1+$1,$6,$7,$8,$9,0*
20,1,$1+$1,$8,$9,$2,$3,0*%
G04 Aperture macros list end*
%ADD10C,0.150000*%
%ADD11C,0.120000*%
%ADD12RoundRect,0.050000X-0.050000X0.300000X-0.050000X-0.300000X0.050000X-0.300000X0.050000X0.300000X0*%
%ADD13RoundRect,0.050000X-0.300000X0.050000X-0.300000X-0.050000X0.300000X-0.050000X0.300000X0.050000X0*%
%ADD14R,2.900000X2.900000*%
%ADD15RoundRect,0.150000X-0.700000X0.150000X-0.700000X-0.150000X0.700000X-0.150000X0.700000X0.150000X0*%
%ADD16RoundRect,0.250000X-1.100000X0.250000X-1.100000X-0.250000X1.100000X-0.250000X1.100000X0.250000X0*%
%ADD17RoundRect,0.225000X0.250000X-0.225000X0.250000X0.225000X-0.250000X0.225000X-0.250000X-0.225000X0*%
%ADD18RoundRect,0.250000X-0.350000X-0.450000X0.350000X-0.450000X0.350000X0.450000X-0.350000X0.450000X0*%
%ADD19RoundRect,0.200000X-0.275000X0.200000X-0.275000X-0.200000X0.275000X-0.200000X0.275000X0.200000X0*%
%ADD20RoundRect,0.150000X0.512500X0.150000X-0.512500X0.150000X-0.512500X-0.150000X0.512500X-0.150000X0*%
%ADD21RoundRect,0.250000X-0.475000X0.250000X-0.475000X-0.250000X0.475000X-0.250000X0.475000X0.250000X0*%
%ADD22RoundRect,0.250000X-0.250000X-0.475000X0.250000X-0.475000X0.250000X0.475000X-0.250000X0.475000X0*%
%ADD23RoundRect,0.200000X0.275000X-0.200000X0.275000X0.200000X-0.275000X0.200000X-0.275000X-0.200000X0*%
%ADD24RoundRect,0.150000X0.700000X-0.150000X0.700000X0.150000X-0.700000X0.150000X-0.700000X-0.150000X0*%
%ADD25RoundRect,0.250000X1.100000X-0.250000X1.100000X0.250000X-1.100000X0.250000X-1.100000X-0.250000X0*%
%ADD26R,2.000000X2.000000*%
%ADD27O,2.000000X2.000000*%
%ADD28RoundRect,0.250000X0.250000X0.475000X-0.250000X0.475000X-0.250000X-0.475000X0.250000X-0.475000X0*%
%ADD29RoundRect,0.225000X-0.250000X0.225000X-0.250000X-0.225000X0.250000X-0.225000X0.250000X0.225000X0*%
%ADD30RoundRect,0.250000X-0.650000X0.325000X-0.650000X-0.325000X0.650000X-0.325000X0.650000X0.325000X0*%
%ADD31RoundRect,0.250000X0.350000X0.450000X-0.350000X0.450000X-0.350000X-0.450000X0.350000X-0.450000X0*%
%ADD32R,1.000000X1.000000*%
%ADD33O,1.000000X1.000000*%
%ADD34RoundRect,0.250000X0.650000X-0.325000X0.650000X0.325000X-0.650000X0.325000X-0.650000X-0.325000X0*%
G04 APERTURE END LIST*
D10*
X65588095Y-29604819D02*
X65588095Y-30414342D01*
X65588095Y-30414342D02*
X65635714Y-30509580D01*
X65635714Y-30509580D02*
X65683333Y-30557200D01*
X65683333Y-30557200D02*
X65778571Y-30604819D01*
X65778571Y-30604819D02*
X65969047Y-30604819D01*
X65969047Y-30604819D02*
X66064285Y-30557200D01*
X66064285Y-30557200D02*
X66111904Y-30509580D01*
X66111904Y-30509580D02*
X66159523Y-30414342D01*
X66159523Y-30414342D02*
X66159523Y-29604819D01*
X67159523Y-30604819D02*
X66588095Y-30604819D01*
X66873809Y-30604819D02*
X66873809Y-29604819D01*
X66873809Y-29604819D02*
X66778571Y-29747676D01*
X66778571Y-29747676D02*
X66683333Y-29842914D01*
X66683333Y-29842914D02*
X66588095Y-29890533D01*
X55404819Y-46383333D02*
X56119104Y-46383333D01*
X56119104Y-46383333D02*
X56261961Y-46430952D01*
X56261961Y-46430952D02*
X56357200Y-46526190D01*
X56357200Y-46526190D02*
X56404819Y-46669047D01*
X56404819Y-46669047D02*
X56404819Y-46764285D01*
X56404819Y-45383333D02*
X56404819Y-45954761D01*
X56404819Y-45669047D02*
X55404819Y-45669047D01*
X55404819Y-45669047D02*
X55547676Y-45764285D01*
X55547676Y-45764285D02*
X55642914Y-45859523D01*
X55642914Y-45859523D02*
X55690533Y-45954761D01*
X70409580Y-35516666D02*
X70457200Y-35564285D01*
X70457200Y-35564285D02*
X70504819Y-35707142D01*
X70504819Y-35707142D02*
X70504819Y-35802380D01*
X70504819Y-35802380D02*
X70457200Y-35945237D01*
X70457200Y-35945237D02*
X70361961Y-36040475D01*
X70361961Y-36040475D02*
X70266723Y-36088094D01*
X70266723Y-36088094D02*
X70076247Y-36135713D01*
X70076247Y-36135713D02*
X69933390Y-36135713D01*
X69933390Y-36135713D02*
X69742914Y-36088094D01*
X69742914Y-36088094D02*
X69647676Y-36040475D01*
X69647676Y-36040475D02*
X69552438Y-35945237D01*
X69552438Y-35945237D02*
X69504819Y-35802380D01*
X69504819Y-35802380D02*
X69504819Y-35707142D01*
X69504819Y-35707142D02*
X69552438Y-35564285D01*
X69552438Y-35564285D02*
X69600057Y-35516666D01*
X69504819Y-34611904D02*
X69504819Y-35088094D01*
X69504819Y-35088094D02*
X69981009Y-35135713D01*
X69981009Y-35135713D02*
X69933390Y-35088094D01*
X69933390Y-35088094D02*
X69885771Y-34992856D01*
X69885771Y-34992856D02*
X69885771Y-34754761D01*
X69885771Y-34754761D02*
X69933390Y-34659523D01*
X69933390Y-34659523D02*
X69981009Y-34611904D01*
X69981009Y-34611904D02*
X70076247Y-34564285D01*
X70076247Y-34564285D02*
X70314342Y-34564285D01*
X70314342Y-34564285D02*
X70409580Y-34611904D01*
X70409580Y-34611904D02*
X70457200Y-34659523D01*
X70457200Y-34659523D02*
X70504819Y-34754761D01*
X70504819Y-34754761D02*
X70504819Y-34992856D01*
X70504819Y-34992856D02*
X70457200Y-35088094D01*
X70457200Y-35088094D02*
X70409580Y-35135713D01*
X61383333Y-23304819D02*
X61050000Y-22828628D01*
X60811905Y-23304819D02*
X60811905Y-22304819D01*
X60811905Y-22304819D02*
X61192857Y-22304819D01*
X61192857Y-22304819D02*
X61288095Y-22352438D01*
X61288095Y-22352438D02*
X61335714Y-22400057D01*
X61335714Y-22400057D02*
X61383333Y-22495295D01*
X61383333Y-22495295D02*
X61383333Y-22638152D01*
X61383333Y-22638152D02*
X61335714Y-22733390D01*
X61335714Y-22733390D02*
X61288095Y-22781009D01*
X61288095Y-22781009D02*
X61192857Y-22828628D01*
X61192857Y-22828628D02*
X60811905Y-22828628D01*
X62240476Y-22304819D02*
X62050000Y-22304819D01*
X62050000Y-22304819D02*
X61954762Y-22352438D01*
X61954762Y-22352438D02*
X61907143Y-22400057D01*
X61907143Y-22400057D02*
X61811905Y-22542914D01*
X61811905Y-22542914D02*
X61764286Y-22733390D01*
X61764286Y-22733390D02*
X61764286Y-23114342D01*
X61764286Y-23114342D02*
X61811905Y-23209580D01*
X61811905Y-23209580D02*
X61859524Y-23257200D01*
X61859524Y-23257200D02*
X61954762Y-23304819D01*
X61954762Y-23304819D02*
X62145238Y-23304819D01*
X62145238Y-23304819D02*
X62240476Y-23257200D01*
X62240476Y-23257200D02*
X62288095Y-23209580D01*
X62288095Y-23209580D02*
X62335714Y-23114342D01*
X62335714Y-23114342D02*
X62335714Y-22876247D01*
X62335714Y-22876247D02*
X62288095Y-22781009D01*
X62288095Y-22781009D02*
X62240476Y-22733390D01*
X62240476Y-22733390D02*
X62145238Y-22685771D01*
X62145238Y-22685771D02*
X61954762Y-22685771D01*
X61954762Y-22685771D02*
X61859524Y-22733390D01*
X61859524Y-22733390D02*
X61811905Y-22781009D01*
X61811905Y-22781009D02*
X61764286Y-22876247D01*
X69683333Y-33704819D02*
X69350000Y-33228628D01*
X69111905Y-33704819D02*
X69111905Y-32704819D01*
X69111905Y-32704819D02*
X69492857Y-32704819D01*
X69492857Y-32704819D02*
X69588095Y-32752438D01*
X69588095Y-32752438D02*
X69635714Y-32800057D01*
X69635714Y-32800057D02*
X69683333Y-32895295D01*
X69683333Y-32895295D02*
X69683333Y-33038152D01*
X69683333Y-33038152D02*
X69635714Y-33133390D01*
X69635714Y-33133390D02*
X69588095Y-33181009D01*
X69588095Y-33181009D02*
X69492857Y-33228628D01*
X69492857Y-33228628D02*
X69111905Y-33228628D01*
X70064286Y-32800057D02*
X70111905Y-32752438D01*
X70111905Y-32752438D02*
X70207143Y-32704819D01*
X70207143Y-32704819D02*
X70445238Y-32704819D01*
X70445238Y-32704819D02*
X70540476Y-32752438D01*
X70540476Y-32752438D02*
X70588095Y-32800057D01*
X70588095Y-32800057D02*
X70635714Y-32895295D01*
X70635714Y-32895295D02*
X70635714Y-32990533D01*
X70635714Y-32990533D02*
X70588095Y-33133390D01*
X70588095Y-33133390D02*
X70016667Y-33704819D01*
X70016667Y-33704819D02*
X70635714Y-33704819D01*
X65188095Y-47504819D02*
X65188095Y-48314342D01*
X65188095Y-48314342D02*
X65235714Y-48409580D01*
X65235714Y-48409580D02*
X65283333Y-48457200D01*
X65283333Y-48457200D02*
X65378571Y-48504819D01*
X65378571Y-48504819D02*
X65569047Y-48504819D01*
X65569047Y-48504819D02*
X65664285Y-48457200D01*
X65664285Y-48457200D02*
X65711904Y-48409580D01*
X65711904Y-48409580D02*
X65759523Y-48314342D01*
X65759523Y-48314342D02*
X65759523Y-47504819D01*
X66188095Y-47600057D02*
X66235714Y-47552438D01*
X66235714Y-47552438D02*
X66330952Y-47504819D01*
X66330952Y-47504819D02*
X66569047Y-47504819D01*
X66569047Y-47504819D02*
X66664285Y-47552438D01*
X66664285Y-47552438D02*
X66711904Y-47600057D01*
X66711904Y-47600057D02*
X66759523Y-47695295D01*
X66759523Y-47695295D02*
X66759523Y-47790533D01*
X66759523Y-47790533D02*
X66711904Y-47933390D01*
X66711904Y-47933390D02*
X66140476Y-48504819D01*
X66140476Y-48504819D02*
X66759523Y-48504819D01*
X63483333Y-42909580D02*
X63435714Y-42957200D01*
X63435714Y-42957200D02*
X63292857Y-43004819D01*
X63292857Y-43004819D02*
X63197619Y-43004819D01*
X63197619Y-43004819D02*
X63054762Y-42957200D01*
X63054762Y-42957200D02*
X62959524Y-42861961D01*
X62959524Y-42861961D02*
X62911905Y-42766723D01*
X62911905Y-42766723D02*
X62864286Y-42576247D01*
X62864286Y-42576247D02*
X62864286Y-42433390D01*
X62864286Y-42433390D02*
X62911905Y-42242914D01*
X62911905Y-42242914D02*
X62959524Y-42147676D01*
X62959524Y-42147676D02*
X63054762Y-42052438D01*
X63054762Y-42052438D02*
X63197619Y-42004819D01*
X63197619Y-42004819D02*
X63292857Y-42004819D01*
X63292857Y-42004819D02*
X63435714Y-42052438D01*
X63435714Y-42052438D02*
X63483333Y-42100057D01*
X63816667Y-42004819D02*
X64483333Y-42004819D01*
X64483333Y-42004819D02*
X64054762Y-43004819D01*
X61283333Y-25404819D02*
X60950000Y-24928628D01*
X60711905Y-25404819D02*
X60711905Y-24404819D01*
X60711905Y-24404819D02*
X61092857Y-24404819D01*
X61092857Y-24404819D02*
X61188095Y-24452438D01*
X61188095Y-24452438D02*
X61235714Y-24500057D01*
X61235714Y-24500057D02*
X61283333Y-24595295D01*
X61283333Y-24595295D02*
X61283333Y-24738152D01*
X61283333Y-24738152D02*
X61235714Y-24833390D01*
X61235714Y-24833390D02*
X61188095Y-24881009D01*
X61188095Y-24881009D02*
X61092857Y-24928628D01*
X61092857Y-24928628D02*
X60711905Y-24928628D01*
X61616667Y-24404819D02*
X62283333Y-24404819D01*
X62283333Y-24404819D02*
X61854762Y-25404819D01*
X67607142Y-29109580D02*
X67559523Y-29157200D01*
X67559523Y-29157200D02*
X67416666Y-29204819D01*
X67416666Y-29204819D02*
X67321428Y-29204819D01*
X67321428Y-29204819D02*
X67178571Y-29157200D01*
X67178571Y-29157200D02*
X67083333Y-29061961D01*
X67083333Y-29061961D02*
X67035714Y-28966723D01*
X67035714Y-28966723D02*
X66988095Y-28776247D01*
X66988095Y-28776247D02*
X66988095Y-28633390D01*
X66988095Y-28633390D02*
X67035714Y-28442914D01*
X67035714Y-28442914D02*
X67083333Y-28347676D01*
X67083333Y-28347676D02*
X67178571Y-28252438D01*
X67178571Y-28252438D02*
X67321428Y-28204819D01*
X67321428Y-28204819D02*
X67416666Y-28204819D01*
X67416666Y-28204819D02*
X67559523Y-28252438D01*
X67559523Y-28252438D02*
X67607142Y-28300057D01*
X68559523Y-29204819D02*
X67988095Y-29204819D01*
X68273809Y-29204819D02*
X68273809Y-28204819D01*
X68273809Y-28204819D02*
X68178571Y-28347676D01*
X68178571Y-28347676D02*
X68083333Y-28442914D01*
X68083333Y-28442914D02*
X67988095Y-28490533D01*
X68940476Y-28300057D02*
X68988095Y-28252438D01*
X68988095Y-28252438D02*
X69083333Y-28204819D01*
X69083333Y-28204819D02*
X69321428Y-28204819D01*
X69321428Y-28204819D02*
X69416666Y-28252438D01*
X69416666Y-28252438D02*
X69464285Y-28300057D01*
X69464285Y-28300057D02*
X69511904Y-28395295D01*
X69511904Y-28395295D02*
X69511904Y-28490533D01*
X69511904Y-28490533D02*
X69464285Y-28633390D01*
X69464285Y-28633390D02*
X68892857Y-29204819D01*
X68892857Y-29204819D02*
X69511904Y-29204819D01*
X70857142Y-42954819D02*
X70523809Y-42478628D01*
X70285714Y-42954819D02*
X70285714Y-41954819D01*
X70285714Y-41954819D02*
X70666666Y-41954819D01*
X70666666Y-41954819D02*
X70761904Y-42002438D01*
X70761904Y-42002438D02*
X70809523Y-42050057D01*
X70809523Y-42050057D02*
X70857142Y-42145295D01*
X70857142Y-42145295D02*
X70857142Y-42288152D01*
X70857142Y-42288152D02*
X70809523Y-42383390D01*
X70809523Y-42383390D02*
X70761904Y-42431009D01*
X70761904Y-42431009D02*
X70666666Y-42478628D01*
X70666666Y-42478628D02*
X70285714Y-42478628D01*
X71809523Y-42954819D02*
X71238095Y-42954819D01*
X71523809Y-42954819D02*
X71523809Y-41954819D01*
X71523809Y-41954819D02*
X71428571Y-42097676D01*
X71428571Y-42097676D02*
X71333333Y-42192914D01*
X71333333Y-42192914D02*
X71238095Y-42240533D01*
X72190476Y-42050057D02*
X72238095Y-42002438D01*
X72238095Y-42002438D02*
X72333333Y-41954819D01*
X72333333Y-41954819D02*
X72571428Y-41954819D01*
X72571428Y-41954819D02*
X72666666Y-42002438D01*
X72666666Y-42002438D02*
X72714285Y-42050057D01*
X72714285Y-42050057D02*
X72761904Y-42145295D01*
X72761904Y-42145295D02*
X72761904Y-42240533D01*
X72761904Y-42240533D02*
X72714285Y-42383390D01*
X72714285Y-42383390D02*
X72142857Y-42954819D01*
X72142857Y-42954819D02*
X72761904Y-42954819D01*
X73304819Y-29616666D02*
X72828628Y-29949999D01*
X73304819Y-30188094D02*
X72304819Y-30188094D01*
X72304819Y-30188094D02*
X72304819Y-29807142D01*
X72304819Y-29807142D02*
X72352438Y-29711904D01*
X72352438Y-29711904D02*
X72400057Y-29664285D01*
X72400057Y-29664285D02*
X72495295Y-29616666D01*
X72495295Y-29616666D02*
X72638152Y-29616666D01*
X72638152Y-29616666D02*
X72733390Y-29664285D01*
X72733390Y-29664285D02*
X72781009Y-29711904D01*
X72781009Y-29711904D02*
X72828628Y-29807142D01*
X72828628Y-29807142D02*
X72828628Y-30188094D01*
X72733390Y-29045237D02*
X72685771Y-29140475D01*
X72685771Y-29140475D02*
X72638152Y-29188094D01*
X72638152Y-29188094D02*
X72542914Y-29235713D01*
X72542914Y-29235713D02*
X72495295Y-29235713D01*
X72495295Y-29235713D02*
X72400057Y-29188094D01*
X72400057Y-29188094D02*
X72352438Y-29140475D01*
X72352438Y-29140475D02*
X72304819Y-29045237D01*
X72304819Y-29045237D02*
X72304819Y-28854761D01*
X72304819Y-28854761D02*
X72352438Y-28759523D01*
X72352438Y-28759523D02*
X72400057Y-28711904D01*
X72400057Y-28711904D02*
X72495295Y-28664285D01*
X72495295Y-28664285D02*
X72542914Y-28664285D01*
X72542914Y-28664285D02*
X72638152Y-28711904D01*
X72638152Y-28711904D02*
X72685771Y-28759523D01*
X72685771Y-28759523D02*
X72733390Y-28854761D01*
X72733390Y-28854761D02*
X72733390Y-29045237D01*
X72733390Y-29045237D02*
X72781009Y-29140475D01*
X72781009Y-29140475D02*
X72828628Y-29188094D01*
X72828628Y-29188094D02*
X72923866Y-29235713D01*
X72923866Y-29235713D02*
X73114342Y-29235713D01*
X73114342Y-29235713D02*
X73209580Y-29188094D01*
X73209580Y-29188094D02*
X73257200Y-29140475D01*
X73257200Y-29140475D02*
X73304819Y-29045237D01*
X73304819Y-29045237D02*
X73304819Y-28854761D01*
X73304819Y-28854761D02*
X73257200Y-28759523D01*
X73257200Y-28759523D02*
X73209580Y-28711904D01*
X73209580Y-28711904D02*
X73114342Y-28664285D01*
X73114342Y-28664285D02*
X72923866Y-28664285D01*
X72923866Y-28664285D02*
X72828628Y-28711904D01*
X72828628Y-28711904D02*
X72781009Y-28759523D01*
X72781009Y-28759523D02*
X72733390Y-28854761D01*
X76154819Y-46383333D02*
X76869104Y-46383333D01*
X76869104Y-46383333D02*
X77011961Y-46430952D01*
X77011961Y-46430952D02*
X77107200Y-46526190D01*
X77107200Y-46526190D02*
X77154819Y-46669047D01*
X77154819Y-46669047D02*
X77154819Y-46764285D01*
X76154819Y-46002380D02*
X76154819Y-45383333D01*
X76154819Y-45383333D02*
X76535771Y-45716666D01*
X76535771Y-45716666D02*
X76535771Y-45573809D01*
X76535771Y-45573809D02*
X76583390Y-45478571D01*
X76583390Y-45478571D02*
X76631009Y-45430952D01*
X76631009Y-45430952D02*
X76726247Y-45383333D01*
X76726247Y-45383333D02*
X76964342Y-45383333D01*
X76964342Y-45383333D02*
X77059580Y-45430952D01*
X77059580Y-45430952D02*
X77107200Y-45478571D01*
X77107200Y-45478571D02*
X77154819Y-45573809D01*
X77154819Y-45573809D02*
X77154819Y-45859523D01*
X77154819Y-45859523D02*
X77107200Y-45954761D01*
X77107200Y-45954761D02*
X77059580Y-46002380D01*
X61609580Y-45866666D02*
X61657200Y-45914285D01*
X61657200Y-45914285D02*
X61704819Y-46057142D01*
X61704819Y-46057142D02*
X61704819Y-46152380D01*
X61704819Y-46152380D02*
X61657200Y-46295237D01*
X61657200Y-46295237D02*
X61561961Y-46390475D01*
X61561961Y-46390475D02*
X61466723Y-46438094D01*
X61466723Y-46438094D02*
X61276247Y-46485713D01*
X61276247Y-46485713D02*
X61133390Y-46485713D01*
X61133390Y-46485713D02*
X60942914Y-46438094D01*
X60942914Y-46438094D02*
X60847676Y-46390475D01*
X60847676Y-46390475D02*
X60752438Y-46295237D01*
X60752438Y-46295237D02*
X60704819Y-46152380D01*
X60704819Y-46152380D02*
X60704819Y-46057142D01*
X60704819Y-46057142D02*
X60752438Y-45914285D01*
X60752438Y-45914285D02*
X60800057Y-45866666D01*
X61133390Y-45295237D02*
X61085771Y-45390475D01*
X61085771Y-45390475D02*
X61038152Y-45438094D01*
X61038152Y-45438094D02*
X60942914Y-45485713D01*
X60942914Y-45485713D02*
X60895295Y-45485713D01*
X60895295Y-45485713D02*
X60800057Y-45438094D01*
X60800057Y-45438094D02*
X60752438Y-45390475D01*
X60752438Y-45390475D02*
X60704819Y-45295237D01*
X60704819Y-45295237D02*
X60704819Y-45104761D01*
X60704819Y-45104761D02*
X60752438Y-45009523D01*
X60752438Y-45009523D02*
X60800057Y-44961904D01*
X60800057Y-44961904D02*
X60895295Y-44914285D01*
X60895295Y-44914285D02*
X60942914Y-44914285D01*
X60942914Y-44914285D02*
X61038152Y-44961904D01*
X61038152Y-44961904D02*
X61085771Y-45009523D01*
X61085771Y-45009523D02*
X61133390Y-45104761D01*
X61133390Y-45104761D02*
X61133390Y-45295237D01*
X61133390Y-45295237D02*
X61181009Y-45390475D01*
X61181009Y-45390475D02*
X61228628Y-45438094D01*
X61228628Y-45438094D02*
X61323866Y-45485713D01*
X61323866Y-45485713D02*
X61514342Y-45485713D01*
X61514342Y-45485713D02*
X61609580Y-45438094D01*
X61609580Y-45438094D02*
X61657200Y-45390475D01*
X61657200Y-45390475D02*
X61704819Y-45295237D01*
X61704819Y-45295237D02*
X61704819Y-45104761D01*
X61704819Y-45104761D02*
X61657200Y-45009523D01*
X61657200Y-45009523D02*
X61609580Y-44961904D01*
X61609580Y-44961904D02*
X61514342Y-44914285D01*
X61514342Y-44914285D02*
X61323866Y-44914285D01*
X61323866Y-44914285D02*
X61228628Y-44961904D01*
X61228628Y-44961904D02*
X61181009Y-45009523D01*
X61181009Y-45009523D02*
X61133390Y-45104761D01*
X74440476Y-18704819D02*
X74440476Y-19419104D01*
X74440476Y-19419104D02*
X74392857Y-19561961D01*
X74392857Y-19561961D02*
X74297619Y-19657200D01*
X74297619Y-19657200D02*
X74154762Y-19704819D01*
X74154762Y-19704819D02*
X74059524Y-19704819D01*
X75440476Y-19704819D02*
X74869048Y-19704819D01*
X75154762Y-19704819D02*
X75154762Y-18704819D01*
X75154762Y-18704819D02*
X75059524Y-18847676D01*
X75059524Y-18847676D02*
X74964286Y-18942914D01*
X74964286Y-18942914D02*
X74869048Y-18990533D01*
X76059524Y-18704819D02*
X76154762Y-18704819D01*
X76154762Y-18704819D02*
X76250000Y-18752438D01*
X76250000Y-18752438D02*
X76297619Y-18800057D01*
X76297619Y-18800057D02*
X76345238Y-18895295D01*
X76345238Y-18895295D02*
X76392857Y-19085771D01*
X76392857Y-19085771D02*
X76392857Y-19323866D01*
X76392857Y-19323866D02*
X76345238Y-19514342D01*
X76345238Y-19514342D02*
X76297619Y-19609580D01*
X76297619Y-19609580D02*
X76250000Y-19657200D01*
X76250000Y-19657200D02*
X76154762Y-19704819D01*
X76154762Y-19704819D02*
X76059524Y-19704819D01*
X76059524Y-19704819D02*
X75964286Y-19657200D01*
X75964286Y-19657200D02*
X75916667Y-19609580D01*
X75916667Y-19609580D02*
X75869048Y-19514342D01*
X75869048Y-19514342D02*
X75821429Y-19323866D01*
X75821429Y-19323866D02*
X75821429Y-19085771D01*
X75821429Y-19085771D02*
X75869048Y-18895295D01*
X75869048Y-18895295D02*
X75916667Y-18800057D01*
X75916667Y-18800057D02*
X75964286Y-18752438D01*
X75964286Y-18752438D02*
X76059524Y-18704819D01*
X68807142Y-48004819D02*
X68473809Y-47528628D01*
X68235714Y-48004819D02*
X68235714Y-47004819D01*
X68235714Y-47004819D02*
X68616666Y-47004819D01*
X68616666Y-47004819D02*
X68711904Y-47052438D01*
X68711904Y-47052438D02*
X68759523Y-47100057D01*
X68759523Y-47100057D02*
X68807142Y-47195295D01*
X68807142Y-47195295D02*
X68807142Y-47338152D01*
X68807142Y-47338152D02*
X68759523Y-47433390D01*
X68759523Y-47433390D02*
X68711904Y-47481009D01*
X68711904Y-47481009D02*
X68616666Y-47528628D01*
X68616666Y-47528628D02*
X68235714Y-47528628D01*
X69759523Y-48004819D02*
X69188095Y-48004819D01*
X69473809Y-48004819D02*
X69473809Y-47004819D01*
X69473809Y-47004819D02*
X69378571Y-47147676D01*
X69378571Y-47147676D02*
X69283333Y-47242914D01*
X69283333Y-47242914D02*
X69188095Y-47290533D01*
X70711904Y-48004819D02*
X70140476Y-48004819D01*
X70426190Y-48004819D02*
X70426190Y-47004819D01*
X70426190Y-47004819D02*
X70330952Y-47147676D01*
X70330952Y-47147676D02*
X70235714Y-47242914D01*
X70235714Y-47242914D02*
X70140476Y-47290533D01*
X76104819Y-25383333D02*
X76819104Y-25383333D01*
X76819104Y-25383333D02*
X76961961Y-25430952D01*
X76961961Y-25430952D02*
X77057200Y-25526190D01*
X77057200Y-25526190D02*
X77104819Y-25669047D01*
X77104819Y-25669047D02*
X77104819Y-25764285D01*
X76200057Y-24954761D02*
X76152438Y-24907142D01*
X76152438Y-24907142D02*
X76104819Y-24811904D01*
X76104819Y-24811904D02*
X76104819Y-24573809D01*
X76104819Y-24573809D02*
X76152438Y-24478571D01*
X76152438Y-24478571D02*
X76200057Y-24430952D01*
X76200057Y-24430952D02*
X76295295Y-24383333D01*
X76295295Y-24383333D02*
X76390533Y-24383333D01*
X76390533Y-24383333D02*
X76533390Y-24430952D01*
X76533390Y-24430952D02*
X77104819Y-25002380D01*
X77104819Y-25002380D02*
X77104819Y-24383333D01*
X63807142Y-29209580D02*
X63759523Y-29257200D01*
X63759523Y-29257200D02*
X63616666Y-29304819D01*
X63616666Y-29304819D02*
X63521428Y-29304819D01*
X63521428Y-29304819D02*
X63378571Y-29257200D01*
X63378571Y-29257200D02*
X63283333Y-29161961D01*
X63283333Y-29161961D02*
X63235714Y-29066723D01*
X63235714Y-29066723D02*
X63188095Y-28876247D01*
X63188095Y-28876247D02*
X63188095Y-28733390D01*
X63188095Y-28733390D02*
X63235714Y-28542914D01*
X63235714Y-28542914D02*
X63283333Y-28447676D01*
X63283333Y-28447676D02*
X63378571Y-28352438D01*
X63378571Y-28352438D02*
X63521428Y-28304819D01*
X63521428Y-28304819D02*
X63616666Y-28304819D01*
X63616666Y-28304819D02*
X63759523Y-28352438D01*
X63759523Y-28352438D02*
X63807142Y-28400057D01*
X64759523Y-29304819D02*
X64188095Y-29304819D01*
X64473809Y-29304819D02*
X64473809Y-28304819D01*
X64473809Y-28304819D02*
X64378571Y-28447676D01*
X64378571Y-28447676D02*
X64283333Y-28542914D01*
X64283333Y-28542914D02*
X64188095Y-28590533D01*
X65092857Y-28304819D02*
X65711904Y-28304819D01*
X65711904Y-28304819D02*
X65378571Y-28685771D01*
X65378571Y-28685771D02*
X65521428Y-28685771D01*
X65521428Y-28685771D02*
X65616666Y-28733390D01*
X65616666Y-28733390D02*
X65664285Y-28781009D01*
X65664285Y-28781009D02*
X65711904Y-28876247D01*
X65711904Y-28876247D02*
X65711904Y-29114342D01*
X65711904Y-29114342D02*
X65664285Y-29209580D01*
X65664285Y-29209580D02*
X65616666Y-29257200D01*
X65616666Y-29257200D02*
X65521428Y-29304819D01*
X65521428Y-29304819D02*
X65235714Y-29304819D01*
X65235714Y-29304819D02*
X65140476Y-29257200D01*
X65140476Y-29257200D02*
X65092857Y-29209580D01*
X55404819Y-35583333D02*
X56119104Y-35583333D01*
X56119104Y-35583333D02*
X56261961Y-35630952D01*
X56261961Y-35630952D02*
X56357200Y-35726190D01*
X56357200Y-35726190D02*
X56404819Y-35869047D01*
X56404819Y-35869047D02*
X56404819Y-35964285D01*
X55404819Y-35202380D02*
X55404819Y-34535714D01*
X55404819Y-34535714D02*
X56404819Y-34964285D01*
X61333333Y-21509580D02*
X61285714Y-21557200D01*
X61285714Y-21557200D02*
X61142857Y-21604819D01*
X61142857Y-21604819D02*
X61047619Y-21604819D01*
X61047619Y-21604819D02*
X60904762Y-21557200D01*
X60904762Y-21557200D02*
X60809524Y-21461961D01*
X60809524Y-21461961D02*
X60761905Y-21366723D01*
X60761905Y-21366723D02*
X60714286Y-21176247D01*
X60714286Y-21176247D02*
X60714286Y-21033390D01*
X60714286Y-21033390D02*
X60761905Y-20842914D01*
X60761905Y-20842914D02*
X60809524Y-20747676D01*
X60809524Y-20747676D02*
X60904762Y-20652438D01*
X60904762Y-20652438D02*
X61047619Y-20604819D01*
X61047619Y-20604819D02*
X61142857Y-20604819D01*
X61142857Y-20604819D02*
X61285714Y-20652438D01*
X61285714Y-20652438D02*
X61333333Y-20700057D01*
X62190476Y-20938152D02*
X62190476Y-21604819D01*
X61952381Y-20557200D02*
X61714286Y-21271485D01*
X61714286Y-21271485D02*
X62333333Y-21271485D01*
X71033333Y-21509580D02*
X70985714Y-21557200D01*
X70985714Y-21557200D02*
X70842857Y-21604819D01*
X70842857Y-21604819D02*
X70747619Y-21604819D01*
X70747619Y-21604819D02*
X70604762Y-21557200D01*
X70604762Y-21557200D02*
X70509524Y-21461961D01*
X70509524Y-21461961D02*
X70461905Y-21366723D01*
X70461905Y-21366723D02*
X70414286Y-21176247D01*
X70414286Y-21176247D02*
X70414286Y-21033390D01*
X70414286Y-21033390D02*
X70461905Y-20842914D01*
X70461905Y-20842914D02*
X70509524Y-20747676D01*
X70509524Y-20747676D02*
X70604762Y-20652438D01*
X70604762Y-20652438D02*
X70747619Y-20604819D01*
X70747619Y-20604819D02*
X70842857Y-20604819D01*
X70842857Y-20604819D02*
X70985714Y-20652438D01*
X70985714Y-20652438D02*
X71033333Y-20700057D01*
X71366667Y-20604819D02*
X71985714Y-20604819D01*
X71985714Y-20604819D02*
X71652381Y-20985771D01*
X71652381Y-20985771D02*
X71795238Y-20985771D01*
X71795238Y-20985771D02*
X71890476Y-21033390D01*
X71890476Y-21033390D02*
X71938095Y-21081009D01*
X71938095Y-21081009D02*
X71985714Y-21176247D01*
X71985714Y-21176247D02*
X71985714Y-21414342D01*
X71985714Y-21414342D02*
X71938095Y-21509580D01*
X71938095Y-21509580D02*
X71890476Y-21557200D01*
X71890476Y-21557200D02*
X71795238Y-21604819D01*
X71795238Y-21604819D02*
X71509524Y-21604819D01*
X71509524Y-21604819D02*
X71414286Y-21557200D01*
X71414286Y-21557200D02*
X71366667Y-21509580D01*
X61609580Y-37716666D02*
X61657200Y-37764285D01*
X61657200Y-37764285D02*
X61704819Y-37907142D01*
X61704819Y-37907142D02*
X61704819Y-38002380D01*
X61704819Y-38002380D02*
X61657200Y-38145237D01*
X61657200Y-38145237D02*
X61561961Y-38240475D01*
X61561961Y-38240475D02*
X61466723Y-38288094D01*
X61466723Y-38288094D02*
X61276247Y-38335713D01*
X61276247Y-38335713D02*
X61133390Y-38335713D01*
X61133390Y-38335713D02*
X60942914Y-38288094D01*
X60942914Y-38288094D02*
X60847676Y-38240475D01*
X60847676Y-38240475D02*
X60752438Y-38145237D01*
X60752438Y-38145237D02*
X60704819Y-38002380D01*
X60704819Y-38002380D02*
X60704819Y-37907142D01*
X60704819Y-37907142D02*
X60752438Y-37764285D01*
X60752438Y-37764285D02*
X60800057Y-37716666D01*
X61704819Y-36764285D02*
X61704819Y-37335713D01*
X61704819Y-37049999D02*
X60704819Y-37049999D01*
X60704819Y-37049999D02*
X60847676Y-37145237D01*
X60847676Y-37145237D02*
X60942914Y-37240475D01*
X60942914Y-37240475D02*
X60990533Y-37335713D01*
X61483333Y-42909580D02*
X61435714Y-42957200D01*
X61435714Y-42957200D02*
X61292857Y-43004819D01*
X61292857Y-43004819D02*
X61197619Y-43004819D01*
X61197619Y-43004819D02*
X61054762Y-42957200D01*
X61054762Y-42957200D02*
X60959524Y-42861961D01*
X60959524Y-42861961D02*
X60911905Y-42766723D01*
X60911905Y-42766723D02*
X60864286Y-42576247D01*
X60864286Y-42576247D02*
X60864286Y-42433390D01*
X60864286Y-42433390D02*
X60911905Y-42242914D01*
X60911905Y-42242914D02*
X60959524Y-42147676D01*
X60959524Y-42147676D02*
X61054762Y-42052438D01*
X61054762Y-42052438D02*
X61197619Y-42004819D01*
X61197619Y-42004819D02*
X61292857Y-42004819D01*
X61292857Y-42004819D02*
X61435714Y-42052438D01*
X61435714Y-42052438D02*
X61483333Y-42100057D01*
X62340476Y-42004819D02*
X62150000Y-42004819D01*
X62150000Y-42004819D02*
X62054762Y-42052438D01*
X62054762Y-42052438D02*
X62007143Y-42100057D01*
X62007143Y-42100057D02*
X61911905Y-42242914D01*
X61911905Y-42242914D02*
X61864286Y-42433390D01*
X61864286Y-42433390D02*
X61864286Y-42814342D01*
X61864286Y-42814342D02*
X61911905Y-42909580D01*
X61911905Y-42909580D02*
X61959524Y-42957200D01*
X61959524Y-42957200D02*
X62054762Y-43004819D01*
X62054762Y-43004819D02*
X62245238Y-43004819D01*
X62245238Y-43004819D02*
X62340476Y-42957200D01*
X62340476Y-42957200D02*
X62388095Y-42909580D01*
X62388095Y-42909580D02*
X62435714Y-42814342D01*
X62435714Y-42814342D02*
X62435714Y-42576247D01*
X62435714Y-42576247D02*
X62388095Y-42481009D01*
X62388095Y-42481009D02*
X62340476Y-42433390D01*
X62340476Y-42433390D02*
X62245238Y-42385771D01*
X62245238Y-42385771D02*
X62054762Y-42385771D01*
X62054762Y-42385771D02*
X61959524Y-42433390D01*
X61959524Y-42433390D02*
X61911905Y-42481009D01*
X61911905Y-42481009D02*
X61864286Y-42576247D01*
X68683333Y-43109580D02*
X68635714Y-43157200D01*
X68635714Y-43157200D02*
X68492857Y-43204819D01*
X68492857Y-43204819D02*
X68397619Y-43204819D01*
X68397619Y-43204819D02*
X68254762Y-43157200D01*
X68254762Y-43157200D02*
X68159524Y-43061961D01*
X68159524Y-43061961D02*
X68111905Y-42966723D01*
X68111905Y-42966723D02*
X68064286Y-42776247D01*
X68064286Y-42776247D02*
X68064286Y-42633390D01*
X68064286Y-42633390D02*
X68111905Y-42442914D01*
X68111905Y-42442914D02*
X68159524Y-42347676D01*
X68159524Y-42347676D02*
X68254762Y-42252438D01*
X68254762Y-42252438D02*
X68397619Y-42204819D01*
X68397619Y-42204819D02*
X68492857Y-42204819D01*
X68492857Y-42204819D02*
X68635714Y-42252438D01*
X68635714Y-42252438D02*
X68683333Y-42300057D01*
X69159524Y-43204819D02*
X69350000Y-43204819D01*
X69350000Y-43204819D02*
X69445238Y-43157200D01*
X69445238Y-43157200D02*
X69492857Y-43109580D01*
X69492857Y-43109580D02*
X69588095Y-42966723D01*
X69588095Y-42966723D02*
X69635714Y-42776247D01*
X69635714Y-42776247D02*
X69635714Y-42395295D01*
X69635714Y-42395295D02*
X69588095Y-42300057D01*
X69588095Y-42300057D02*
X69540476Y-42252438D01*
X69540476Y-42252438D02*
X69445238Y-42204819D01*
X69445238Y-42204819D02*
X69254762Y-42204819D01*
X69254762Y-42204819D02*
X69159524Y-42252438D01*
X69159524Y-42252438D02*
X69111905Y-42300057D01*
X69111905Y-42300057D02*
X69064286Y-42395295D01*
X69064286Y-42395295D02*
X69064286Y-42633390D01*
X69064286Y-42633390D02*
X69111905Y-42728628D01*
X69111905Y-42728628D02*
X69159524Y-42776247D01*
X69159524Y-42776247D02*
X69254762Y-42823866D01*
X69254762Y-42823866D02*
X69445238Y-42823866D01*
X69445238Y-42823866D02*
X69540476Y-42776247D01*
X69540476Y-42776247D02*
X69588095Y-42728628D01*
X69588095Y-42728628D02*
X69635714Y-42633390D01*
X71409580Y-39142857D02*
X71457200Y-39190476D01*
X71457200Y-39190476D02*
X71504819Y-39333333D01*
X71504819Y-39333333D02*
X71504819Y-39428571D01*
X71504819Y-39428571D02*
X71457200Y-39571428D01*
X71457200Y-39571428D02*
X71361961Y-39666666D01*
X71361961Y-39666666D02*
X71266723Y-39714285D01*
X71266723Y-39714285D02*
X71076247Y-39761904D01*
X71076247Y-39761904D02*
X70933390Y-39761904D01*
X70933390Y-39761904D02*
X70742914Y-39714285D01*
X70742914Y-39714285D02*
X70647676Y-39666666D01*
X70647676Y-39666666D02*
X70552438Y-39571428D01*
X70552438Y-39571428D02*
X70504819Y-39428571D01*
X70504819Y-39428571D02*
X70504819Y-39333333D01*
X70504819Y-39333333D02*
X70552438Y-39190476D01*
X70552438Y-39190476D02*
X70600057Y-39142857D01*
X71504819Y-38190476D02*
X71504819Y-38761904D01*
X71504819Y-38476190D02*
X70504819Y-38476190D01*
X70504819Y-38476190D02*
X70647676Y-38571428D01*
X70647676Y-38571428D02*
X70742914Y-38666666D01*
X70742914Y-38666666D02*
X70790533Y-38761904D01*
X71504819Y-37238095D02*
X71504819Y-37809523D01*
X71504819Y-37523809D02*
X70504819Y-37523809D01*
X70504819Y-37523809D02*
X70647676Y-37619047D01*
X70647676Y-37619047D02*
X70742914Y-37714285D01*
X70742914Y-37714285D02*
X70790533Y-37809523D01*
X55404819Y-25283333D02*
X56119104Y-25283333D01*
X56119104Y-25283333D02*
X56261961Y-25330952D01*
X56261961Y-25330952D02*
X56357200Y-25426190D01*
X56357200Y-25426190D02*
X56404819Y-25569047D01*
X56404819Y-25569047D02*
X56404819Y-25664285D01*
X55738152Y-24378571D02*
X56404819Y-24378571D01*
X55357200Y-24616666D02*
X56071485Y-24854761D01*
X56071485Y-24854761D02*
X56071485Y-24235714D01*
X70983333Y-25404819D02*
X70650000Y-24928628D01*
X70411905Y-25404819D02*
X70411905Y-24404819D01*
X70411905Y-24404819D02*
X70792857Y-24404819D01*
X70792857Y-24404819D02*
X70888095Y-24452438D01*
X70888095Y-24452438D02*
X70935714Y-24500057D01*
X70935714Y-24500057D02*
X70983333Y-24595295D01*
X70983333Y-24595295D02*
X70983333Y-24738152D01*
X70983333Y-24738152D02*
X70935714Y-24833390D01*
X70935714Y-24833390D02*
X70888095Y-24881009D01*
X70888095Y-24881009D02*
X70792857Y-24928628D01*
X70792857Y-24928628D02*
X70411905Y-24928628D01*
X71840476Y-24738152D02*
X71840476Y-25404819D01*
X71602381Y-24357200D02*
X71364286Y-25071485D01*
X71364286Y-25071485D02*
X71983333Y-25071485D01*
X71959819Y-51319523D02*
X72674104Y-51319523D01*
X72674104Y-51319523D02*
X72816961Y-51367142D01*
X72816961Y-51367142D02*
X72912200Y-51462380D01*
X72912200Y-51462380D02*
X72959819Y-51605237D01*
X72959819Y-51605237D02*
X72959819Y-51700475D01*
X72959819Y-50319523D02*
X72959819Y-50890951D01*
X72959819Y-50605237D02*
X71959819Y-50605237D01*
X71959819Y-50605237D02*
X72102676Y-50700475D01*
X72102676Y-50700475D02*
X72197914Y-50795713D01*
X72197914Y-50795713D02*
X72245533Y-50890951D01*
X71959819Y-49986189D02*
X71959819Y-49367142D01*
X71959819Y-49367142D02*
X72340771Y-49700475D01*
X72340771Y-49700475D02*
X72340771Y-49557618D01*
X72340771Y-49557618D02*
X72388390Y-49462380D01*
X72388390Y-49462380D02*
X72436009Y-49414761D01*
X72436009Y-49414761D02*
X72531247Y-49367142D01*
X72531247Y-49367142D02*
X72769342Y-49367142D01*
X72769342Y-49367142D02*
X72864580Y-49414761D01*
X72864580Y-49414761D02*
X72912200Y-49462380D01*
X72912200Y-49462380D02*
X72959819Y-49557618D01*
X72959819Y-49557618D02*
X72959819Y-49843332D01*
X72959819Y-49843332D02*
X72912200Y-49938570D01*
X72912200Y-49938570D02*
X72864580Y-49986189D01*
X76104819Y-35583333D02*
X76819104Y-35583333D01*
X76819104Y-35583333D02*
X76961961Y-35630952D01*
X76961961Y-35630952D02*
X77057200Y-35726190D01*
X77057200Y-35726190D02*
X77104819Y-35869047D01*
X77104819Y-35869047D02*
X77104819Y-35964285D01*
X76533390Y-34964285D02*
X76485771Y-35059523D01*
X76485771Y-35059523D02*
X76438152Y-35107142D01*
X76438152Y-35107142D02*
X76342914Y-35154761D01*
X76342914Y-35154761D02*
X76295295Y-35154761D01*
X76295295Y-35154761D02*
X76200057Y-35107142D01*
X76200057Y-35107142D02*
X76152438Y-35059523D01*
X76152438Y-35059523D02*
X76104819Y-34964285D01*
X76104819Y-34964285D02*
X76104819Y-34773809D01*
X76104819Y-34773809D02*
X76152438Y-34678571D01*
X76152438Y-34678571D02*
X76200057Y-34630952D01*
X76200057Y-34630952D02*
X76295295Y-34583333D01*
X76295295Y-34583333D02*
X76342914Y-34583333D01*
X76342914Y-34583333D02*
X76438152Y-34630952D01*
X76438152Y-34630952D02*
X76485771Y-34678571D01*
X76485771Y-34678571D02*
X76533390Y-34773809D01*
X76533390Y-34773809D02*
X76533390Y-34964285D01*
X76533390Y-34964285D02*
X76581009Y-35059523D01*
X76581009Y-35059523D02*
X76628628Y-35107142D01*
X76628628Y-35107142D02*
X76723866Y-35154761D01*
X76723866Y-35154761D02*
X76914342Y-35154761D01*
X76914342Y-35154761D02*
X77009580Y-35107142D01*
X77009580Y-35107142D02*
X77057200Y-35059523D01*
X77057200Y-35059523D02*
X77104819Y-34964285D01*
X77104819Y-34964285D02*
X77104819Y-34773809D01*
X77104819Y-34773809D02*
X77057200Y-34678571D01*
X77057200Y-34678571D02*
X77009580Y-34630952D01*
X77009580Y-34630952D02*
X76914342Y-34583333D01*
X76914342Y-34583333D02*
X76723866Y-34583333D01*
X76723866Y-34583333D02*
X76628628Y-34630952D01*
X76628628Y-34630952D02*
X76581009Y-34678571D01*
X76581009Y-34678571D02*
X76533390Y-34773809D01*
X73304819Y-32116666D02*
X72828628Y-32449999D01*
X73304819Y-32688094D02*
X72304819Y-32688094D01*
X72304819Y-32688094D02*
X72304819Y-32307142D01*
X72304819Y-32307142D02*
X72352438Y-32211904D01*
X72352438Y-32211904D02*
X72400057Y-32164285D01*
X72400057Y-32164285D02*
X72495295Y-32116666D01*
X72495295Y-32116666D02*
X72638152Y-32116666D01*
X72638152Y-32116666D02*
X72733390Y-32164285D01*
X72733390Y-32164285D02*
X72781009Y-32211904D01*
X72781009Y-32211904D02*
X72828628Y-32307142D01*
X72828628Y-32307142D02*
X72828628Y-32688094D01*
X72304819Y-31783332D02*
X72304819Y-31164285D01*
X72304819Y-31164285D02*
X72685771Y-31497618D01*
X72685771Y-31497618D02*
X72685771Y-31354761D01*
X72685771Y-31354761D02*
X72733390Y-31259523D01*
X72733390Y-31259523D02*
X72781009Y-31211904D01*
X72781009Y-31211904D02*
X72876247Y-31164285D01*
X72876247Y-31164285D02*
X73114342Y-31164285D01*
X73114342Y-31164285D02*
X73209580Y-31211904D01*
X73209580Y-31211904D02*
X73257200Y-31259523D01*
X73257200Y-31259523D02*
X73304819Y-31354761D01*
X73304819Y-31354761D02*
X73304819Y-31640475D01*
X73304819Y-31640475D02*
X73257200Y-31735713D01*
X73257200Y-31735713D02*
X73209580Y-31783332D01*
X63304819Y-37716666D02*
X62828628Y-38049999D01*
X63304819Y-38288094D02*
X62304819Y-38288094D01*
X62304819Y-38288094D02*
X62304819Y-37907142D01*
X62304819Y-37907142D02*
X62352438Y-37811904D01*
X62352438Y-37811904D02*
X62400057Y-37764285D01*
X62400057Y-37764285D02*
X62495295Y-37716666D01*
X62495295Y-37716666D02*
X62638152Y-37716666D01*
X62638152Y-37716666D02*
X62733390Y-37764285D01*
X62733390Y-37764285D02*
X62781009Y-37811904D01*
X62781009Y-37811904D02*
X62828628Y-37907142D01*
X62828628Y-37907142D02*
X62828628Y-38288094D01*
X63304819Y-36764285D02*
X63304819Y-37335713D01*
X63304819Y-37049999D02*
X62304819Y-37049999D01*
X62304819Y-37049999D02*
X62447676Y-37145237D01*
X62447676Y-37145237D02*
X62542914Y-37240475D01*
X62542914Y-37240475D02*
X62590533Y-37335713D01*
X66183333Y-38909580D02*
X66135714Y-38957200D01*
X66135714Y-38957200D02*
X65992857Y-39004819D01*
X65992857Y-39004819D02*
X65897619Y-39004819D01*
X65897619Y-39004819D02*
X65754762Y-38957200D01*
X65754762Y-38957200D02*
X65659524Y-38861961D01*
X65659524Y-38861961D02*
X65611905Y-38766723D01*
X65611905Y-38766723D02*
X65564286Y-38576247D01*
X65564286Y-38576247D02*
X65564286Y-38433390D01*
X65564286Y-38433390D02*
X65611905Y-38242914D01*
X65611905Y-38242914D02*
X65659524Y-38147676D01*
X65659524Y-38147676D02*
X65754762Y-38052438D01*
X65754762Y-38052438D02*
X65897619Y-38004819D01*
X65897619Y-38004819D02*
X65992857Y-38004819D01*
X65992857Y-38004819D02*
X66135714Y-38052438D01*
X66135714Y-38052438D02*
X66183333Y-38100057D01*
X66564286Y-38100057D02*
X66611905Y-38052438D01*
X66611905Y-38052438D02*
X66707143Y-38004819D01*
X66707143Y-38004819D02*
X66945238Y-38004819D01*
X66945238Y-38004819D02*
X67040476Y-38052438D01*
X67040476Y-38052438D02*
X67088095Y-38100057D01*
X67088095Y-38100057D02*
X67135714Y-38195295D01*
X67135714Y-38195295D02*
X67135714Y-38290533D01*
X67135714Y-38290533D02*
X67088095Y-38433390D01*
X67088095Y-38433390D02*
X66516667Y-39004819D01*
X66516667Y-39004819D02*
X67135714Y-39004819D01*
X70983333Y-23304819D02*
X70650000Y-22828628D01*
X70411905Y-23304819D02*
X70411905Y-22304819D01*
X70411905Y-22304819D02*
X70792857Y-22304819D01*
X70792857Y-22304819D02*
X70888095Y-22352438D01*
X70888095Y-22352438D02*
X70935714Y-22400057D01*
X70935714Y-22400057D02*
X70983333Y-22495295D01*
X70983333Y-22495295D02*
X70983333Y-22638152D01*
X70983333Y-22638152D02*
X70935714Y-22733390D01*
X70935714Y-22733390D02*
X70888095Y-22781009D01*
X70888095Y-22781009D02*
X70792857Y-22828628D01*
X70792857Y-22828628D02*
X70411905Y-22828628D01*
X71888095Y-22304819D02*
X71411905Y-22304819D01*
X71411905Y-22304819D02*
X71364286Y-22781009D01*
X71364286Y-22781009D02*
X71411905Y-22733390D01*
X71411905Y-22733390D02*
X71507143Y-22685771D01*
X71507143Y-22685771D02*
X71745238Y-22685771D01*
X71745238Y-22685771D02*
X71840476Y-22733390D01*
X71840476Y-22733390D02*
X71888095Y-22781009D01*
X71888095Y-22781009D02*
X71935714Y-22876247D01*
X71935714Y-22876247D02*
X71935714Y-23114342D01*
X71935714Y-23114342D02*
X71888095Y-23209580D01*
X71888095Y-23209580D02*
X71840476Y-23257200D01*
X71840476Y-23257200D02*
X71745238Y-23304819D01*
X71745238Y-23304819D02*
X71507143Y-23304819D01*
X71507143Y-23304819D02*
X71411905Y-23257200D01*
X71411905Y-23257200D02*
X71364286Y-23209580D01*
X60809580Y-31592857D02*
X60857200Y-31640476D01*
X60857200Y-31640476D02*
X60904819Y-31783333D01*
X60904819Y-31783333D02*
X60904819Y-31878571D01*
X60904819Y-31878571D02*
X60857200Y-32021428D01*
X60857200Y-32021428D02*
X60761961Y-32116666D01*
X60761961Y-32116666D02*
X60666723Y-32164285D01*
X60666723Y-32164285D02*
X60476247Y-32211904D01*
X60476247Y-32211904D02*
X60333390Y-32211904D01*
X60333390Y-32211904D02*
X60142914Y-32164285D01*
X60142914Y-32164285D02*
X60047676Y-32116666D01*
X60047676Y-32116666D02*
X59952438Y-32021428D01*
X59952438Y-32021428D02*
X59904819Y-31878571D01*
X59904819Y-31878571D02*
X59904819Y-31783333D01*
X59904819Y-31783333D02*
X59952438Y-31640476D01*
X59952438Y-31640476D02*
X60000057Y-31592857D01*
X60904819Y-30640476D02*
X60904819Y-31211904D01*
X60904819Y-30926190D02*
X59904819Y-30926190D01*
X59904819Y-30926190D02*
X60047676Y-31021428D01*
X60047676Y-31021428D02*
X60142914Y-31116666D01*
X60142914Y-31116666D02*
X60190533Y-31211904D01*
X59904819Y-30021428D02*
X59904819Y-29926190D01*
X59904819Y-29926190D02*
X59952438Y-29830952D01*
X59952438Y-29830952D02*
X60000057Y-29783333D01*
X60000057Y-29783333D02*
X60095295Y-29735714D01*
X60095295Y-29735714D02*
X60285771Y-29688095D01*
X60285771Y-29688095D02*
X60523866Y-29688095D01*
X60523866Y-29688095D02*
X60714342Y-29735714D01*
X60714342Y-29735714D02*
X60809580Y-29783333D01*
X60809580Y-29783333D02*
X60857200Y-29830952D01*
X60857200Y-29830952D02*
X60904819Y-29926190D01*
X60904819Y-29926190D02*
X60904819Y-30021428D01*
X60904819Y-30021428D02*
X60857200Y-30116666D01*
X60857200Y-30116666D02*
X60809580Y-30164285D01*
X60809580Y-30164285D02*
X60714342Y-30211904D01*
X60714342Y-30211904D02*
X60523866Y-30259523D01*
X60523866Y-30259523D02*
X60285771Y-30259523D01*
X60285771Y-30259523D02*
X60095295Y-30211904D01*
X60095295Y-30211904D02*
X60000057Y-30164285D01*
X60000057Y-30164285D02*
X59952438Y-30116666D01*
X59952438Y-30116666D02*
X59904819Y-30021428D01*
D11*
X64240000Y-31387500D02*
X64590000Y-31387500D01*
X64240000Y-31737500D02*
X64240000Y-31387500D01*
X64240000Y-35257500D02*
X64240000Y-35607500D01*
X64240000Y-35607500D02*
X64590000Y-35607500D01*
X68110000Y-31387500D02*
X68220000Y-31387500D01*
X68460000Y-35257500D02*
X68460000Y-35607500D01*
X68460000Y-35607500D02*
X68110000Y-35607500D01*
X68790000Y-31627500D02*
X68460000Y-31387500D01*
X68790000Y-31147500D01*
X68790000Y-31627500D01*
G36*
X68790000Y-31627500D02*
G01*
X68460000Y-31387500D01*
X68790000Y-31147500D01*
X68790000Y-31627500D01*
G37*
X54790000Y-42460000D02*
X54790000Y-49640000D01*
X57610000Y-41190000D02*
X59060000Y-41190000D01*
X57610000Y-50910000D02*
X59060000Y-50910000D01*
X59060000Y-41190000D02*
X59060000Y-42990000D01*
X59060000Y-42990000D02*
X60050000Y-42990000D01*
X59060000Y-50910000D02*
X59060000Y-49110000D01*
X70840000Y-35590580D02*
X70840000Y-35309420D01*
X71860000Y-35590580D02*
X71860000Y-35309420D01*
X64122936Y-22115000D02*
X64577064Y-22115000D01*
X64122936Y-23585000D02*
X64577064Y-23585000D01*
X69327500Y-30862742D02*
X69327500Y-31337258D01*
X70372500Y-30862742D02*
X70372500Y-31337258D01*
X65937500Y-44090000D02*
X65137500Y-44090000D01*
X65937500Y-44090000D02*
X66737500Y-44090000D01*
X65937500Y-47210000D02*
X65137500Y-47210000D01*
X65937500Y-47210000D02*
X66737500Y-47210000D01*
X67477500Y-47490000D02*
X66997500Y-47490000D01*
X67237500Y-47160000D01*
X67477500Y-47490000D01*
G36*
X67477500Y-47490000D02*
G01*
X66997500Y-47490000D01*
X67237500Y-47160000D01*
X67477500Y-47490000D01*
G37*
X62915000Y-39938748D02*
X62915000Y-40461252D01*
X64385000Y-39938748D02*
X64385000Y-40461252D01*
X64122936Y-24215000D02*
X64577064Y-24215000D01*
X64122936Y-25685000D02*
X64577064Y-25685000D01*
X67988748Y-26515000D02*
X68511252Y-26515000D01*
X67988748Y-27985000D02*
X68511252Y-27985000D01*
X70227500Y-45137742D02*
X70227500Y-45612258D01*
X71272500Y-45137742D02*
X71272500Y-45612258D01*
X70827500Y-29687258D02*
X70827500Y-29212742D01*
X71872500Y-29687258D02*
X71872500Y-29212742D01*
X73690000Y-41190000D02*
X73690000Y-42990000D01*
X73690000Y-49110000D02*
X72700000Y-49110000D01*
X73690000Y-50910000D02*
X73690000Y-49110000D01*
X75140000Y-41190000D02*
X73690000Y-41190000D01*
X75140000Y-50910000D02*
X73690000Y-50910000D01*
X77960000Y-49640000D02*
X77960000Y-42460000D01*
X62015000Y-45438748D02*
X62015000Y-45961252D01*
X63485000Y-45438748D02*
X63485000Y-45961252D01*
X56140000Y-15720000D02*
X56140000Y-18380000D01*
X73980000Y-15720000D02*
X56140000Y-15720000D01*
X73980000Y-15720000D02*
X73980000Y-18380000D01*
X73980000Y-18380000D02*
X56140000Y-18380000D01*
X75250000Y-15720000D02*
X76580000Y-15720000D01*
X76580000Y-15720000D02*
X76580000Y-17050000D01*
X68727500Y-45137742D02*
X68727500Y-45612258D01*
X69772500Y-45137742D02*
X69772500Y-45612258D01*
X73690000Y-20815000D02*
X73690000Y-22615000D01*
X73690000Y-27485000D02*
X72700000Y-27485000D01*
X73690000Y-29285000D02*
X73690000Y-27485000D01*
X75140000Y-20815000D02*
X73690000Y-20815000D01*
X75140000Y-29285000D02*
X73690000Y-29285000D01*
X77960000Y-28015000D02*
X77960000Y-22085000D01*
X64188748Y-26515000D02*
X64711252Y-26515000D01*
X64188748Y-27985000D02*
X64711252Y-27985000D01*
X54790000Y-32285000D02*
X54790000Y-38215000D01*
X57610000Y-31015000D02*
X59060000Y-31015000D01*
X57610000Y-39485000D02*
X59060000Y-39485000D01*
X59060000Y-31015000D02*
X59060000Y-32815000D01*
X59060000Y-32815000D02*
X60050000Y-32815000D01*
X59060000Y-39485000D02*
X59060000Y-37685000D01*
X64711252Y-20015000D02*
X64188748Y-20015000D01*
X64711252Y-21485000D02*
X64188748Y-21485000D01*
X68511252Y-20015000D02*
X67988748Y-20015000D01*
X68511252Y-21485000D02*
X67988748Y-21485000D01*
X60840000Y-35059420D02*
X60840000Y-35340580D01*
X61860000Y-35059420D02*
X61860000Y-35340580D01*
X60915000Y-39938748D02*
X60915000Y-40461252D01*
X62385000Y-39938748D02*
X62385000Y-40461252D01*
X66088748Y-42015000D02*
X66611252Y-42015000D01*
X66088748Y-43485000D02*
X66611252Y-43485000D01*
X68390000Y-37788748D02*
X68390000Y-39211252D01*
X70210000Y-37788748D02*
X70210000Y-39211252D01*
X54790000Y-22085000D02*
X54790000Y-28015000D01*
X57610000Y-20815000D02*
X59060000Y-20815000D01*
X57610000Y-29285000D02*
X59060000Y-29285000D01*
X59060000Y-20815000D02*
X59060000Y-22615000D01*
X59060000Y-22615000D02*
X60050000Y-22615000D01*
X59060000Y-29285000D02*
X59060000Y-27485000D01*
X68577064Y-24215000D02*
X68122936Y-24215000D01*
X68577064Y-25685000D02*
X68122936Y-25685000D01*
X61225000Y-48745000D02*
X61225000Y-49567470D01*
X61225000Y-50182530D02*
X61225000Y-50837470D01*
X61225000Y-51452530D02*
X61225000Y-52275000D01*
X70050000Y-48745000D02*
X61225000Y-48745000D01*
X70050000Y-48745000D02*
X70050000Y-49311529D01*
X70050000Y-50438471D02*
X70050000Y-50581529D01*
X70103471Y-50635000D02*
X70246529Y-50635000D01*
X70810000Y-48745000D02*
X71570000Y-48745000D01*
X71373471Y-50635000D02*
X71505000Y-50635000D01*
X71505000Y-50635000D02*
X71505000Y-50837470D01*
X71505000Y-51452530D02*
X71505000Y-52275000D01*
X71505000Y-52275000D02*
X61225000Y-52275000D01*
X71570000Y-48745000D02*
X71570000Y-49875000D01*
X73740000Y-31015000D02*
X73740000Y-32815000D01*
X73740000Y-37685000D02*
X72750000Y-37685000D01*
X73740000Y-39485000D02*
X73740000Y-37685000D01*
X75190000Y-31015000D02*
X73740000Y-31015000D01*
X75190000Y-39485000D02*
X73740000Y-39485000D01*
X78010000Y-38215000D02*
X78010000Y-32285000D01*
X70827500Y-32212742D02*
X70827500Y-32687258D01*
X71872500Y-32212742D02*
X71872500Y-32687258D01*
X62377500Y-34962742D02*
X62377500Y-35437258D01*
X63422500Y-34962742D02*
X63422500Y-35437258D01*
X66611252Y-39315000D02*
X66088748Y-39315000D01*
X66611252Y-40785000D02*
X66088748Y-40785000D01*
X68577064Y-22115000D02*
X68122936Y-22115000D01*
X68577064Y-23585000D02*
X68122936Y-23585000D01*
X61240000Y-31661252D02*
X61240000Y-30238748D01*
X63060000Y-31661252D02*
X63060000Y-30238748D01*
%LPC*%
D12*
X67750000Y-31497500D03*
X67350000Y-31497500D03*
X66950000Y-31497500D03*
X66550000Y-31497500D03*
X66150000Y-31497500D03*
X65750000Y-31497500D03*
X65350000Y-31497500D03*
X64950000Y-31497500D03*
D13*
X64350000Y-32097500D03*
X64350000Y-32497500D03*
X64350000Y-32897500D03*
X64350000Y-33297500D03*
X64350000Y-33697500D03*
X64350000Y-34097500D03*
X64350000Y-34497500D03*
X64350000Y-34897500D03*
D12*
X64950000Y-35497500D03*
X65350000Y-35497500D03*
X65750000Y-35497500D03*
X66150000Y-35497500D03*
X66550000Y-35497500D03*
X66950000Y-35497500D03*
X67350000Y-35497500D03*
X67750000Y-35497500D03*
D13*
X68350000Y-34897500D03*
X68350000Y-34497500D03*
X68350000Y-34097500D03*
X68350000Y-33697500D03*
X68350000Y-33297500D03*
X68350000Y-32897500D03*
X68350000Y-32497500D03*
X68350000Y-32097500D03*
D14*
X66350000Y-33497500D03*
D15*
X59200000Y-43550000D03*
X59200000Y-44800000D03*
X59200000Y-46050000D03*
X59200000Y-47300000D03*
X59200000Y-48550000D03*
D16*
X56000000Y-41700000D03*
X56000000Y-50400000D03*
D17*
X71350000Y-36225000D03*
X71350000Y-34675000D03*
D18*
X63350000Y-22850000D03*
X65350000Y-22850000D03*
D19*
X69850000Y-30275000D03*
X69850000Y-31925000D03*
D20*
X67075000Y-46600000D03*
X67075000Y-45650000D03*
X67075000Y-44700000D03*
X64800000Y-44700000D03*
X64800000Y-46600000D03*
D21*
X63650000Y-39250000D03*
X63650000Y-41150000D03*
D18*
X63350000Y-24950000D03*
X65350000Y-24950000D03*
D22*
X67300000Y-27250000D03*
X69200000Y-27250000D03*
D19*
X70750000Y-44550000D03*
X70750000Y-46200000D03*
D23*
X71350000Y-30275000D03*
X71350000Y-28625000D03*
D24*
X73550000Y-48550000D03*
X73550000Y-47300000D03*
X73550000Y-46050000D03*
X73550000Y-44800000D03*
X73550000Y-43550000D03*
D25*
X76750000Y-50400000D03*
X76750000Y-41700000D03*
D21*
X62750000Y-44750000D03*
X62750000Y-46650000D03*
D26*
X75250000Y-17050000D03*
D27*
X72710000Y-17050000D03*
D26*
X70170000Y-17050000D03*
D27*
X67630000Y-17050000D03*
D26*
X65090000Y-17050000D03*
D27*
X62550000Y-17050000D03*
D26*
X60010000Y-17050000D03*
D27*
X57470000Y-17050000D03*
D19*
X69250000Y-44550000D03*
X69250000Y-46200000D03*
D24*
X73550000Y-26925000D03*
X73550000Y-25675000D03*
X73550000Y-24425000D03*
X73550000Y-23175000D03*
D25*
X76750000Y-28775000D03*
X76750000Y-21325000D03*
D22*
X63500000Y-27250000D03*
X65400000Y-27250000D03*
D15*
X59200000Y-33375000D03*
X59200000Y-34625000D03*
X59200000Y-35875000D03*
X59200000Y-37125000D03*
D16*
X56000000Y-31525000D03*
X56000000Y-38975000D03*
D28*
X65400000Y-20750000D03*
X63500000Y-20750000D03*
X69200000Y-20750000D03*
X67300000Y-20750000D03*
D29*
X61350000Y-34425000D03*
X61350000Y-35975000D03*
D21*
X61650000Y-39250000D03*
X61650000Y-41150000D03*
D22*
X65400000Y-42750000D03*
X67300000Y-42750000D03*
D30*
X69300000Y-37025000D03*
X69300000Y-39975000D03*
D15*
X59200000Y-23175000D03*
X59200000Y-24425000D03*
X59200000Y-25675000D03*
X59200000Y-26925000D03*
D16*
X56000000Y-21325000D03*
X56000000Y-28775000D03*
D31*
X69350000Y-24950000D03*
X67350000Y-24950000D03*
D32*
X70810000Y-49875000D03*
D33*
X70810000Y-51145000D03*
X69540000Y-49875000D03*
X69540000Y-51145000D03*
X68270000Y-49875000D03*
X68270000Y-51145000D03*
X67000000Y-49875000D03*
X67000000Y-51145000D03*
X65730000Y-49875000D03*
X65730000Y-51145000D03*
X64460000Y-49875000D03*
X64460000Y-51145000D03*
X63190000Y-49875000D03*
X63190000Y-51145000D03*
X61920000Y-49875000D03*
X61920000Y-51145000D03*
D24*
X73600000Y-37125000D03*
X73600000Y-35875000D03*
X73600000Y-34625000D03*
X73600000Y-33375000D03*
D25*
X76800000Y-38975000D03*
X76800000Y-31525000D03*
D19*
X71350000Y-31625000D03*
X71350000Y-33275000D03*
X62900000Y-34375000D03*
X62900000Y-36025000D03*
D28*
X67300000Y-40050000D03*
X65400000Y-40050000D03*
D31*
X69350000Y-22850000D03*
X67350000Y-22850000D03*
D34*
X62150000Y-32425000D03*
X62150000Y-29475000D03*
%LPD*%
M02*
