M48
; DRILL file {KiCad 8.0.1} date 2024-09-18T22:43:36-0600
; FORMAT={-:-/ absolute / metric / decimal}
; #@! TF.CreationDate,2024-09-18T22:43:36-06:00
; #@! TF.GenerationSoftware,Kicad,Pcbnew,8.0.1
; #@! TF.FileFunction,Plated,1,4,PTH
FMAT,2
METRIC
; #@! TA.AperFunction,Plated,PTH,ViaDrill
T1C0.300
; #@! TA.AperFunction,Plated,PTH,ComponentDrill
T2C0.300
; #@! TA.AperFunction,Plated,PTH,ComponentDrill
T3C0.650
; #@! TA.AperFunction,Plated,PTH,ComponentDrill
T4C1.000
%
G90
G05
T1
X56.0Y-21.325
X56.0Y-50.4
X56.393Y-41.7
X57.45Y-28.775
X57.85Y-23.175
X57.85Y-24.425
X57.85Y-25.675
X57.85Y-26.925
X57.85Y-33.375
X57.85Y-34.625
X57.85Y-35.875
X57.85Y-37.125
X57.85Y-43.55
X57.85Y-44.8
X57.85Y-46.05
X57.85Y-47.3
X57.85Y-48.55
X61.35Y-35.025
X61.35Y-35.975
X61.35Y-37.25
X61.65Y-40.75
X62.15Y-29.475
X62.25Y-22.85
X62.25Y-24.95
X62.45Y-20.75
X62.492Y-36.912
X62.7Y-44.75
X62.9Y-36.05
X63.302Y-37.7
X63.8Y-40.75
X64.1Y-37.6
X64.739Y-37.107
X65.4Y-40.13
X65.45Y-36.74
X65.889Y-37.409
X66.45Y-33.25
X66.789Y-37.426
X67.0Y-44.65
X67.2Y-36.74
X68.65Y-35.465
X69.25Y-34.85
X69.3Y-39.975
X70.15Y-20.75
X70.15Y-38.25
X70.173Y-42.881
X70.347Y-43.662
X70.45Y-22.85
X70.45Y-24.95
X71.05Y-38.25
X71.05Y-41.75
X72.2Y-26.96
X74.9Y-23.175
X74.9Y-24.425
X74.9Y-25.675
X74.9Y-26.925
X74.9Y-43.55
X74.9Y-44.8
X74.9Y-46.05
X74.9Y-47.3
X74.9Y-48.45
X74.95Y-33.375
X74.95Y-34.625
X74.95Y-35.875
X74.95Y-37.125
X75.35Y-28.75
X76.3Y-47.25
X76.75Y-21.325
X76.75Y-41.7
X76.75Y-50.4
X77.55Y-24.85
T2
X62.0Y-31.05
X62.2Y-42.75
X63.2Y-31.05
X63.4Y-42.75
T3
X61.92Y-49.875
X61.92Y-51.145
X63.19Y-49.875
X63.19Y-51.145
X64.46Y-49.875
X64.46Y-51.145
X65.73Y-49.875
X65.73Y-51.145
X67.0Y-49.875
X67.0Y-51.145
X68.27Y-49.875
X68.27Y-51.145
X69.54Y-49.875
X69.54Y-51.145
X70.81Y-49.875
X70.81Y-51.145
T4
X57.47Y-17.05
X60.01Y-17.05
X62.55Y-17.05
X65.09Y-17.05
X67.63Y-17.05
X70.17Y-17.05
X72.71Y-17.05
X75.25Y-17.05
M30
