G04 #@! TF.GenerationSoftware,KiCad,Pcbnew,8.0.1*
G04 #@! TF.CreationDate,2024-09-18T22:43:32-06:00*
G04 #@! TF.ProjectId,semg,73656d67-2e6b-4696-9361-645f70636258,rev?*
G04 #@! TF.SameCoordinates,Original*
G04 #@! TF.FileFunction,Soldermask,Bot*
G04 #@! TF.FilePolarity,Negative*
%FSLAX46Y46*%
G04 Gerber Fmt 4.6, Leading zero omitted, Abs format (unit mm)*
G04 Created by KiCad (PCBNEW 8.0.1) date 2024-09-18 22:43:32*
%MOMM*%
%LPD*%
G01*
G04 APERTURE LIST*
G04 Aperture macros list*
%AMRoundRect*
0 Rectangle with rounded corners*
0 $1 Rounding radius*
0 $2 $3 $4 $5 $6 $7 $8 $9 X,Y pos of 4 corners*
0 Add a 4 corners polygon primitive as box body*
4,1,4,$2,$3,$4,$5,$6,$7,$8,$9,$2,$3,0*
0 Add four circle primitives for the rounded corners*
1,1,$1+$1,$2,$3*
1,1,$1+$1,$4,$5*
1,1,$1+$1,$6,$7*
1,1,$1+$1,$8,$9*
0 Add four rect primitives between the rounded corners*
20,1,$1+$1,$2,$3,$4,$5,0*
20,1,$1+$1,$4,$5,$6,$7,0*
20,1,$1+$1,$6,$7,$8,$9,0*
20,1,$1+$1,$8,$9,$2,$3,0*%
%AMFreePoly0*
4,1,18,0.017678,0.267678,0.260356,0.025000,0.750000,0.025000,0.767678,0.017678,0.775000,0.000000,0.767678,-0.017678,0.517678,-0.267678,0.500000,-0.275000,-0.500000,-0.275000,-0.517678,-0.267678,-0.767678,-0.017678,-0.775000,0.000000,-0.767678,0.017678,-0.750000,0.025000,-0.260356,0.025000,-0.017678,0.267678,0.000000,0.275000,0.017678,0.267678,0.017678,0.267678,$1*%
%AMFreePoly1*
4,1,17,0.017678,0.287678,0.767678,-0.462322,0.775000,-0.480000,0.767678,-0.497678,0.750000,-0.505000,0.325000,-0.505000,0.307322,-0.497678,0.000000,-0.190356,-0.307322,-0.497678,-0.325000,-0.505000,-0.750000,-0.505000,-0.767678,-0.497678,-0.775000,-0.480000,-0.767678,-0.462322,-0.017678,0.287678,0.000000,0.295000,0.017678,0.287678,0.017678,0.287678,$1*%
G04 Aperture macros list end*
%ADD10C,0.050000*%
%ADD11R,2.000000X2.000000*%
%ADD12O,2.000000X2.000000*%
%ADD13R,1.000000X1.000000*%
%ADD14O,1.000000X1.000000*%
%ADD15FreePoly0,90.000000*%
%ADD16FreePoly1,90.000000*%
%ADD17FreePoly0,180.000000*%
%ADD18FreePoly1,180.000000*%
%ADD19RoundRect,0.102000X0.190000X-0.310000X0.190000X0.310000X-0.190000X0.310000X-0.190000X-0.310000X0*%
%ADD20RoundRect,0.102000X0.190000X-0.120000X0.190000X0.120000X-0.190000X0.120000X-0.190000X-0.120000X0*%
G04 APERTURE END LIST*
D10*
X56877500Y-34325000D02*
X56552500Y-34650000D01*
X56877500Y-34975000D01*
X56877500Y-35400000D01*
X56127500Y-34650000D01*
X56877500Y-33900000D01*
X56877500Y-34325000D01*
G36*
X56877500Y-34325000D02*
G01*
X56552500Y-34650000D01*
X56877500Y-34975000D01*
X56877500Y-35400000D01*
X56127500Y-34650000D01*
X56877500Y-33900000D01*
X56877500Y-34325000D01*
G37*
X57272500Y-34150000D02*
X57272500Y-35150000D01*
X57022500Y-35400000D01*
X57022500Y-34900000D01*
X56772500Y-34650000D01*
X57022500Y-34400000D01*
X57022500Y-33900000D01*
X57272500Y-34150000D01*
G36*
X57272500Y-34150000D02*
G01*
X57272500Y-35150000D01*
X57022500Y-35400000D01*
X57022500Y-34900000D01*
X56772500Y-34650000D01*
X57022500Y-34400000D01*
X57022500Y-33900000D01*
X57272500Y-34150000D01*
G37*
X64750000Y-33497500D02*
X65075000Y-33172500D01*
X65500000Y-33172500D01*
X64750000Y-33922500D01*
X64000000Y-33172500D01*
X64425000Y-33172500D01*
X64750000Y-33497500D01*
G36*
X64750000Y-33497500D02*
G01*
X65075000Y-33172500D01*
X65500000Y-33172500D01*
X64750000Y-33922500D01*
X64000000Y-33172500D01*
X64425000Y-33172500D01*
X64750000Y-33497500D01*
G37*
X65500000Y-33027500D02*
X65000000Y-33027500D01*
X64750000Y-33277500D01*
X64500000Y-33027500D01*
X64000000Y-33027500D01*
X64250000Y-32777500D01*
X65250000Y-32777500D01*
X65500000Y-33027500D01*
G36*
X65500000Y-33027500D02*
G01*
X65000000Y-33027500D01*
X64750000Y-33277500D01*
X64500000Y-33027500D01*
X64000000Y-33027500D01*
X64250000Y-32777500D01*
X65250000Y-32777500D01*
X65500000Y-33027500D01*
G37*
X68050000Y-33070000D02*
X68375000Y-32745000D01*
X68800000Y-32745000D01*
X68050000Y-33495000D01*
X67300000Y-32745000D01*
X67725000Y-32745000D01*
X68050000Y-33070000D01*
G36*
X68050000Y-33070000D02*
G01*
X68375000Y-32745000D01*
X68800000Y-32745000D01*
X68050000Y-33495000D01*
X67300000Y-32745000D01*
X67725000Y-32745000D01*
X68050000Y-33070000D01*
G37*
X68800000Y-32600000D02*
X68300000Y-32600000D01*
X68050000Y-32850000D01*
X67800000Y-32600000D01*
X67300000Y-32600000D01*
X67550000Y-32350000D01*
X68550000Y-32350000D01*
X68800000Y-32600000D01*
G36*
X68800000Y-32600000D02*
G01*
X68300000Y-32600000D01*
X68050000Y-32850000D01*
X67800000Y-32600000D01*
X67300000Y-32600000D01*
X67550000Y-32350000D01*
X68550000Y-32350000D01*
X68800000Y-32600000D01*
G37*
X56877500Y-30725000D02*
X56552500Y-31050000D01*
X56877500Y-31375000D01*
X56877500Y-31800000D01*
X56127500Y-31050000D01*
X56877500Y-30300000D01*
X56877500Y-30725000D01*
G36*
X56877500Y-30725000D02*
G01*
X56552500Y-31050000D01*
X56877500Y-31375000D01*
X56877500Y-31800000D01*
X56127500Y-31050000D01*
X56877500Y-30300000D01*
X56877500Y-30725000D01*
G37*
X57272500Y-30550000D02*
X57272500Y-31550000D01*
X57022500Y-31800000D01*
X57022500Y-31300000D01*
X56772500Y-31050000D01*
X57022500Y-30800000D01*
X57022500Y-30300000D01*
X57272500Y-30550000D01*
G36*
X57272500Y-30550000D02*
G01*
X57272500Y-31550000D01*
X57022500Y-31800000D01*
X57022500Y-31300000D01*
X56772500Y-31050000D01*
X57022500Y-30800000D01*
X57022500Y-30300000D01*
X57272500Y-30550000D01*
G37*
X70750000Y-32447500D02*
X71075000Y-32122500D01*
X71500000Y-32122500D01*
X70750000Y-32872500D01*
X70000000Y-32122500D01*
X70425000Y-32122500D01*
X70750000Y-32447500D01*
G36*
X70750000Y-32447500D02*
G01*
X71075000Y-32122500D01*
X71500000Y-32122500D01*
X70750000Y-32872500D01*
X70000000Y-32122500D01*
X70425000Y-32122500D01*
X70750000Y-32447500D01*
G37*
X71500000Y-31977500D02*
X71000000Y-31977500D01*
X70750000Y-32227500D01*
X70500000Y-31977500D01*
X70000000Y-31977500D01*
X70250000Y-31727500D01*
X71250000Y-31727500D01*
X71500000Y-31977500D01*
G36*
X71500000Y-31977500D02*
G01*
X71000000Y-31977500D01*
X70750000Y-32227500D01*
X70500000Y-31977500D01*
X70000000Y-31977500D01*
X70250000Y-31727500D01*
X71250000Y-31727500D01*
X71500000Y-31977500D01*
G37*
X56877500Y-37475000D02*
X56552500Y-37800000D01*
X56877500Y-38125000D01*
X56877500Y-38550000D01*
X56127500Y-37800000D01*
X56877500Y-37050000D01*
X56877500Y-37475000D01*
G36*
X56877500Y-37475000D02*
G01*
X56552500Y-37800000D01*
X56877500Y-38125000D01*
X56877500Y-38550000D01*
X56127500Y-37800000D01*
X56877500Y-37050000D01*
X56877500Y-37475000D01*
G37*
X57272500Y-37300000D02*
X57272500Y-38300000D01*
X57022500Y-38550000D01*
X57022500Y-38050000D01*
X56772500Y-37800000D01*
X57022500Y-37550000D01*
X57022500Y-37050000D01*
X57272500Y-37300000D01*
G36*
X57272500Y-37300000D02*
G01*
X57272500Y-38300000D01*
X57022500Y-38550000D01*
X57022500Y-38050000D01*
X56772500Y-37800000D01*
X57022500Y-37550000D01*
X57022500Y-37050000D01*
X57272500Y-37300000D01*
G37*
D11*
X75250000Y-17050000D03*
D12*
X72710000Y-17050000D03*
D11*
X70170000Y-17050000D03*
D12*
X67630000Y-17050000D03*
D11*
X65090000Y-17050000D03*
D12*
X62550000Y-17050000D03*
D11*
X60010000Y-17050000D03*
D12*
X57470000Y-17050000D03*
D13*
X70810000Y-49875000D03*
D14*
X70810000Y-51145000D03*
X69540000Y-49875000D03*
X69540000Y-51145000D03*
X68270000Y-49875000D03*
X68270000Y-51145000D03*
X67000000Y-49875000D03*
X67000000Y-51145000D03*
X65730000Y-49875000D03*
X65730000Y-51145000D03*
X64460000Y-49875000D03*
X64460000Y-51145000D03*
X63190000Y-49875000D03*
X63190000Y-51145000D03*
X61920000Y-49875000D03*
X61920000Y-51145000D03*
D15*
X57022500Y-34650000D03*
D16*
X56397500Y-34650000D03*
D17*
X64750000Y-33027500D03*
D18*
X64750000Y-33652500D03*
D19*
X65280000Y-44650000D03*
X67420000Y-44650000D03*
X65280000Y-43050000D03*
X67420000Y-43050000D03*
D20*
X65280000Y-44050000D03*
X67420000Y-44050000D03*
X65280000Y-43650000D03*
X67420000Y-43650000D03*
D19*
X65280000Y-26550000D03*
X67420000Y-26550000D03*
X65280000Y-24950000D03*
X67420000Y-24950000D03*
D20*
X65280000Y-25950000D03*
X67420000Y-25950000D03*
X65280000Y-25550000D03*
X67420000Y-25550000D03*
D17*
X68050000Y-32600000D03*
D18*
X68050000Y-33225000D03*
D15*
X57022500Y-31050000D03*
D16*
X56397500Y-31050000D03*
D17*
X70750000Y-31977500D03*
D18*
X70750000Y-32602500D03*
D15*
X57022500Y-37800000D03*
D16*
X56397500Y-37800000D03*
M02*
