G04 #@! TF.GenerationSoftware,KiCad,Pcbnew,8.0.1*
G04 #@! TF.CreationDate,2024-09-18T22:43:32-06:00*
G04 #@! TF.ProjectId,semg,73656d67-2e6b-4696-9361-645f70636258,rev?*
G04 #@! TF.SameCoordinates,Original*
G04 #@! TF.FileFunction,Copper,L2,Inr*
G04 #@! TF.FilePolarity,Positive*
%FSLAX46Y46*%
G04 Gerber Fmt 4.6, Leading zero omitted, Abs format (unit mm)*
G04 Created by KiCad (PCBNEW 8.0.1) date 2024-09-18 22:43:32*
%MOMM*%
%LPD*%
G01*
G04 APERTURE LIST*
G04 #@! TA.AperFunction,ComponentPad*
%ADD10R,2.000000X2.000000*%
G04 #@! TD*
G04 #@! TA.AperFunction,ComponentPad*
%ADD11O,2.000000X2.000000*%
G04 #@! TD*
G04 #@! TA.AperFunction,ComponentPad*
%ADD12C,0.600000*%
G04 #@! TD*
G04 #@! TA.AperFunction,ComponentPad*
%ADD13R,1.000000X1.000000*%
G04 #@! TD*
G04 #@! TA.AperFunction,ComponentPad*
%ADD14O,1.000000X1.000000*%
G04 #@! TD*
G04 #@! TA.AperFunction,ViaPad*
%ADD15C,0.600000*%
G04 #@! TD*
G04 APERTURE END LIST*
D10*
X75250000Y-17050000D03*
D11*
X72710000Y-17050000D03*
D10*
X70170000Y-17050000D03*
D11*
X67630000Y-17050000D03*
D10*
X65090000Y-17050000D03*
D11*
X62550000Y-17050000D03*
D10*
X60010000Y-17050000D03*
D11*
X57470000Y-17050000D03*
D12*
X63200000Y-31050000D03*
X62000000Y-31050000D03*
D13*
X70810000Y-49875000D03*
D14*
X70810000Y-51145000D03*
X69540000Y-49875000D03*
X69540000Y-51145000D03*
X68270000Y-49875000D03*
X68270000Y-51145000D03*
X67000000Y-49875000D03*
X67000000Y-51145000D03*
X65730000Y-49875000D03*
X65730000Y-51145000D03*
X64460000Y-49875000D03*
X64460000Y-51145000D03*
X63190000Y-49875000D03*
X63190000Y-51145000D03*
X61920000Y-49875000D03*
X61920000Y-51145000D03*
D12*
X63400000Y-42750000D03*
X62200000Y-42750000D03*
D15*
X74900000Y-47300000D03*
X76300000Y-47250000D03*
X57850000Y-47300000D03*
X61350000Y-37250000D03*
X61350000Y-35025000D03*
X76750000Y-41700000D03*
X76750000Y-50400000D03*
X57850000Y-48550000D03*
X65400000Y-40130000D03*
X76750000Y-21325000D03*
X56392881Y-41700000D03*
X62900000Y-36050000D03*
X74900000Y-48450000D03*
X56000000Y-50400000D03*
X66450000Y-33250000D03*
X62150000Y-29475000D03*
X57450000Y-28775000D03*
X69300000Y-39975000D03*
X75350000Y-28750000D03*
X70347195Y-43661708D03*
X56000000Y-21325000D03*
X67000000Y-44650000D03*
X57850000Y-43550000D03*
X74900000Y-43550000D03*
X62450000Y-20750000D03*
X70150000Y-20750000D03*
X74900000Y-23175000D03*
X57850000Y-23175000D03*
X65450000Y-36740000D03*
X64739256Y-37107217D03*
X74900000Y-24425000D03*
X57850000Y-24425000D03*
X65888687Y-37408998D03*
X66789081Y-37426403D03*
X57850000Y-25675000D03*
X74900000Y-25675000D03*
X57850000Y-44800000D03*
X74900000Y-44800000D03*
X63302031Y-37700000D03*
X64100000Y-37600000D03*
X74900000Y-46050000D03*
X57850000Y-46050000D03*
X70450000Y-22850000D03*
X62250000Y-22850000D03*
X70450000Y-24950000D03*
X62250000Y-24950000D03*
X70150000Y-38250000D03*
X70173483Y-42880793D03*
X68650000Y-35464579D03*
X71050000Y-38250000D03*
X71050000Y-41750000D03*
X69250000Y-34850000D03*
X74900000Y-26925000D03*
X67200000Y-36740000D03*
X57850000Y-26925000D03*
X62492303Y-36912319D03*
X74950000Y-37125000D03*
X57850000Y-37125000D03*
X62700000Y-44750000D03*
X63800000Y-40750000D03*
X61350000Y-35975000D03*
X61650000Y-40750000D03*
X57850000Y-33375000D03*
X57850000Y-34625000D03*
X57850000Y-35875000D03*
X77550000Y-24850000D03*
X72200001Y-26960000D03*
X74950000Y-35875000D03*
X74950000Y-33375000D03*
X74950000Y-34625000D03*
G04 #@! TA.AperFunction,Conductor*
G36*
X73798577Y-14564967D02*
G01*
X73861763Y-14564966D01*
X73867172Y-14565084D01*
X74251245Y-14581849D01*
X74261978Y-14582789D01*
X74640451Y-14632614D01*
X74651070Y-14634486D01*
X75023770Y-14717108D01*
X75034185Y-14719899D01*
X75398243Y-14834684D01*
X75408386Y-14838375D01*
X75761082Y-14984462D01*
X75770842Y-14989014D01*
X76036609Y-15127362D01*
X76109442Y-15165276D01*
X76118810Y-15170685D01*
X76440734Y-15375770D01*
X76449596Y-15381975D01*
X76611839Y-15506467D01*
X76752422Y-15614338D01*
X76760709Y-15621291D01*
X77042138Y-15879170D01*
X77049787Y-15886819D01*
X77307669Y-16168245D01*
X77314622Y-16176532D01*
X77546987Y-16479350D01*
X77553192Y-16488211D01*
X77758284Y-16810138D01*
X77763693Y-16819506D01*
X77939950Y-17158086D01*
X77944522Y-17167891D01*
X78090595Y-17520536D01*
X78094295Y-17530701D01*
X78209082Y-17894751D01*
X78211881Y-17905199D01*
X78294497Y-18277841D01*
X78296376Y-18288495D01*
X78346202Y-18666939D01*
X78347145Y-18677715D01*
X78363848Y-19060208D01*
X78363966Y-19065618D01*
X78363966Y-48990966D01*
X78363965Y-48990984D01*
X78363965Y-49061764D01*
X78363847Y-49067172D01*
X78347083Y-49451220D01*
X78346140Y-49461997D01*
X78296320Y-49840429D01*
X78294442Y-49851082D01*
X78211827Y-50223745D01*
X78209027Y-50234194D01*
X78094248Y-50598231D01*
X78090548Y-50608396D01*
X77944479Y-50961040D01*
X77939907Y-50970845D01*
X77763659Y-51309416D01*
X77758251Y-51318784D01*
X77553157Y-51640719D01*
X77546952Y-51649580D01*
X77314592Y-51952398D01*
X77307638Y-51960685D01*
X77049759Y-52242110D01*
X77042110Y-52249759D01*
X76760685Y-52507638D01*
X76752398Y-52514592D01*
X76449580Y-52746952D01*
X76440719Y-52753157D01*
X76118784Y-52958251D01*
X76109416Y-52963659D01*
X75770845Y-53139907D01*
X75761040Y-53144479D01*
X75408396Y-53290548D01*
X75398231Y-53294248D01*
X75034194Y-53409027D01*
X75023745Y-53411827D01*
X74651082Y-53494442D01*
X74640429Y-53496320D01*
X74261997Y-53546140D01*
X74251220Y-53547083D01*
X73867172Y-53563847D01*
X73861764Y-53563965D01*
X73790983Y-53563965D01*
X73790967Y-53563966D01*
X58867176Y-53563966D01*
X58861767Y-53563848D01*
X58775015Y-53560059D01*
X58477722Y-53547078D01*
X58466946Y-53546135D01*
X58088510Y-53496310D01*
X58077856Y-53494431D01*
X57705214Y-53411815D01*
X57694766Y-53409016D01*
X57330728Y-53294233D01*
X57320562Y-53290533D01*
X56967910Y-53144456D01*
X56958107Y-53139884D01*
X56695204Y-53003024D01*
X56619542Y-52963636D01*
X56610176Y-52958229D01*
X56288250Y-52753136D01*
X56279389Y-52746931D01*
X55976576Y-52514570D01*
X55968289Y-52507617D01*
X55686866Y-52249738D01*
X55679217Y-52242089D01*
X55421339Y-51960662D01*
X55414395Y-51952385D01*
X55182029Y-51649554D01*
X55175826Y-51640695D01*
X54970744Y-51318776D01*
X54965335Y-51309408D01*
X54879751Y-51145000D01*
X61214355Y-51145000D01*
X61234859Y-51313869D01*
X61234860Y-51313874D01*
X61295182Y-51472931D01*
X61301675Y-51482337D01*
X61391817Y-51612929D01*
X61433188Y-51649580D01*
X61519150Y-51725736D01*
X61668872Y-51804316D01*
X61669775Y-51804790D01*
X61834944Y-51845500D01*
X62005056Y-51845500D01*
X62170225Y-51804790D01*
X62249692Y-51763081D01*
X62320849Y-51725736D01*
X62320850Y-51725734D01*
X62320852Y-51725734D01*
X62448183Y-51612929D01*
X62452950Y-51606021D01*
X62507230Y-51562033D01*
X62576678Y-51554372D01*
X62639244Y-51585473D01*
X62657046Y-51606017D01*
X62661817Y-51612929D01*
X62703188Y-51649580D01*
X62789150Y-51725736D01*
X62938872Y-51804316D01*
X62939775Y-51804790D01*
X63104944Y-51845500D01*
X63275056Y-51845500D01*
X63440225Y-51804790D01*
X63519692Y-51763081D01*
X63590849Y-51725736D01*
X63590850Y-51725734D01*
X63590852Y-51725734D01*
X63718183Y-51612929D01*
X63722950Y-51606021D01*
X63777230Y-51562033D01*
X63846678Y-51554372D01*
X63909244Y-51585473D01*
X63927046Y-51606017D01*
X63931817Y-51612929D01*
X63973188Y-51649580D01*
X64059150Y-51725736D01*
X64208872Y-51804316D01*
X64209775Y-51804790D01*
X64374944Y-51845500D01*
X64545056Y-51845500D01*
X64710225Y-51804790D01*
X64789692Y-51763081D01*
X64860849Y-51725736D01*
X64860850Y-51725734D01*
X64860852Y-51725734D01*
X64988183Y-51612929D01*
X64992950Y-51606021D01*
X65047230Y-51562033D01*
X65116678Y-51554372D01*
X65179244Y-51585473D01*
X65197046Y-51606017D01*
X65201817Y-51612929D01*
X65243188Y-51649580D01*
X65329150Y-51725736D01*
X65478872Y-51804316D01*
X65479775Y-51804790D01*
X65644944Y-51845500D01*
X65815056Y-51845500D01*
X65980225Y-51804790D01*
X66059692Y-51763081D01*
X66130849Y-51725736D01*
X66130850Y-51725734D01*
X66130852Y-51725734D01*
X66258183Y-51612929D01*
X66262950Y-51606021D01*
X66317230Y-51562033D01*
X66386678Y-51554372D01*
X66449244Y-51585473D01*
X66467046Y-51606017D01*
X66471817Y-51612929D01*
X66513188Y-51649580D01*
X66599150Y-51725736D01*
X66748872Y-51804316D01*
X66749775Y-51804790D01*
X66914944Y-51845500D01*
X67085056Y-51845500D01*
X67250225Y-51804790D01*
X67329692Y-51763081D01*
X67400849Y-51725736D01*
X67400850Y-51725734D01*
X67400852Y-51725734D01*
X67528183Y-51612929D01*
X67533251Y-51605585D01*
X67587529Y-51561595D01*
X67656977Y-51553931D01*
X67719544Y-51585030D01*
X67737352Y-51605580D01*
X67742193Y-51612593D01*
X67742198Y-51612599D01*
X67869432Y-51725319D01*
X68019951Y-51804316D01*
X68020000Y-51804328D01*
X68020000Y-51354618D01*
X68070446Y-51405064D01*
X68144555Y-51447851D01*
X68227213Y-51470000D01*
X68312787Y-51470000D01*
X68395445Y-51447851D01*
X68469554Y-51405064D01*
X68520000Y-51354618D01*
X68520000Y-51804328D01*
X68520048Y-51804316D01*
X68670567Y-51725319D01*
X68797801Y-51612599D01*
X68797806Y-51612594D01*
X68802644Y-51605585D01*
X68856925Y-51561593D01*
X68926373Y-51553931D01*
X68988939Y-51585033D01*
X69006743Y-51605579D01*
X69011817Y-51612929D01*
X69053188Y-51649580D01*
X69139150Y-51725736D01*
X69288872Y-51804316D01*
X69289775Y-51804790D01*
X69454944Y-51845500D01*
X69625056Y-51845500D01*
X69790225Y-51804790D01*
X69869692Y-51763081D01*
X69940849Y-51725736D01*
X69940850Y-51725734D01*
X69940852Y-51725734D01*
X70068183Y-51612929D01*
X70072950Y-51606021D01*
X70127230Y-51562033D01*
X70196678Y-51554372D01*
X70259244Y-51585473D01*
X70277046Y-51606017D01*
X70281817Y-51612929D01*
X70323188Y-51649580D01*
X70409150Y-51725736D01*
X70558872Y-51804316D01*
X70559775Y-51804790D01*
X70724944Y-51845500D01*
X70895056Y-51845500D01*
X71060225Y-51804790D01*
X71139692Y-51763081D01*
X71210849Y-51725736D01*
X71210850Y-51725734D01*
X71210852Y-51725734D01*
X71338183Y-51612929D01*
X71434818Y-51472930D01*
X71495140Y-51313872D01*
X71515645Y-51145000D01*
X71495140Y-50976128D01*
X71493136Y-50970845D01*
X71434817Y-50817068D01*
X71434816Y-50817066D01*
X71372017Y-50726088D01*
X71350133Y-50659733D01*
X71367598Y-50592082D01*
X71405175Y-50552545D01*
X71454552Y-50519552D01*
X71498867Y-50453231D01*
X71498867Y-50453229D01*
X71498868Y-50453229D01*
X71510499Y-50394752D01*
X71510500Y-50394750D01*
X71510500Y-49355249D01*
X71510499Y-49355247D01*
X71498868Y-49296770D01*
X71498867Y-49296769D01*
X71454552Y-49230447D01*
X71388230Y-49186132D01*
X71388229Y-49186131D01*
X71329752Y-49174500D01*
X71329748Y-49174500D01*
X70290252Y-49174500D01*
X70290247Y-49174500D01*
X70231770Y-49186131D01*
X70231769Y-49186132D01*
X70165448Y-49230446D01*
X70134102Y-49277360D01*
X70080489Y-49322164D01*
X70011164Y-49330871D01*
X69948773Y-49301283D01*
X69940852Y-49294266D01*
X69940850Y-49294264D01*
X69790226Y-49215210D01*
X69625056Y-49174500D01*
X69454944Y-49174500D01*
X69289773Y-49215210D01*
X69139150Y-49294263D01*
X69011815Y-49407072D01*
X69007049Y-49413978D01*
X68952766Y-49457968D01*
X68883317Y-49465627D01*
X68820753Y-49434523D01*
X68802951Y-49413978D01*
X68798184Y-49407072D01*
X68670849Y-49294263D01*
X68520226Y-49215210D01*
X68355056Y-49174500D01*
X68184944Y-49174500D01*
X68019773Y-49215210D01*
X67869150Y-49294263D01*
X67741815Y-49407072D01*
X67737049Y-49413978D01*
X67682766Y-49457968D01*
X67613317Y-49465627D01*
X67550753Y-49434523D01*
X67532951Y-49413978D01*
X67528184Y-49407072D01*
X67400849Y-49294263D01*
X67250226Y-49215210D01*
X67085056Y-49174500D01*
X66914944Y-49174500D01*
X66749773Y-49215210D01*
X66599150Y-49294263D01*
X66471815Y-49407072D01*
X66467049Y-49413978D01*
X66412766Y-49457968D01*
X66343317Y-49465627D01*
X66280753Y-49434523D01*
X66262951Y-49413978D01*
X66258184Y-49407072D01*
X66130849Y-49294263D01*
X65980226Y-49215210D01*
X65815056Y-49174500D01*
X65644944Y-49174500D01*
X65479773Y-49215210D01*
X65329150Y-49294263D01*
X65201815Y-49407072D01*
X65197049Y-49413978D01*
X65142766Y-49457968D01*
X65073317Y-49465627D01*
X65010753Y-49434523D01*
X64992951Y-49413978D01*
X64988184Y-49407072D01*
X64860849Y-49294263D01*
X64710226Y-49215210D01*
X64545056Y-49174500D01*
X64374944Y-49174500D01*
X64209773Y-49215210D01*
X64059150Y-49294263D01*
X63931815Y-49407072D01*
X63927049Y-49413978D01*
X63872766Y-49457968D01*
X63803317Y-49465627D01*
X63740753Y-49434523D01*
X63722951Y-49413978D01*
X63718184Y-49407072D01*
X63590849Y-49294263D01*
X63440226Y-49215210D01*
X63275056Y-49174500D01*
X63104944Y-49174500D01*
X62939773Y-49215210D01*
X62789150Y-49294263D01*
X62661815Y-49407072D01*
X62657049Y-49413978D01*
X62602766Y-49457968D01*
X62533317Y-49465627D01*
X62470753Y-49434523D01*
X62452951Y-49413978D01*
X62448184Y-49407072D01*
X62320849Y-49294263D01*
X62170226Y-49215210D01*
X62005056Y-49174500D01*
X61834944Y-49174500D01*
X61669773Y-49215210D01*
X61519150Y-49294263D01*
X61391816Y-49407072D01*
X61295182Y-49547068D01*
X61234860Y-49706125D01*
X61234859Y-49706130D01*
X61214355Y-49875000D01*
X61234859Y-50043869D01*
X61234860Y-50043874D01*
X61295182Y-50202931D01*
X61391818Y-50342930D01*
X61475634Y-50417185D01*
X61512761Y-50476374D01*
X61511993Y-50546240D01*
X61475634Y-50602815D01*
X61391818Y-50677069D01*
X61295182Y-50817068D01*
X61234860Y-50976125D01*
X61234859Y-50976130D01*
X61214355Y-51145000D01*
X54879751Y-51145000D01*
X54789076Y-50970813D01*
X54784524Y-50961052D01*
X54638439Y-50608362D01*
X54634748Y-50598219D01*
X54620347Y-50552545D01*
X54519965Y-50234167D01*
X54517173Y-50223745D01*
X54434553Y-49851058D01*
X54432681Y-49840439D01*
X54382857Y-49461972D01*
X54381917Y-49451239D01*
X54365084Y-49065610D01*
X54364966Y-49060200D01*
X54364967Y-48998577D01*
X54364966Y-48998573D01*
X54364966Y-47300000D01*
X57344353Y-47300000D01*
X57364834Y-47442456D01*
X57424622Y-47573371D01*
X57424623Y-47573373D01*
X57518872Y-47682143D01*
X57639947Y-47759953D01*
X57639950Y-47759954D01*
X57639949Y-47759954D01*
X57778036Y-47800499D01*
X57778038Y-47800500D01*
X57778039Y-47800500D01*
X57921962Y-47800500D01*
X57921962Y-47800499D01*
X58060053Y-47759953D01*
X58181128Y-47682143D01*
X58275377Y-47573373D01*
X58335165Y-47442457D01*
X58355647Y-47300000D01*
X74394353Y-47300000D01*
X74414834Y-47442456D01*
X74474622Y-47573371D01*
X74474623Y-47573373D01*
X74568872Y-47682143D01*
X74689947Y-47759953D01*
X74689950Y-47759954D01*
X74689949Y-47759954D01*
X74828036Y-47800499D01*
X74828038Y-47800500D01*
X74828039Y-47800500D01*
X74971962Y-47800500D01*
X74971962Y-47800499D01*
X75110053Y-47759953D01*
X75231128Y-47682143D01*
X75325377Y-47573373D01*
X75385165Y-47442457D01*
X75405647Y-47300000D01*
X75398458Y-47250000D01*
X75794353Y-47250000D01*
X75814834Y-47392456D01*
X75837669Y-47442456D01*
X75874623Y-47523373D01*
X75968872Y-47632143D01*
X76089947Y-47709953D01*
X76089950Y-47709954D01*
X76089949Y-47709954D01*
X76228036Y-47750499D01*
X76228038Y-47750500D01*
X76228039Y-47750500D01*
X76371962Y-47750500D01*
X76371962Y-47750499D01*
X76510053Y-47709953D01*
X76631128Y-47632143D01*
X76725377Y-47523373D01*
X76785165Y-47392457D01*
X76805647Y-47250000D01*
X76785165Y-47107543D01*
X76725377Y-46976627D01*
X76631128Y-46867857D01*
X76510053Y-46790047D01*
X76510051Y-46790046D01*
X76510049Y-46790045D01*
X76510050Y-46790045D01*
X76371963Y-46749500D01*
X76371961Y-46749500D01*
X76228039Y-46749500D01*
X76228036Y-46749500D01*
X76089949Y-46790045D01*
X75968873Y-46867856D01*
X75874623Y-46976626D01*
X75874622Y-46976628D01*
X75814834Y-47107543D01*
X75794353Y-47250000D01*
X75398458Y-47250000D01*
X75385165Y-47157543D01*
X75325377Y-47026627D01*
X75231128Y-46917857D01*
X75110053Y-46840047D01*
X75110051Y-46840046D01*
X75110049Y-46840045D01*
X75110050Y-46840045D01*
X74971963Y-46799500D01*
X74971961Y-46799500D01*
X74828039Y-46799500D01*
X74828036Y-46799500D01*
X74689949Y-46840045D01*
X74568873Y-46917856D01*
X74474623Y-47026626D01*
X74474622Y-47026628D01*
X74414834Y-47157543D01*
X74394353Y-47300000D01*
X58355647Y-47300000D01*
X58335165Y-47157543D01*
X58275377Y-47026627D01*
X58181128Y-46917857D01*
X58060053Y-46840047D01*
X58060051Y-46840046D01*
X58060049Y-46840045D01*
X58060050Y-46840045D01*
X57921963Y-46799500D01*
X57921961Y-46799500D01*
X57778039Y-46799500D01*
X57778036Y-46799500D01*
X57639949Y-46840045D01*
X57518873Y-46917856D01*
X57424623Y-47026626D01*
X57424622Y-47026628D01*
X57364834Y-47157543D01*
X57344353Y-47300000D01*
X54364966Y-47300000D01*
X54364966Y-46050000D01*
X57344353Y-46050000D01*
X57364834Y-46192456D01*
X57424622Y-46323371D01*
X57424623Y-46323373D01*
X57518872Y-46432143D01*
X57639947Y-46509953D01*
X57639950Y-46509954D01*
X57639949Y-46509954D01*
X57778036Y-46550499D01*
X57778038Y-46550500D01*
X57778039Y-46550500D01*
X57921962Y-46550500D01*
X57921962Y-46550499D01*
X58060053Y-46509953D01*
X58181128Y-46432143D01*
X58275377Y-46323373D01*
X58335165Y-46192457D01*
X58355647Y-46050000D01*
X74394353Y-46050000D01*
X74414834Y-46192456D01*
X74474622Y-46323371D01*
X74474623Y-46323373D01*
X74568872Y-46432143D01*
X74689947Y-46509953D01*
X74689950Y-46509954D01*
X74689949Y-46509954D01*
X74828036Y-46550499D01*
X74828038Y-46550500D01*
X74828039Y-46550500D01*
X74971962Y-46550500D01*
X74971962Y-46550499D01*
X75110053Y-46509953D01*
X75231128Y-46432143D01*
X75325377Y-46323373D01*
X75385165Y-46192457D01*
X75405647Y-46050000D01*
X75385165Y-45907543D01*
X75325377Y-45776627D01*
X75231128Y-45667857D01*
X75110053Y-45590047D01*
X75110051Y-45590046D01*
X75110049Y-45590045D01*
X75110050Y-45590045D01*
X74971963Y-45549500D01*
X74971961Y-45549500D01*
X74828039Y-45549500D01*
X74828036Y-45549500D01*
X74689949Y-45590045D01*
X74568873Y-45667856D01*
X74474623Y-45776626D01*
X74474622Y-45776628D01*
X74414834Y-45907543D01*
X74394353Y-46050000D01*
X58355647Y-46050000D01*
X58335165Y-45907543D01*
X58275377Y-45776627D01*
X58181128Y-45667857D01*
X58060053Y-45590047D01*
X58060051Y-45590046D01*
X58060049Y-45590045D01*
X58060050Y-45590045D01*
X57921963Y-45549500D01*
X57921961Y-45549500D01*
X57778039Y-45549500D01*
X57778036Y-45549500D01*
X57639949Y-45590045D01*
X57518873Y-45667856D01*
X57424623Y-45776626D01*
X57424622Y-45776628D01*
X57364834Y-45907543D01*
X57344353Y-46050000D01*
X54364966Y-46050000D01*
X54364966Y-44800000D01*
X57344353Y-44800000D01*
X57364834Y-44942456D01*
X57424622Y-45073371D01*
X57424623Y-45073373D01*
X57518872Y-45182143D01*
X57639947Y-45259953D01*
X57639950Y-45259954D01*
X57639949Y-45259954D01*
X57778036Y-45300499D01*
X57778038Y-45300500D01*
X57778039Y-45300500D01*
X57921962Y-45300500D01*
X57921962Y-45300499D01*
X58060053Y-45259953D01*
X58181128Y-45182143D01*
X58275377Y-45073373D01*
X58335165Y-44942457D01*
X58355647Y-44800000D01*
X58348458Y-44750000D01*
X62194353Y-44750000D01*
X62214834Y-44892456D01*
X62228953Y-44923371D01*
X62274623Y-45023373D01*
X62368872Y-45132143D01*
X62489947Y-45209953D01*
X62489950Y-45209954D01*
X62489949Y-45209954D01*
X62628036Y-45250499D01*
X62628038Y-45250500D01*
X62628039Y-45250500D01*
X62771962Y-45250500D01*
X62771962Y-45250499D01*
X62910053Y-45209953D01*
X63031128Y-45132143D01*
X63125377Y-45023373D01*
X63185165Y-44892457D01*
X63205647Y-44750000D01*
X63191269Y-44650000D01*
X66494353Y-44650000D01*
X66514834Y-44792456D01*
X66560504Y-44892457D01*
X66574623Y-44923373D01*
X66668872Y-45032143D01*
X66789947Y-45109953D01*
X66789950Y-45109954D01*
X66789949Y-45109954D01*
X66928036Y-45150499D01*
X66928038Y-45150500D01*
X66928039Y-45150500D01*
X67071962Y-45150500D01*
X67071962Y-45150499D01*
X67210053Y-45109953D01*
X67331128Y-45032143D01*
X67425377Y-44923373D01*
X67481720Y-44800000D01*
X74394353Y-44800000D01*
X74414834Y-44942456D01*
X74474622Y-45073371D01*
X74474623Y-45073373D01*
X74568872Y-45182143D01*
X74689947Y-45259953D01*
X74689950Y-45259954D01*
X74689949Y-45259954D01*
X74828036Y-45300499D01*
X74828038Y-45300500D01*
X74828039Y-45300500D01*
X74971962Y-45300500D01*
X74971962Y-45300499D01*
X75110053Y-45259953D01*
X75231128Y-45182143D01*
X75325377Y-45073373D01*
X75385165Y-44942457D01*
X75405647Y-44800000D01*
X75385165Y-44657543D01*
X75325377Y-44526627D01*
X75231128Y-44417857D01*
X75110053Y-44340047D01*
X75110051Y-44340046D01*
X75110049Y-44340045D01*
X75110050Y-44340045D01*
X74971963Y-44299500D01*
X74971961Y-44299500D01*
X74828039Y-44299500D01*
X74828036Y-44299500D01*
X74689949Y-44340045D01*
X74568873Y-44417856D01*
X74474623Y-44526626D01*
X74474622Y-44526628D01*
X74414834Y-44657543D01*
X74394353Y-44800000D01*
X67481720Y-44800000D01*
X67485165Y-44792457D01*
X67505647Y-44650000D01*
X67485165Y-44507543D01*
X67425377Y-44376627D01*
X67331128Y-44267857D01*
X67210053Y-44190047D01*
X67210051Y-44190046D01*
X67210049Y-44190045D01*
X67210050Y-44190045D01*
X67071963Y-44149500D01*
X67071961Y-44149500D01*
X66928039Y-44149500D01*
X66928036Y-44149500D01*
X66789949Y-44190045D01*
X66668873Y-44267856D01*
X66574623Y-44376626D01*
X66574622Y-44376628D01*
X66514834Y-44507543D01*
X66494353Y-44650000D01*
X63191269Y-44650000D01*
X63185165Y-44607543D01*
X63125377Y-44476627D01*
X63031128Y-44367857D01*
X62910053Y-44290047D01*
X62910051Y-44290046D01*
X62910049Y-44290045D01*
X62910050Y-44290045D01*
X62771963Y-44249500D01*
X62771961Y-44249500D01*
X62628039Y-44249500D01*
X62628036Y-44249500D01*
X62489949Y-44290045D01*
X62368873Y-44367856D01*
X62274623Y-44476626D01*
X62274622Y-44476628D01*
X62214834Y-44607543D01*
X62194353Y-44750000D01*
X58348458Y-44750000D01*
X58335165Y-44657543D01*
X58275377Y-44526627D01*
X58181128Y-44417857D01*
X58060053Y-44340047D01*
X58060051Y-44340046D01*
X58060049Y-44340045D01*
X58060050Y-44340045D01*
X57921963Y-44299500D01*
X57921961Y-44299500D01*
X57778039Y-44299500D01*
X57778036Y-44299500D01*
X57639949Y-44340045D01*
X57518873Y-44417856D01*
X57424623Y-44526626D01*
X57424622Y-44526628D01*
X57364834Y-44657543D01*
X57344353Y-44800000D01*
X54364966Y-44800000D01*
X54364966Y-43550000D01*
X57344353Y-43550000D01*
X57364834Y-43692456D01*
X57424622Y-43823371D01*
X57424623Y-43823373D01*
X57518872Y-43932143D01*
X57639947Y-44009953D01*
X57639950Y-44009954D01*
X57639949Y-44009954D01*
X57778036Y-44050499D01*
X57778038Y-44050500D01*
X57778039Y-44050500D01*
X57921962Y-44050500D01*
X57921962Y-44050499D01*
X58060053Y-44009953D01*
X58181128Y-43932143D01*
X58275377Y-43823373D01*
X58335165Y-43692457D01*
X58355647Y-43550000D01*
X74394353Y-43550000D01*
X74414834Y-43692456D01*
X74474622Y-43823371D01*
X74474623Y-43823373D01*
X74568872Y-43932143D01*
X74689947Y-44009953D01*
X74689950Y-44009954D01*
X74689949Y-44009954D01*
X74828036Y-44050499D01*
X74828038Y-44050500D01*
X74828039Y-44050500D01*
X74971962Y-44050500D01*
X74971962Y-44050499D01*
X75110053Y-44009953D01*
X75231128Y-43932143D01*
X75325377Y-43823373D01*
X75385165Y-43692457D01*
X75405647Y-43550000D01*
X75385165Y-43407543D01*
X75325377Y-43276627D01*
X75231128Y-43167857D01*
X75110053Y-43090047D01*
X75110051Y-43090046D01*
X75110049Y-43090045D01*
X75110050Y-43090045D01*
X74971963Y-43049500D01*
X74971961Y-43049500D01*
X74828039Y-43049500D01*
X74828036Y-43049500D01*
X74689949Y-43090045D01*
X74568873Y-43167856D01*
X74474623Y-43276626D01*
X74474622Y-43276628D01*
X74414834Y-43407543D01*
X74394353Y-43550000D01*
X58355647Y-43550000D01*
X58335165Y-43407543D01*
X58275377Y-43276627D01*
X58181128Y-43167857D01*
X58060053Y-43090047D01*
X58060051Y-43090046D01*
X58060049Y-43090045D01*
X58060050Y-43090045D01*
X57921963Y-43049500D01*
X57921961Y-43049500D01*
X57778039Y-43049500D01*
X57778036Y-43049500D01*
X57639949Y-43090045D01*
X57518873Y-43167856D01*
X57424623Y-43276626D01*
X57424622Y-43276628D01*
X57364834Y-43407543D01*
X57344353Y-43550000D01*
X54364966Y-43550000D01*
X54364966Y-42750000D01*
X61694353Y-42750000D01*
X61714834Y-42892456D01*
X61774566Y-43023249D01*
X61774623Y-43023373D01*
X61868872Y-43132143D01*
X61989947Y-43209953D01*
X61989950Y-43209954D01*
X61989949Y-43209954D01*
X62068701Y-43233077D01*
X62126336Y-43250000D01*
X62128036Y-43250499D01*
X62128038Y-43250500D01*
X62128039Y-43250500D01*
X62271962Y-43250500D01*
X62271962Y-43250499D01*
X62331298Y-43233077D01*
X63270476Y-43233077D01*
X63328110Y-43250000D01*
X63471890Y-43250000D01*
X63529523Y-43233077D01*
X63400000Y-43103553D01*
X63270476Y-43233076D01*
X63270476Y-43233077D01*
X62331298Y-43233077D01*
X62410053Y-43209953D01*
X62531128Y-43132143D01*
X62625377Y-43023373D01*
X62684795Y-42893265D01*
X62730547Y-42840466D01*
X62797587Y-42820781D01*
X62864626Y-42840465D01*
X62895875Y-42876529D01*
X62913912Y-42882532D01*
X63016608Y-42779837D01*
X63250000Y-42779837D01*
X63272836Y-42834968D01*
X63315032Y-42877164D01*
X63370163Y-42900000D01*
X63429837Y-42900000D01*
X63484968Y-42877164D01*
X63527164Y-42834968D01*
X63550000Y-42779837D01*
X63550000Y-42749999D01*
X63753553Y-42749999D01*
X63886085Y-42882531D01*
X63886335Y-42880793D01*
X69667836Y-42880793D01*
X69688317Y-43023249D01*
X69738048Y-43132143D01*
X69748106Y-43154166D01*
X69842355Y-43262936D01*
X69963430Y-43340746D01*
X69963433Y-43340747D01*
X69963432Y-43340747D01*
X70101519Y-43381292D01*
X70101521Y-43381293D01*
X70101522Y-43381293D01*
X70245445Y-43381293D01*
X70245445Y-43381292D01*
X70383536Y-43340746D01*
X70504611Y-43262936D01*
X70598860Y-43154166D01*
X70658648Y-43023250D01*
X70679130Y-42880793D01*
X70658648Y-42738336D01*
X70598860Y-42607420D01*
X70504611Y-42498650D01*
X70383536Y-42420840D01*
X70383534Y-42420839D01*
X70383532Y-42420838D01*
X70383533Y-42420838D01*
X70245446Y-42380293D01*
X70245444Y-42380293D01*
X70101522Y-42380293D01*
X70101519Y-42380293D01*
X69963432Y-42420838D01*
X69842356Y-42498649D01*
X69748106Y-42607419D01*
X69748105Y-42607421D01*
X69688317Y-42738336D01*
X69667836Y-42880793D01*
X63886335Y-42880793D01*
X63905141Y-42749999D01*
X63886085Y-42617466D01*
X63753553Y-42749999D01*
X63550000Y-42749999D01*
X63550000Y-42720163D01*
X63527164Y-42665032D01*
X63484968Y-42622836D01*
X63429837Y-42600000D01*
X63370163Y-42600000D01*
X63315032Y-42622836D01*
X63272836Y-42665032D01*
X63250000Y-42720163D01*
X63250000Y-42779837D01*
X63016608Y-42779837D01*
X63046446Y-42749999D01*
X62913913Y-42617466D01*
X62897453Y-42622944D01*
X62891298Y-42636423D01*
X62832519Y-42674196D01*
X62762649Y-42674194D01*
X62703872Y-42636418D01*
X62684793Y-42606729D01*
X62625379Y-42476630D01*
X62625376Y-42476626D01*
X62531128Y-42367857D01*
X62410053Y-42290047D01*
X62410051Y-42290046D01*
X62410049Y-42290045D01*
X62410050Y-42290045D01*
X62331298Y-42266922D01*
X63270476Y-42266922D01*
X63399999Y-42396445D01*
X63529522Y-42266922D01*
X63471888Y-42250000D01*
X63328112Y-42250000D01*
X63270476Y-42266922D01*
X62331298Y-42266922D01*
X62271963Y-42249500D01*
X62271961Y-42249500D01*
X62128039Y-42249500D01*
X62128036Y-42249500D01*
X61989949Y-42290045D01*
X61868873Y-42367856D01*
X61774623Y-42476626D01*
X61774622Y-42476628D01*
X61714834Y-42607543D01*
X61694353Y-42750000D01*
X54364966Y-42750000D01*
X54364966Y-41750000D01*
X70544353Y-41750000D01*
X70564834Y-41892456D01*
X70624622Y-42023371D01*
X70624623Y-42023373D01*
X70718872Y-42132143D01*
X70839947Y-42209953D01*
X70839950Y-42209954D01*
X70839949Y-42209954D01*
X70947107Y-42241417D01*
X70976336Y-42250000D01*
X70978036Y-42250499D01*
X70978038Y-42250500D01*
X70978039Y-42250500D01*
X71121962Y-42250500D01*
X71121962Y-42250499D01*
X71260053Y-42209953D01*
X71381128Y-42132143D01*
X71475377Y-42023373D01*
X71535165Y-41892457D01*
X71555647Y-41750000D01*
X71535165Y-41607543D01*
X71475377Y-41476627D01*
X71381128Y-41367857D01*
X71260053Y-41290047D01*
X71260051Y-41290046D01*
X71260049Y-41290045D01*
X71260050Y-41290045D01*
X71121963Y-41249500D01*
X71121961Y-41249500D01*
X70978039Y-41249500D01*
X70978036Y-41249500D01*
X70839949Y-41290045D01*
X70718873Y-41367856D01*
X70624623Y-41476626D01*
X70624622Y-41476628D01*
X70564834Y-41607543D01*
X70544353Y-41750000D01*
X54364966Y-41750000D01*
X54364966Y-40750000D01*
X61144353Y-40750000D01*
X61164834Y-40892456D01*
X61224622Y-41023371D01*
X61224623Y-41023373D01*
X61318872Y-41132143D01*
X61439947Y-41209953D01*
X61439950Y-41209954D01*
X61439949Y-41209954D01*
X61547107Y-41241417D01*
X61574633Y-41249500D01*
X61578036Y-41250499D01*
X61578038Y-41250500D01*
X61578039Y-41250500D01*
X61721962Y-41250500D01*
X61721962Y-41250499D01*
X61860053Y-41209953D01*
X61981128Y-41132143D01*
X62075377Y-41023373D01*
X62135165Y-40892457D01*
X62155647Y-40750000D01*
X63294353Y-40750000D01*
X63314834Y-40892456D01*
X63374622Y-41023371D01*
X63374623Y-41023373D01*
X63468872Y-41132143D01*
X63589947Y-41209953D01*
X63589950Y-41209954D01*
X63589949Y-41209954D01*
X63697107Y-41241417D01*
X63724633Y-41249500D01*
X63728036Y-41250499D01*
X63728038Y-41250500D01*
X63728039Y-41250500D01*
X63871962Y-41250500D01*
X63871962Y-41250499D01*
X64010053Y-41209953D01*
X64131128Y-41132143D01*
X64225377Y-41023373D01*
X64285165Y-40892457D01*
X64305647Y-40750000D01*
X64285165Y-40607543D01*
X64225377Y-40476627D01*
X64131128Y-40367857D01*
X64010053Y-40290047D01*
X64010051Y-40290046D01*
X64010049Y-40290045D01*
X64010050Y-40290045D01*
X63871963Y-40249500D01*
X63871961Y-40249500D01*
X63728039Y-40249500D01*
X63728036Y-40249500D01*
X63589949Y-40290045D01*
X63468873Y-40367856D01*
X63374623Y-40476626D01*
X63374622Y-40476628D01*
X63314834Y-40607543D01*
X63294353Y-40750000D01*
X62155647Y-40750000D01*
X62135165Y-40607543D01*
X62075377Y-40476627D01*
X61981128Y-40367857D01*
X61860053Y-40290047D01*
X61860051Y-40290046D01*
X61860049Y-40290045D01*
X61860050Y-40290045D01*
X61721963Y-40249500D01*
X61721961Y-40249500D01*
X61578039Y-40249500D01*
X61578036Y-40249500D01*
X61439949Y-40290045D01*
X61318873Y-40367856D01*
X61224623Y-40476626D01*
X61224622Y-40476628D01*
X61164834Y-40607543D01*
X61144353Y-40750000D01*
X54364966Y-40750000D01*
X54364966Y-38250000D01*
X69644353Y-38250000D01*
X69664834Y-38392456D01*
X69724622Y-38523371D01*
X69724623Y-38523373D01*
X69818872Y-38632143D01*
X69939947Y-38709953D01*
X69939950Y-38709954D01*
X69939949Y-38709954D01*
X70078036Y-38750499D01*
X70078038Y-38750500D01*
X70078039Y-38750500D01*
X70221962Y-38750500D01*
X70221962Y-38750499D01*
X70360053Y-38709953D01*
X70481128Y-38632143D01*
X70506288Y-38603106D01*
X70565065Y-38565333D01*
X70634935Y-38565333D01*
X70693711Y-38603106D01*
X70718872Y-38632143D01*
X70839947Y-38709953D01*
X70839950Y-38709954D01*
X70839949Y-38709954D01*
X70978036Y-38750499D01*
X70978038Y-38750500D01*
X70978039Y-38750500D01*
X71121962Y-38750500D01*
X71121962Y-38750499D01*
X71260053Y-38709953D01*
X71381128Y-38632143D01*
X71475377Y-38523373D01*
X71535165Y-38392457D01*
X71555647Y-38250000D01*
X71535165Y-38107543D01*
X71475377Y-37976627D01*
X71381128Y-37867857D01*
X71260053Y-37790047D01*
X71260051Y-37790046D01*
X71260049Y-37790045D01*
X71260050Y-37790045D01*
X71121963Y-37749500D01*
X71121961Y-37749500D01*
X70978039Y-37749500D01*
X70978036Y-37749500D01*
X70839949Y-37790045D01*
X70718872Y-37867856D01*
X70693712Y-37896893D01*
X70634933Y-37934667D01*
X70565064Y-37934666D01*
X70506288Y-37896893D01*
X70481127Y-37867856D01*
X70388838Y-37808546D01*
X70360053Y-37790047D01*
X70360051Y-37790046D01*
X70360049Y-37790045D01*
X70360050Y-37790045D01*
X70221963Y-37749500D01*
X70221961Y-37749500D01*
X70078039Y-37749500D01*
X70078036Y-37749500D01*
X69939949Y-37790045D01*
X69818873Y-37867856D01*
X69724623Y-37976626D01*
X69724622Y-37976628D01*
X69664834Y-38107543D01*
X69644353Y-38250000D01*
X54364966Y-38250000D01*
X54364966Y-37125000D01*
X57344353Y-37125000D01*
X57364834Y-37267456D01*
X57401604Y-37347969D01*
X57424623Y-37398373D01*
X57518872Y-37507143D01*
X57639947Y-37584953D01*
X57639950Y-37584954D01*
X57639949Y-37584954D01*
X57778036Y-37625499D01*
X57778038Y-37625500D01*
X57778039Y-37625500D01*
X57921962Y-37625500D01*
X57921962Y-37625499D01*
X58060053Y-37584953D01*
X58181128Y-37507143D01*
X58275377Y-37398373D01*
X58335165Y-37267457D01*
X58337675Y-37250000D01*
X60844353Y-37250000D01*
X60864834Y-37392456D01*
X60917211Y-37507143D01*
X60924623Y-37523373D01*
X61018872Y-37632143D01*
X61139947Y-37709953D01*
X61139950Y-37709954D01*
X61139949Y-37709954D01*
X61217778Y-37732806D01*
X61274633Y-37749500D01*
X61278036Y-37750499D01*
X61278038Y-37750500D01*
X61278039Y-37750500D01*
X61421962Y-37750500D01*
X61421962Y-37750499D01*
X61560053Y-37709953D01*
X61681128Y-37632143D01*
X61775377Y-37523373D01*
X61835165Y-37392457D01*
X61855003Y-37254473D01*
X61884027Y-37190919D01*
X61942805Y-37153144D01*
X62012675Y-37153144D01*
X62071453Y-37190918D01*
X62071454Y-37190918D01*
X62079283Y-37199953D01*
X62161175Y-37294462D01*
X62282250Y-37372272D01*
X62282253Y-37372273D01*
X62282252Y-37372273D01*
X62420339Y-37412818D01*
X62420341Y-37412819D01*
X62420342Y-37412819D01*
X62564264Y-37412819D01*
X62671790Y-37381247D01*
X62741658Y-37381247D01*
X62800436Y-37419021D01*
X62829461Y-37482577D01*
X62819521Y-37551728D01*
X62816865Y-37557542D01*
X62796384Y-37700000D01*
X62816865Y-37842456D01*
X62858977Y-37934666D01*
X62876654Y-37973373D01*
X62970903Y-38082143D01*
X63091978Y-38159953D01*
X63091981Y-38159954D01*
X63091980Y-38159954D01*
X63230067Y-38200499D01*
X63230069Y-38200500D01*
X63230070Y-38200500D01*
X63373993Y-38200500D01*
X63373993Y-38200499D01*
X63512084Y-38159953D01*
X63633159Y-38082143D01*
X63666995Y-38043092D01*
X63725771Y-38005318D01*
X63795641Y-38005317D01*
X63827748Y-38019980D01*
X63889948Y-38059954D01*
X64028036Y-38100499D01*
X64028038Y-38100500D01*
X64028039Y-38100500D01*
X64171962Y-38100500D01*
X64171962Y-38100499D01*
X64310053Y-38059953D01*
X64431128Y-37982143D01*
X64525377Y-37873373D01*
X64585165Y-37742457D01*
X64589246Y-37714071D01*
X64618270Y-37650516D01*
X64677048Y-37612740D01*
X64711984Y-37607717D01*
X64811218Y-37607717D01*
X64811218Y-37607716D01*
X64918377Y-37576252D01*
X64949306Y-37567171D01*
X64949306Y-37567170D01*
X64949309Y-37567170D01*
X65070384Y-37489360D01*
X65164633Y-37380590D01*
X65164633Y-37380589D01*
X65170441Y-37373887D01*
X65173257Y-37376327D01*
X65212645Y-37342080D01*
X65281787Y-37332019D01*
X65345391Y-37360936D01*
X65383266Y-37419650D01*
X65387086Y-37437140D01*
X65403521Y-37551454D01*
X65440371Y-37632143D01*
X65463310Y-37682371D01*
X65557559Y-37791141D01*
X65678634Y-37868951D01*
X65678637Y-37868952D01*
X65678636Y-37868952D01*
X65816723Y-37909497D01*
X65816725Y-37909498D01*
X65816726Y-37909498D01*
X65960649Y-37909498D01*
X65960649Y-37909497D01*
X66098740Y-37868951D01*
X66219815Y-37791141D01*
X66237631Y-37770579D01*
X66296407Y-37732806D01*
X66366277Y-37732805D01*
X66425054Y-37770578D01*
X66457953Y-37808546D01*
X66579028Y-37886356D01*
X66579031Y-37886357D01*
X66579030Y-37886357D01*
X66717117Y-37926902D01*
X66717119Y-37926903D01*
X66717120Y-37926903D01*
X66861043Y-37926903D01*
X66861043Y-37926902D01*
X66999134Y-37886356D01*
X67120209Y-37808546D01*
X67214458Y-37699776D01*
X67274246Y-37568860D01*
X67294728Y-37426403D01*
X67283451Y-37347968D01*
X67293395Y-37278810D01*
X67339150Y-37226006D01*
X67371251Y-37211345D01*
X67410053Y-37199953D01*
X67526682Y-37125000D01*
X74444353Y-37125000D01*
X74464834Y-37267456D01*
X74501604Y-37347969D01*
X74524623Y-37398373D01*
X74618872Y-37507143D01*
X74739947Y-37584953D01*
X74739950Y-37584954D01*
X74739949Y-37584954D01*
X74878036Y-37625499D01*
X74878038Y-37625500D01*
X74878039Y-37625500D01*
X75021962Y-37625500D01*
X75021962Y-37625499D01*
X75160053Y-37584953D01*
X75281128Y-37507143D01*
X75375377Y-37398373D01*
X75435165Y-37267457D01*
X75455647Y-37125000D01*
X75435165Y-36982543D01*
X75375377Y-36851627D01*
X75281128Y-36742857D01*
X75160053Y-36665047D01*
X75160051Y-36665046D01*
X75160049Y-36665045D01*
X75160050Y-36665045D01*
X75021963Y-36624500D01*
X75021961Y-36624500D01*
X74878039Y-36624500D01*
X74878036Y-36624500D01*
X74739949Y-36665045D01*
X74618873Y-36742856D01*
X74524623Y-36851626D01*
X74524622Y-36851628D01*
X74464834Y-36982543D01*
X74444353Y-37125000D01*
X67526682Y-37125000D01*
X67531128Y-37122143D01*
X67625377Y-37013373D01*
X67685165Y-36882457D01*
X67705647Y-36740000D01*
X67685165Y-36597543D01*
X67625377Y-36466627D01*
X67531128Y-36357857D01*
X67410053Y-36280047D01*
X67410051Y-36280046D01*
X67410049Y-36280045D01*
X67410050Y-36280045D01*
X67271963Y-36239500D01*
X67271961Y-36239500D01*
X67128039Y-36239500D01*
X67128036Y-36239500D01*
X66989949Y-36280045D01*
X66868873Y-36357856D01*
X66774623Y-36466626D01*
X66774622Y-36466628D01*
X66714834Y-36597543D01*
X66694353Y-36740000D01*
X66694353Y-36740001D01*
X66705629Y-36818434D01*
X66695685Y-36887593D01*
X66649929Y-36940396D01*
X66617827Y-36955057D01*
X66579029Y-36966449D01*
X66457953Y-37044260D01*
X66457952Y-37044260D01*
X66440135Y-37064822D01*
X66381355Y-37102595D01*
X66311486Y-37102593D01*
X66252712Y-37064820D01*
X66219815Y-37026855D01*
X66098740Y-36949045D01*
X66098738Y-36949044D01*
X66098736Y-36949043D01*
X66098737Y-36949043D01*
X66035699Y-36930534D01*
X65976920Y-36892760D01*
X65947895Y-36829204D01*
X65947895Y-36793916D01*
X65955647Y-36740000D01*
X65935165Y-36597543D01*
X65875377Y-36466627D01*
X65781128Y-36357857D01*
X65660053Y-36280047D01*
X65660051Y-36280046D01*
X65660049Y-36280045D01*
X65660050Y-36280045D01*
X65521963Y-36239500D01*
X65521961Y-36239500D01*
X65378039Y-36239500D01*
X65378036Y-36239500D01*
X65239949Y-36280045D01*
X65118873Y-36357856D01*
X65024623Y-36466626D01*
X65024622Y-36466628D01*
X64987612Y-36547668D01*
X64941857Y-36600472D01*
X64874817Y-36620156D01*
X64839886Y-36615134D01*
X64811218Y-36606717D01*
X64811217Y-36606717D01*
X64667295Y-36606717D01*
X64667292Y-36606717D01*
X64529205Y-36647262D01*
X64408129Y-36725073D01*
X64313879Y-36833843D01*
X64313878Y-36833845D01*
X64254090Y-36964761D01*
X64250010Y-36993145D01*
X64220986Y-37056701D01*
X64162208Y-37094477D01*
X64127272Y-37099500D01*
X64028036Y-37099500D01*
X63889949Y-37140045D01*
X63768872Y-37217856D01*
X63735034Y-37256908D01*
X63676256Y-37294681D01*
X63606386Y-37294681D01*
X63574283Y-37280020D01*
X63512084Y-37240047D01*
X63512082Y-37240046D01*
X63512080Y-37240045D01*
X63512081Y-37240045D01*
X63373994Y-37199500D01*
X63373992Y-37199500D01*
X63230070Y-37199500D01*
X63230066Y-37199500D01*
X63122544Y-37231071D01*
X63052674Y-37231071D01*
X62993896Y-37193296D01*
X62964872Y-37129740D01*
X62974816Y-37060582D01*
X62974817Y-37060580D01*
X62977468Y-37054776D01*
X62997950Y-36912319D01*
X62977468Y-36769862D01*
X62917680Y-36638946D01*
X62823431Y-36530176D01*
X62702356Y-36452366D01*
X62702354Y-36452365D01*
X62702352Y-36452364D01*
X62702353Y-36452364D01*
X62564266Y-36411819D01*
X62564264Y-36411819D01*
X62420342Y-36411819D01*
X62420339Y-36411819D01*
X62282252Y-36452364D01*
X62161176Y-36530175D01*
X62066926Y-36638945D01*
X62066925Y-36638947D01*
X62007137Y-36769862D01*
X61987299Y-36907844D01*
X61958274Y-36971400D01*
X61899496Y-37009174D01*
X61829626Y-37009174D01*
X61770848Y-36971400D01*
X61751477Y-36949045D01*
X61681128Y-36867857D01*
X61560053Y-36790047D01*
X61560051Y-36790046D01*
X61560049Y-36790045D01*
X61560050Y-36790045D01*
X61421963Y-36749500D01*
X61421961Y-36749500D01*
X61278039Y-36749500D01*
X61278036Y-36749500D01*
X61139949Y-36790045D01*
X61018873Y-36867856D01*
X60924623Y-36976626D01*
X60924622Y-36976628D01*
X60864834Y-37107543D01*
X60844353Y-37250000D01*
X58337675Y-37250000D01*
X58355647Y-37125000D01*
X58335165Y-36982543D01*
X58275377Y-36851627D01*
X58181128Y-36742857D01*
X58060053Y-36665047D01*
X58060051Y-36665046D01*
X58060049Y-36665045D01*
X58060050Y-36665045D01*
X57921963Y-36624500D01*
X57921961Y-36624500D01*
X57778039Y-36624500D01*
X57778036Y-36624500D01*
X57639949Y-36665045D01*
X57518873Y-36742856D01*
X57424623Y-36851626D01*
X57424622Y-36851628D01*
X57364834Y-36982543D01*
X57344353Y-37125000D01*
X54364966Y-37125000D01*
X54364966Y-35875000D01*
X57344353Y-35875000D01*
X57364834Y-36017456D01*
X57410504Y-36117457D01*
X57424623Y-36148373D01*
X57518872Y-36257143D01*
X57639947Y-36334953D01*
X57639950Y-36334954D01*
X57639949Y-36334954D01*
X57778036Y-36375499D01*
X57778038Y-36375500D01*
X57778039Y-36375500D01*
X57921962Y-36375500D01*
X57921962Y-36375499D01*
X58060053Y-36334953D01*
X58181128Y-36257143D01*
X58275377Y-36148373D01*
X58335165Y-36017457D01*
X58341269Y-35975000D01*
X60844353Y-35975000D01*
X60864834Y-36117456D01*
X60878953Y-36148371D01*
X60924623Y-36248373D01*
X61018872Y-36357143D01*
X61139947Y-36434953D01*
X61139950Y-36434954D01*
X61139949Y-36434954D01*
X61278036Y-36475499D01*
X61278038Y-36475500D01*
X61278039Y-36475500D01*
X61421962Y-36475500D01*
X61421962Y-36475499D01*
X61560053Y-36434953D01*
X61681128Y-36357143D01*
X61775377Y-36248373D01*
X61835165Y-36117457D01*
X61855647Y-35975000D01*
X61835165Y-35832543D01*
X61775377Y-35701627D01*
X61681128Y-35592857D01*
X61681126Y-35592855D01*
X61675320Y-35586155D01*
X61676564Y-35585076D01*
X61644341Y-35534936D01*
X61644341Y-35465066D01*
X61644654Y-35464579D01*
X68144353Y-35464579D01*
X68164834Y-35607035D01*
X68208033Y-35701626D01*
X68224623Y-35737952D01*
X68318872Y-35846722D01*
X68439947Y-35924532D01*
X68439950Y-35924533D01*
X68439949Y-35924533D01*
X68578036Y-35965078D01*
X68578038Y-35965079D01*
X68578039Y-35965079D01*
X68721962Y-35965079D01*
X68721962Y-35965078D01*
X68860053Y-35924532D01*
X68937126Y-35875000D01*
X74444353Y-35875000D01*
X74464834Y-36017456D01*
X74510504Y-36117457D01*
X74524623Y-36148373D01*
X74618872Y-36257143D01*
X74739947Y-36334953D01*
X74739950Y-36334954D01*
X74739949Y-36334954D01*
X74878036Y-36375499D01*
X74878038Y-36375500D01*
X74878039Y-36375500D01*
X75021962Y-36375500D01*
X75021962Y-36375499D01*
X75160053Y-36334953D01*
X75281128Y-36257143D01*
X75375377Y-36148373D01*
X75435165Y-36017457D01*
X75455647Y-35875000D01*
X75435165Y-35732543D01*
X75375377Y-35601627D01*
X75281128Y-35492857D01*
X75160053Y-35415047D01*
X75160051Y-35415046D01*
X75160049Y-35415045D01*
X75160050Y-35415045D01*
X75021963Y-35374500D01*
X75021961Y-35374500D01*
X74878039Y-35374500D01*
X74878036Y-35374500D01*
X74739949Y-35415045D01*
X74618873Y-35492856D01*
X74524623Y-35601626D01*
X74524622Y-35601628D01*
X74464834Y-35732543D01*
X74444353Y-35875000D01*
X68937126Y-35875000D01*
X68981128Y-35846722D01*
X69075377Y-35737952D01*
X69135165Y-35607036D01*
X69151581Y-35492857D01*
X69156758Y-35456853D01*
X69185783Y-35393297D01*
X69244561Y-35355523D01*
X69279496Y-35350500D01*
X69321962Y-35350500D01*
X69321962Y-35350499D01*
X69460053Y-35309953D01*
X69581128Y-35232143D01*
X69675377Y-35123373D01*
X69735165Y-34992457D01*
X69755647Y-34850000D01*
X69735165Y-34707543D01*
X69697468Y-34625000D01*
X74444353Y-34625000D01*
X74464834Y-34767456D01*
X74524622Y-34898371D01*
X74524623Y-34898373D01*
X74618872Y-35007143D01*
X74739947Y-35084953D01*
X74739950Y-35084954D01*
X74739949Y-35084954D01*
X74847107Y-35116417D01*
X74870788Y-35123371D01*
X74878036Y-35125499D01*
X74878038Y-35125500D01*
X74878039Y-35125500D01*
X75021962Y-35125500D01*
X75021962Y-35125499D01*
X75160053Y-35084953D01*
X75281128Y-35007143D01*
X75375377Y-34898373D01*
X75435165Y-34767457D01*
X75455647Y-34625000D01*
X75435165Y-34482543D01*
X75375377Y-34351627D01*
X75281128Y-34242857D01*
X75160053Y-34165047D01*
X75160051Y-34165046D01*
X75160049Y-34165045D01*
X75160050Y-34165045D01*
X75021963Y-34124500D01*
X75021961Y-34124500D01*
X74878039Y-34124500D01*
X74878036Y-34124500D01*
X74739949Y-34165045D01*
X74618873Y-34242856D01*
X74524623Y-34351626D01*
X74524622Y-34351628D01*
X74464834Y-34482543D01*
X74444353Y-34625000D01*
X69697468Y-34625000D01*
X69675377Y-34576627D01*
X69581128Y-34467857D01*
X69460053Y-34390047D01*
X69460051Y-34390046D01*
X69460049Y-34390045D01*
X69460050Y-34390045D01*
X69321963Y-34349500D01*
X69321961Y-34349500D01*
X69178039Y-34349500D01*
X69178036Y-34349500D01*
X69039949Y-34390045D01*
X68918873Y-34467856D01*
X68824623Y-34576626D01*
X68824622Y-34576628D01*
X68764834Y-34707543D01*
X68743242Y-34857726D01*
X68714217Y-34921282D01*
X68655439Y-34959056D01*
X68620504Y-34964079D01*
X68578036Y-34964079D01*
X68439949Y-35004624D01*
X68318873Y-35082435D01*
X68224623Y-35191205D01*
X68224622Y-35191207D01*
X68164834Y-35322122D01*
X68144353Y-35464579D01*
X61644654Y-35464579D01*
X61676565Y-35414923D01*
X61675320Y-35413845D01*
X61681126Y-35407144D01*
X61681128Y-35407143D01*
X61775377Y-35298373D01*
X61835165Y-35167457D01*
X61855647Y-35025000D01*
X61835165Y-34882543D01*
X61775377Y-34751627D01*
X61681128Y-34642857D01*
X61560053Y-34565047D01*
X61560051Y-34565046D01*
X61560049Y-34565045D01*
X61560050Y-34565045D01*
X61421963Y-34524500D01*
X61421961Y-34524500D01*
X61278039Y-34524500D01*
X61278036Y-34524500D01*
X61139949Y-34565045D01*
X61018873Y-34642856D01*
X60924623Y-34751626D01*
X60924622Y-34751628D01*
X60864834Y-34882543D01*
X60844353Y-35025000D01*
X60864834Y-35167456D01*
X60875681Y-35191207D01*
X60924623Y-35298373D01*
X61018872Y-35407143D01*
X61018873Y-35407143D01*
X61024680Y-35413845D01*
X61023436Y-35414922D01*
X61055661Y-35465075D01*
X61055655Y-35534944D01*
X61023436Y-35585077D01*
X61024680Y-35586155D01*
X61018873Y-35592856D01*
X61018872Y-35592857D01*
X61011274Y-35601626D01*
X60924623Y-35701626D01*
X60924622Y-35701628D01*
X60864834Y-35832543D01*
X60844353Y-35975000D01*
X58341269Y-35975000D01*
X58355647Y-35875000D01*
X58335165Y-35732543D01*
X58275377Y-35601627D01*
X58181128Y-35492857D01*
X58060053Y-35415047D01*
X58060051Y-35415046D01*
X58060049Y-35415045D01*
X58060050Y-35415045D01*
X57921963Y-35374500D01*
X57921961Y-35374500D01*
X57778039Y-35374500D01*
X57778036Y-35374500D01*
X57639949Y-35415045D01*
X57518873Y-35492856D01*
X57424623Y-35601626D01*
X57424622Y-35601628D01*
X57364834Y-35732543D01*
X57344353Y-35875000D01*
X54364966Y-35875000D01*
X54364966Y-34625000D01*
X57344353Y-34625000D01*
X57364834Y-34767456D01*
X57424622Y-34898371D01*
X57424623Y-34898373D01*
X57518872Y-35007143D01*
X57639947Y-35084953D01*
X57639950Y-35084954D01*
X57639949Y-35084954D01*
X57747107Y-35116417D01*
X57770788Y-35123371D01*
X57778036Y-35125499D01*
X57778038Y-35125500D01*
X57778039Y-35125500D01*
X57921962Y-35125500D01*
X57921962Y-35125499D01*
X58060053Y-35084953D01*
X58181128Y-35007143D01*
X58275377Y-34898373D01*
X58335165Y-34767457D01*
X58355647Y-34625000D01*
X58335165Y-34482543D01*
X58275377Y-34351627D01*
X58181128Y-34242857D01*
X58060053Y-34165047D01*
X58060051Y-34165046D01*
X58060049Y-34165045D01*
X58060050Y-34165045D01*
X57921963Y-34124500D01*
X57921961Y-34124500D01*
X57778039Y-34124500D01*
X57778036Y-34124500D01*
X57639949Y-34165045D01*
X57518873Y-34242856D01*
X57424623Y-34351626D01*
X57424622Y-34351628D01*
X57364834Y-34482543D01*
X57344353Y-34625000D01*
X54364966Y-34625000D01*
X54364966Y-33375000D01*
X57344353Y-33375000D01*
X57364834Y-33517456D01*
X57424622Y-33648371D01*
X57424623Y-33648373D01*
X57518872Y-33757143D01*
X57639947Y-33834953D01*
X57639950Y-33834954D01*
X57639949Y-33834954D01*
X57778036Y-33875499D01*
X57778038Y-33875500D01*
X57778039Y-33875500D01*
X57921962Y-33875500D01*
X57921962Y-33875499D01*
X58060053Y-33834953D01*
X58181128Y-33757143D01*
X58275377Y-33648373D01*
X58335165Y-33517457D01*
X58355647Y-33375000D01*
X74444353Y-33375000D01*
X74464834Y-33517456D01*
X74524622Y-33648371D01*
X74524623Y-33648373D01*
X74618872Y-33757143D01*
X74739947Y-33834953D01*
X74739950Y-33834954D01*
X74739949Y-33834954D01*
X74878036Y-33875499D01*
X74878038Y-33875500D01*
X74878039Y-33875500D01*
X75021962Y-33875500D01*
X75021962Y-33875499D01*
X75160053Y-33834953D01*
X75281128Y-33757143D01*
X75375377Y-33648373D01*
X75435165Y-33517457D01*
X75455647Y-33375000D01*
X75435165Y-33232543D01*
X75375377Y-33101627D01*
X75281128Y-32992857D01*
X75160053Y-32915047D01*
X75160051Y-32915046D01*
X75160049Y-32915045D01*
X75160050Y-32915045D01*
X75021963Y-32874500D01*
X75021961Y-32874500D01*
X74878039Y-32874500D01*
X74878036Y-32874500D01*
X74739949Y-32915045D01*
X74618873Y-32992856D01*
X74524623Y-33101626D01*
X74524622Y-33101628D01*
X74464834Y-33232543D01*
X74444353Y-33375000D01*
X58355647Y-33375000D01*
X58335165Y-33232543D01*
X58275377Y-33101627D01*
X58181128Y-32992857D01*
X58060053Y-32915047D01*
X58060051Y-32915046D01*
X58060049Y-32915045D01*
X58060050Y-32915045D01*
X57921963Y-32874500D01*
X57921961Y-32874500D01*
X57778039Y-32874500D01*
X57778036Y-32874500D01*
X57639949Y-32915045D01*
X57518873Y-32992856D01*
X57424623Y-33101626D01*
X57424622Y-33101628D01*
X57364834Y-33232543D01*
X57344353Y-33375000D01*
X54364966Y-33375000D01*
X54364966Y-31050000D01*
X61494353Y-31050000D01*
X61514834Y-31192456D01*
X61574622Y-31323371D01*
X61574623Y-31323373D01*
X61668872Y-31432143D01*
X61789947Y-31509953D01*
X61789950Y-31509954D01*
X61789949Y-31509954D01*
X61928036Y-31550499D01*
X61928038Y-31550500D01*
X61928039Y-31550500D01*
X62071962Y-31550500D01*
X62071962Y-31550499D01*
X62210053Y-31509953D01*
X62331128Y-31432143D01*
X62425377Y-31323373D01*
X62485165Y-31192457D01*
X62485165Y-31192455D01*
X62487206Y-31187987D01*
X62532961Y-31135183D01*
X62600000Y-31115499D01*
X62667040Y-31135184D01*
X62712794Y-31187987D01*
X62714834Y-31192455D01*
X62714835Y-31192457D01*
X62774623Y-31323373D01*
X62868872Y-31432143D01*
X62989947Y-31509953D01*
X62989950Y-31509954D01*
X62989949Y-31509954D01*
X63128036Y-31550499D01*
X63128038Y-31550500D01*
X63128039Y-31550500D01*
X63271962Y-31550500D01*
X63271962Y-31550499D01*
X63410053Y-31509953D01*
X63531128Y-31432143D01*
X63625377Y-31323373D01*
X63685165Y-31192457D01*
X63705647Y-31050000D01*
X63685165Y-30907543D01*
X63625377Y-30776627D01*
X63531128Y-30667857D01*
X63410053Y-30590047D01*
X63410051Y-30590046D01*
X63410049Y-30590045D01*
X63410050Y-30590045D01*
X63271963Y-30549500D01*
X63271961Y-30549500D01*
X63128039Y-30549500D01*
X63128036Y-30549500D01*
X62989949Y-30590045D01*
X62868873Y-30667856D01*
X62774623Y-30776626D01*
X62774622Y-30776628D01*
X62712794Y-30912012D01*
X62667039Y-30964816D01*
X62600000Y-30984500D01*
X62532960Y-30964815D01*
X62487206Y-30912012D01*
X62425377Y-30776628D01*
X62425376Y-30776626D01*
X62331128Y-30667857D01*
X62210053Y-30590047D01*
X62210051Y-30590046D01*
X62210049Y-30590045D01*
X62210050Y-30590045D01*
X62071963Y-30549500D01*
X62071961Y-30549500D01*
X61928039Y-30549500D01*
X61928036Y-30549500D01*
X61789949Y-30590045D01*
X61668873Y-30667856D01*
X61574623Y-30776626D01*
X61574622Y-30776628D01*
X61514834Y-30907543D01*
X61494353Y-31050000D01*
X54364966Y-31050000D01*
X54364966Y-26925000D01*
X57344353Y-26925000D01*
X57364834Y-27067456D01*
X57380819Y-27102457D01*
X57424623Y-27198373D01*
X57518872Y-27307143D01*
X57639947Y-27384953D01*
X57639950Y-27384954D01*
X57639949Y-27384954D01*
X57747107Y-27416417D01*
X57759147Y-27419953D01*
X57778036Y-27425499D01*
X57778038Y-27425500D01*
X57778039Y-27425500D01*
X57921962Y-27425500D01*
X57921962Y-27425499D01*
X58060053Y-27384953D01*
X58181128Y-27307143D01*
X58275377Y-27198373D01*
X58335165Y-27067457D01*
X58350615Y-26960000D01*
X71694354Y-26960000D01*
X71714835Y-27102456D01*
X71758639Y-27198371D01*
X71774624Y-27233373D01*
X71868873Y-27342143D01*
X71989948Y-27419953D01*
X71989951Y-27419954D01*
X71989950Y-27419954D01*
X72128037Y-27460499D01*
X72128039Y-27460500D01*
X72128040Y-27460500D01*
X72271963Y-27460500D01*
X72271963Y-27460499D01*
X72379122Y-27429035D01*
X72410051Y-27419954D01*
X72410051Y-27419953D01*
X72410054Y-27419953D01*
X72531129Y-27342143D01*
X72625378Y-27233373D01*
X72685166Y-27102457D01*
X72705648Y-26960000D01*
X72700616Y-26925000D01*
X74394353Y-26925000D01*
X74414834Y-27067456D01*
X74430819Y-27102457D01*
X74474623Y-27198373D01*
X74568872Y-27307143D01*
X74689947Y-27384953D01*
X74689950Y-27384954D01*
X74689949Y-27384954D01*
X74797107Y-27416417D01*
X74809147Y-27419953D01*
X74828036Y-27425499D01*
X74828038Y-27425500D01*
X74828039Y-27425500D01*
X74971962Y-27425500D01*
X74971962Y-27425499D01*
X75110053Y-27384953D01*
X75231128Y-27307143D01*
X75325377Y-27198373D01*
X75385165Y-27067457D01*
X75405647Y-26925000D01*
X75385165Y-26782543D01*
X75325377Y-26651627D01*
X75231128Y-26542857D01*
X75110053Y-26465047D01*
X75110051Y-26465046D01*
X75110049Y-26465045D01*
X75110050Y-26465045D01*
X74971963Y-26424500D01*
X74971961Y-26424500D01*
X74828039Y-26424500D01*
X74828036Y-26424500D01*
X74689949Y-26465045D01*
X74568873Y-26542856D01*
X74474623Y-26651626D01*
X74474622Y-26651628D01*
X74414834Y-26782543D01*
X74394353Y-26925000D01*
X72700616Y-26925000D01*
X72685166Y-26817543D01*
X72625378Y-26686627D01*
X72531129Y-26577857D01*
X72410054Y-26500047D01*
X72410052Y-26500046D01*
X72410050Y-26500045D01*
X72410051Y-26500045D01*
X72271964Y-26459500D01*
X72271962Y-26459500D01*
X72128040Y-26459500D01*
X72128037Y-26459500D01*
X71989950Y-26500045D01*
X71868874Y-26577856D01*
X71774624Y-26686626D01*
X71774623Y-26686628D01*
X71714835Y-26817543D01*
X71694354Y-26960000D01*
X58350615Y-26960000D01*
X58355647Y-26925000D01*
X58335165Y-26782543D01*
X58275377Y-26651627D01*
X58181128Y-26542857D01*
X58060053Y-26465047D01*
X58060051Y-26465046D01*
X58060049Y-26465045D01*
X58060050Y-26465045D01*
X57921963Y-26424500D01*
X57921961Y-26424500D01*
X57778039Y-26424500D01*
X57778036Y-26424500D01*
X57639949Y-26465045D01*
X57518873Y-26542856D01*
X57424623Y-26651626D01*
X57424622Y-26651628D01*
X57364834Y-26782543D01*
X57344353Y-26925000D01*
X54364966Y-26925000D01*
X54364966Y-25675000D01*
X57344353Y-25675000D01*
X57364834Y-25817456D01*
X57424622Y-25948371D01*
X57424623Y-25948373D01*
X57518872Y-26057143D01*
X57639947Y-26134953D01*
X57639950Y-26134954D01*
X57639949Y-26134954D01*
X57778036Y-26175499D01*
X57778038Y-26175500D01*
X57778039Y-26175500D01*
X57921962Y-26175500D01*
X57921962Y-26175499D01*
X58060053Y-26134953D01*
X58181128Y-26057143D01*
X58275377Y-25948373D01*
X58335165Y-25817457D01*
X58355647Y-25675000D01*
X74394353Y-25675000D01*
X74414834Y-25817456D01*
X74474622Y-25948371D01*
X74474623Y-25948373D01*
X74568872Y-26057143D01*
X74689947Y-26134953D01*
X74689950Y-26134954D01*
X74689949Y-26134954D01*
X74828036Y-26175499D01*
X74828038Y-26175500D01*
X74828039Y-26175500D01*
X74971962Y-26175500D01*
X74971962Y-26175499D01*
X75110053Y-26134953D01*
X75231128Y-26057143D01*
X75325377Y-25948373D01*
X75385165Y-25817457D01*
X75405647Y-25675000D01*
X75385165Y-25532543D01*
X75325377Y-25401627D01*
X75231128Y-25292857D01*
X75110053Y-25215047D01*
X75110051Y-25215046D01*
X75110049Y-25215045D01*
X75110050Y-25215045D01*
X74971963Y-25174500D01*
X74971961Y-25174500D01*
X74828039Y-25174500D01*
X74828036Y-25174500D01*
X74689949Y-25215045D01*
X74568873Y-25292856D01*
X74474623Y-25401626D01*
X74474622Y-25401628D01*
X74414834Y-25532543D01*
X74394353Y-25675000D01*
X58355647Y-25675000D01*
X58335165Y-25532543D01*
X58275377Y-25401627D01*
X58181128Y-25292857D01*
X58060053Y-25215047D01*
X58060051Y-25215046D01*
X58060049Y-25215045D01*
X58060050Y-25215045D01*
X57921963Y-25174500D01*
X57921961Y-25174500D01*
X57778039Y-25174500D01*
X57778036Y-25174500D01*
X57639949Y-25215045D01*
X57518873Y-25292856D01*
X57424623Y-25401626D01*
X57424622Y-25401628D01*
X57364834Y-25532543D01*
X57344353Y-25675000D01*
X54364966Y-25675000D01*
X54364966Y-24950000D01*
X61744353Y-24950000D01*
X61764834Y-25092456D01*
X61824622Y-25223371D01*
X61824623Y-25223373D01*
X61918872Y-25332143D01*
X62039947Y-25409953D01*
X62039950Y-25409954D01*
X62039949Y-25409954D01*
X62178036Y-25450499D01*
X62178038Y-25450500D01*
X62178039Y-25450500D01*
X62321962Y-25450500D01*
X62321962Y-25450499D01*
X62460053Y-25409953D01*
X62581128Y-25332143D01*
X62675377Y-25223373D01*
X62735165Y-25092457D01*
X62755647Y-24950000D01*
X69944353Y-24950000D01*
X69964834Y-25092456D01*
X70024622Y-25223371D01*
X70024623Y-25223373D01*
X70118872Y-25332143D01*
X70239947Y-25409953D01*
X70239950Y-25409954D01*
X70239949Y-25409954D01*
X70378036Y-25450499D01*
X70378038Y-25450500D01*
X70378039Y-25450500D01*
X70521962Y-25450500D01*
X70521962Y-25450499D01*
X70660053Y-25409953D01*
X70781128Y-25332143D01*
X70875377Y-25223373D01*
X70935165Y-25092457D01*
X70955647Y-24950000D01*
X70935165Y-24807543D01*
X70875377Y-24676627D01*
X70781128Y-24567857D01*
X70660053Y-24490047D01*
X70660051Y-24490046D01*
X70660049Y-24490045D01*
X70660050Y-24490045D01*
X70521963Y-24449500D01*
X70521961Y-24449500D01*
X70378039Y-24449500D01*
X70378036Y-24449500D01*
X70239949Y-24490045D01*
X70118873Y-24567856D01*
X70024623Y-24676626D01*
X70024622Y-24676628D01*
X69964834Y-24807543D01*
X69944353Y-24950000D01*
X62755647Y-24950000D01*
X62735165Y-24807543D01*
X62675377Y-24676627D01*
X62581128Y-24567857D01*
X62460053Y-24490047D01*
X62460051Y-24490046D01*
X62460049Y-24490045D01*
X62460050Y-24490045D01*
X62321963Y-24449500D01*
X62321961Y-24449500D01*
X62178039Y-24449500D01*
X62178036Y-24449500D01*
X62039949Y-24490045D01*
X61918873Y-24567856D01*
X61824623Y-24676626D01*
X61824622Y-24676628D01*
X61764834Y-24807543D01*
X61744353Y-24950000D01*
X54364966Y-24950000D01*
X54364966Y-24425000D01*
X57344353Y-24425000D01*
X57364834Y-24567456D01*
X57369023Y-24576628D01*
X57424623Y-24698373D01*
X57518872Y-24807143D01*
X57639947Y-24884953D01*
X57639950Y-24884954D01*
X57639949Y-24884954D01*
X57778036Y-24925499D01*
X57778038Y-24925500D01*
X57778039Y-24925500D01*
X57921962Y-24925500D01*
X57921962Y-24925499D01*
X58060053Y-24884953D01*
X58181128Y-24807143D01*
X58275377Y-24698373D01*
X58335165Y-24567457D01*
X58355647Y-24425000D01*
X74394353Y-24425000D01*
X74414834Y-24567456D01*
X74419023Y-24576628D01*
X74474623Y-24698373D01*
X74568872Y-24807143D01*
X74689947Y-24884953D01*
X74689950Y-24884954D01*
X74689949Y-24884954D01*
X74828036Y-24925499D01*
X74828038Y-24925500D01*
X74828039Y-24925500D01*
X74971962Y-24925500D01*
X74971962Y-24925499D01*
X75110053Y-24884953D01*
X75164441Y-24850000D01*
X77044353Y-24850000D01*
X77064834Y-24992456D01*
X77110504Y-25092457D01*
X77124623Y-25123373D01*
X77218872Y-25232143D01*
X77339947Y-25309953D01*
X77339950Y-25309954D01*
X77339949Y-25309954D01*
X77478036Y-25350499D01*
X77478038Y-25350500D01*
X77478039Y-25350500D01*
X77621962Y-25350500D01*
X77621962Y-25350499D01*
X77760053Y-25309953D01*
X77881128Y-25232143D01*
X77975377Y-25123373D01*
X78035165Y-24992457D01*
X78055647Y-24850000D01*
X78035165Y-24707543D01*
X77975377Y-24576627D01*
X77881128Y-24467857D01*
X77760053Y-24390047D01*
X77760051Y-24390046D01*
X77760049Y-24390045D01*
X77760050Y-24390045D01*
X77621963Y-24349500D01*
X77621961Y-24349500D01*
X77478039Y-24349500D01*
X77478036Y-24349500D01*
X77339949Y-24390045D01*
X77218873Y-24467856D01*
X77124623Y-24576626D01*
X77124622Y-24576628D01*
X77064834Y-24707543D01*
X77044353Y-24850000D01*
X75164441Y-24850000D01*
X75231128Y-24807143D01*
X75325377Y-24698373D01*
X75385165Y-24567457D01*
X75405647Y-24425000D01*
X75385165Y-24282543D01*
X75325377Y-24151627D01*
X75231128Y-24042857D01*
X75110053Y-23965047D01*
X75110051Y-23965046D01*
X75110049Y-23965045D01*
X75110050Y-23965045D01*
X74971963Y-23924500D01*
X74971961Y-23924500D01*
X74828039Y-23924500D01*
X74828036Y-23924500D01*
X74689949Y-23965045D01*
X74568873Y-24042856D01*
X74474623Y-24151626D01*
X74474622Y-24151628D01*
X74414834Y-24282543D01*
X74394353Y-24425000D01*
X58355647Y-24425000D01*
X58335165Y-24282543D01*
X58275377Y-24151627D01*
X58181128Y-24042857D01*
X58060053Y-23965047D01*
X58060051Y-23965046D01*
X58060049Y-23965045D01*
X58060050Y-23965045D01*
X57921963Y-23924500D01*
X57921961Y-23924500D01*
X57778039Y-23924500D01*
X57778036Y-23924500D01*
X57639949Y-23965045D01*
X57518873Y-24042856D01*
X57424623Y-24151626D01*
X57424622Y-24151628D01*
X57364834Y-24282543D01*
X57344353Y-24425000D01*
X54364966Y-24425000D01*
X54364966Y-23175000D01*
X57344353Y-23175000D01*
X57364834Y-23317456D01*
X57379925Y-23350499D01*
X57424623Y-23448373D01*
X57518872Y-23557143D01*
X57639947Y-23634953D01*
X57639950Y-23634954D01*
X57639949Y-23634954D01*
X57778036Y-23675499D01*
X57778038Y-23675500D01*
X57778039Y-23675500D01*
X57921962Y-23675500D01*
X57921962Y-23675499D01*
X58060053Y-23634953D01*
X58181128Y-23557143D01*
X58275377Y-23448373D01*
X58335165Y-23317457D01*
X58355647Y-23175000D01*
X58335165Y-23032543D01*
X58275377Y-22901627D01*
X58230642Y-22850000D01*
X61744353Y-22850000D01*
X61764834Y-22992456D01*
X61824622Y-23123371D01*
X61824623Y-23123373D01*
X61918872Y-23232143D01*
X62039947Y-23309953D01*
X62039950Y-23309954D01*
X62039949Y-23309954D01*
X62178036Y-23350499D01*
X62178038Y-23350500D01*
X62178039Y-23350500D01*
X62321962Y-23350500D01*
X62321962Y-23350499D01*
X62460053Y-23309953D01*
X62581128Y-23232143D01*
X62675377Y-23123373D01*
X62735165Y-22992457D01*
X62755647Y-22850000D01*
X69944353Y-22850000D01*
X69964834Y-22992456D01*
X70024622Y-23123371D01*
X70024623Y-23123373D01*
X70118872Y-23232143D01*
X70239947Y-23309953D01*
X70239950Y-23309954D01*
X70239949Y-23309954D01*
X70378036Y-23350499D01*
X70378038Y-23350500D01*
X70378039Y-23350500D01*
X70521962Y-23350500D01*
X70521962Y-23350499D01*
X70660053Y-23309953D01*
X70781128Y-23232143D01*
X70830642Y-23175000D01*
X74394353Y-23175000D01*
X74414834Y-23317456D01*
X74429925Y-23350499D01*
X74474623Y-23448373D01*
X74568872Y-23557143D01*
X74689947Y-23634953D01*
X74689950Y-23634954D01*
X74689949Y-23634954D01*
X74828036Y-23675499D01*
X74828038Y-23675500D01*
X74828039Y-23675500D01*
X74971962Y-23675500D01*
X74971962Y-23675499D01*
X75110053Y-23634953D01*
X75231128Y-23557143D01*
X75325377Y-23448373D01*
X75385165Y-23317457D01*
X75405647Y-23175000D01*
X75385165Y-23032543D01*
X75325377Y-22901627D01*
X75231128Y-22792857D01*
X75110053Y-22715047D01*
X75110051Y-22715046D01*
X75110049Y-22715045D01*
X75110050Y-22715045D01*
X74971963Y-22674500D01*
X74971961Y-22674500D01*
X74828039Y-22674500D01*
X74828036Y-22674500D01*
X74689949Y-22715045D01*
X74568873Y-22792856D01*
X74474623Y-22901626D01*
X74474622Y-22901628D01*
X74414834Y-23032543D01*
X74394353Y-23175000D01*
X70830642Y-23175000D01*
X70875377Y-23123373D01*
X70935165Y-22992457D01*
X70955647Y-22850000D01*
X70935165Y-22707543D01*
X70875377Y-22576627D01*
X70781128Y-22467857D01*
X70660053Y-22390047D01*
X70660051Y-22390046D01*
X70660049Y-22390045D01*
X70660050Y-22390045D01*
X70521963Y-22349500D01*
X70521961Y-22349500D01*
X70378039Y-22349500D01*
X70378036Y-22349500D01*
X70239949Y-22390045D01*
X70118873Y-22467856D01*
X70024623Y-22576626D01*
X70024622Y-22576628D01*
X69964834Y-22707543D01*
X69944353Y-22850000D01*
X62755647Y-22850000D01*
X62735165Y-22707543D01*
X62675377Y-22576627D01*
X62581128Y-22467857D01*
X62460053Y-22390047D01*
X62460051Y-22390046D01*
X62460049Y-22390045D01*
X62460050Y-22390045D01*
X62321963Y-22349500D01*
X62321961Y-22349500D01*
X62178039Y-22349500D01*
X62178036Y-22349500D01*
X62039949Y-22390045D01*
X61918873Y-22467856D01*
X61824623Y-22576626D01*
X61824622Y-22576628D01*
X61764834Y-22707543D01*
X61744353Y-22850000D01*
X58230642Y-22850000D01*
X58181128Y-22792857D01*
X58060053Y-22715047D01*
X58060051Y-22715046D01*
X58060049Y-22715045D01*
X58060050Y-22715045D01*
X57921963Y-22674500D01*
X57921961Y-22674500D01*
X57778039Y-22674500D01*
X57778036Y-22674500D01*
X57639949Y-22715045D01*
X57518873Y-22792856D01*
X57424623Y-22901626D01*
X57424622Y-22901628D01*
X57364834Y-23032543D01*
X57344353Y-23175000D01*
X54364966Y-23175000D01*
X54364966Y-20750000D01*
X61944353Y-20750000D01*
X61964834Y-20892456D01*
X62024622Y-21023371D01*
X62024623Y-21023373D01*
X62118872Y-21132143D01*
X62239947Y-21209953D01*
X62239950Y-21209954D01*
X62239949Y-21209954D01*
X62378036Y-21250499D01*
X62378038Y-21250500D01*
X62378039Y-21250500D01*
X62521962Y-21250500D01*
X62521962Y-21250499D01*
X62660053Y-21209953D01*
X62781128Y-21132143D01*
X62875377Y-21023373D01*
X62935165Y-20892457D01*
X62955647Y-20750000D01*
X69644353Y-20750000D01*
X69664834Y-20892456D01*
X69724622Y-21023371D01*
X69724623Y-21023373D01*
X69818872Y-21132143D01*
X69939947Y-21209953D01*
X69939950Y-21209954D01*
X69939949Y-21209954D01*
X70078036Y-21250499D01*
X70078038Y-21250500D01*
X70078039Y-21250500D01*
X70221962Y-21250500D01*
X70221962Y-21250499D01*
X70360053Y-21209953D01*
X70481128Y-21132143D01*
X70575377Y-21023373D01*
X70635165Y-20892457D01*
X70655647Y-20750000D01*
X70635165Y-20607543D01*
X70575377Y-20476627D01*
X70481128Y-20367857D01*
X70360053Y-20290047D01*
X70360051Y-20290046D01*
X70360049Y-20290045D01*
X70360050Y-20290045D01*
X70221963Y-20249500D01*
X70221961Y-20249500D01*
X70078039Y-20249500D01*
X70078036Y-20249500D01*
X69939949Y-20290045D01*
X69818873Y-20367856D01*
X69724623Y-20476626D01*
X69724622Y-20476628D01*
X69664834Y-20607543D01*
X69644353Y-20750000D01*
X62955647Y-20750000D01*
X62935165Y-20607543D01*
X62875377Y-20476627D01*
X62781128Y-20367857D01*
X62660053Y-20290047D01*
X62660051Y-20290046D01*
X62660049Y-20290045D01*
X62660050Y-20290045D01*
X62521963Y-20249500D01*
X62521961Y-20249500D01*
X62378039Y-20249500D01*
X62378036Y-20249500D01*
X62239949Y-20290045D01*
X62118873Y-20367856D01*
X62024623Y-20476626D01*
X62024622Y-20476628D01*
X61964834Y-20607543D01*
X61944353Y-20750000D01*
X54364966Y-20750000D01*
X54364966Y-19067170D01*
X54365084Y-19061761D01*
X54374900Y-18836959D01*
X54381854Y-18677699D01*
X54382794Y-18666965D01*
X54432623Y-18288495D01*
X54434494Y-18277877D01*
X54517120Y-17905187D01*
X54519917Y-17894751D01*
X54634704Y-17530699D01*
X54638393Y-17520563D01*
X54784474Y-17167894D01*
X54789044Y-17158097D01*
X54845316Y-17050000D01*
X56264357Y-17050000D01*
X56284884Y-17271535D01*
X56284885Y-17271537D01*
X56345769Y-17485523D01*
X56345775Y-17485538D01*
X56444938Y-17684683D01*
X56444943Y-17684691D01*
X56579020Y-17862238D01*
X56743437Y-18012123D01*
X56743439Y-18012125D01*
X56932595Y-18129245D01*
X56932596Y-18129245D01*
X56932599Y-18129247D01*
X57140060Y-18209618D01*
X57358757Y-18250500D01*
X57358759Y-18250500D01*
X57581241Y-18250500D01*
X57581243Y-18250500D01*
X57799940Y-18209618D01*
X58007401Y-18129247D01*
X58196562Y-18012124D01*
X58360981Y-17862236D01*
X58495058Y-17684689D01*
X58574500Y-17525149D01*
X58622003Y-17473912D01*
X58689666Y-17456491D01*
X58756006Y-17478417D01*
X58799961Y-17532728D01*
X58809500Y-17580421D01*
X58809500Y-18069752D01*
X58821131Y-18128229D01*
X58821132Y-18128230D01*
X58865447Y-18194552D01*
X58931769Y-18238867D01*
X58931770Y-18238868D01*
X58990247Y-18250499D01*
X58990250Y-18250500D01*
X58990252Y-18250500D01*
X61029750Y-18250500D01*
X61029751Y-18250499D01*
X61044568Y-18247552D01*
X61088229Y-18238868D01*
X61088229Y-18238867D01*
X61088231Y-18238867D01*
X61154552Y-18194552D01*
X61198867Y-18128231D01*
X61198867Y-18128229D01*
X61198868Y-18128229D01*
X61210499Y-18069752D01*
X61210500Y-18069750D01*
X61210500Y-17580421D01*
X61230185Y-17513382D01*
X61282989Y-17467627D01*
X61352147Y-17457683D01*
X61415703Y-17486708D01*
X61445500Y-17525149D01*
X61524938Y-17684683D01*
X61524943Y-17684691D01*
X61659020Y-17862238D01*
X61823437Y-18012123D01*
X61823439Y-18012125D01*
X62012595Y-18129245D01*
X62012596Y-18129245D01*
X62012599Y-18129247D01*
X62220060Y-18209618D01*
X62438757Y-18250500D01*
X62438759Y-18250500D01*
X62661241Y-18250500D01*
X62661243Y-18250500D01*
X62879940Y-18209618D01*
X63087401Y-18129247D01*
X63276562Y-18012124D01*
X63440981Y-17862236D01*
X63575058Y-17684689D01*
X63654500Y-17525149D01*
X63702003Y-17473912D01*
X63769666Y-17456491D01*
X63836006Y-17478417D01*
X63879961Y-17532728D01*
X63889500Y-17580421D01*
X63889500Y-18069752D01*
X63901131Y-18128229D01*
X63901132Y-18128230D01*
X63945447Y-18194552D01*
X64011769Y-18238867D01*
X64011770Y-18238868D01*
X64070247Y-18250499D01*
X64070250Y-18250500D01*
X64070252Y-18250500D01*
X66109750Y-18250500D01*
X66109751Y-18250499D01*
X66124568Y-18247552D01*
X66168229Y-18238868D01*
X66168229Y-18238867D01*
X66168231Y-18238867D01*
X66234552Y-18194552D01*
X66278867Y-18128231D01*
X66278867Y-18128229D01*
X66278868Y-18128229D01*
X66290499Y-18069752D01*
X66290500Y-18069750D01*
X66290500Y-17580421D01*
X66310185Y-17513382D01*
X66362989Y-17467627D01*
X66432147Y-17457683D01*
X66495703Y-17486708D01*
X66525500Y-17525149D01*
X66604938Y-17684683D01*
X66604943Y-17684691D01*
X66739020Y-17862238D01*
X66903437Y-18012123D01*
X66903439Y-18012125D01*
X67092595Y-18129245D01*
X67092596Y-18129245D01*
X67092599Y-18129247D01*
X67300060Y-18209618D01*
X67518757Y-18250500D01*
X67518759Y-18250500D01*
X67741241Y-18250500D01*
X67741243Y-18250500D01*
X67959940Y-18209618D01*
X68167401Y-18129247D01*
X68356562Y-18012124D01*
X68520981Y-17862236D01*
X68655058Y-17684689D01*
X68734500Y-17525149D01*
X68782003Y-17473912D01*
X68849666Y-17456491D01*
X68916006Y-17478417D01*
X68959961Y-17532728D01*
X68969500Y-17580421D01*
X68969500Y-18069752D01*
X68981131Y-18128229D01*
X68981132Y-18128230D01*
X69025447Y-18194552D01*
X69091769Y-18238867D01*
X69091770Y-18238868D01*
X69150247Y-18250499D01*
X69150250Y-18250500D01*
X69150252Y-18250500D01*
X71189750Y-18250500D01*
X71189751Y-18250499D01*
X71204568Y-18247552D01*
X71248229Y-18238868D01*
X71248229Y-18238867D01*
X71248231Y-18238867D01*
X71314552Y-18194552D01*
X71358867Y-18128231D01*
X71358867Y-18128229D01*
X71358868Y-18128229D01*
X71370499Y-18069752D01*
X71370500Y-18069750D01*
X71370500Y-17580421D01*
X71390185Y-17513382D01*
X71442989Y-17467627D01*
X71512147Y-17457683D01*
X71575703Y-17486708D01*
X71605500Y-17525149D01*
X71684938Y-17684683D01*
X71684943Y-17684691D01*
X71819020Y-17862238D01*
X71983437Y-18012123D01*
X71983439Y-18012125D01*
X72172595Y-18129245D01*
X72172596Y-18129245D01*
X72172599Y-18129247D01*
X72380060Y-18209618D01*
X72598757Y-18250500D01*
X72598759Y-18250500D01*
X72821241Y-18250500D01*
X72821243Y-18250500D01*
X73039940Y-18209618D01*
X73247401Y-18129247D01*
X73436562Y-18012124D01*
X73600981Y-17862236D01*
X73735058Y-17684689D01*
X73814500Y-17525149D01*
X73862003Y-17473912D01*
X73929666Y-17456491D01*
X73996006Y-17478417D01*
X74039961Y-17532728D01*
X74049500Y-17580421D01*
X74049500Y-18069752D01*
X74061131Y-18128229D01*
X74061132Y-18128230D01*
X74105447Y-18194552D01*
X74171769Y-18238867D01*
X74171770Y-18238868D01*
X74230247Y-18250499D01*
X74230250Y-18250500D01*
X74230252Y-18250500D01*
X76269750Y-18250500D01*
X76269751Y-18250499D01*
X76284568Y-18247552D01*
X76328229Y-18238868D01*
X76328229Y-18238867D01*
X76328231Y-18238867D01*
X76394552Y-18194552D01*
X76438867Y-18128231D01*
X76438867Y-18128229D01*
X76438868Y-18128229D01*
X76450499Y-18069752D01*
X76450500Y-18069750D01*
X76450500Y-16030249D01*
X76450499Y-16030247D01*
X76438868Y-15971770D01*
X76438867Y-15971769D01*
X76394552Y-15905447D01*
X76328230Y-15861132D01*
X76328229Y-15861131D01*
X76269752Y-15849500D01*
X76269748Y-15849500D01*
X74230252Y-15849500D01*
X74230247Y-15849500D01*
X74171770Y-15861131D01*
X74171769Y-15861132D01*
X74105447Y-15905447D01*
X74061132Y-15971769D01*
X74061131Y-15971770D01*
X74049500Y-16030247D01*
X74049500Y-16519578D01*
X74029815Y-16586617D01*
X73977011Y-16632372D01*
X73907853Y-16642316D01*
X73844297Y-16613291D01*
X73814500Y-16574850D01*
X73735061Y-16415316D01*
X73735056Y-16415308D01*
X73600979Y-16237761D01*
X73436562Y-16087876D01*
X73436560Y-16087874D01*
X73247404Y-15970754D01*
X73247398Y-15970752D01*
X73039940Y-15890382D01*
X72821243Y-15849500D01*
X72598757Y-15849500D01*
X72380060Y-15890382D01*
X72248864Y-15941207D01*
X72172601Y-15970752D01*
X72172595Y-15970754D01*
X71983439Y-16087874D01*
X71983437Y-16087876D01*
X71819020Y-16237761D01*
X71684943Y-16415308D01*
X71684938Y-16415316D01*
X71605500Y-16574850D01*
X71557997Y-16626087D01*
X71490334Y-16643508D01*
X71423994Y-16621582D01*
X71380039Y-16567271D01*
X71370500Y-16519578D01*
X71370500Y-16030249D01*
X71370499Y-16030247D01*
X71358868Y-15971770D01*
X71358867Y-15971769D01*
X71314552Y-15905447D01*
X71248230Y-15861132D01*
X71248229Y-15861131D01*
X71189752Y-15849500D01*
X71189748Y-15849500D01*
X69150252Y-15849500D01*
X69150247Y-15849500D01*
X69091770Y-15861131D01*
X69091769Y-15861132D01*
X69025447Y-15905447D01*
X68981132Y-15971769D01*
X68981131Y-15971770D01*
X68969500Y-16030247D01*
X68969500Y-16519578D01*
X68949815Y-16586617D01*
X68897011Y-16632372D01*
X68827853Y-16642316D01*
X68764297Y-16613291D01*
X68734500Y-16574850D01*
X68655061Y-16415316D01*
X68655056Y-16415308D01*
X68520979Y-16237761D01*
X68356562Y-16087876D01*
X68356560Y-16087874D01*
X68167404Y-15970754D01*
X68167398Y-15970752D01*
X67959940Y-15890382D01*
X67741243Y-15849500D01*
X67518757Y-15849500D01*
X67300060Y-15890382D01*
X67168864Y-15941207D01*
X67092601Y-15970752D01*
X67092595Y-15970754D01*
X66903439Y-16087874D01*
X66903437Y-16087876D01*
X66739020Y-16237761D01*
X66604943Y-16415308D01*
X66604938Y-16415316D01*
X66525500Y-16574850D01*
X66477997Y-16626087D01*
X66410334Y-16643508D01*
X66343994Y-16621582D01*
X66300039Y-16567271D01*
X66290500Y-16519578D01*
X66290500Y-16030249D01*
X66290499Y-16030247D01*
X66278868Y-15971770D01*
X66278867Y-15971769D01*
X66234552Y-15905447D01*
X66168230Y-15861132D01*
X66168229Y-15861131D01*
X66109752Y-15849500D01*
X66109748Y-15849500D01*
X64070252Y-15849500D01*
X64070247Y-15849500D01*
X64011770Y-15861131D01*
X64011769Y-15861132D01*
X63945447Y-15905447D01*
X63901132Y-15971769D01*
X63901131Y-15971770D01*
X63889500Y-16030247D01*
X63889500Y-16519578D01*
X63869815Y-16586617D01*
X63817011Y-16632372D01*
X63747853Y-16642316D01*
X63684297Y-16613291D01*
X63654500Y-16574850D01*
X63575061Y-16415316D01*
X63575056Y-16415308D01*
X63440979Y-16237761D01*
X63276562Y-16087876D01*
X63276560Y-16087874D01*
X63087404Y-15970754D01*
X63087398Y-15970752D01*
X62879940Y-15890382D01*
X62661243Y-15849500D01*
X62438757Y-15849500D01*
X62220060Y-15890382D01*
X62088864Y-15941207D01*
X62012601Y-15970752D01*
X62012595Y-15970754D01*
X61823439Y-16087874D01*
X61823437Y-16087876D01*
X61659020Y-16237761D01*
X61524943Y-16415308D01*
X61524938Y-16415316D01*
X61445500Y-16574850D01*
X61397997Y-16626087D01*
X61330334Y-16643508D01*
X61263994Y-16621582D01*
X61220039Y-16567271D01*
X61210500Y-16519578D01*
X61210500Y-16030249D01*
X61210499Y-16030247D01*
X61198868Y-15971770D01*
X61198867Y-15971769D01*
X61154552Y-15905447D01*
X61088230Y-15861132D01*
X61088229Y-15861131D01*
X61029752Y-15849500D01*
X61029748Y-15849500D01*
X58990252Y-15849500D01*
X58990247Y-15849500D01*
X58931770Y-15861131D01*
X58931769Y-15861132D01*
X58865447Y-15905447D01*
X58821132Y-15971769D01*
X58821131Y-15971770D01*
X58809500Y-16030247D01*
X58809500Y-16519578D01*
X58789815Y-16586617D01*
X58737011Y-16632372D01*
X58667853Y-16642316D01*
X58604297Y-16613291D01*
X58574500Y-16574850D01*
X58495061Y-16415316D01*
X58495056Y-16415308D01*
X58360979Y-16237761D01*
X58196562Y-16087876D01*
X58196560Y-16087874D01*
X58007404Y-15970754D01*
X58007398Y-15970752D01*
X57799940Y-15890382D01*
X57581243Y-15849500D01*
X57358757Y-15849500D01*
X57140060Y-15890382D01*
X57008864Y-15941207D01*
X56932601Y-15970752D01*
X56932595Y-15970754D01*
X56743439Y-16087874D01*
X56743437Y-16087876D01*
X56579020Y-16237761D01*
X56444943Y-16415308D01*
X56444938Y-16415316D01*
X56345775Y-16614461D01*
X56345769Y-16614476D01*
X56284885Y-16828462D01*
X56284884Y-16828464D01*
X56264357Y-17049999D01*
X56264357Y-17050000D01*
X54845316Y-17050000D01*
X54965305Y-16819506D01*
X54970696Y-16810168D01*
X55175793Y-16488232D01*
X55181989Y-16479383D01*
X55182014Y-16479350D01*
X55414376Y-16176532D01*
X55421308Y-16168270D01*
X55679202Y-15886828D01*
X55686828Y-15879202D01*
X55968270Y-15621308D01*
X55976533Y-15614374D01*
X56279383Y-15381988D01*
X56288232Y-15375793D01*
X56610168Y-15170696D01*
X56619509Y-15165302D01*
X56958103Y-14989041D01*
X56967894Y-14984474D01*
X57320563Y-14838393D01*
X57330699Y-14834704D01*
X57694761Y-14719913D01*
X57705187Y-14717120D01*
X58077877Y-14634494D01*
X58088496Y-14632622D01*
X58466963Y-14582794D01*
X58477701Y-14581854D01*
X58861767Y-14565084D01*
X58867176Y-14564966D01*
X58930362Y-14564966D01*
X73798573Y-14564966D01*
X73798577Y-14564967D01*
G37*
G04 #@! TD.AperFunction*
M02*
