G04 #@! TF.GenerationSoftware,KiCad,Pcbnew,8.0.1*
G04 #@! TF.CreationDate,2024-10-16T00:10:43-06:00*
G04 #@! TF.ProjectId,electrode1,656c6563-7472-46f6-9465-312e6b696361,rev?*
G04 #@! TF.SameCoordinates,Original*
G04 #@! TF.FileFunction,Copper,L1,Top*
G04 #@! TF.FilePolarity,Positive*
%FSLAX46Y46*%
G04 Gerber Fmt 4.6, Leading zero omitted, Abs format (unit mm)*
G04 Created by KiCad (PCBNEW 8.0.1) date 2024-10-16 00:10:43*
%MOMM*%
%LPD*%
G01*
G04 APERTURE LIST*
G04 Aperture macros list*
%AMRoundRect*
0 Rectangle with rounded corners*
0 $1 Rounding radius*
0 $2 $3 $4 $5 $6 $7 $8 $9 X,Y pos of 4 corners*
0 Add a 4 corners polygon primitive as box body*
4,1,4,$2,$3,$4,$5,$6,$7,$8,$9,$2,$3,0*
0 Add four circle primitives for the rounded corners*
1,1,$1+$1,$2,$3*
1,1,$1+$1,$4,$5*
1,1,$1+$1,$6,$7*
1,1,$1+$1,$8,$9*
0 Add four rect primitives between the rounded corners*
20,1,$1+$1,$2,$3,$4,$5,0*
20,1,$1+$1,$4,$5,$6,$7,0*
20,1,$1+$1,$6,$7,$8,$9,0*
20,1,$1+$1,$8,$9,$2,$3,0*%
G04 Aperture macros list end*
G04 #@! TA.AperFunction,SMDPad,CuDef*
%ADD10R,0.330200X0.482600*%
G04 #@! TD*
G04 #@! TA.AperFunction,SMDPad,CuDef*
%ADD11R,0.482600X0.584200*%
G04 #@! TD*
G04 #@! TA.AperFunction,SMDPad,CuDef*
%ADD12R,0.482600X0.279400*%
G04 #@! TD*
G04 #@! TA.AperFunction,SMDPad,CuDef*
%ADD13RoundRect,0.250000X-0.250000X-0.475000X0.250000X-0.475000X0.250000X0.475000X-0.250000X0.475000X0*%
G04 #@! TD*
G04 #@! TA.AperFunction,ViaPad*
%ADD14C,0.600000*%
G04 #@! TD*
G04 #@! TA.AperFunction,Conductor*
%ADD15C,0.200000*%
G04 #@! TD*
G04 #@! TA.AperFunction,Conductor*
%ADD16C,0.100000*%
G04 #@! TD*
G04 APERTURE END LIST*
D10*
X158776200Y-106230003D03*
D11*
X158700000Y-105500000D03*
D12*
X158700000Y-104903200D03*
X158700000Y-104496800D03*
D11*
X158700000Y-103900000D03*
D10*
X158776200Y-103169997D03*
X156223800Y-106230003D03*
D11*
X156300000Y-105500000D03*
D12*
X156300000Y-104903200D03*
X156300000Y-104496800D03*
D11*
X156300000Y-103900000D03*
D10*
X156223800Y-103169997D03*
D13*
X156550000Y-108300000D03*
X158450000Y-108300000D03*
D10*
X156223800Y-85069997D03*
D11*
X156300000Y-85800000D03*
D12*
X156300000Y-86396800D03*
X156300000Y-86803200D03*
D11*
X156300000Y-87400000D03*
D10*
X156223800Y-88130003D03*
X158776200Y-85069997D03*
D11*
X158700000Y-85800000D03*
D12*
X158700000Y-86396800D03*
X158700000Y-86803200D03*
D11*
X158700000Y-87400000D03*
D10*
X158776200Y-88130003D03*
D13*
X156550000Y-101200000D03*
X158450000Y-101200000D03*
D14*
X155200000Y-99850000D03*
X155700000Y-89700000D03*
X159200000Y-89700000D03*
X160000000Y-99800000D03*
X157500000Y-95000000D03*
D15*
X156950000Y-106020000D02*
X156430000Y-105500000D01*
X156950000Y-107900000D02*
X156950000Y-106020000D01*
X156550000Y-108300000D02*
X156950000Y-107900000D01*
X158050000Y-105950000D02*
X158500000Y-105500000D01*
X158500000Y-105500000D02*
X158700000Y-105500000D01*
X158050000Y-107900000D02*
X158050000Y-105950000D01*
X158450000Y-108300000D02*
X158050000Y-107900000D01*
X157049938Y-101699938D02*
X156550000Y-101200000D01*
X157049938Y-104099938D02*
X157049938Y-101699938D01*
X158450000Y-105500000D02*
X157049938Y-104099938D01*
X158700000Y-105500000D02*
X158450000Y-105500000D01*
X158050000Y-101600000D02*
X158450000Y-101200000D01*
X158050000Y-103450197D02*
X158050000Y-101600000D01*
X158499803Y-103900000D02*
X158050000Y-103450197D01*
X158700000Y-103900000D02*
X158499803Y-103900000D01*
X155950000Y-85800000D02*
X156300000Y-85800000D01*
X155700000Y-86050000D02*
X155950000Y-85800000D01*
X155700000Y-89700000D02*
X155700000Y-86050000D01*
X156800000Y-87770000D02*
X156430000Y-87400000D01*
X156800000Y-98150000D02*
X156800000Y-87770000D01*
X155200000Y-99750000D02*
X156800000Y-98150000D01*
X158250000Y-87720000D02*
X158570000Y-87400000D01*
X158250000Y-88750000D02*
X158250000Y-87720000D01*
X159200000Y-89700000D02*
X158250000Y-88750000D01*
X159084200Y-85800000D02*
X158570000Y-85800000D01*
X159800000Y-86515800D02*
X159084200Y-85800000D01*
X159800000Y-99600000D02*
X159800000Y-86515800D01*
X160000000Y-99800000D02*
X159800000Y-99600000D01*
D16*
X157500000Y-87470000D02*
X158170000Y-86800000D01*
X157500000Y-95000000D02*
X157500000Y-87470000D01*
X158170000Y-86800000D02*
X158570000Y-86800000D01*
G04 #@! TA.AperFunction,Conductor*
G36*
X165002702Y-75500617D02*
G01*
X165386771Y-75517386D01*
X165397506Y-75518326D01*
X165775971Y-75568152D01*
X165786597Y-75570025D01*
X166159284Y-75652648D01*
X166169710Y-75655442D01*
X166533765Y-75770227D01*
X166543911Y-75773920D01*
X166896578Y-75920000D01*
X166906369Y-75924566D01*
X167244942Y-76100816D01*
X167254310Y-76106224D01*
X167576244Y-76311318D01*
X167585105Y-76317523D01*
X167887930Y-76549889D01*
X167896217Y-76556843D01*
X168177635Y-76814715D01*
X168185284Y-76822364D01*
X168443156Y-77103782D01*
X168450110Y-77112069D01*
X168682476Y-77414894D01*
X168688681Y-77423755D01*
X168893775Y-77745689D01*
X168899183Y-77755057D01*
X169075430Y-78093623D01*
X169080002Y-78103427D01*
X169226075Y-78456078D01*
X169229775Y-78466244D01*
X169344554Y-78830278D01*
X169347354Y-78840727D01*
X169429971Y-79213389D01*
X169431849Y-79224042D01*
X169481671Y-79602473D01*
X169482614Y-79613249D01*
X169499382Y-79997297D01*
X169499500Y-80002706D01*
X169499500Y-109997293D01*
X169499382Y-110002702D01*
X169482614Y-110386750D01*
X169481671Y-110397526D01*
X169431849Y-110775957D01*
X169429971Y-110786610D01*
X169347354Y-111159272D01*
X169344554Y-111169721D01*
X169229775Y-111533755D01*
X169226075Y-111543921D01*
X169080002Y-111896572D01*
X169075430Y-111906376D01*
X168899183Y-112244942D01*
X168893775Y-112254310D01*
X168688681Y-112576244D01*
X168682476Y-112585105D01*
X168450110Y-112887930D01*
X168443156Y-112896217D01*
X168185284Y-113177635D01*
X168177635Y-113185284D01*
X167896217Y-113443156D01*
X167887930Y-113450110D01*
X167585105Y-113682476D01*
X167576244Y-113688681D01*
X167254310Y-113893775D01*
X167244942Y-113899183D01*
X166906376Y-114075430D01*
X166896572Y-114080002D01*
X166543921Y-114226075D01*
X166533755Y-114229775D01*
X166169721Y-114344554D01*
X166159272Y-114347354D01*
X165786610Y-114429971D01*
X165775957Y-114431849D01*
X165397526Y-114481671D01*
X165386750Y-114482614D01*
X165002703Y-114499382D01*
X164997294Y-114499500D01*
X150002706Y-114499500D01*
X149997297Y-114499382D01*
X149613249Y-114482614D01*
X149602473Y-114481671D01*
X149224042Y-114431849D01*
X149213389Y-114429971D01*
X148840727Y-114347354D01*
X148830278Y-114344554D01*
X148466244Y-114229775D01*
X148456078Y-114226075D01*
X148103427Y-114080002D01*
X148093623Y-114075430D01*
X147755057Y-113899183D01*
X147745689Y-113893775D01*
X147423755Y-113688681D01*
X147414894Y-113682476D01*
X147112069Y-113450110D01*
X147103782Y-113443156D01*
X146822364Y-113185284D01*
X146814715Y-113177635D01*
X146556843Y-112896217D01*
X146549889Y-112887930D01*
X146317523Y-112585105D01*
X146311318Y-112576244D01*
X146106224Y-112254310D01*
X146100816Y-112244942D01*
X145924569Y-111906376D01*
X145919997Y-111896572D01*
X145773924Y-111543921D01*
X145770224Y-111533755D01*
X145655442Y-111169710D01*
X145652648Y-111159284D01*
X145570025Y-110786597D01*
X145568152Y-110775971D01*
X145518326Y-110397506D01*
X145517386Y-110386771D01*
X145500618Y-110002702D01*
X145500500Y-109997293D01*
X145500500Y-99850003D01*
X154394435Y-99850003D01*
X154414630Y-100029249D01*
X154414631Y-100029254D01*
X154474211Y-100199523D01*
X154570184Y-100352262D01*
X154697738Y-100479816D01*
X154850478Y-100575789D01*
X154935573Y-100605565D01*
X155020745Y-100635368D01*
X155020750Y-100635369D01*
X155199996Y-100655565D01*
X155200000Y-100655565D01*
X155200004Y-100655565D01*
X155379249Y-100635369D01*
X155379249Y-100635368D01*
X155379255Y-100635368D01*
X155384539Y-100633518D01*
X155454316Y-100629953D01*
X155514945Y-100664677D01*
X155547177Y-100726668D01*
X155549500Y-100750558D01*
X155549500Y-101725001D01*
X155549501Y-101725019D01*
X155560000Y-101827796D01*
X155560001Y-101827799D01*
X155615185Y-101994331D01*
X155615187Y-101994336D01*
X155707289Y-102143657D01*
X155831343Y-102267711D01*
X155837011Y-102272193D01*
X155835840Y-102273673D01*
X155876125Y-102318467D01*
X155887342Y-102387431D01*
X155859494Y-102451511D01*
X155823732Y-102480880D01*
X155816364Y-102484903D01*
X155701155Y-102571149D01*
X155701152Y-102571152D01*
X155614906Y-102686361D01*
X155614902Y-102686368D01*
X155564610Y-102821210D01*
X155564609Y-102821214D01*
X155558200Y-102880824D01*
X155558200Y-102880831D01*
X155558200Y-102880832D01*
X155558200Y-103459164D01*
X155558201Y-103459179D01*
X155562196Y-103496345D01*
X155562196Y-103522847D01*
X155558200Y-103560020D01*
X155558200Y-104239970D01*
X155558201Y-104239976D01*
X155560498Y-104261342D01*
X155560498Y-104287849D01*
X155558200Y-104309224D01*
X155558200Y-104684366D01*
X155558201Y-104684382D01*
X155558457Y-104686759D01*
X155558457Y-104713228D01*
X155558200Y-104715613D01*
X155558200Y-105090769D01*
X155558201Y-105090776D01*
X155560498Y-105112142D01*
X155560498Y-105138649D01*
X155558200Y-105160024D01*
X155558200Y-105839967D01*
X155558201Y-105839982D01*
X155562196Y-105877148D01*
X155562196Y-105903650D01*
X155558200Y-105940823D01*
X155558200Y-106519173D01*
X155558201Y-106519179D01*
X155564608Y-106578786D01*
X155614902Y-106713631D01*
X155614906Y-106713638D01*
X155701152Y-106828847D01*
X155701155Y-106828850D01*
X155816364Y-106915096D01*
X155816371Y-106915100D01*
X155908592Y-106949496D01*
X155964526Y-106991367D01*
X155988943Y-107056831D01*
X155974092Y-107125104D01*
X155930356Y-107171216D01*
X155831347Y-107232285D01*
X155831343Y-107232288D01*
X155707289Y-107356342D01*
X155615187Y-107505663D01*
X155615186Y-107505666D01*
X155560001Y-107672203D01*
X155560001Y-107672204D01*
X155560000Y-107672204D01*
X155549500Y-107774983D01*
X155549500Y-108825001D01*
X155549501Y-108825019D01*
X155560000Y-108927796D01*
X155560001Y-108927799D01*
X155600000Y-109048505D01*
X155615186Y-109094334D01*
X155707288Y-109243656D01*
X155831344Y-109367712D01*
X155980666Y-109459814D01*
X156147203Y-109514999D01*
X156249991Y-109525500D01*
X156850008Y-109525499D01*
X156850016Y-109525498D01*
X156850019Y-109525498D01*
X156906302Y-109519748D01*
X156952797Y-109514999D01*
X157119334Y-109459814D01*
X157268656Y-109367712D01*
X157392712Y-109243656D01*
X157394461Y-109240819D01*
X157396169Y-109239283D01*
X157397193Y-109237989D01*
X157397414Y-109238163D01*
X157446406Y-109194096D01*
X157515368Y-109182872D01*
X157579451Y-109210713D01*
X157605537Y-109240817D01*
X157607288Y-109243656D01*
X157731344Y-109367712D01*
X157880666Y-109459814D01*
X158047203Y-109514999D01*
X158149991Y-109525500D01*
X158750008Y-109525499D01*
X158750016Y-109525498D01*
X158750019Y-109525498D01*
X158806302Y-109519748D01*
X158852797Y-109514999D01*
X159019334Y-109459814D01*
X159168656Y-109367712D01*
X159292712Y-109243656D01*
X159384814Y-109094334D01*
X159439999Y-108927797D01*
X159450500Y-108825009D01*
X159450499Y-107774992D01*
X159439999Y-107672203D01*
X159384814Y-107505666D01*
X159292712Y-107356344D01*
X159168656Y-107232288D01*
X159069642Y-107171216D01*
X159022919Y-107119269D01*
X159011696Y-107050306D01*
X159039540Y-106986224D01*
X159091408Y-106949496D01*
X159183626Y-106915101D01*
X159183626Y-106915100D01*
X159183631Y-106915099D01*
X159298846Y-106828849D01*
X159385096Y-106713634D01*
X159435391Y-106578786D01*
X159441800Y-106519176D01*
X159441799Y-105940831D01*
X159437802Y-105903648D01*
X159437802Y-105877148D01*
X159441800Y-105839973D01*
X159441799Y-105160028D01*
X159439501Y-105138655D01*
X159439501Y-105112151D01*
X159441800Y-105090773D01*
X159441799Y-104715628D01*
X159441545Y-104713265D01*
X159441545Y-104686743D01*
X159441800Y-104684373D01*
X159441799Y-104309228D01*
X159439501Y-104287855D01*
X159439501Y-104261351D01*
X159441800Y-104239973D01*
X159441799Y-103560028D01*
X159437802Y-103522845D01*
X159437802Y-103496345D01*
X159441800Y-103459170D01*
X159441799Y-102880825D01*
X159435391Y-102821214D01*
X159385096Y-102686366D01*
X159385095Y-102686365D01*
X159385093Y-102686361D01*
X159298847Y-102571152D01*
X159298844Y-102571149D01*
X159183633Y-102484901D01*
X159176270Y-102480881D01*
X159126866Y-102431475D01*
X159112015Y-102363202D01*
X159136433Y-102297738D01*
X159163575Y-102272934D01*
X159162989Y-102272193D01*
X159168650Y-102267715D01*
X159168656Y-102267712D01*
X159292712Y-102143656D01*
X159384814Y-101994334D01*
X159439999Y-101827797D01*
X159450500Y-101725009D01*
X159450499Y-100674992D01*
X159446318Y-100634066D01*
X159459087Y-100565375D01*
X159506967Y-100514490D01*
X159574757Y-100497569D01*
X159635648Y-100516471D01*
X159650476Y-100525788D01*
X159650478Y-100525789D01*
X159772299Y-100568416D01*
X159820745Y-100585368D01*
X159820750Y-100585369D01*
X159999996Y-100605565D01*
X160000000Y-100605565D01*
X160000004Y-100605565D01*
X160179249Y-100585369D01*
X160179252Y-100585368D01*
X160179255Y-100585368D01*
X160349522Y-100525789D01*
X160502262Y-100429816D01*
X160629816Y-100302262D01*
X160725789Y-100149522D01*
X160785368Y-99979255D01*
X160786095Y-99972806D01*
X160805565Y-99800003D01*
X160805565Y-99799996D01*
X160785369Y-99620750D01*
X160785368Y-99620745D01*
X160725788Y-99450476D01*
X160629815Y-99297737D01*
X160502261Y-99170183D01*
X160458528Y-99142704D01*
X160412237Y-99090370D01*
X160400500Y-99037710D01*
X160400500Y-86436746D01*
X160400499Y-86436739D01*
X160390789Y-86400500D01*
X160359577Y-86284015D01*
X160322447Y-86219704D01*
X160322447Y-86219703D01*
X160280524Y-86147090D01*
X160280521Y-86147086D01*
X160280520Y-86147084D01*
X160168716Y-86035280D01*
X160168715Y-86035279D01*
X160164385Y-86030949D01*
X160164374Y-86030939D01*
X159571790Y-85438355D01*
X159571787Y-85438351D01*
X159571787Y-85438352D01*
X159564720Y-85431285D01*
X159564720Y-85431284D01*
X159478117Y-85344681D01*
X159444633Y-85283357D01*
X159441799Y-85257000D01*
X159441799Y-84780826D01*
X159441798Y-84780820D01*
X159441797Y-84780813D01*
X159435391Y-84721214D01*
X159385096Y-84586366D01*
X159385095Y-84586365D01*
X159385093Y-84586361D01*
X159298847Y-84471152D01*
X159298844Y-84471149D01*
X159183635Y-84384903D01*
X159183628Y-84384899D01*
X159048786Y-84334607D01*
X159048785Y-84334606D01*
X159048783Y-84334606D01*
X158989173Y-84328197D01*
X158989163Y-84328197D01*
X158563229Y-84328197D01*
X158563223Y-84328198D01*
X158503616Y-84334605D01*
X158368771Y-84384899D01*
X158368764Y-84384903D01*
X158253555Y-84471149D01*
X158253552Y-84471152D01*
X158167306Y-84586361D01*
X158167302Y-84586368D01*
X158117008Y-84721214D01*
X158110601Y-84780813D01*
X158110601Y-84780820D01*
X158110600Y-84780832D01*
X158110600Y-85096464D01*
X158090915Y-85163503D01*
X158085867Y-85170775D01*
X158014903Y-85265569D01*
X158014902Y-85265571D01*
X157964610Y-85400413D01*
X157964609Y-85400417D01*
X157958200Y-85460027D01*
X157958200Y-85460034D01*
X157958200Y-85460035D01*
X157958200Y-86139970D01*
X157958201Y-86139976D01*
X157960498Y-86161342D01*
X157960498Y-86187849D01*
X157958200Y-86209224D01*
X157958200Y-86584365D01*
X157958202Y-86584391D01*
X157958708Y-86589097D01*
X157958709Y-86612350D01*
X157958877Y-86612359D01*
X157958709Y-86615476D01*
X157958710Y-86615572D01*
X157958700Y-86615665D01*
X157958700Y-86663500D01*
X157960657Y-86665457D01*
X157989158Y-86709805D01*
X158014917Y-86778868D01*
X158019901Y-86848559D01*
X158014915Y-86865540D01*
X158011761Y-86873995D01*
X157983263Y-86918337D01*
X157958700Y-86942900D01*
X157958700Y-86990730D01*
X157960750Y-87009798D01*
X157960750Y-87036306D01*
X157958200Y-87060024D01*
X157958200Y-87111202D01*
X157938515Y-87178241D01*
X157921881Y-87198883D01*
X157769481Y-87351282D01*
X157769479Y-87351285D01*
X157719361Y-87438094D01*
X157719359Y-87438096D01*
X157690425Y-87488209D01*
X157690424Y-87488210D01*
X157690423Y-87488215D01*
X157649499Y-87640943D01*
X157649499Y-87640945D01*
X157649499Y-87809046D01*
X157649500Y-87809059D01*
X157649500Y-88663330D01*
X157649499Y-88663348D01*
X157649499Y-88829054D01*
X157649498Y-88829054D01*
X157690423Y-88981785D01*
X157719358Y-89031900D01*
X157719359Y-89031904D01*
X157719360Y-89031904D01*
X157769479Y-89118714D01*
X157769481Y-89118717D01*
X157888349Y-89237585D01*
X157888355Y-89237590D01*
X158369298Y-89718533D01*
X158402783Y-89779856D01*
X158404837Y-89792330D01*
X158414630Y-89879249D01*
X158474210Y-90049521D01*
X158570184Y-90202262D01*
X158697738Y-90329816D01*
X158850478Y-90425789D01*
X159020745Y-90485368D01*
X159089384Y-90493101D01*
X159153796Y-90520166D01*
X159193352Y-90577760D01*
X159199500Y-90616321D01*
X159199500Y-99513330D01*
X159199499Y-99513348D01*
X159199499Y-99679056D01*
X159200560Y-99687114D01*
X159200076Y-99687177D01*
X159202899Y-99724867D01*
X159194435Y-99799995D01*
X159194435Y-99800003D01*
X159208070Y-99921023D01*
X159196015Y-99989845D01*
X159148666Y-100041224D01*
X159081056Y-100058848D01*
X159026273Y-100042401D01*
X159025882Y-100043240D01*
X159020125Y-100040555D01*
X159019753Y-100040444D01*
X159019342Y-100040190D01*
X159019336Y-100040187D01*
X159019334Y-100040186D01*
X158852797Y-99985001D01*
X158852795Y-99985000D01*
X158750010Y-99974500D01*
X158149998Y-99974500D01*
X158149980Y-99974501D01*
X158047203Y-99985000D01*
X158047200Y-99985001D01*
X157880668Y-100040185D01*
X157880663Y-100040187D01*
X157731342Y-100132289D01*
X157607285Y-100256346D01*
X157605537Y-100259182D01*
X157603829Y-100260717D01*
X157602807Y-100262011D01*
X157602585Y-100261836D01*
X157553589Y-100305905D01*
X157484626Y-100317126D01*
X157420544Y-100289282D01*
X157394463Y-100259182D01*
X157392714Y-100256346D01*
X157268657Y-100132289D01*
X157268656Y-100132288D01*
X157149590Y-100058848D01*
X157119336Y-100040187D01*
X157119331Y-100040185D01*
X157086328Y-100029249D01*
X156952797Y-99985001D01*
X156952795Y-99985000D01*
X156850010Y-99974500D01*
X156249998Y-99974500D01*
X156249980Y-99974501D01*
X156141573Y-99985576D01*
X156072880Y-99972806D01*
X156021996Y-99924925D01*
X156005076Y-99857135D01*
X156005565Y-99850772D01*
X156005565Y-99845031D01*
X156025250Y-99777992D01*
X156041884Y-99757350D01*
X156298758Y-99500476D01*
X157280520Y-98518716D01*
X157359577Y-98381784D01*
X157400501Y-98229057D01*
X157400501Y-98070942D01*
X157400501Y-98063347D01*
X157400500Y-98063329D01*
X157400500Y-87859059D01*
X157400501Y-87859046D01*
X157400501Y-87690945D01*
X157400501Y-87690943D01*
X157359577Y-87538215D01*
X157325422Y-87479057D01*
X157280520Y-87401284D01*
X157168716Y-87289480D01*
X157168715Y-87289479D01*
X157164385Y-87285149D01*
X157164374Y-87285139D01*
X157078118Y-87198883D01*
X157044633Y-87137560D01*
X157041799Y-87111202D01*
X157041799Y-87060036D01*
X157041799Y-87060028D01*
X157039501Y-87038655D01*
X157039501Y-87012151D01*
X157041800Y-86990773D01*
X157041799Y-86615628D01*
X157041545Y-86613265D01*
X157041545Y-86586743D01*
X157041800Y-86584373D01*
X157041799Y-86209228D01*
X157039501Y-86187855D01*
X157039501Y-86161351D01*
X157041800Y-86139973D01*
X157041799Y-85460028D01*
X157035391Y-85400417D01*
X157027358Y-85378880D01*
X156985097Y-85265571D01*
X156985093Y-85265564D01*
X156914133Y-85170774D01*
X156889715Y-85105310D01*
X156889399Y-85096463D01*
X156889399Y-84780826D01*
X156889398Y-84780820D01*
X156889397Y-84780813D01*
X156882991Y-84721214D01*
X156832696Y-84586366D01*
X156832695Y-84586365D01*
X156832693Y-84586361D01*
X156746447Y-84471152D01*
X156746444Y-84471149D01*
X156631235Y-84384903D01*
X156631228Y-84384899D01*
X156496386Y-84334607D01*
X156496385Y-84334606D01*
X156496383Y-84334606D01*
X156436773Y-84328197D01*
X156436763Y-84328197D01*
X156010829Y-84328197D01*
X156010823Y-84328198D01*
X155951216Y-84334605D01*
X155816371Y-84384899D01*
X155816364Y-84384903D01*
X155701155Y-84471149D01*
X155701152Y-84471152D01*
X155614906Y-84586361D01*
X155614902Y-84586368D01*
X155564608Y-84721214D01*
X155558201Y-84780813D01*
X155558201Y-84780820D01*
X155558200Y-84780832D01*
X155558200Y-85291200D01*
X155538515Y-85358239D01*
X155521882Y-85378880D01*
X155469480Y-85431283D01*
X155469478Y-85431286D01*
X155219481Y-85681282D01*
X155219479Y-85681285D01*
X155169361Y-85768094D01*
X155169359Y-85768096D01*
X155140425Y-85818209D01*
X155140424Y-85818210D01*
X155140423Y-85818215D01*
X155099499Y-85970943D01*
X155099499Y-85970945D01*
X155099499Y-86139046D01*
X155099500Y-86139059D01*
X155099500Y-89117587D01*
X155079815Y-89184626D01*
X155072450Y-89194896D01*
X155070186Y-89197734D01*
X154974211Y-89350476D01*
X154914631Y-89520745D01*
X154914630Y-89520750D01*
X154894435Y-89699996D01*
X154894435Y-89700003D01*
X154914630Y-89879249D01*
X154914631Y-89879254D01*
X154974211Y-90049523D01*
X155070184Y-90202262D01*
X155197738Y-90329816D01*
X155350478Y-90425789D01*
X155520739Y-90485366D01*
X155520745Y-90485368D01*
X155520750Y-90485369D01*
X155699996Y-90505565D01*
X155700000Y-90505565D01*
X155700004Y-90505565D01*
X155879249Y-90485369D01*
X155879251Y-90485368D01*
X155879255Y-90485368D01*
X155879258Y-90485366D01*
X155879262Y-90485366D01*
X156034545Y-90431030D01*
X156104324Y-90427468D01*
X156164951Y-90462196D01*
X156197179Y-90524190D01*
X156199500Y-90548071D01*
X156199500Y-97849902D01*
X156179815Y-97916941D01*
X156163181Y-97937583D01*
X155064426Y-99036337D01*
X155017699Y-99065698D01*
X154850478Y-99124210D01*
X154697737Y-99220184D01*
X154570184Y-99347737D01*
X154474211Y-99500476D01*
X154414631Y-99670745D01*
X154414630Y-99670750D01*
X154394435Y-99849996D01*
X154394435Y-99850003D01*
X145500500Y-99850003D01*
X145500500Y-80002706D01*
X145500618Y-79997297D01*
X145503377Y-79934108D01*
X145517386Y-79613226D01*
X145518326Y-79602495D01*
X145568152Y-79224025D01*
X145570025Y-79213405D01*
X145652649Y-78840709D01*
X145655440Y-78830295D01*
X145770230Y-78466227D01*
X145773917Y-78456095D01*
X145920003Y-78103412D01*
X145924561Y-78093638D01*
X146100822Y-77755045D01*
X146106217Y-77745700D01*
X146311325Y-77423744D01*
X146317515Y-77414905D01*
X146549896Y-77112060D01*
X146556834Y-77103791D01*
X146814726Y-76822352D01*
X146822352Y-76814726D01*
X147103791Y-76556834D01*
X147112060Y-76549896D01*
X147414905Y-76317515D01*
X147423744Y-76311325D01*
X147745700Y-76106217D01*
X147755045Y-76100822D01*
X148093638Y-75924561D01*
X148103412Y-75920003D01*
X148456095Y-75773917D01*
X148466227Y-75770230D01*
X148830295Y-75655440D01*
X148840709Y-75652649D01*
X149213405Y-75570025D01*
X149224025Y-75568152D01*
X149602495Y-75518326D01*
X149613226Y-75517386D01*
X149997297Y-75500617D01*
X150002706Y-75500500D01*
X150065892Y-75500500D01*
X164934108Y-75500500D01*
X164997294Y-75500500D01*
X165002702Y-75500617D01*
G37*
G04 #@! TD.AperFunction*
M02*
