G04 #@! TF.GenerationSoftware,KiCad,Pcbnew,8.0.1*
G04 #@! TF.CreationDate,2024-10-16T00:10:43-06:00*
G04 #@! TF.ProjectId,electrode1,656c6563-7472-46f6-9465-312e6b696361,rev?*
G04 #@! TF.SameCoordinates,Original*
G04 #@! TF.FileFunction,Legend,Bot*
G04 #@! TF.FilePolarity,Positive*
%FSLAX46Y46*%
G04 Gerber Fmt 4.6, Leading zero omitted, Abs format (unit mm)*
G04 Created by KiCad (PCBNEW 8.0.1) date 2024-10-16 00:10:43*
%MOMM*%
%LPD*%
G01*
G04 APERTURE LIST*
%ADD10C,0.300000*%
G04 APERTURE END LIST*
D10*
X158392857Y-95678328D02*
X158892857Y-94964042D01*
X159250000Y-95678328D02*
X159250000Y-94178328D01*
X159250000Y-94178328D02*
X158678571Y-94178328D01*
X158678571Y-94178328D02*
X158535714Y-94249757D01*
X158535714Y-94249757D02*
X158464285Y-94321185D01*
X158464285Y-94321185D02*
X158392857Y-94464042D01*
X158392857Y-94464042D02*
X158392857Y-94678328D01*
X158392857Y-94678328D02*
X158464285Y-94821185D01*
X158464285Y-94821185D02*
X158535714Y-94892614D01*
X158535714Y-94892614D02*
X158678571Y-94964042D01*
X158678571Y-94964042D02*
X159250000Y-94964042D01*
X157035714Y-95678328D02*
X157750000Y-95678328D01*
X157750000Y-95678328D02*
X157750000Y-94178328D01*
X156535714Y-95678328D02*
X156535714Y-94178328D01*
X156535714Y-94178328D02*
X156178571Y-94178328D01*
X156178571Y-94178328D02*
X155964285Y-94249757D01*
X155964285Y-94249757D02*
X155821428Y-94392614D01*
X155821428Y-94392614D02*
X155749999Y-94535471D01*
X155749999Y-94535471D02*
X155678571Y-94821185D01*
X155678571Y-94821185D02*
X155678571Y-95035471D01*
X155678571Y-95035471D02*
X155749999Y-95321185D01*
X155749999Y-95321185D02*
X155821428Y-95464042D01*
X155821428Y-95464042D02*
X155964285Y-95606900D01*
X155964285Y-95606900D02*
X156178571Y-95678328D01*
X156178571Y-95678328D02*
X156535714Y-95678328D01*
X157014285Y-97621185D02*
X156942857Y-97549757D01*
X156942857Y-97549757D02*
X156800000Y-97478328D01*
X156800000Y-97478328D02*
X156442857Y-97478328D01*
X156442857Y-97478328D02*
X156300000Y-97549757D01*
X156300000Y-97549757D02*
X156228571Y-97621185D01*
X156228571Y-97621185D02*
X156157142Y-97764042D01*
X156157142Y-97764042D02*
X156157142Y-97906900D01*
X156157142Y-97906900D02*
X156228571Y-98121185D01*
X156228571Y-98121185D02*
X157085714Y-98978328D01*
X157085714Y-98978328D02*
X156157142Y-98978328D01*
X155514286Y-98978328D02*
X155514286Y-97478328D01*
X155514286Y-97478328D02*
X154657143Y-98978328D01*
X154657143Y-98978328D02*
X154657143Y-97478328D01*
X159521427Y-92478328D02*
X160378570Y-92478328D01*
X159949999Y-92478328D02*
X159949999Y-90978328D01*
X159949999Y-90978328D02*
X160092856Y-91192614D01*
X160092856Y-91192614D02*
X160235713Y-91335471D01*
X160235713Y-91335471D02*
X160378570Y-91406900D01*
X158878571Y-92478328D02*
X158878571Y-90978328D01*
X158878571Y-90978328D02*
X158307142Y-90978328D01*
X158307142Y-90978328D02*
X158164285Y-91049757D01*
X158164285Y-91049757D02*
X158092856Y-91121185D01*
X158092856Y-91121185D02*
X158021428Y-91264042D01*
X158021428Y-91264042D02*
X158021428Y-91478328D01*
X158021428Y-91478328D02*
X158092856Y-91621185D01*
X158092856Y-91621185D02*
X158164285Y-91692614D01*
X158164285Y-91692614D02*
X158307142Y-91764042D01*
X158307142Y-91764042D02*
X158878571Y-91764042D01*
X159557142Y-99078328D02*
X160414285Y-99078328D01*
X159985714Y-99078328D02*
X159985714Y-97578328D01*
X159985714Y-97578328D02*
X160128571Y-97792614D01*
X160128571Y-97792614D02*
X160271428Y-97935471D01*
X160271428Y-97935471D02*
X160414285Y-98006900D01*
X158914286Y-99078328D02*
X158914286Y-97578328D01*
X158914286Y-97578328D02*
X158057143Y-99078328D01*
X158057143Y-99078328D02*
X158057143Y-97578328D01*
X156978570Y-91121185D02*
X156907142Y-91049757D01*
X156907142Y-91049757D02*
X156764285Y-90978328D01*
X156764285Y-90978328D02*
X156407142Y-90978328D01*
X156407142Y-90978328D02*
X156264285Y-91049757D01*
X156264285Y-91049757D02*
X156192856Y-91121185D01*
X156192856Y-91121185D02*
X156121427Y-91264042D01*
X156121427Y-91264042D02*
X156121427Y-91406900D01*
X156121427Y-91406900D02*
X156192856Y-91621185D01*
X156192856Y-91621185D02*
X157049999Y-92478328D01*
X157049999Y-92478328D02*
X156121427Y-92478328D01*
X155478571Y-92478328D02*
X155478571Y-90978328D01*
X155478571Y-90978328D02*
X154907142Y-90978328D01*
X154907142Y-90978328D02*
X154764285Y-91049757D01*
X154764285Y-91049757D02*
X154692856Y-91121185D01*
X154692856Y-91121185D02*
X154621428Y-91264042D01*
X154621428Y-91264042D02*
X154621428Y-91478328D01*
X154621428Y-91478328D02*
X154692856Y-91621185D01*
X154692856Y-91621185D02*
X154764285Y-91692614D01*
X154764285Y-91692614D02*
X154907142Y-91764042D01*
X154907142Y-91764042D02*
X155478571Y-91764042D01*
%LPC*%
G36*
X167255395Y-93800472D02*
G01*
X167456249Y-93818044D01*
X167477535Y-93821797D01*
X167667047Y-93872576D01*
X167687359Y-93879969D01*
X167865169Y-93962883D01*
X167883887Y-93973690D01*
X168044598Y-94086221D01*
X168061156Y-94100115D01*
X168199884Y-94238843D01*
X168213778Y-94255401D01*
X168326309Y-94416112D01*
X168337116Y-94434830D01*
X168420030Y-94612640D01*
X168427423Y-94632952D01*
X168478202Y-94822464D01*
X168481955Y-94843750D01*
X168499054Y-95039193D01*
X168499054Y-95060807D01*
X168481955Y-95256249D01*
X168478202Y-95277535D01*
X168427423Y-95467047D01*
X168420030Y-95487359D01*
X168337116Y-95665169D01*
X168326309Y-95683887D01*
X168213778Y-95844598D01*
X168199884Y-95861156D01*
X168061156Y-95999884D01*
X168044598Y-96013778D01*
X167883887Y-96126309D01*
X167865169Y-96137116D01*
X167687359Y-96220030D01*
X167667047Y-96227423D01*
X167477535Y-96278202D01*
X167456250Y-96281955D01*
X167255396Y-96299528D01*
X167244588Y-96300000D01*
X160755412Y-96300000D01*
X160744604Y-96299528D01*
X160543749Y-96281955D01*
X160522464Y-96278202D01*
X160332952Y-96227423D01*
X160312640Y-96220030D01*
X160134830Y-96137116D01*
X160116112Y-96126309D01*
X159955401Y-96013778D01*
X159938843Y-95999884D01*
X159800115Y-95861156D01*
X159786221Y-95844598D01*
X159673690Y-95683887D01*
X159662883Y-95665169D01*
X159579969Y-95487359D01*
X159572576Y-95467047D01*
X159521797Y-95277535D01*
X159518044Y-95256249D01*
X159500945Y-95060807D01*
X159500945Y-95039193D01*
X159518044Y-94843750D01*
X159521797Y-94822464D01*
X159572576Y-94632952D01*
X159579969Y-94612640D01*
X159662883Y-94434830D01*
X159673690Y-94416112D01*
X159786221Y-94255401D01*
X159800115Y-94238843D01*
X159938843Y-94100115D01*
X159955401Y-94086221D01*
X160116112Y-93973690D01*
X160134830Y-93962883D01*
X160312640Y-93879969D01*
X160332952Y-93872576D01*
X160522464Y-93821797D01*
X160543750Y-93818044D01*
X160744605Y-93800472D01*
X160755412Y-93800000D01*
X167244588Y-93800000D01*
X167255395Y-93800472D01*
G37*
G36*
X152503471Y-99500195D02*
G01*
X152828940Y-99518472D01*
X152842759Y-99520029D01*
X153160695Y-99574049D01*
X153174252Y-99577143D01*
X153484148Y-99666423D01*
X153497272Y-99671016D01*
X153795215Y-99794427D01*
X153807744Y-99800460D01*
X154090006Y-99956461D01*
X154101780Y-99963860D01*
X154364783Y-100150471D01*
X154375655Y-100159140D01*
X154616127Y-100374039D01*
X154625960Y-100383872D01*
X154840859Y-100624344D01*
X154849528Y-100635216D01*
X155036139Y-100898219D01*
X155043538Y-100909993D01*
X155199539Y-101192255D01*
X155205572Y-101204784D01*
X155328983Y-101502727D01*
X155333576Y-101515851D01*
X155422856Y-101825747D01*
X155425950Y-101839304D01*
X155479970Y-102157240D01*
X155481527Y-102171058D01*
X155499805Y-102496527D01*
X155500000Y-102503480D01*
X155500000Y-110496519D01*
X155499805Y-110503472D01*
X155481527Y-110828941D01*
X155479970Y-110842759D01*
X155425950Y-111160695D01*
X155422856Y-111174252D01*
X155333576Y-111484148D01*
X155328983Y-111497272D01*
X155205572Y-111795215D01*
X155199539Y-111807744D01*
X155043538Y-112090006D01*
X155036139Y-112101780D01*
X154849528Y-112364783D01*
X154840859Y-112375655D01*
X154625960Y-112616127D01*
X154616127Y-112625960D01*
X154375655Y-112840859D01*
X154364783Y-112849528D01*
X154101780Y-113036139D01*
X154090006Y-113043538D01*
X153807744Y-113199539D01*
X153795215Y-113205572D01*
X153497272Y-113328983D01*
X153484148Y-113333576D01*
X153174252Y-113422856D01*
X153160695Y-113425950D01*
X152842759Y-113479970D01*
X152828941Y-113481527D01*
X152503472Y-113499805D01*
X152496519Y-113500000D01*
X149503481Y-113500000D01*
X149496528Y-113499805D01*
X149171058Y-113481527D01*
X149157240Y-113479970D01*
X148839304Y-113425950D01*
X148825747Y-113422856D01*
X148515851Y-113333576D01*
X148502727Y-113328983D01*
X148204784Y-113205572D01*
X148192255Y-113199539D01*
X147909993Y-113043538D01*
X147898219Y-113036139D01*
X147635216Y-112849528D01*
X147624344Y-112840859D01*
X147383872Y-112625960D01*
X147374039Y-112616127D01*
X147159140Y-112375655D01*
X147150471Y-112364783D01*
X146963860Y-112101780D01*
X146956461Y-112090006D01*
X146800460Y-111807744D01*
X146794427Y-111795215D01*
X146671016Y-111497272D01*
X146666423Y-111484148D01*
X146577143Y-111174252D01*
X146574049Y-111160695D01*
X146520029Y-110842759D01*
X146518472Y-110828940D01*
X146500195Y-110503471D01*
X146500000Y-110496519D01*
X146500000Y-102503480D01*
X146500195Y-102496528D01*
X146518472Y-102171059D01*
X146520029Y-102157240D01*
X146574049Y-101839304D01*
X146577143Y-101825747D01*
X146666423Y-101515851D01*
X146671016Y-101502727D01*
X146794427Y-101204784D01*
X146800460Y-101192255D01*
X146956461Y-100909993D01*
X146963860Y-100898219D01*
X147150471Y-100635216D01*
X147159140Y-100624344D01*
X147374039Y-100383872D01*
X147383872Y-100374039D01*
X147624344Y-100159140D01*
X147635216Y-100150471D01*
X147898219Y-99963860D01*
X147909993Y-99956461D01*
X148192255Y-99800460D01*
X148204784Y-99794427D01*
X148502727Y-99671016D01*
X148515851Y-99666423D01*
X148825747Y-99577143D01*
X148839304Y-99574049D01*
X149157240Y-99520029D01*
X149171059Y-99518472D01*
X149496529Y-99500195D01*
X149503481Y-99500000D01*
X152496519Y-99500000D01*
X152503471Y-99500195D01*
G37*
G36*
X165503471Y-99500195D02*
G01*
X165828940Y-99518472D01*
X165842759Y-99520029D01*
X166160695Y-99574049D01*
X166174252Y-99577143D01*
X166484148Y-99666423D01*
X166497272Y-99671016D01*
X166795215Y-99794427D01*
X166807744Y-99800460D01*
X167090006Y-99956461D01*
X167101780Y-99963860D01*
X167364783Y-100150471D01*
X167375655Y-100159140D01*
X167616127Y-100374039D01*
X167625960Y-100383872D01*
X167840859Y-100624344D01*
X167849528Y-100635216D01*
X168036139Y-100898219D01*
X168043538Y-100909993D01*
X168199539Y-101192255D01*
X168205572Y-101204784D01*
X168328983Y-101502727D01*
X168333576Y-101515851D01*
X168422856Y-101825747D01*
X168425950Y-101839304D01*
X168479970Y-102157240D01*
X168481527Y-102171058D01*
X168499805Y-102496527D01*
X168500000Y-102503480D01*
X168500000Y-110496519D01*
X168499805Y-110503472D01*
X168481527Y-110828941D01*
X168479970Y-110842759D01*
X168425950Y-111160695D01*
X168422856Y-111174252D01*
X168333576Y-111484148D01*
X168328983Y-111497272D01*
X168205572Y-111795215D01*
X168199539Y-111807744D01*
X168043538Y-112090006D01*
X168036139Y-112101780D01*
X167849528Y-112364783D01*
X167840859Y-112375655D01*
X167625960Y-112616127D01*
X167616127Y-112625960D01*
X167375655Y-112840859D01*
X167364783Y-112849528D01*
X167101780Y-113036139D01*
X167090006Y-113043538D01*
X166807744Y-113199539D01*
X166795215Y-113205572D01*
X166497272Y-113328983D01*
X166484148Y-113333576D01*
X166174252Y-113422856D01*
X166160695Y-113425950D01*
X165842759Y-113479970D01*
X165828941Y-113481527D01*
X165503472Y-113499805D01*
X165496519Y-113500000D01*
X162503481Y-113500000D01*
X162496528Y-113499805D01*
X162171058Y-113481527D01*
X162157240Y-113479970D01*
X161839304Y-113425950D01*
X161825747Y-113422856D01*
X161515851Y-113333576D01*
X161502727Y-113328983D01*
X161204784Y-113205572D01*
X161192255Y-113199539D01*
X160909993Y-113043538D01*
X160898219Y-113036139D01*
X160635216Y-112849528D01*
X160624344Y-112840859D01*
X160383872Y-112625960D01*
X160374039Y-112616127D01*
X160159140Y-112375655D01*
X160150471Y-112364783D01*
X159963860Y-112101780D01*
X159956461Y-112090006D01*
X159800460Y-111807744D01*
X159794427Y-111795215D01*
X159671016Y-111497272D01*
X159666423Y-111484148D01*
X159577143Y-111174252D01*
X159574049Y-111160695D01*
X159520029Y-110842759D01*
X159518472Y-110828940D01*
X159500195Y-110503471D01*
X159500000Y-110496519D01*
X159500000Y-102503480D01*
X159500195Y-102496528D01*
X159518472Y-102171059D01*
X159520029Y-102157240D01*
X159574049Y-101839304D01*
X159577143Y-101825747D01*
X159666423Y-101515851D01*
X159671016Y-101502727D01*
X159794427Y-101204784D01*
X159800460Y-101192255D01*
X159956461Y-100909993D01*
X159963860Y-100898219D01*
X160150471Y-100635216D01*
X160159140Y-100624344D01*
X160374039Y-100383872D01*
X160383872Y-100374039D01*
X160624344Y-100159140D01*
X160635216Y-100150471D01*
X160898219Y-99963860D01*
X160909993Y-99956461D01*
X161192255Y-99800460D01*
X161204784Y-99794427D01*
X161502727Y-99671016D01*
X161515851Y-99666423D01*
X161825747Y-99577143D01*
X161839304Y-99574049D01*
X162157240Y-99520029D01*
X162171059Y-99518472D01*
X162496529Y-99500195D01*
X162503481Y-99500000D01*
X165496519Y-99500000D01*
X165503471Y-99500195D01*
G37*
G36*
X165503471Y-76500195D02*
G01*
X165828940Y-76518472D01*
X165842759Y-76520029D01*
X166160695Y-76574049D01*
X166174252Y-76577143D01*
X166484148Y-76666423D01*
X166497272Y-76671016D01*
X166795215Y-76794427D01*
X166807744Y-76800460D01*
X167090006Y-76956461D01*
X167101780Y-76963860D01*
X167364783Y-77150471D01*
X167375655Y-77159140D01*
X167616127Y-77374039D01*
X167625960Y-77383872D01*
X167840859Y-77624344D01*
X167849528Y-77635216D01*
X168036139Y-77898219D01*
X168043538Y-77909993D01*
X168199539Y-78192255D01*
X168205572Y-78204784D01*
X168328983Y-78502727D01*
X168333576Y-78515851D01*
X168422856Y-78825747D01*
X168425950Y-78839304D01*
X168479970Y-79157240D01*
X168481527Y-79171058D01*
X168499805Y-79496527D01*
X168500000Y-79503480D01*
X168500000Y-87496519D01*
X168499805Y-87503472D01*
X168481527Y-87828941D01*
X168479970Y-87842759D01*
X168425950Y-88160695D01*
X168422856Y-88174252D01*
X168333576Y-88484148D01*
X168328983Y-88497272D01*
X168205572Y-88795215D01*
X168199539Y-88807744D01*
X168043538Y-89090006D01*
X168036139Y-89101780D01*
X167849528Y-89364783D01*
X167840859Y-89375655D01*
X167625960Y-89616127D01*
X167616127Y-89625960D01*
X167375655Y-89840859D01*
X167364783Y-89849528D01*
X167101780Y-90036139D01*
X167090006Y-90043538D01*
X166807744Y-90199539D01*
X166795215Y-90205572D01*
X166497272Y-90328983D01*
X166484148Y-90333576D01*
X166174252Y-90422856D01*
X166160695Y-90425950D01*
X165842759Y-90479970D01*
X165828941Y-90481527D01*
X165503472Y-90499805D01*
X165496519Y-90500000D01*
X162503481Y-90500000D01*
X162496528Y-90499805D01*
X162171058Y-90481527D01*
X162157240Y-90479970D01*
X161839304Y-90425950D01*
X161825747Y-90422856D01*
X161515851Y-90333576D01*
X161502727Y-90328983D01*
X161204784Y-90205572D01*
X161192255Y-90199539D01*
X160909993Y-90043538D01*
X160898219Y-90036139D01*
X160635216Y-89849528D01*
X160624344Y-89840859D01*
X160383872Y-89625960D01*
X160374039Y-89616127D01*
X160159140Y-89375655D01*
X160150471Y-89364783D01*
X159963860Y-89101780D01*
X159956461Y-89090006D01*
X159800460Y-88807744D01*
X159794427Y-88795215D01*
X159671016Y-88497272D01*
X159666423Y-88484148D01*
X159577143Y-88174252D01*
X159574049Y-88160695D01*
X159520029Y-87842759D01*
X159518472Y-87828940D01*
X159500195Y-87503471D01*
X159500000Y-87496519D01*
X159500000Y-79503480D01*
X159500195Y-79496528D01*
X159518472Y-79171059D01*
X159520029Y-79157240D01*
X159574049Y-78839304D01*
X159577143Y-78825747D01*
X159666423Y-78515851D01*
X159671016Y-78502727D01*
X159794427Y-78204784D01*
X159800460Y-78192255D01*
X159956461Y-77909993D01*
X159963860Y-77898219D01*
X160150471Y-77635216D01*
X160159140Y-77624344D01*
X160374039Y-77383872D01*
X160383872Y-77374039D01*
X160624344Y-77159140D01*
X160635216Y-77150471D01*
X160898219Y-76963860D01*
X160909993Y-76956461D01*
X161192255Y-76800460D01*
X161204784Y-76794427D01*
X161502727Y-76671016D01*
X161515851Y-76666423D01*
X161825747Y-76577143D01*
X161839304Y-76574049D01*
X162157240Y-76520029D01*
X162171059Y-76518472D01*
X162496529Y-76500195D01*
X162503481Y-76500000D01*
X165496519Y-76500000D01*
X165503471Y-76500195D01*
G37*
G36*
X154255395Y-93800472D02*
G01*
X154456249Y-93818044D01*
X154477535Y-93821797D01*
X154667047Y-93872576D01*
X154687359Y-93879969D01*
X154865169Y-93962883D01*
X154883887Y-93973690D01*
X155044598Y-94086221D01*
X155061156Y-94100115D01*
X155199884Y-94238843D01*
X155213778Y-94255401D01*
X155326309Y-94416112D01*
X155337116Y-94434830D01*
X155420030Y-94612640D01*
X155427423Y-94632952D01*
X155478202Y-94822464D01*
X155481955Y-94843750D01*
X155499054Y-95039193D01*
X155499054Y-95060807D01*
X155481955Y-95256249D01*
X155478202Y-95277535D01*
X155427423Y-95467047D01*
X155420030Y-95487359D01*
X155337116Y-95665169D01*
X155326309Y-95683887D01*
X155213778Y-95844598D01*
X155199884Y-95861156D01*
X155061156Y-95999884D01*
X155044598Y-96013778D01*
X154883887Y-96126309D01*
X154865169Y-96137116D01*
X154687359Y-96220030D01*
X154667047Y-96227423D01*
X154477535Y-96278202D01*
X154456250Y-96281955D01*
X154255396Y-96299528D01*
X154244588Y-96300000D01*
X147755412Y-96300000D01*
X147744604Y-96299528D01*
X147543749Y-96281955D01*
X147522464Y-96278202D01*
X147332952Y-96227423D01*
X147312640Y-96220030D01*
X147134830Y-96137116D01*
X147116112Y-96126309D01*
X146955401Y-96013778D01*
X146938843Y-95999884D01*
X146800115Y-95861156D01*
X146786221Y-95844598D01*
X146673690Y-95683887D01*
X146662883Y-95665169D01*
X146579969Y-95487359D01*
X146572576Y-95467047D01*
X146521797Y-95277535D01*
X146518044Y-95256249D01*
X146500945Y-95060807D01*
X146500945Y-95039193D01*
X146518044Y-94843750D01*
X146521797Y-94822464D01*
X146572576Y-94632952D01*
X146579969Y-94612640D01*
X146662883Y-94434830D01*
X146673690Y-94416112D01*
X146786221Y-94255401D01*
X146800115Y-94238843D01*
X146938843Y-94100115D01*
X146955401Y-94086221D01*
X147116112Y-93973690D01*
X147134830Y-93962883D01*
X147312640Y-93879969D01*
X147332952Y-93872576D01*
X147522464Y-93821797D01*
X147543750Y-93818044D01*
X147744605Y-93800472D01*
X147755412Y-93800000D01*
X154244588Y-93800000D01*
X154255395Y-93800472D01*
G37*
G36*
X152503471Y-76500195D02*
G01*
X152828940Y-76518472D01*
X152842759Y-76520029D01*
X153160695Y-76574049D01*
X153174252Y-76577143D01*
X153484148Y-76666423D01*
X153497272Y-76671016D01*
X153795215Y-76794427D01*
X153807744Y-76800460D01*
X154090006Y-76956461D01*
X154101780Y-76963860D01*
X154364783Y-77150471D01*
X154375655Y-77159140D01*
X154616127Y-77374039D01*
X154625960Y-77383872D01*
X154840859Y-77624344D01*
X154849528Y-77635216D01*
X155036139Y-77898219D01*
X155043538Y-77909993D01*
X155199539Y-78192255D01*
X155205572Y-78204784D01*
X155328983Y-78502727D01*
X155333576Y-78515851D01*
X155422856Y-78825747D01*
X155425950Y-78839304D01*
X155479970Y-79157240D01*
X155481527Y-79171058D01*
X155499805Y-79496527D01*
X155500000Y-79503480D01*
X155500000Y-87496519D01*
X155499805Y-87503472D01*
X155481527Y-87828941D01*
X155479970Y-87842759D01*
X155425950Y-88160695D01*
X155422856Y-88174252D01*
X155333576Y-88484148D01*
X155328983Y-88497272D01*
X155205572Y-88795215D01*
X155199539Y-88807744D01*
X155043538Y-89090006D01*
X155036139Y-89101780D01*
X154849528Y-89364783D01*
X154840859Y-89375655D01*
X154625960Y-89616127D01*
X154616127Y-89625960D01*
X154375655Y-89840859D01*
X154364783Y-89849528D01*
X154101780Y-90036139D01*
X154090006Y-90043538D01*
X153807744Y-90199539D01*
X153795215Y-90205572D01*
X153497272Y-90328983D01*
X153484148Y-90333576D01*
X153174252Y-90422856D01*
X153160695Y-90425950D01*
X152842759Y-90479970D01*
X152828941Y-90481527D01*
X152503472Y-90499805D01*
X152496519Y-90500000D01*
X149503481Y-90500000D01*
X149496528Y-90499805D01*
X149171058Y-90481527D01*
X149157240Y-90479970D01*
X148839304Y-90425950D01*
X148825747Y-90422856D01*
X148515851Y-90333576D01*
X148502727Y-90328983D01*
X148204784Y-90205572D01*
X148192255Y-90199539D01*
X147909993Y-90043538D01*
X147898219Y-90036139D01*
X147635216Y-89849528D01*
X147624344Y-89840859D01*
X147383872Y-89625960D01*
X147374039Y-89616127D01*
X147159140Y-89375655D01*
X147150471Y-89364783D01*
X146963860Y-89101780D01*
X146956461Y-89090006D01*
X146800460Y-88807744D01*
X146794427Y-88795215D01*
X146671016Y-88497272D01*
X146666423Y-88484148D01*
X146577143Y-88174252D01*
X146574049Y-88160695D01*
X146520029Y-87842759D01*
X146518472Y-87828940D01*
X146500195Y-87503471D01*
X146500000Y-87496519D01*
X146500000Y-79503480D01*
X146500195Y-79496528D01*
X146518472Y-79171059D01*
X146520029Y-79157240D01*
X146574049Y-78839304D01*
X146577143Y-78825747D01*
X146666423Y-78515851D01*
X146671016Y-78502727D01*
X146794427Y-78204784D01*
X146800460Y-78192255D01*
X146956461Y-77909993D01*
X146963860Y-77898219D01*
X147150471Y-77635216D01*
X147159140Y-77624344D01*
X147374039Y-77383872D01*
X147383872Y-77374039D01*
X147624344Y-77159140D01*
X147635216Y-77150471D01*
X147898219Y-76963860D01*
X147909993Y-76956461D01*
X148192255Y-76800460D01*
X148204784Y-76794427D01*
X148502727Y-76671016D01*
X148515851Y-76666423D01*
X148825747Y-76577143D01*
X148839304Y-76574049D01*
X149157240Y-76520029D01*
X149171059Y-76518472D01*
X149496529Y-76500195D01*
X149503481Y-76500000D01*
X152496519Y-76500000D01*
X152503471Y-76500195D01*
G37*
%LPD*%
M02*
