%TF.GenerationSoftware,KiCad,Pcbnew,8.0.1*%
%TF.CreationDate,2024-10-16T00:11:02-06:00*%
%TF.ProjectId,electrode1,656c6563-7472-46f6-9465-312e6b696361,rev?*%
%TF.SameCoordinates,Original*%
%TF.FileFunction,Drillmap*%
%TF.FilePolarity,Positive*%
%FSLAX45Y45*%
G04 Gerber Fmt 4.5, Leading zero omitted, Abs format (unit mm)*
G04 Created by KiCad (PCBNEW 8.0.1) date 2024-10-16 00:11:02*
%MOMM*%
%LPD*%
G01*
G04 APERTURE LIST*
%ADD10C,0.050000*%
%ADD11C,0.200000*%
%ADD12C,0.100000*%
G04 APERTURE END LIST*
D10*
X14500000Y-8000000D02*
X14500000Y-11000000D01*
X15000000Y-11500000D02*
G75*
G02*
X14500000Y-11000000I0J500000D01*
G01*
X16500000Y-7500000D02*
G75*
G02*
X17000000Y-8000000I0J-500000D01*
G01*
X14500000Y-8000000D02*
G75*
G02*
X15000000Y-7500000I500000J0D01*
G01*
X17000000Y-11000000D02*
X17000000Y-8000000D01*
X16500000Y-7500000D02*
X15000000Y-7500000D01*
X15000000Y-11500000D02*
X16500000Y-11500000D01*
X17000000Y-11000000D02*
G75*
G02*
X16500000Y-11500000I-500000J0D01*
G01*
D11*
D12*
X15505000Y-9970000D02*
X15535000Y-10000000D01*
X15535000Y-9970000D02*
X15505000Y-10000000D01*
X15555000Y-8955000D02*
X15585000Y-8985000D01*
X15585000Y-8955000D02*
X15555000Y-8985000D01*
X15735000Y-9485000D02*
X15765000Y-9515000D01*
X15765000Y-9485000D02*
X15735000Y-9515000D01*
X15905000Y-8955000D02*
X15935000Y-8985000D01*
X15935000Y-8955000D02*
X15905000Y-8985000D01*
X15985000Y-9965000D02*
X16015000Y-9995000D01*
X16015000Y-9965000D02*
X15985000Y-9995000D01*
D11*
X14758277Y-11813984D02*
X14758277Y-11613984D01*
X14758277Y-11613984D02*
X14805896Y-11613984D01*
X14805896Y-11613984D02*
X14834467Y-11623508D01*
X14834467Y-11623508D02*
X14853515Y-11642555D01*
X14853515Y-11642555D02*
X14863039Y-11661603D01*
X14863039Y-11661603D02*
X14872562Y-11699698D01*
X14872562Y-11699698D02*
X14872562Y-11728269D01*
X14872562Y-11728269D02*
X14863039Y-11766365D01*
X14863039Y-11766365D02*
X14853515Y-11785412D01*
X14853515Y-11785412D02*
X14834467Y-11804460D01*
X14834467Y-11804460D02*
X14805896Y-11813984D01*
X14805896Y-11813984D02*
X14758277Y-11813984D01*
X14958277Y-11813984D02*
X14958277Y-11680650D01*
X14958277Y-11718746D02*
X14967801Y-11699698D01*
X14967801Y-11699698D02*
X14977324Y-11690174D01*
X14977324Y-11690174D02*
X14996372Y-11680650D01*
X14996372Y-11680650D02*
X15015420Y-11680650D01*
X15082086Y-11813984D02*
X15082086Y-11680650D01*
X15082086Y-11613984D02*
X15072562Y-11623508D01*
X15072562Y-11623508D02*
X15082086Y-11633031D01*
X15082086Y-11633031D02*
X15091610Y-11623508D01*
X15091610Y-11623508D02*
X15082086Y-11613984D01*
X15082086Y-11613984D02*
X15082086Y-11633031D01*
X15205896Y-11813984D02*
X15186848Y-11804460D01*
X15186848Y-11804460D02*
X15177324Y-11785412D01*
X15177324Y-11785412D02*
X15177324Y-11613984D01*
X15310658Y-11813984D02*
X15291610Y-11804460D01*
X15291610Y-11804460D02*
X15282086Y-11785412D01*
X15282086Y-11785412D02*
X15282086Y-11613984D01*
X15539229Y-11813984D02*
X15539229Y-11613984D01*
X15539229Y-11613984D02*
X15605896Y-11756841D01*
X15605896Y-11756841D02*
X15672562Y-11613984D01*
X15672562Y-11613984D02*
X15672562Y-11813984D01*
X15853515Y-11813984D02*
X15853515Y-11709222D01*
X15853515Y-11709222D02*
X15843991Y-11690174D01*
X15843991Y-11690174D02*
X15824943Y-11680650D01*
X15824943Y-11680650D02*
X15786848Y-11680650D01*
X15786848Y-11680650D02*
X15767801Y-11690174D01*
X15853515Y-11804460D02*
X15834467Y-11813984D01*
X15834467Y-11813984D02*
X15786848Y-11813984D01*
X15786848Y-11813984D02*
X15767801Y-11804460D01*
X15767801Y-11804460D02*
X15758277Y-11785412D01*
X15758277Y-11785412D02*
X15758277Y-11766365D01*
X15758277Y-11766365D02*
X15767801Y-11747317D01*
X15767801Y-11747317D02*
X15786848Y-11737793D01*
X15786848Y-11737793D02*
X15834467Y-11737793D01*
X15834467Y-11737793D02*
X15853515Y-11728269D01*
X15948753Y-11680650D02*
X15948753Y-11880650D01*
X15948753Y-11690174D02*
X15967801Y-11680650D01*
X15967801Y-11680650D02*
X16005896Y-11680650D01*
X16005896Y-11680650D02*
X16024943Y-11690174D01*
X16024943Y-11690174D02*
X16034467Y-11699698D01*
X16034467Y-11699698D02*
X16043991Y-11718746D01*
X16043991Y-11718746D02*
X16043991Y-11775888D01*
X16043991Y-11775888D02*
X16034467Y-11794936D01*
X16034467Y-11794936D02*
X16024943Y-11804460D01*
X16024943Y-11804460D02*
X16005896Y-11813984D01*
X16005896Y-11813984D02*
X15967801Y-11813984D01*
X15967801Y-11813984D02*
X15948753Y-11804460D01*
X16129705Y-11794936D02*
X16139229Y-11804460D01*
X16139229Y-11804460D02*
X16129705Y-11813984D01*
X16129705Y-11813984D02*
X16120182Y-11804460D01*
X16120182Y-11804460D02*
X16129705Y-11794936D01*
X16129705Y-11794936D02*
X16129705Y-11813984D01*
X16129705Y-11690174D02*
X16139229Y-11699698D01*
X16139229Y-11699698D02*
X16129705Y-11709222D01*
X16129705Y-11709222D02*
X16120182Y-11699698D01*
X16120182Y-11699698D02*
X16129705Y-11690174D01*
X16129705Y-11690174D02*
X16129705Y-11709222D01*
D12*
X14467500Y-12127500D02*
X14497500Y-12157500D01*
X14497500Y-12127500D02*
X14467500Y-12157500D01*
D11*
X14796372Y-12033984D02*
X14815420Y-12033984D01*
X14815420Y-12033984D02*
X14834467Y-12043508D01*
X14834467Y-12043508D02*
X14843991Y-12053031D01*
X14843991Y-12053031D02*
X14853515Y-12072079D01*
X14853515Y-12072079D02*
X14863039Y-12110174D01*
X14863039Y-12110174D02*
X14863039Y-12157793D01*
X14863039Y-12157793D02*
X14853515Y-12195888D01*
X14853515Y-12195888D02*
X14843991Y-12214936D01*
X14843991Y-12214936D02*
X14834467Y-12224460D01*
X14834467Y-12224460D02*
X14815420Y-12233984D01*
X14815420Y-12233984D02*
X14796372Y-12233984D01*
X14796372Y-12233984D02*
X14777324Y-12224460D01*
X14777324Y-12224460D02*
X14767801Y-12214936D01*
X14767801Y-12214936D02*
X14758277Y-12195888D01*
X14758277Y-12195888D02*
X14748753Y-12157793D01*
X14748753Y-12157793D02*
X14748753Y-12110174D01*
X14748753Y-12110174D02*
X14758277Y-12072079D01*
X14758277Y-12072079D02*
X14767801Y-12053031D01*
X14767801Y-12053031D02*
X14777324Y-12043508D01*
X14777324Y-12043508D02*
X14796372Y-12033984D01*
X14948753Y-12214936D02*
X14958277Y-12224460D01*
X14958277Y-12224460D02*
X14948753Y-12233984D01*
X14948753Y-12233984D02*
X14939229Y-12224460D01*
X14939229Y-12224460D02*
X14948753Y-12214936D01*
X14948753Y-12214936D02*
X14948753Y-12233984D01*
X15024943Y-12033984D02*
X15148753Y-12033984D01*
X15148753Y-12033984D02*
X15082086Y-12110174D01*
X15082086Y-12110174D02*
X15110658Y-12110174D01*
X15110658Y-12110174D02*
X15129705Y-12119698D01*
X15129705Y-12119698D02*
X15139229Y-12129222D01*
X15139229Y-12129222D02*
X15148753Y-12148269D01*
X15148753Y-12148269D02*
X15148753Y-12195888D01*
X15148753Y-12195888D02*
X15139229Y-12214936D01*
X15139229Y-12214936D02*
X15129705Y-12224460D01*
X15129705Y-12224460D02*
X15110658Y-12233984D01*
X15110658Y-12233984D02*
X15053515Y-12233984D01*
X15053515Y-12233984D02*
X15034467Y-12224460D01*
X15034467Y-12224460D02*
X15024943Y-12214936D01*
X15272562Y-12033984D02*
X15291610Y-12033984D01*
X15291610Y-12033984D02*
X15310658Y-12043508D01*
X15310658Y-12043508D02*
X15320182Y-12053031D01*
X15320182Y-12053031D02*
X15329705Y-12072079D01*
X15329705Y-12072079D02*
X15339229Y-12110174D01*
X15339229Y-12110174D02*
X15339229Y-12157793D01*
X15339229Y-12157793D02*
X15329705Y-12195888D01*
X15329705Y-12195888D02*
X15320182Y-12214936D01*
X15320182Y-12214936D02*
X15310658Y-12224460D01*
X15310658Y-12224460D02*
X15291610Y-12233984D01*
X15291610Y-12233984D02*
X15272562Y-12233984D01*
X15272562Y-12233984D02*
X15253515Y-12224460D01*
X15253515Y-12224460D02*
X15243991Y-12214936D01*
X15243991Y-12214936D02*
X15234467Y-12195888D01*
X15234467Y-12195888D02*
X15224943Y-12157793D01*
X15224943Y-12157793D02*
X15224943Y-12110174D01*
X15224943Y-12110174D02*
X15234467Y-12072079D01*
X15234467Y-12072079D02*
X15243991Y-12053031D01*
X15243991Y-12053031D02*
X15253515Y-12043508D01*
X15253515Y-12043508D02*
X15272562Y-12033984D01*
X15463039Y-12033984D02*
X15482086Y-12033984D01*
X15482086Y-12033984D02*
X15501134Y-12043508D01*
X15501134Y-12043508D02*
X15510658Y-12053031D01*
X15510658Y-12053031D02*
X15520182Y-12072079D01*
X15520182Y-12072079D02*
X15529705Y-12110174D01*
X15529705Y-12110174D02*
X15529705Y-12157793D01*
X15529705Y-12157793D02*
X15520182Y-12195888D01*
X15520182Y-12195888D02*
X15510658Y-12214936D01*
X15510658Y-12214936D02*
X15501134Y-12224460D01*
X15501134Y-12224460D02*
X15482086Y-12233984D01*
X15482086Y-12233984D02*
X15463039Y-12233984D01*
X15463039Y-12233984D02*
X15443991Y-12224460D01*
X15443991Y-12224460D02*
X15434467Y-12214936D01*
X15434467Y-12214936D02*
X15424943Y-12195888D01*
X15424943Y-12195888D02*
X15415420Y-12157793D01*
X15415420Y-12157793D02*
X15415420Y-12110174D01*
X15415420Y-12110174D02*
X15424943Y-12072079D01*
X15424943Y-12072079D02*
X15434467Y-12053031D01*
X15434467Y-12053031D02*
X15443991Y-12043508D01*
X15443991Y-12043508D02*
X15463039Y-12033984D01*
X15615420Y-12233984D02*
X15615420Y-12100650D01*
X15615420Y-12119698D02*
X15624943Y-12110174D01*
X15624943Y-12110174D02*
X15643991Y-12100650D01*
X15643991Y-12100650D02*
X15672563Y-12100650D01*
X15672563Y-12100650D02*
X15691610Y-12110174D01*
X15691610Y-12110174D02*
X15701134Y-12129222D01*
X15701134Y-12129222D02*
X15701134Y-12233984D01*
X15701134Y-12129222D02*
X15710658Y-12110174D01*
X15710658Y-12110174D02*
X15729705Y-12100650D01*
X15729705Y-12100650D02*
X15758277Y-12100650D01*
X15758277Y-12100650D02*
X15777324Y-12110174D01*
X15777324Y-12110174D02*
X15786848Y-12129222D01*
X15786848Y-12129222D02*
X15786848Y-12233984D01*
X15882086Y-12233984D02*
X15882086Y-12100650D01*
X15882086Y-12119698D02*
X15891610Y-12110174D01*
X15891610Y-12110174D02*
X15910658Y-12100650D01*
X15910658Y-12100650D02*
X15939229Y-12100650D01*
X15939229Y-12100650D02*
X15958277Y-12110174D01*
X15958277Y-12110174D02*
X15967801Y-12129222D01*
X15967801Y-12129222D02*
X15967801Y-12233984D01*
X15967801Y-12129222D02*
X15977324Y-12110174D01*
X15977324Y-12110174D02*
X15996372Y-12100650D01*
X15996372Y-12100650D02*
X16024943Y-12100650D01*
X16024943Y-12100650D02*
X16043991Y-12110174D01*
X16043991Y-12110174D02*
X16053515Y-12129222D01*
X16053515Y-12129222D02*
X16053515Y-12233984D01*
X16443991Y-12024460D02*
X16272563Y-12281603D01*
X16701134Y-12033984D02*
X16720182Y-12033984D01*
X16720182Y-12033984D02*
X16739229Y-12043508D01*
X16739229Y-12043508D02*
X16748753Y-12053031D01*
X16748753Y-12053031D02*
X16758277Y-12072079D01*
X16758277Y-12072079D02*
X16767801Y-12110174D01*
X16767801Y-12110174D02*
X16767801Y-12157793D01*
X16767801Y-12157793D02*
X16758277Y-12195888D01*
X16758277Y-12195888D02*
X16748753Y-12214936D01*
X16748753Y-12214936D02*
X16739229Y-12224460D01*
X16739229Y-12224460D02*
X16720182Y-12233984D01*
X16720182Y-12233984D02*
X16701134Y-12233984D01*
X16701134Y-12233984D02*
X16682086Y-12224460D01*
X16682086Y-12224460D02*
X16672563Y-12214936D01*
X16672563Y-12214936D02*
X16663039Y-12195888D01*
X16663039Y-12195888D02*
X16653515Y-12157793D01*
X16653515Y-12157793D02*
X16653515Y-12110174D01*
X16653515Y-12110174D02*
X16663039Y-12072079D01*
X16663039Y-12072079D02*
X16672563Y-12053031D01*
X16672563Y-12053031D02*
X16682086Y-12043508D01*
X16682086Y-12043508D02*
X16701134Y-12033984D01*
X16853515Y-12214936D02*
X16863039Y-12224460D01*
X16863039Y-12224460D02*
X16853515Y-12233984D01*
X16853515Y-12233984D02*
X16843991Y-12224460D01*
X16843991Y-12224460D02*
X16853515Y-12214936D01*
X16853515Y-12214936D02*
X16853515Y-12233984D01*
X16986848Y-12033984D02*
X17005896Y-12033984D01*
X17005896Y-12033984D02*
X17024944Y-12043508D01*
X17024944Y-12043508D02*
X17034468Y-12053031D01*
X17034468Y-12053031D02*
X17043991Y-12072079D01*
X17043991Y-12072079D02*
X17053515Y-12110174D01*
X17053515Y-12110174D02*
X17053515Y-12157793D01*
X17053515Y-12157793D02*
X17043991Y-12195888D01*
X17043991Y-12195888D02*
X17034468Y-12214936D01*
X17034468Y-12214936D02*
X17024944Y-12224460D01*
X17024944Y-12224460D02*
X17005896Y-12233984D01*
X17005896Y-12233984D02*
X16986848Y-12233984D01*
X16986848Y-12233984D02*
X16967801Y-12224460D01*
X16967801Y-12224460D02*
X16958277Y-12214936D01*
X16958277Y-12214936D02*
X16948753Y-12195888D01*
X16948753Y-12195888D02*
X16939229Y-12157793D01*
X16939229Y-12157793D02*
X16939229Y-12110174D01*
X16939229Y-12110174D02*
X16948753Y-12072079D01*
X16948753Y-12072079D02*
X16958277Y-12053031D01*
X16958277Y-12053031D02*
X16967801Y-12043508D01*
X16967801Y-12043508D02*
X16986848Y-12033984D01*
X17243991Y-12233984D02*
X17129706Y-12233984D01*
X17186848Y-12233984D02*
X17186848Y-12033984D01*
X17186848Y-12033984D02*
X17167801Y-12062555D01*
X17167801Y-12062555D02*
X17148753Y-12081603D01*
X17148753Y-12081603D02*
X17129706Y-12091127D01*
X17434468Y-12233984D02*
X17320182Y-12233984D01*
X17377325Y-12233984D02*
X17377325Y-12033984D01*
X17377325Y-12033984D02*
X17358277Y-12062555D01*
X17358277Y-12062555D02*
X17339229Y-12081603D01*
X17339229Y-12081603D02*
X17320182Y-12091127D01*
X17548753Y-12119698D02*
X17529706Y-12110174D01*
X17529706Y-12110174D02*
X17520182Y-12100650D01*
X17520182Y-12100650D02*
X17510658Y-12081603D01*
X17510658Y-12081603D02*
X17510658Y-12072079D01*
X17510658Y-12072079D02*
X17520182Y-12053031D01*
X17520182Y-12053031D02*
X17529706Y-12043508D01*
X17529706Y-12043508D02*
X17548753Y-12033984D01*
X17548753Y-12033984D02*
X17586849Y-12033984D01*
X17586849Y-12033984D02*
X17605896Y-12043508D01*
X17605896Y-12043508D02*
X17615420Y-12053031D01*
X17615420Y-12053031D02*
X17624944Y-12072079D01*
X17624944Y-12072079D02*
X17624944Y-12081603D01*
X17624944Y-12081603D02*
X17615420Y-12100650D01*
X17615420Y-12100650D02*
X17605896Y-12110174D01*
X17605896Y-12110174D02*
X17586849Y-12119698D01*
X17586849Y-12119698D02*
X17548753Y-12119698D01*
X17548753Y-12119698D02*
X17529706Y-12129222D01*
X17529706Y-12129222D02*
X17520182Y-12138746D01*
X17520182Y-12138746D02*
X17510658Y-12157793D01*
X17510658Y-12157793D02*
X17510658Y-12195888D01*
X17510658Y-12195888D02*
X17520182Y-12214936D01*
X17520182Y-12214936D02*
X17529706Y-12224460D01*
X17529706Y-12224460D02*
X17548753Y-12233984D01*
X17548753Y-12233984D02*
X17586849Y-12233984D01*
X17586849Y-12233984D02*
X17605896Y-12224460D01*
X17605896Y-12224460D02*
X17615420Y-12214936D01*
X17615420Y-12214936D02*
X17624944Y-12195888D01*
X17624944Y-12195888D02*
X17624944Y-12157793D01*
X17624944Y-12157793D02*
X17615420Y-12138746D01*
X17615420Y-12138746D02*
X17605896Y-12129222D01*
X17605896Y-12129222D02*
X17586849Y-12119698D01*
X17701134Y-12033984D02*
X17701134Y-12072079D01*
X17777325Y-12033984D02*
X17777325Y-12072079D01*
X18072563Y-12310174D02*
X18063039Y-12300650D01*
X18063039Y-12300650D02*
X18043991Y-12272079D01*
X18043991Y-12272079D02*
X18034468Y-12253031D01*
X18034468Y-12253031D02*
X18024944Y-12224460D01*
X18024944Y-12224460D02*
X18015420Y-12176841D01*
X18015420Y-12176841D02*
X18015420Y-12138746D01*
X18015420Y-12138746D02*
X18024944Y-12091127D01*
X18024944Y-12091127D02*
X18034468Y-12062555D01*
X18034468Y-12062555D02*
X18043991Y-12043508D01*
X18043991Y-12043508D02*
X18063039Y-12014936D01*
X18063039Y-12014936D02*
X18072563Y-12005412D01*
X18243991Y-12033984D02*
X18148753Y-12033984D01*
X18148753Y-12033984D02*
X18139230Y-12129222D01*
X18139230Y-12129222D02*
X18148753Y-12119698D01*
X18148753Y-12119698D02*
X18167801Y-12110174D01*
X18167801Y-12110174D02*
X18215420Y-12110174D01*
X18215420Y-12110174D02*
X18234468Y-12119698D01*
X18234468Y-12119698D02*
X18243991Y-12129222D01*
X18243991Y-12129222D02*
X18253515Y-12148269D01*
X18253515Y-12148269D02*
X18253515Y-12195888D01*
X18253515Y-12195888D02*
X18243991Y-12214936D01*
X18243991Y-12214936D02*
X18234468Y-12224460D01*
X18234468Y-12224460D02*
X18215420Y-12233984D01*
X18215420Y-12233984D02*
X18167801Y-12233984D01*
X18167801Y-12233984D02*
X18148753Y-12224460D01*
X18148753Y-12224460D02*
X18139230Y-12214936D01*
X18491611Y-12233984D02*
X18491611Y-12033984D01*
X18577325Y-12233984D02*
X18577325Y-12129222D01*
X18577325Y-12129222D02*
X18567801Y-12110174D01*
X18567801Y-12110174D02*
X18548753Y-12100650D01*
X18548753Y-12100650D02*
X18520182Y-12100650D01*
X18520182Y-12100650D02*
X18501134Y-12110174D01*
X18501134Y-12110174D02*
X18491611Y-12119698D01*
X18701134Y-12233984D02*
X18682087Y-12224460D01*
X18682087Y-12224460D02*
X18672563Y-12214936D01*
X18672563Y-12214936D02*
X18663039Y-12195888D01*
X18663039Y-12195888D02*
X18663039Y-12138746D01*
X18663039Y-12138746D02*
X18672563Y-12119698D01*
X18672563Y-12119698D02*
X18682087Y-12110174D01*
X18682087Y-12110174D02*
X18701134Y-12100650D01*
X18701134Y-12100650D02*
X18729706Y-12100650D01*
X18729706Y-12100650D02*
X18748753Y-12110174D01*
X18748753Y-12110174D02*
X18758277Y-12119698D01*
X18758277Y-12119698D02*
X18767801Y-12138746D01*
X18767801Y-12138746D02*
X18767801Y-12195888D01*
X18767801Y-12195888D02*
X18758277Y-12214936D01*
X18758277Y-12214936D02*
X18748753Y-12224460D01*
X18748753Y-12224460D02*
X18729706Y-12233984D01*
X18729706Y-12233984D02*
X18701134Y-12233984D01*
X18882087Y-12233984D02*
X18863039Y-12224460D01*
X18863039Y-12224460D02*
X18853515Y-12205412D01*
X18853515Y-12205412D02*
X18853515Y-12033984D01*
X19034468Y-12224460D02*
X19015420Y-12233984D01*
X19015420Y-12233984D02*
X18977325Y-12233984D01*
X18977325Y-12233984D02*
X18958277Y-12224460D01*
X18958277Y-12224460D02*
X18948753Y-12205412D01*
X18948753Y-12205412D02*
X18948753Y-12129222D01*
X18948753Y-12129222D02*
X18958277Y-12110174D01*
X18958277Y-12110174D02*
X18977325Y-12100650D01*
X18977325Y-12100650D02*
X19015420Y-12100650D01*
X19015420Y-12100650D02*
X19034468Y-12110174D01*
X19034468Y-12110174D02*
X19043992Y-12129222D01*
X19043992Y-12129222D02*
X19043992Y-12148269D01*
X19043992Y-12148269D02*
X18948753Y-12167317D01*
X19120182Y-12224460D02*
X19139230Y-12233984D01*
X19139230Y-12233984D02*
X19177325Y-12233984D01*
X19177325Y-12233984D02*
X19196373Y-12224460D01*
X19196373Y-12224460D02*
X19205896Y-12205412D01*
X19205896Y-12205412D02*
X19205896Y-12195888D01*
X19205896Y-12195888D02*
X19196373Y-12176841D01*
X19196373Y-12176841D02*
X19177325Y-12167317D01*
X19177325Y-12167317D02*
X19148753Y-12167317D01*
X19148753Y-12167317D02*
X19129706Y-12157793D01*
X19129706Y-12157793D02*
X19120182Y-12138746D01*
X19120182Y-12138746D02*
X19120182Y-12129222D01*
X19120182Y-12129222D02*
X19129706Y-12110174D01*
X19129706Y-12110174D02*
X19148753Y-12100650D01*
X19148753Y-12100650D02*
X19177325Y-12100650D01*
X19177325Y-12100650D02*
X19196373Y-12110174D01*
X19272563Y-12310174D02*
X19282087Y-12300650D01*
X19282087Y-12300650D02*
X19301134Y-12272079D01*
X19301134Y-12272079D02*
X19310658Y-12253031D01*
X19310658Y-12253031D02*
X19320182Y-12224460D01*
X19320182Y-12224460D02*
X19329706Y-12176841D01*
X19329706Y-12176841D02*
X19329706Y-12138746D01*
X19329706Y-12138746D02*
X19320182Y-12091127D01*
X19320182Y-12091127D02*
X19310658Y-12062555D01*
X19310658Y-12062555D02*
X19301134Y-12043508D01*
X19301134Y-12043508D02*
X19282087Y-12014936D01*
X19282087Y-12014936D02*
X19272563Y-12005412D01*
M02*
