G04 #@! TF.GenerationSoftware,KiCad,Pcbnew,8.0.1*
G04 #@! TF.CreationDate,2024-10-16T00:10:43-06:00*
G04 #@! TF.ProjectId,electrode1,656c6563-7472-46f6-9465-312e6b696361,rev?*
G04 #@! TF.SameCoordinates,Original*
G04 #@! TF.FileFunction,Copper,L2,Bot*
G04 #@! TF.FilePolarity,Positive*
%FSLAX46Y46*%
G04 Gerber Fmt 4.6, Leading zero omitted, Abs format (unit mm)*
G04 Created by KiCad (PCBNEW 8.0.1) date 2024-10-16 00:10:43*
%MOMM*%
%LPD*%
G01*
G04 APERTURE LIST*
G04 #@! TA.AperFunction,ViaPad*
%ADD10C,0.600000*%
G04 #@! TD*
G04 #@! TA.AperFunction,Conductor*
%ADD11C,0.100000*%
G04 #@! TD*
G04 #@! TA.AperFunction,Conductor*
%ADD12C,0.200000*%
G04 #@! TD*
G04 APERTURE END LIST*
D10*
X155200000Y-99850000D03*
X155700000Y-89700000D03*
X159200000Y-89700000D03*
X160000000Y-99800000D03*
X157500000Y-95000000D03*
D11*
X157500000Y-95000000D02*
X161100000Y-95000000D01*
X157500000Y-95000000D02*
X154700000Y-95000000D01*
D12*
X153350000Y-87350000D02*
X153350000Y-85750000D01*
X155700000Y-89700000D02*
X153350000Y-87350000D01*
X153200000Y-101750000D02*
X153200000Y-102000000D01*
X155200000Y-99750000D02*
X153200000Y-101750000D01*
X160300000Y-88600000D02*
X160300000Y-88400000D01*
X159200000Y-89700000D02*
X160300000Y-88600000D01*
X161700000Y-101500000D02*
X162450000Y-101500000D01*
X160000000Y-99800000D02*
X161700000Y-101500000D01*
G04 #@! TA.AperFunction,Conductor*
G36*
X165002702Y-98000117D02*
G01*
X165430392Y-98018791D01*
X165441129Y-98019731D01*
X165862874Y-98075254D01*
X165873512Y-98077129D01*
X166288818Y-98169201D01*
X166299258Y-98171999D01*
X166704945Y-98299911D01*
X166715092Y-98303604D01*
X167108098Y-98466393D01*
X167117890Y-98470959D01*
X167495215Y-98667382D01*
X167504555Y-98672775D01*
X167840787Y-98886978D01*
X167863311Y-98901328D01*
X167872172Y-98907532D01*
X168209645Y-99166484D01*
X168217932Y-99173438D01*
X168531542Y-99460808D01*
X168539191Y-99468457D01*
X168826561Y-99782067D01*
X168833515Y-99790354D01*
X169092467Y-100127827D01*
X169098671Y-100136688D01*
X169327216Y-100495430D01*
X169332625Y-100504798D01*
X169485489Y-100798447D01*
X169499500Y-100855704D01*
X169499500Y-109997293D01*
X169499382Y-110002702D01*
X169482614Y-110386750D01*
X169481671Y-110397526D01*
X169431849Y-110775957D01*
X169429971Y-110786610D01*
X169347354Y-111159272D01*
X169344554Y-111169721D01*
X169229775Y-111533755D01*
X169226075Y-111543921D01*
X169080002Y-111896572D01*
X169075430Y-111906376D01*
X168899183Y-112244942D01*
X168893775Y-112254310D01*
X168688681Y-112576244D01*
X168682476Y-112585105D01*
X168450110Y-112887930D01*
X168443156Y-112896217D01*
X168185284Y-113177635D01*
X168177635Y-113185284D01*
X167896217Y-113443156D01*
X167887930Y-113450110D01*
X167585105Y-113682476D01*
X167576244Y-113688681D01*
X167254310Y-113893775D01*
X167244942Y-113899183D01*
X166906376Y-114075430D01*
X166896572Y-114080002D01*
X166543921Y-114226075D01*
X166533755Y-114229775D01*
X166169721Y-114344554D01*
X166159272Y-114347354D01*
X165786610Y-114429971D01*
X165775957Y-114431849D01*
X165397526Y-114481671D01*
X165386750Y-114482614D01*
X165002703Y-114499382D01*
X164997294Y-114499500D01*
X159738088Y-114499500D01*
X159671049Y-114479815D01*
X159670614Y-114479535D01*
X159448199Y-114335096D01*
X159437700Y-114327468D01*
X159163089Y-114105093D01*
X159153444Y-114096408D01*
X158903591Y-113846555D01*
X158894906Y-113836910D01*
X158672528Y-113562295D01*
X158664906Y-113551804D01*
X158472439Y-113255433D01*
X158465969Y-113244227D01*
X158305535Y-112929357D01*
X158300266Y-112917521D01*
X158173629Y-112587622D01*
X158169620Y-112575283D01*
X158149129Y-112498811D01*
X158078161Y-112233956D01*
X158075465Y-112221266D01*
X158020190Y-111872271D01*
X158018833Y-111859362D01*
X158000170Y-111503242D01*
X158000000Y-111496753D01*
X158000000Y-103002706D01*
X158000118Y-102997297D01*
X158018791Y-102569605D01*
X158019731Y-102558872D01*
X158075255Y-102137121D01*
X158077128Y-102126491D01*
X158169202Y-101711175D01*
X158172000Y-101700737D01*
X158299913Y-101295046D01*
X158303601Y-101284914D01*
X158466396Y-100891892D01*
X158470954Y-100882118D01*
X158667387Y-100504774D01*
X158672769Y-100495453D01*
X158901334Y-100136678D01*
X158907525Y-100127835D01*
X159166491Y-99790345D01*
X159173429Y-99782076D01*
X159460819Y-99468445D01*
X159468445Y-99460819D01*
X159782076Y-99173429D01*
X159790345Y-99166491D01*
X160127835Y-98907525D01*
X160136678Y-98901334D01*
X160495453Y-98672769D01*
X160504774Y-98667387D01*
X160882118Y-98470954D01*
X160891892Y-98466396D01*
X161284914Y-98303601D01*
X161295046Y-98299913D01*
X161700746Y-98171997D01*
X161711175Y-98169202D01*
X162126491Y-98077128D01*
X162137121Y-98075255D01*
X162558872Y-98019731D01*
X162569605Y-98018791D01*
X162997297Y-98000117D01*
X163002706Y-98000000D01*
X164997294Y-98000000D01*
X165002702Y-98000117D01*
G37*
G04 #@! TD.AperFunction*
G04 #@! TA.AperFunction,Conductor*
G36*
X152002702Y-98000117D02*
G01*
X152430392Y-98018791D01*
X152441129Y-98019731D01*
X152862874Y-98075254D01*
X152873512Y-98077129D01*
X153288818Y-98169201D01*
X153299258Y-98171999D01*
X153704945Y-98299911D01*
X153715092Y-98303604D01*
X154108098Y-98466393D01*
X154117890Y-98470959D01*
X154495215Y-98667382D01*
X154504555Y-98672775D01*
X154840787Y-98886978D01*
X154863311Y-98901328D01*
X154872172Y-98907532D01*
X155209645Y-99166484D01*
X155217932Y-99173438D01*
X155531542Y-99460808D01*
X155539191Y-99468457D01*
X155826561Y-99782067D01*
X155833515Y-99790354D01*
X156092467Y-100127827D01*
X156098671Y-100136688D01*
X156327216Y-100495430D01*
X156332625Y-100504798D01*
X156529037Y-100882103D01*
X156533609Y-100891907D01*
X156696391Y-101284897D01*
X156700091Y-101295063D01*
X156827999Y-101700737D01*
X156830799Y-101711185D01*
X156922868Y-102126479D01*
X156924746Y-102137133D01*
X156980266Y-102558851D01*
X156981209Y-102569627D01*
X156999882Y-102997297D01*
X157000000Y-103002706D01*
X157000000Y-111496753D01*
X156999830Y-111503243D01*
X156981166Y-111859363D01*
X156979809Y-111872271D01*
X156924534Y-112221266D01*
X156921836Y-112233962D01*
X156830379Y-112575283D01*
X156826368Y-112587627D01*
X156699738Y-112917510D01*
X156694459Y-112929367D01*
X156534037Y-113244214D01*
X156527551Y-113255447D01*
X156449041Y-113376343D01*
X156335100Y-113551795D01*
X156327471Y-113562295D01*
X156105093Y-113836910D01*
X156096408Y-113846555D01*
X155846555Y-114096408D01*
X155836910Y-114105093D01*
X155562299Y-114327468D01*
X155551799Y-114335097D01*
X155407670Y-114428696D01*
X155329447Y-114479495D01*
X155262503Y-114499499D01*
X155261912Y-114499500D01*
X150002706Y-114499500D01*
X149997297Y-114499382D01*
X149613249Y-114482614D01*
X149602473Y-114481671D01*
X149224042Y-114431849D01*
X149213389Y-114429971D01*
X148840727Y-114347354D01*
X148830278Y-114344554D01*
X148466244Y-114229775D01*
X148456078Y-114226075D01*
X148103427Y-114080002D01*
X148093623Y-114075430D01*
X147755057Y-113899183D01*
X147745689Y-113893775D01*
X147423755Y-113688681D01*
X147414894Y-113682476D01*
X147112069Y-113450110D01*
X147103782Y-113443156D01*
X146822364Y-113185284D01*
X146814715Y-113177635D01*
X146556843Y-112896217D01*
X146549889Y-112887930D01*
X146317523Y-112585105D01*
X146311318Y-112576244D01*
X146106224Y-112254310D01*
X146100816Y-112244942D01*
X145924569Y-111906376D01*
X145919997Y-111896572D01*
X145773920Y-111543911D01*
X145770224Y-111533755D01*
X145760604Y-111503243D01*
X145655442Y-111169710D01*
X145652648Y-111159284D01*
X145570025Y-110786597D01*
X145568152Y-110775971D01*
X145518326Y-110397506D01*
X145517386Y-110386771D01*
X145500618Y-110002702D01*
X145500500Y-109997293D01*
X145500500Y-100855704D01*
X145514511Y-100798447D01*
X145667387Y-100504774D01*
X145672769Y-100495453D01*
X145901334Y-100136678D01*
X145907525Y-100127835D01*
X146166491Y-99790345D01*
X146173429Y-99782076D01*
X146460819Y-99468445D01*
X146468445Y-99460819D01*
X146782076Y-99173429D01*
X146790345Y-99166491D01*
X147127835Y-98907525D01*
X147136678Y-98901334D01*
X147495453Y-98672769D01*
X147504774Y-98667387D01*
X147882118Y-98470954D01*
X147891892Y-98466396D01*
X148284914Y-98303601D01*
X148295046Y-98299913D01*
X148700746Y-98171997D01*
X148711175Y-98169202D01*
X149126491Y-98077128D01*
X149137121Y-98075255D01*
X149558872Y-98019731D01*
X149569605Y-98018791D01*
X149997297Y-98000117D01*
X150002706Y-98000000D01*
X151997294Y-98000000D01*
X152002702Y-98000117D01*
G37*
G04 #@! TD.AperFunction*
G04 #@! TA.AperFunction,Conductor*
G36*
X155004418Y-93000316D02*
G01*
X155275790Y-93019724D01*
X155293291Y-93022241D01*
X155554803Y-93079129D01*
X155571762Y-93084108D01*
X155822524Y-93177638D01*
X155838616Y-93184987D01*
X156073501Y-93313244D01*
X156088375Y-93322802D01*
X156302624Y-93483188D01*
X156315994Y-93494774D01*
X156505225Y-93684005D01*
X156516811Y-93697375D01*
X156677193Y-93911619D01*
X156686758Y-93926503D01*
X156815011Y-94161382D01*
X156822361Y-94177475D01*
X156915888Y-94428229D01*
X156920872Y-94445205D01*
X156977757Y-94706702D01*
X156980275Y-94724214D01*
X156999367Y-94991154D01*
X156999367Y-95008846D01*
X156980275Y-95275785D01*
X156977757Y-95293297D01*
X156920872Y-95554794D01*
X156915888Y-95571770D01*
X156822361Y-95822524D01*
X156815011Y-95838617D01*
X156686758Y-96073496D01*
X156677193Y-96088380D01*
X156516811Y-96302624D01*
X156505225Y-96315994D01*
X156315994Y-96505225D01*
X156302624Y-96516811D01*
X156088380Y-96677193D01*
X156073496Y-96686758D01*
X155838617Y-96815011D01*
X155822524Y-96822361D01*
X155571770Y-96915888D01*
X155554794Y-96920872D01*
X155293297Y-96977757D01*
X155275785Y-96980275D01*
X155004418Y-96999684D01*
X154995572Y-97000000D01*
X147004428Y-97000000D01*
X146995582Y-96999684D01*
X146724214Y-96980275D01*
X146706702Y-96977757D01*
X146445205Y-96920872D01*
X146428229Y-96915888D01*
X146177475Y-96822361D01*
X146161382Y-96815011D01*
X145926503Y-96686758D01*
X145911619Y-96677193D01*
X145697375Y-96516811D01*
X145684005Y-96505225D01*
X145536819Y-96358039D01*
X145503334Y-96296716D01*
X145500500Y-96270358D01*
X145500500Y-93729642D01*
X145520185Y-93662603D01*
X145536813Y-93641966D01*
X145684018Y-93494761D01*
X145697366Y-93483195D01*
X145911630Y-93322798D01*
X145926491Y-93313248D01*
X146161388Y-93184985D01*
X146177470Y-93177640D01*
X146428241Y-93084107D01*
X146445192Y-93079130D01*
X146706710Y-93022240D01*
X146724207Y-93019724D01*
X146995582Y-93000316D01*
X147004428Y-93000000D01*
X154995572Y-93000000D01*
X155004418Y-93000316D01*
G37*
G04 #@! TD.AperFunction*
G04 #@! TA.AperFunction,Conductor*
G36*
X165002702Y-75500617D02*
G01*
X165386771Y-75517386D01*
X165397506Y-75518326D01*
X165775971Y-75568152D01*
X165786597Y-75570025D01*
X166159284Y-75652648D01*
X166169710Y-75655442D01*
X166533765Y-75770227D01*
X166543911Y-75773920D01*
X166896578Y-75920000D01*
X166906369Y-75924566D01*
X167244942Y-76100816D01*
X167254310Y-76106224D01*
X167576244Y-76311318D01*
X167585105Y-76317523D01*
X167887930Y-76549889D01*
X167896217Y-76556843D01*
X168177635Y-76814715D01*
X168185284Y-76822364D01*
X168443156Y-77103782D01*
X168450110Y-77112069D01*
X168682476Y-77414894D01*
X168688681Y-77423755D01*
X168893775Y-77745689D01*
X168899183Y-77755057D01*
X169075430Y-78093623D01*
X169080002Y-78103427D01*
X169226075Y-78456078D01*
X169229775Y-78466244D01*
X169344554Y-78830278D01*
X169347354Y-78840727D01*
X169429971Y-79213389D01*
X169431849Y-79224042D01*
X169481671Y-79602473D01*
X169482614Y-79613249D01*
X169499382Y-79997297D01*
X169499500Y-80002706D01*
X169499500Y-89144294D01*
X169485489Y-89201551D01*
X169332625Y-89495201D01*
X169327216Y-89504569D01*
X169098671Y-89863311D01*
X169092467Y-89872172D01*
X168833515Y-90209645D01*
X168826561Y-90217932D01*
X168539191Y-90531542D01*
X168531542Y-90539191D01*
X168217932Y-90826561D01*
X168209645Y-90833515D01*
X167872172Y-91092467D01*
X167863311Y-91098671D01*
X167504569Y-91327216D01*
X167495201Y-91332625D01*
X167117896Y-91529037D01*
X167108092Y-91533609D01*
X166715102Y-91696391D01*
X166704936Y-91700091D01*
X166299262Y-91827999D01*
X166288814Y-91830799D01*
X165873520Y-91922868D01*
X165862866Y-91924746D01*
X165441148Y-91980266D01*
X165430372Y-91981209D01*
X165002703Y-91999882D01*
X164997294Y-92000000D01*
X163002706Y-92000000D01*
X162997297Y-91999882D01*
X162569627Y-91981209D01*
X162558851Y-91980266D01*
X162137133Y-91924746D01*
X162126479Y-91922868D01*
X161711185Y-91830799D01*
X161700737Y-91827999D01*
X161295063Y-91700091D01*
X161284897Y-91696391D01*
X160891907Y-91533609D01*
X160882103Y-91529037D01*
X160758666Y-91464780D01*
X160504792Y-91332621D01*
X160495436Y-91327220D01*
X160316059Y-91212943D01*
X160136688Y-91098671D01*
X160127827Y-91092467D01*
X159790354Y-90833515D01*
X159782067Y-90826561D01*
X159468457Y-90539191D01*
X159460808Y-90531542D01*
X159173438Y-90217932D01*
X159166484Y-90209645D01*
X158907532Y-89872172D01*
X158901328Y-89863311D01*
X158886978Y-89840787D01*
X158672775Y-89504555D01*
X158667382Y-89495215D01*
X158470959Y-89117890D01*
X158466390Y-89108092D01*
X158303608Y-88715102D01*
X158299908Y-88704936D01*
X158172000Y-88299262D01*
X158169200Y-88288814D01*
X158077131Y-87873520D01*
X158075253Y-87862866D01*
X158019731Y-87441129D01*
X158018791Y-87430392D01*
X158000118Y-87002702D01*
X158000000Y-86997293D01*
X158000000Y-78503246D01*
X158000170Y-78496757D01*
X158018833Y-78140637D01*
X158020190Y-78127728D01*
X158058173Y-77887914D01*
X158075467Y-77778723D01*
X158078160Y-77766047D01*
X158169623Y-77424705D01*
X158173627Y-77412383D01*
X158300268Y-77082471D01*
X158305532Y-77070649D01*
X158465973Y-76755764D01*
X158472434Y-76744574D01*
X158664912Y-76448185D01*
X158672521Y-76437713D01*
X158894914Y-76163079D01*
X158903581Y-76153454D01*
X159153454Y-75903581D01*
X159163079Y-75894914D01*
X159437712Y-75672522D01*
X159448196Y-75664905D01*
X159670553Y-75520505D01*
X159737498Y-75500501D01*
X159738088Y-75500500D01*
X164934108Y-75500500D01*
X164997294Y-75500500D01*
X165002702Y-75500617D01*
G37*
G04 #@! TD.AperFunction*
G04 #@! TA.AperFunction,Conductor*
G36*
X155328951Y-75520185D02*
G01*
X155329447Y-75520505D01*
X155551798Y-75664902D01*
X155562299Y-75672531D01*
X155836910Y-75894906D01*
X155846555Y-75903591D01*
X156096408Y-76153444D01*
X156105093Y-76163089D01*
X156327471Y-76437704D01*
X156335096Y-76448198D01*
X156527556Y-76744560D01*
X156534033Y-76755779D01*
X156636887Y-76957641D01*
X156694459Y-77070632D01*
X156699738Y-77082489D01*
X156826368Y-77412372D01*
X156830379Y-77424716D01*
X156921836Y-77766037D01*
X156924534Y-77778733D01*
X156979809Y-78127728D01*
X156981166Y-78140636D01*
X156999830Y-78496756D01*
X157000000Y-78503246D01*
X157000000Y-86997293D01*
X156999882Y-87002702D01*
X156981209Y-87430372D01*
X156980266Y-87441148D01*
X156924746Y-87862866D01*
X156922868Y-87873520D01*
X156830799Y-88288814D01*
X156827999Y-88299262D01*
X156700091Y-88704936D01*
X156696391Y-88715102D01*
X156533609Y-89108092D01*
X156529037Y-89117896D01*
X156332625Y-89495201D01*
X156327216Y-89504569D01*
X156098671Y-89863311D01*
X156092467Y-89872172D01*
X155833515Y-90209645D01*
X155826561Y-90217932D01*
X155539191Y-90531542D01*
X155531542Y-90539191D01*
X155217932Y-90826561D01*
X155209645Y-90833515D01*
X154872172Y-91092467D01*
X154863311Y-91098671D01*
X154504569Y-91327216D01*
X154495201Y-91332625D01*
X154117896Y-91529037D01*
X154108092Y-91533609D01*
X153715102Y-91696391D01*
X153704936Y-91700091D01*
X153299262Y-91827999D01*
X153288814Y-91830799D01*
X152873520Y-91922868D01*
X152862866Y-91924746D01*
X152441148Y-91980266D01*
X152430372Y-91981209D01*
X152002703Y-91999882D01*
X151997294Y-92000000D01*
X150002706Y-92000000D01*
X149997297Y-91999882D01*
X149569627Y-91981209D01*
X149558851Y-91980266D01*
X149137133Y-91924746D01*
X149126479Y-91922868D01*
X148711185Y-91830799D01*
X148700737Y-91827999D01*
X148295063Y-91700091D01*
X148284897Y-91696391D01*
X147891907Y-91533609D01*
X147882103Y-91529037D01*
X147758666Y-91464780D01*
X147504792Y-91332621D01*
X147495436Y-91327220D01*
X147316059Y-91212943D01*
X147136688Y-91098671D01*
X147127827Y-91092467D01*
X146790354Y-90833515D01*
X146782067Y-90826561D01*
X146468457Y-90539191D01*
X146460808Y-90531542D01*
X146173438Y-90217932D01*
X146166484Y-90209645D01*
X145907532Y-89872172D01*
X145901328Y-89863311D01*
X145886978Y-89840787D01*
X145672775Y-89504555D01*
X145667385Y-89495222D01*
X145514510Y-89201550D01*
X145500500Y-89144294D01*
X145500500Y-80002706D01*
X145500618Y-79997297D01*
X145503377Y-79934108D01*
X145517386Y-79613226D01*
X145518326Y-79602495D01*
X145568152Y-79224025D01*
X145570025Y-79213405D01*
X145652649Y-78840709D01*
X145655440Y-78830295D01*
X145770230Y-78466227D01*
X145773917Y-78456095D01*
X145920003Y-78103412D01*
X145924561Y-78093638D01*
X146100822Y-77755045D01*
X146106217Y-77745700D01*
X146311325Y-77423744D01*
X146317515Y-77414905D01*
X146549896Y-77112060D01*
X146556834Y-77103791D01*
X146814726Y-76822352D01*
X146822352Y-76814726D01*
X147103791Y-76556834D01*
X147112060Y-76549896D01*
X147414905Y-76317515D01*
X147423744Y-76311325D01*
X147745700Y-76106217D01*
X147755045Y-76100822D01*
X148093638Y-75924561D01*
X148103412Y-75920003D01*
X148456095Y-75773917D01*
X148466227Y-75770230D01*
X148830295Y-75655440D01*
X148840709Y-75652649D01*
X149213405Y-75570025D01*
X149224025Y-75568152D01*
X149602495Y-75518326D01*
X149613226Y-75517386D01*
X149997297Y-75500617D01*
X150002706Y-75500500D01*
X155261912Y-75500500D01*
X155328951Y-75520185D01*
G37*
G04 #@! TD.AperFunction*
G04 #@! TA.AperFunction,Conductor*
G36*
X168004418Y-93000316D02*
G01*
X168275790Y-93019724D01*
X168293291Y-93022241D01*
X168554803Y-93079129D01*
X168571762Y-93084108D01*
X168822524Y-93177638D01*
X168838616Y-93184987D01*
X169073501Y-93313244D01*
X169088375Y-93322802D01*
X169302624Y-93483188D01*
X169315994Y-93494774D01*
X169463181Y-93641961D01*
X169496666Y-93703284D01*
X169499500Y-93729642D01*
X169499500Y-96270358D01*
X169479815Y-96337397D01*
X169463185Y-96358034D01*
X169315995Y-96505225D01*
X169315994Y-96505226D01*
X169302624Y-96516811D01*
X169088380Y-96677193D01*
X169073496Y-96686758D01*
X168838617Y-96815011D01*
X168822524Y-96822361D01*
X168571770Y-96915888D01*
X168554794Y-96920872D01*
X168293297Y-96977757D01*
X168275785Y-96980275D01*
X168004418Y-96999684D01*
X167995572Y-97000000D01*
X160004428Y-97000000D01*
X159995582Y-96999684D01*
X159724214Y-96980275D01*
X159706702Y-96977757D01*
X159445205Y-96920872D01*
X159428229Y-96915888D01*
X159177475Y-96822361D01*
X159161382Y-96815011D01*
X158926503Y-96686758D01*
X158911619Y-96677193D01*
X158697375Y-96516811D01*
X158684005Y-96505225D01*
X158494774Y-96315994D01*
X158483188Y-96302624D01*
X158459034Y-96270358D01*
X158322802Y-96088375D01*
X158313244Y-96073501D01*
X158184987Y-95838616D01*
X158177638Y-95822524D01*
X158084108Y-95571762D01*
X158079129Y-95554803D01*
X158022241Y-95293291D01*
X158019724Y-95275785D01*
X158000632Y-95008836D01*
X158000632Y-94991163D01*
X158019724Y-94724207D01*
X158022240Y-94706710D01*
X158079130Y-94445192D01*
X158084107Y-94428241D01*
X158177640Y-94177470D01*
X158184985Y-94161388D01*
X158313248Y-93926491D01*
X158322798Y-93911630D01*
X158483195Y-93697366D01*
X158494767Y-93684012D01*
X158684012Y-93494767D01*
X158697366Y-93483195D01*
X158911630Y-93322798D01*
X158926491Y-93313248D01*
X159161388Y-93184985D01*
X159177470Y-93177640D01*
X159428241Y-93084107D01*
X159445192Y-93079130D01*
X159706710Y-93022240D01*
X159724207Y-93019724D01*
X159995582Y-93000316D01*
X160004428Y-93000000D01*
X167995572Y-93000000D01*
X168004418Y-93000316D01*
G37*
G04 #@! TD.AperFunction*
M02*
