%TF.GenerationSoftware,KiCad,Pcbnew,8.0.1*%
%TF.CreationDate,2024-10-16T00:11:02-06:00*%
%TF.ProjectId,electrode1,656c6563-7472-46f6-9465-312e6b696361,rev?*%
%TF.SameCoordinates,Original*%
%TF.FileFunction,Drillmap*%
%TF.FilePolarity,Positive*%
%FSLAX45Y45*%
G04 Gerber Fmt 4.5, Leading zero omitted, Abs format (unit mm)*
G04 Created by KiCad (PCBNEW 8.0.1) date 2024-10-16 00:11:02*
%MOMM*%
%LPD*%
G01*
G04 APERTURE LIST*
%ADD10C,0.050000*%
%ADD11C,0.200000*%
G04 APERTURE END LIST*
D10*
X14500000Y-8000000D02*
X14500000Y-11000000D01*
X15000000Y-11500000D02*
G75*
G02*
X14500000Y-11000000I0J500000D01*
G01*
X16500000Y-7500000D02*
G75*
G02*
X17000000Y-8000000I0J-500000D01*
G01*
X14500000Y-8000000D02*
G75*
G02*
X15000000Y-7500000I500000J0D01*
G01*
X17000000Y-11000000D02*
X17000000Y-8000000D01*
X16500000Y-7500000D02*
X15000000Y-7500000D01*
X15000000Y-11500000D02*
X16500000Y-11500000D01*
X17000000Y-11000000D02*
G75*
G02*
X16500000Y-11500000I-500000J0D01*
G01*
D11*
X14758277Y-11813984D02*
X14758277Y-11613984D01*
X14758277Y-11613984D02*
X14805896Y-11613984D01*
X14805896Y-11613984D02*
X14834467Y-11623508D01*
X14834467Y-11623508D02*
X14853515Y-11642555D01*
X14853515Y-11642555D02*
X14863039Y-11661603D01*
X14863039Y-11661603D02*
X14872562Y-11699698D01*
X14872562Y-11699698D02*
X14872562Y-11728269D01*
X14872562Y-11728269D02*
X14863039Y-11766365D01*
X14863039Y-11766365D02*
X14853515Y-11785412D01*
X14853515Y-11785412D02*
X14834467Y-11804460D01*
X14834467Y-11804460D02*
X14805896Y-11813984D01*
X14805896Y-11813984D02*
X14758277Y-11813984D01*
X14958277Y-11813984D02*
X14958277Y-11680650D01*
X14958277Y-11718746D02*
X14967801Y-11699698D01*
X14967801Y-11699698D02*
X14977324Y-11690174D01*
X14977324Y-11690174D02*
X14996372Y-11680650D01*
X14996372Y-11680650D02*
X15015420Y-11680650D01*
X15082086Y-11813984D02*
X15082086Y-11680650D01*
X15082086Y-11613984D02*
X15072562Y-11623508D01*
X15072562Y-11623508D02*
X15082086Y-11633031D01*
X15082086Y-11633031D02*
X15091610Y-11623508D01*
X15091610Y-11623508D02*
X15082086Y-11613984D01*
X15082086Y-11613984D02*
X15082086Y-11633031D01*
X15205896Y-11813984D02*
X15186848Y-11804460D01*
X15186848Y-11804460D02*
X15177324Y-11785412D01*
X15177324Y-11785412D02*
X15177324Y-11613984D01*
X15310658Y-11813984D02*
X15291610Y-11804460D01*
X15291610Y-11804460D02*
X15282086Y-11785412D01*
X15282086Y-11785412D02*
X15282086Y-11613984D01*
X15539229Y-11813984D02*
X15539229Y-11613984D01*
X15539229Y-11613984D02*
X15605896Y-11756841D01*
X15605896Y-11756841D02*
X15672562Y-11613984D01*
X15672562Y-11613984D02*
X15672562Y-11813984D01*
X15853515Y-11813984D02*
X15853515Y-11709222D01*
X15853515Y-11709222D02*
X15843991Y-11690174D01*
X15843991Y-11690174D02*
X15824943Y-11680650D01*
X15824943Y-11680650D02*
X15786848Y-11680650D01*
X15786848Y-11680650D02*
X15767801Y-11690174D01*
X15853515Y-11804460D02*
X15834467Y-11813984D01*
X15834467Y-11813984D02*
X15786848Y-11813984D01*
X15786848Y-11813984D02*
X15767801Y-11804460D01*
X15767801Y-11804460D02*
X15758277Y-11785412D01*
X15758277Y-11785412D02*
X15758277Y-11766365D01*
X15758277Y-11766365D02*
X15767801Y-11747317D01*
X15767801Y-11747317D02*
X15786848Y-11737793D01*
X15786848Y-11737793D02*
X15834467Y-11737793D01*
X15834467Y-11737793D02*
X15853515Y-11728269D01*
X15948753Y-11680650D02*
X15948753Y-11880650D01*
X15948753Y-11690174D02*
X15967801Y-11680650D01*
X15967801Y-11680650D02*
X16005896Y-11680650D01*
X16005896Y-11680650D02*
X16024943Y-11690174D01*
X16024943Y-11690174D02*
X16034467Y-11699698D01*
X16034467Y-11699698D02*
X16043991Y-11718746D01*
X16043991Y-11718746D02*
X16043991Y-11775888D01*
X16043991Y-11775888D02*
X16034467Y-11794936D01*
X16034467Y-11794936D02*
X16024943Y-11804460D01*
X16024943Y-11804460D02*
X16005896Y-11813984D01*
X16005896Y-11813984D02*
X15967801Y-11813984D01*
X15967801Y-11813984D02*
X15948753Y-11804460D01*
X16129705Y-11794936D02*
X16139229Y-11804460D01*
X16139229Y-11804460D02*
X16129705Y-11813984D01*
X16129705Y-11813984D02*
X16120182Y-11804460D01*
X16120182Y-11804460D02*
X16129705Y-11794936D01*
X16129705Y-11794936D02*
X16129705Y-11813984D01*
X16129705Y-11690174D02*
X16139229Y-11699698D01*
X16139229Y-11699698D02*
X16129705Y-11709222D01*
X16129705Y-11709222D02*
X16120182Y-11699698D01*
X16120182Y-11699698D02*
X16129705Y-11690174D01*
X16129705Y-11690174D02*
X16129705Y-11709222D01*
M02*
